<svg version="1.1" xmlns="http://www.w3.org/2000/svg" width="512" height="512">
                    <path d="M0 0 C0.61875 -0.01289062 1.2375 -0.02578125 1.875 -0.0390625 C7.05954048 1.5811064 9.9868573 5.19194344 12.421875 9.8203125 C13.21138 11.45711567 13.98672554 13.10080175 14.75 14.75 C15.62708222 16.57249353 16.50603068 18.39408995 17.38671875 20.21484375 C17.8254834 21.12991699 18.26424805 22.04499023 18.71630859 22.98779297 C20.5770688 26.81052627 22.56124412 30.56193581 24.5625 34.3125 C29.24036509 43.12898953 33.81130576 51.99909083 38.375 60.875 C43.73354403 71.29452899 49.11191469 81.70272185 54.54248047 92.08496094 C58.87284679 100.36824251 63.16561584 108.6707728 67.45571899 116.97494507 C72.38695533 126.51910479 77.34134821 136.05094555 82.3203125 145.5703125 C82.77792969 146.44558594 83.23554688 147.32085937 83.70703125 148.22265625 C84.1038208 148.98070557 84.50061035 149.73875488 84.90942383 150.51977539 C85.26931396 151.21449951 85.6292041 151.90922363 86 152.625 C86.37213623 153.30361084 86.74427246 153.98222168 87.12768555 154.68139648 C88.758892 158.31588699 88.45897704 162.12289333 87.3125 165.875 C84.64512391 169.43150145 81.89907279 170.49422578 77.5625 171.125 C73.10375681 170.49921148 70.88274481 168.94073471 68 165.625 C65.44100099 161.52722045 63.28146915 157.25775664 61.125 152.9375 C60.53203125 151.78443359 59.9390625 150.63136719 59.328125 149.44335938 C55 140.94168527 55 140.94168527 55 138.625 C51.14179558 141.77455463 47.69826419 144.86553803 44.5 148.6875 C39.00430512 155.10323308 33.47542336 158.96926093 24.83984375 159.84375 C15.62514612 160.22308575 9.92569429 157.02434478 3.17578125 150.953125 C1.07388245 149.380982 1.07388245 149.380982 -1.453125 149.80126953 C-4.5653952 150.80786459 -5.23361862 151.72245166 -6.92578125 154.4765625 C-7.43061035 155.29286133 -7.93543945 156.10916016 -8.45556641 156.95019531 C-11.13087051 161.58355475 -13.68341225 166.27218429 -16.1875 171 C-20.34736572 178.74785458 -24.52464872 186.48209623 -28.875 194.125 C-29.29031982 194.87056152 -29.70563965 195.61612305 -30.13354492 196.38427734 C-35.40740441 205.56265065 -41.16953917 212.27586175 -51.5 215.375 C-63.47933143 216.57293314 -71.22184387 212.56950328 -80.7097168 205.62329102 C-83.55548901 203.33593072 -83.55548901 203.33593072 -87 202.625 C-89.2800792 206.54451921 -91.50430368 210.48924167 -93.68334961 214.46582031 C-94.43067087 215.81212966 -95.19226953 217.15062099 -95.96850586 218.48046875 C-100.6556394 226.00475199 -100.6556394 226.00475199 -101.5378418 234.46557617 C-100.25049215 237.09952587 -98.76545078 239.28732713 -97 241.625 C-96.0214282 243.22213825 -95.05643771 244.82768031 -94.10546875 246.44140625 C-92.6435668 248.82950648 -91.1738138 251.20891654 -89.66601562 253.56835938 C-86.45665648 258.87362653 -84.77404102 263.38029622 -86 269.625 C-89.5195494 274.79433818 -93.24592459 275.3102881 -99 276.625 C-98.38125 277.65101318 -98.38125 277.65101318 -97.75 278.69775391 C-94.44605 284.18006157 -91.15140498 289.66759139 -87.87109375 295.1640625 C-85.68562974 298.82499206 -83.48468362 302.47186405 -81.22265625 306.0859375 C-74.82403716 316.45153622 -74.82403716 316.45153622 -75.4609375 322.78515625 C-76.32266495 325.7262695 -77.79514056 327.54983817 -80 329.625 C-82.52475462 330.88737731 -84.31200466 330.72356404 -87.125 330.6875 C-88.03507812 330.67847656 -88.94515625 330.66945313 -89.8828125 330.66015625 C-90.58148438 330.64855469 -91.28015625 330.63695312 -92 330.625 C-89.77294194 334.459562 -87.54297103 338.2924224 -85.3125 342.125 C-84.68666016 343.20265625 -84.06082031 344.2803125 -83.41601562 345.390625 C-80.03484133 351.19703949 -76.60071912 356.95197408 -73 362.625 C-69.94543406 358.91934744 -67.2036673 355.06777479 -64.5625 351.0625 C-64.13348389 350.41539062 -63.70446777 349.76828125 -63.26245117 349.1015625 C-58.6261712 342.09144777 -54.05355802 335.03970269 -49.48046875 327.98828125 C-45.87134204 322.42357098 -42.24928262 316.86734761 -38.625 311.3125 C-38.00036865 310.35496826 -37.3757373 309.39743652 -36.73217773 308.41088867 C-34.18299624 304.50327683 -31.63347976 300.59588361 -29.08398438 296.68847656 C-22.54875068 286.67201266 -16.01553857 276.65428973 -9.5 266.625 C-2.97870651 256.5868518 3.56045675 246.56040201 10.1015625 236.53515625 C12.57876639 232.73779637 15.05491881 228.9397529 17.52978516 225.14086914 C18.75626337 223.26090749 19.98509232 221.38247727 21.21630859 219.50561523 C24.29697778 214.80415522 27.34856896 210.08819718 30.3331604 205.32527161 C31.84297268 202.9202386 33.36650893 200.52405179 34.89141846 198.12857056 C35.62256237 196.97203638 36.34729878 195.81142311 37.06512451 194.64657593 C43.39007121 184.39071484 43.39007121 184.39071484 47.76953125 182.35546875 C51.90047301 181.42138639 54.13247281 181.94663914 58 183.625 C61.10894385 186.38277382 63.30019117 189.37965963 65.53125 192.87109375 C66.17707031 193.87333984 66.82289063 194.87558594 67.48828125 195.90820312 C68.48408203 197.46958008 68.48408203 197.46958008 69.5 199.0625 C70.82047571 201.12526253 72.14331668 203.18651324 73.46875 205.24609375 C74.05076172 206.1580249 74.63277344 207.06995605 75.23242188 208.00952148 C77.02869324 210.66745728 78.9632327 213.14806963 81 215.625 C81.38631592 214.89724365 81.77263184 214.1694873 82.1706543 213.41967773 C89.36532684 199.88332572 96.62365167 186.40129134 104.21679688 173.08300781 C108.69817441 165.20623073 113.02440688 157.25126951 117.32543945 149.27490234 C121.77354315 141.02854726 126.28460936 132.82055181 130.87109375 124.65039062 C132.00097427 122.62325205 133.111324 120.58635171 134.21875 118.546875 C134.91640066 117.28110335 135.61430353 116.01547066 136.3125 114.75 C136.90675781 113.65945312 137.50101562 112.56890625 138.11328125 111.4453125 C140.46798878 107.92543913 142.85067584 105.1786138 147.0625 104.09375 C147.701875 104.1040625 148.34125 104.114375 149 104.125 C149.9590625 104.10953125 149.9590625 104.10953125 150.9375 104.09375 C154.99433482 105.1386923 157.52384569 107.91335423 159.79833984 111.31274414 C160.62132568 112.84596313 160.62132568 112.84596313 161.4609375 114.41015625 C162.08935547 115.56644531 162.71777344 116.72273438 163.36523438 117.9140625 C164.03522334 119.17183927 164.70514337 120.42965275 165.375 121.6875 C166.0827904 122.99673993 166.79179478 124.30532423 167.50195312 125.61328125 C168.96207799 128.30397717 170.41758195 130.99709466 171.87011719 133.69189453 C175.02541796 139.53332029 178.2646669 145.32758978 181.5 151.125 C188.6933959 164.05493743 195.8415412 177.00960128 202.98388672 189.96777344 C204.98967465 193.60660835 206.99660642 197.24481142 209.00390625 200.8828125 C209.49860413 201.77939575 209.49860413 201.77939575 210.0032959 202.6940918 C211.00217789 204.50440523 212.00108409 206.31470529 213 208.125 C216.67627472 214.78736328 220.35252122 221.4497406 224.02566528 228.11383057 C230.83153137 240.46146039 237.64752323 252.80314822 244.5 265.125 C251.69130113 278.0561123 258.8415353 291.00959057 265.98388672 303.96777344 C267.98967465 307.60660835 269.99661048 311.24480918 272.00390625 314.8828125 C272.33402206 315.48112381 272.66413788 316.07943512 273.0042572 316.69587708 C274.66339856 319.70286031 276.32270777 322.70975084 277.98217773 325.71655273 C281.05881947 331.29153787 284.13415015 336.86723191 287.2043457 342.44577026 C288.62720337 345.03088909 290.05087911 347.61555698 291.47460938 350.20019531 C292.45782041 351.98589384 293.43987373 353.77222966 294.421875 355.55859375 C295.03546875 356.67234375 295.6490625 357.78609375 296.28125 358.93359375 C296.88171143 360.02470459 297.48217285 361.11581543 298.10083008 362.23999023 C299.44817096 364.64144047 300.81435448 367.0188182 302.2175293 369.38696289 C302.58475098 370.01180069 302.95197266 370.63663849 303.33032227 371.28041077 C304.35791976 373.02316018 305.39581098 374.75982812 306.43432617 376.49609375 C308.30712724 380.23877556 308.84856453 383.29575124 308.76953125 387.44140625 C307.57264013 390.83766075 305.79373566 392.37194496 303 394.625 C299.99483347 395.11624604 297.55943155 395.29862153 294.55880737 395.2542057 C293.28105513 395.26510651 293.28105513 395.26510651 291.97748971 395.27622753 C289.10938549 395.29454482 286.24260725 395.27709102 283.37451172 395.25991821 C281.30310314 395.26567673 279.23169967 395.27361603 277.16030693 395.28355443 C271.45752842 395.3044878 265.75516658 395.29408297 260.05238628 395.27862334 C253.906416 395.26734034 247.76051888 395.28475738 241.61456299 395.29852295 C230.26699768 395.31950452 218.91960281 395.31763958 207.57204169 395.30396561 C197.08965982 395.29139595 186.60732682 395.28810051 176.12493896 395.29407883 C175.08262382 395.29465172 175.08262382 395.29465172 174.01925181 395.29523618 C171.19863701 395.29679283 168.37802224 395.29838482 165.55740749 395.300035 C139.08897778 395.31533567 112.62063301 395.30145374 86.1522164 395.27455051 C62.62812481 395.25082183 39.10416854 395.25294494 15.58007812 395.27685547 C-10.83942428 395.30361911 -37.25885163 395.31425062 -63.67836571 395.29879415 C-66.49389011 395.29719052 -69.30941453 395.29562633 -72.12493896 395.29407883 C-73.16484685 395.29348575 -73.16484685 395.29348575 -74.22576298 395.29288069 C-84.70247014 395.28718937 -95.1791231 395.29385202 -105.65582275 395.30647659 C-117.56636863 395.32075726 -129.47675464 395.31674982 -141.38729429 395.29007287 C-147.46789087 395.27690397 -153.54821233 395.2718348 -159.62880707 395.28831863 C-165.19020009 395.3031673 -170.7510618 395.29511383 -176.3124063 395.26843087 C-178.32915079 395.26282432 -180.34593975 395.26573467 -182.36265588 395.27780981 C-185.09535277 395.2929226 -187.82620813 395.27751815 -190.55880737 395.2542057 C-191.34962448 395.26591153 -192.14044158 395.27761737 -192.95522285 395.28967792 C-196.99683305 395.22033029 -198.79090868 394.79334899 -201.98112679 392.22475851 C-204.71115159 388.70923055 -204.85682503 386.80329277 -204.62304688 382.47119141 C-203.34231742 376.62058639 -199.93494213 371.7990892 -196.75 366.8125 C-196.0196765 365.63327388 -195.29183618 364.45250648 -194.56640625 363.27026367 C-193.46314651 361.47343073 -192.35823882 359.6778605 -191.24475098 357.88734436 C-187.68067364 352.15511343 -184.32179294 346.313139 -181 340.4375 C-180.49049805 339.54119873 -179.98099609 338.64489746 -179.45605469 337.72143555 C-178.30178876 335.69055036 -177.1496886 333.65847859 -176 331.625 C-176.60908203 331.57746582 -177.21816406 331.52993164 -177.84570312 331.48095703 C-178.64943359 331.40731934 -179.45316406 331.33368164 -180.28125 331.2578125 C-181.07595703 331.18965332 -181.87066406 331.12149414 -182.68945312 331.05126953 C-186.71737155 330.30816455 -188.31394517 328.71396305 -191 325.625 C-192.43022115 320.04572147 -191.78427586 317.09770245 -189.0859375 312.078125 C-188.61007706 311.18036346 -188.61007706 311.18036346 -188.12460327 310.26446533 C-187.10783559 308.36969104 -186.06079486 306.4954479 -185 304.625 C-184.65843872 304.02260498 -184.31687744 303.42020996 -183.96496582 302.79956055 C-181.57610967 298.62295362 -179.10909683 294.49543729 -176.625 290.375 C-175.53997772 288.56437811 -174.45636101 286.75292218 -173.37313843 284.94122314 C-172.40813461 283.32889564 -171.43976689 281.71858286 -170.47119141 280.10839844 C-169.60143853 278.64023942 -168.76314624 277.15129249 -168 275.625 C-168.86625 275.7075 -169.7325 275.79 -170.625 275.875 C-174.87014668 275.56054469 -176.76334601 274.34673176 -180 271.625 C-182.58337313 267.46913888 -181.92256974 264.30321547 -181 259.625 C-179.65576172 256.7644043 -179.65576172 256.7644043 -177.9296875 253.94921875 C-177.28773438 252.88654785 -176.64578125 251.82387695 -175.984375 250.72900391 C-175.28128331 249.59014871 -174.57815746 248.4513146 -173.875 247.3125 C-172.78294361 245.51441329 -171.69523482 243.7137435 -170.60772705 241.91290283 C-169.86030722 240.67573633 -169.11155469 239.43937405 -168.36151123 238.20379639 C-164.46724706 231.77984576 -160.73153622 225.2696077 -157 218.75 C-148.57118976 204.10435711 -148.57118976 204.10435711 -145.3125 198.6875 C-144.75175781 197.75035156 -144.19101563 196.81320313 -143.61328125 195.84765625 C-141.41500676 192.81904079 -139.53190499 190.95385259 -135.81640625 190.15625 C-134.70072266 190.14078125 -134.70072266 190.14078125 -133.5625 190.125 C-132.45068359 190.07859375 -132.45068359 190.07859375 -131.31640625 190.03125 C-126.12968596 191.36072974 -123.34419092 196.33929692 -120.71679688 200.68554688 C-120.37712891 201.26369141 -120.03746094 201.84183594 -119.6875 202.4375 C-119.32849609 203.03498047 -118.96949219 203.63246094 -118.59960938 204.24804688 C-117.72655376 205.70313956 -116.86233309 207.16352729 -116 208.625 C-113.92104824 205.9704673 -112.23066273 203.34705379 -110.70678711 200.34155273 C-110.27881332 199.50224716 -109.85083954 198.66294159 -109.40989685 197.79820251 C-108.95365433 196.89413162 -108.4974118 195.99006073 -108.02734375 195.05859375 C-107.5447963 194.11049332 -107.06224884 193.16239288 -106.56507874 192.18556213 C-105.01895381 189.14635438 -103.47796229 186.10458129 -101.9375 183.0625 C-99.9276845 179.10189583 -97.91566364 175.14241757 -95.90234375 171.18359375 C-95.40475555 170.20470184 -94.90716736 169.22580994 -94.39450073 168.21725464 C-90.83677187 161.23190191 -87.21326224 154.28379727 -83.54917908 147.35374451 C-79.83195676 140.32166682 -76.18522181 133.25461476 -72.55371094 126.17797852 C-67.74321561 116.80553754 -62.93149028 107.43451212 -58 98.125 C-53.472854 89.57702053 -49.04896936 80.9766616 -44.625 72.375 C-39.24840115 61.92143697 -33.87055993 51.46901371 -28.40039062 41.06396484 C-25.99537647 36.48302489 -23.62143739 31.88967734 -21.3032074 27.2640686 C-20.05656724 24.77928825 -18.79981755 22.29967907 -17.54257202 19.82025146 C-16.64985049 18.04929765 -15.77160661 16.27106905 -14.89379883 14.49267578 C-7.45214537 -0.15525303 -7.45214537 -0.15525303 0 0 Z M-1 34.625 C-1.58378418 35.76751221 -2.16756836 36.91002441 -2.76904297 38.0871582 C-4.98582861 42.42482386 -7.20413754 46.76170911 -9.42285156 51.09838867 C-10.37344692 52.95690807 -11.32365729 54.81562445 -12.2734375 56.67456055 C-18.01725569 67.91577251 -23.81925071 79.12275814 -29.71337891 90.28588867 C-32.92939905 96.37975659 -36.09118632 102.50130008 -39.25 108.625 C-40.21688146 110.49714593 -41.18405729 112.3691396 -42.15126038 114.24111938 C-42.80606852 115.50847625 -43.46080331 116.77587102 -44.11546326 118.04330444 C-47.42448913 124.44898672 -50.74295647 130.84976271 -54.0625 137.25 C-54.62710938 138.33941895 -55.19171875 139.42883789 -55.7734375 140.55126953 C-58.48623382 145.78452553 -61.20237267 151.01598698 -63.9282074 156.24246216 C-65.22465348 158.72878452 -66.51936825 161.21600646 -67.81393433 163.70330811 C-68.72720546 165.45624798 -69.64298985 167.20787774 -70.55883789 168.95947266 C-71.11176514 170.02214355 -71.66469238 171.08481445 -72.234375 172.1796875 C-72.72131836 173.11280762 -73.20826172 174.04592773 -73.70996094 175.00732422 C-74.94217177 177.50765816 -76.00341726 180.02294247 -77 182.625 C-74.25600644 184.44672175 -71.5038437 186.25570987 -68.75 188.0625 C-67.97269531 188.57876953 -67.19539062 189.09503906 -66.39453125 189.62695312 C-65.64042969 190.12001953 -64.88632813 190.61308594 -64.109375 191.12109375 C-63.07248535 191.80449829 -63.07248535 191.80449829 -62.01464844 192.50170898 C-59.95682389 193.64907335 -58.33763453 194.32875251 -56 194.625 C-50.19034079 190.44165348 -47.37398216 183.47415903 -44.0625 177.3125 C-43.07106398 175.49884244 -42.07534033 173.68758336 -41.07933044 171.87643433 C-40.05771361 170.01863977 -39.03855475 168.15951101 -38.01953125 166.30029297 C-34.90915606 160.63435315 -31.76123626 154.99157483 -28.5625 149.375 C-28.02052979 148.39490967 -27.47855957 147.41481934 -26.92016602 146.4050293 C-22.46883856 138.64553004 -16.95598443 131.82218263 -8.125 129.0625 C-0.09794879 127.40987181 6.84908254 128.6402295 14 132.625 C15.90751017 134.17995479 17.64524675 135.75992778 19.33203125 137.55078125 C21.00716262 138.87333487 21.00716262 138.87333487 23.38891602 138.39453125 C26.33235107 137.52705044 27.4072091 136.63749117 29.4453125 134.38671875 C30.34830078 133.40348633 30.34830078 133.40348633 31.26953125 132.40039062 C31.88183594 131.71138672 32.49414062 131.02238281 33.125 130.3125 C33.74503906 129.63509766 34.36507812 128.95769531 35.00390625 128.25976562 C36.69443049 126.40018896 38.37022997 124.53806286 40 122.625 C40.58120605 121.99311768 41.16241211 121.36123535 41.76123047 120.71020508 C43.2104803 118.7003655 43.2104803 118.7003655 42.91333008 116.33349609 C41.72462598 112.8083736 40.11274536 109.57278336 38.38671875 106.2890625 C37.83828812 105.22776123 37.83828812 105.22776123 37.27877808 104.14501953 C36.0876208 101.84354551 34.88769015 99.54677447 33.6875 97.25 C32.86072053 95.65701128 32.03447041 94.06374772 31.20874023 92.47021484 C29.1772584 88.55334603 27.13873252 84.64020064 25.09729004 80.72851562 C23.56953882 77.79980175 22.04656154 74.86862292 20.5234375 71.9375 C17.69206772 66.49486212 14.84781546 61.05904648 12 55.625 C10.94133831 53.60290015 9.88274617 51.58076389 8.82421875 49.55859375 C6.21762102 44.57995544 3.60947518 39.6021307 1 34.625 C0.34 34.625 -0.32 34.625 -1 34.625 Z M148 137.625 C147.64397705 138.29217041 147.2879541 138.95934082 146.92114258 139.64672852 C140.03357879 152.53736645 133.06752801 165.36487774 125.83398438 178.06542969 C121.34154571 185.97223091 116.99863987 193.95453339 112.68359375 201.95922852 C109.30565422 208.22317964 105.89689853 214.46814418 102.4375 220.6875 C102.04409424 221.39495361 101.65068848 222.10240723 101.24536133 222.83129883 C100.87435303 223.49669678 100.50334473 224.16209473 100.12109375 224.84765625 C99.59684814 225.79535889 99.59684814 225.79535889 99.06201172 226.76220703 C98.33648353 228.03480015 97.58122282 229.29077895 96.80126953 230.53076172 C94.6285652 233.76485843 94.6285652 233.76485843 94.19116211 237.49291992 C95.23649477 240.24839536 96.67718468 242.51847383 98.28125 244.9921875 C98.95478516 246.03705322 99.62832031 247.08191895 100.32226562 248.15844727 C101.04091797 249.26115967 101.75957031 250.36387207 102.5 251.5 C103.23164531 252.63108928 103.96276427 253.7625192 104.69335938 254.89428711 C106.13263225 257.12228104 107.57518757 259.34803055 109.01953125 261.57275391 C111.52618301 265.43593934 114.01413104 269.3109278 116.5 273.1875 C117.66638369 275.00018211 118.83291181 276.81277139 120 278.625 C123.25207092 277.20761511 125.31361067 275.49973588 127.75 272.9375 C131.65356965 268.93216131 135.7406424 265.24545396 140 261.625 C141.2065625 260.5421875 141.2065625 260.5421875 142.4375 259.4375 C150.29308583 253.88111002 157.42178943 252.55421725 167 253.625 C175.76167499 255.20429878 182.10806233 261.48285558 188.69921875 267.0390625 C193.67716951 271.23090094 198.84375065 275.15663764 204.04272461 279.06860352 C207.11701445 281.38943654 210.15316889 283.70967683 213.046875 286.25390625 C217.80284586 290.5431984 217.80284586 290.5431984 223.875 291.9375 C227.48876452 290.4197189 228.69347387 288.71534562 231 285.625 C226.11713953 275.46097926 220.79512979 265.61237287 215.20239258 255.82202148 C211.02053962 248.48213824 206.98142421 241.07529472 203 233.625 C198.06554515 224.39873602 193.00299606 215.25904272 187.82421875 206.16796875 C183.39920411 198.38123183 179.13171318 190.51576972 174.88793945 182.62915039 C170.52413353 174.54096512 166.02326676 166.53605545 161.48168945 158.54663086 C157.55123164 151.62564694 153.71534857 144.66389674 150 137.625 C149.34 137.625 148.68 137.625 148 137.625 Z M-134 221.625 C-135.03647614 223.24358293 -136.02070817 224.89563262 -136.984375 226.55859375 C-137.89316406 228.1219043 -137.89316406 228.1219043 -138.8203125 229.71679688 C-139.77550781 231.37291992 -139.77550781 231.37291992 -140.75 233.0625 C-141.37132812 234.13177734 -141.99265625 235.20105469 -142.6328125 236.30273438 C-146.15351616 242.37483405 -149.62062988 248.47309077 -153 254.625 C-152.26177002 254.74963623 -151.52354004 254.87427246 -150.76293945 255.00268555 C-143.65425532 256.202853 -143.65425532 256.202853 -141.23828125 257.76171875 C-139.29626551 260.68393172 -139.13973299 263.15006105 -139 266.625 C-139.9765625 269.59765625 -139.9765625 269.59765625 -141.625 272.6875 C-141.92696289 273.26040771 -142.22892578 273.83331543 -142.54003906 274.42358398 C-148.17852273 284.9204435 -154.34340855 295.21192829 -160.68066406 305.30053711 C-162.16453953 307.46942881 -162.16453953 307.46942881 -162 309.625 C-160.87851563 309.75455078 -160.87851563 309.75455078 -159.734375 309.88671875 C-151.73314288 311.02825579 -151.73314288 311.02825579 -148.3125 313.8125 C-146.60546927 317.47042299 -146.61085265 319.58759627 -147 323.625 C-148.26619019 326.8209433 -149.95274563 329.72496895 -151.6875 332.6875 C-152.17428223 333.54512939 -152.66106445 334.40275879 -153.16259766 335.28637695 C-154.75577299 338.07758186 -156.37384191 340.85289158 -158 343.625 C-158.56638184 344.59211914 -159.13276367 345.55923828 -159.71630859 346.55566406 C-162.9235025 352.01937056 -166.15356904 357.46875726 -169.41357422 362.90112305 C-171.66948953 366.77450673 -173.82313542 370.70664376 -176 374.625 C-148.28 374.625 -120.56 374.625 -92 374.625 C-93.4062654 371.1093365 -94.74268824 368.12787604 -96.58203125 364.87890625 C-97.09612549 363.96955322 -97.61021973 363.0602002 -98.13989258 362.12329102 C-98.69185303 361.15447998 -99.24381348 360.18566895 -99.8125 359.1875 C-100.38057373 358.18066162 -100.94864746 357.17382324 -101.53393555 356.13647461 C-104.52091537 350.86897566 -107.57106294 345.65413435 -110.75 340.5 C-111.34707764 339.52345459 -111.94415527 338.54690918 -112.55932617 337.54077148 C-113.7031105 335.67927484 -114.86153115 333.82666954 -116.03637695 331.98461914 C-119.39425003 326.50253652 -120.66403511 323.05828638 -120 316.625 C-119.95875 315.84125 -119.9175 315.0575 -119.875 314.25 C-119 312.625 -119 312.625 -116.4375 311.4375 C-112.60854418 310.53247408 -108.91221861 310.02971227 -105 309.625 C-106.42688343 305.79167329 -108.20454001 302.36636184 -110.265625 298.8359375 C-110.90886719 297.72863281 -111.55210938 296.62132812 -112.21484375 295.48046875 C-112.89300872 294.32018362 -113.57139507 293.16002786 -114.25 292 C-116.21721389 288.62597697 -118.18058004 285.25005425 -120.13085938 281.86621094 C-121.34940652 279.75317124 -122.57936629 277.6466596 -123.82226562 275.54785156 C-124.37076172 274.59620117 -124.91925781 273.64455078 -125.484375 272.6640625 C-125.97131836 271.83342285 -126.45826172 271.0027832 -126.95996094 270.14697266 C-128.21333046 267.10769867 -128.28195955 264.88536624 -128 261.625 C-126.37185715 258.51029193 -125.10391275 256.99170424 -121.73046875 255.87109375 C-119.49161434 255.36691079 -117.27123686 254.9501557 -115 254.625 C-116.51387873 250.51734238 -118.50807459 246.7895307 -120.6953125 243.01171875 C-121.04761932 242.39730423 -121.39992615 241.78288971 -121.76290894 241.14985657 C-122.8805647 239.20230491 -124.00270362 237.25738041 -125.125 235.3125 C-125.88701711 233.98649954 -126.648739 232.66032938 -127.41015625 231.33398438 C-129.27002521 228.0956854 -131.1339218 224.85972577 -133 221.625 C-133.33 221.625 -133.66 221.625 -134 221.625 Z M41 227.625 C39.6489024 229.71073696 38.34962396 231.81239388 37.0625 233.9375 C32.23426587 241.79707628 27.1390077 249.46729729 22 257.125 C14.85263302 267.77951769 14.85263302 267.77951769 8 278.625 C3.15435953 286.53377749 -2.03471621 294.21098633 -7.19897461 301.91320801 C-12.14250164 309.28994858 -17.00490068 316.70124229 -21.6628418 324.26269531 C-24.67778886 329.1475739 -27.83203438 333.92610413 -31.03222656 338.69116211 C-34.64722791 344.07914833 -38.20811476 349.50118848 -41.75 354.9375 C-42.28085205 355.74928711 -42.8117041 356.56107422 -43.35864258 357.39746094 C-47.0424361 363.06094109 -50.55976037 368.81056461 -54 374.625 C-48.06003733 375.02309004 -42.12792991 375.31184055 -36.17773438 375.50390625 C-34.15910633 375.58397979 -32.14139556 375.69290106 -30.12597656 375.83203125 C-19.06038968 376.96566628 -19.06038968 376.96566628 -9.1399231 373.11975098 C-5.96166857 369.36461666 -3.91170462 365.1820891 -1.96832275 360.69256592 C-0.401138 357.3463079 1.69390098 354.39113752 3.8125 351.375 C4.27027832 350.69211914 4.72805664 350.00923828 5.19970703 349.30566406 C5.56950684 348.75620117 5.93930664 348.20673828 6.3203125 347.640625 C10.44190654 341.48743241 14.45109171 335.26062649 18.48046875 329.046875 C20.97617268 325.19859184 23.47974449 321.3555554 25.98828125 317.515625 C26.99048706 315.98131836 26.99048706 315.98131836 28.01293945 314.41601562 C29.30386234 312.44037544 30.59533514 310.46509442 31.88745117 308.49023438 C32.48146729 307.58080078 33.0754834 306.67136719 33.6875 305.734375 C34.20699219 304.93999023 34.72648437 304.14560547 35.26171875 303.32714844 C35.83535156 302.43543945 36.40898437 301.54373047 37 300.625 C37.4295549 300.10651489 37.8591098 299.58802979 38.30168152 299.05383301 C43.27471007 292.50430015 42.63893149 285.52312957 42.48828125 277.625 C42.47894056 276.17913035 42.47183039 274.73324473 42.46684265 273.28735352 C42.44787094 269.50583192 42.39885856 265.72529059 42.34332275 261.94415283 C42.29191543 258.07618465 42.26928312 254.20805604 42.24414062 250.33984375 C42.19072719 242.7677852 42.10553773 235.19653063 42 227.625 C41.67 227.625 41.34 227.625 41 227.625 Z M62 227.625 C62 246.765 62 265.905 62 285.625 C74.54 285.625 87.08 285.625 100 285.625 C95.64755447 278.1636648 91.33169648 270.93196372 86.5 263.8125 C80.50347778 254.90715576 74.61868922 245.93464599 68.79882812 236.9128418 C68.20005859 235.98898682 67.60128906 235.06513184 66.984375 234.11328125 C66.19111816 232.88411987 66.19111816 232.88411987 65.38183594 231.63012695 C64.01948703 229.52382876 64.01948703 229.52382876 62 227.625 Z M154.4375 276.375 C153.77105469 277.00664062 153.10460937 277.63828125 152.41796875 278.2890625 C151.62003906 279.05992187 150.82210938 279.83078125 150 280.625 C148.91585958 281.61538242 147.82838193 282.60211928 146.73828125 283.5859375 C145.57520967 284.64028185 144.4124501 285.69497049 143.25 286.75 C142.69497803 287.25241211 142.13995605 287.75482422 141.56811523 288.27246094 C138.39407335 291.19171578 135.60799148 294.16877828 133 297.625 C139.09255747 307.62108048 145.48135829 317.40333662 152 327.125 C156.89054209 334.41888564 161.76288169 341.71277641 166.375 349.1875 C167.0643161 350.26556412 167.7536322 351.34362823 168.46383667 352.45436096 C170.25441732 355.30931656 171.80356194 358.20353234 173.28948975 361.22702026 C177.74950176 369.90853268 177.74950176 369.90853268 185.3127594 375.62757111 C191.93446818 377.15233611 198.65402948 376.69283876 205.390625 376.3828125 C207.54812947 376.349187 209.70577258 376.32358972 211.86346436 376.30563354 C217.50941815 376.23729917 223.14686905 376.06091502 228.78948975 375.86096191 C234.56031226 375.6759194 240.33252696 375.59443002 246.10546875 375.50390625 C257.40735752 375.31157184 268.70296865 375.00491152 280 374.625 C278.74774982 372.10549067 277.49384562 369.58682669 276.23901367 367.06860352 C275.88949394 366.36494911 275.53997421 365.66129471 275.17986298 364.93631744 C271.74118811 358.04145955 268.06074232 351.29391178 264.3125 344.5625 C263.62352059 343.31951559 262.93472174 342.07643109 262.24609375 340.83325195 C255.90030282 329.39139731 249.47033374 317.99684695 243 306.625 C239.83467782 306.625 238.72336163 307.1131352 236 308.5625 C229.03503607 312.24285026 222.30052399 312.57182406 214.55078125 311.1875 C206.15886672 308.45193533 199.6312135 301.91588754 193.01513672 296.31347656 C188.34835845 292.40319809 183.51233568 288.70410583 178.70556641 284.96875 C176.9349108 283.57371873 175.19116974 282.14941631 173.44921875 280.71875 C172.29949536 279.79164658 171.14975636 278.86456252 170 277.9375 C168.989375 277.10863281 167.97875 276.27976562 166.9375 275.42578125 C162.21754332 272.53229717 158.44830488 272.46655905 154.4375 276.375 Z M72 306.625 C73.73348299 310.95870748 75.70509385 314.3950024 78.3125 318.1875 C79.21727595 319.5239752 80.12085994 320.8612579 81.0234375 322.19921875 C81.50522461 322.91255371 81.98701172 323.62588867 82.48339844 324.36083984 C85.17584285 328.3804357 87.80523961 332.44084114 90.4375 336.5 C90.98092041 337.33635986 91.52434082 338.17271973 92.08422852 339.03442383 C94.81522658 343.24128679 97.53472955 347.45513062 100.23828125 351.6796875 C100.74625244 352.47133301 101.25422363 353.26297852 101.77758789 354.07861328 C102.74207679 355.58283854 103.70361746 357.08895921 104.66186523 358.59716797 C105.74833358 360.29024267 106.8702197 361.96051453 108 363.625 C108.33 363.625 108.66 363.625 109 363.625 C109 344.815 109 326.005 109 306.625 C96.79 306.625 84.58 306.625 72 306.625 Z M51 316.625 C49.33565134 318.73897526 49.33565134 318.73897526 47.61328125 321.50390625 C46.92911133 322.559729 46.24494141 323.61555176 45.54003906 324.70336914 C44.79736673 325.86464422 44.05485752 327.02602365 43.3125 328.1875 C42.55112427 329.36818854 41.78907311 330.54844179 41.02636719 331.72827148 C39.45630525 334.15817636 37.88960479 336.59020421 36.32470703 339.0234375 C34.14074214 342.41382519 31.93150529 345.78713089 29.71484375 349.15625 C29.04606201 350.17388428 28.37728027 351.19151855 27.68823242 352.23999023 C26.430907 354.15203077 25.17204686 356.06306332 23.91137695 357.97290039 C23.33734131 358.84938232 22.76330566 359.72586426 22.171875 360.62890625 C21.6778418 361.37986572 21.18380859 362.1308252 20.67480469 362.90454102 C18.31779827 366.7331303 16.18342681 370.69483174 14 374.625 C39.08 374.625 64.16 374.625 90 374.625 C86.02659684 367.34042755 82.07998791 360.49802316 77.4375 353.6875 C76.20860272 351.86527936 74.98076591 350.04234315 73.75390625 348.21875 C73.13402832 347.29835938 72.51415039 346.37796875 71.87548828 345.4296875 C68.28188528 340.05565583 64.77600409 334.62468235 61.26342773 329.19750977 C60.28273602 327.68263932 59.30020767 326.16895553 58.31542969 324.65673828 C57.47231653 323.35451339 56.63870272 322.04605914 55.81738281 320.72998047 C54.92879563 319.32830584 53.97176016 317.97034796 53 316.625 C52.34 316.625 51.68 316.625 51 316.625 Z M130 332.625 C130 346.485 130 360.345 130 374.625 C139.24 374.625 148.48 374.625 158 374.625 C155.69 370.995 153.38 367.365 151 363.625 C148.48046875 359.578125 148.48046875 359.578125 147.33569336 357.72851562 C143.45791378 351.46865967 139.50293426 345.2647858 135.4375 339.125 C134.79300903 338.14515137 134.79300903 338.14515137 134.13549805 337.14550781 C133.11784379 335.61995665 132.06284224 334.1194206 131 332.625 C130.67 332.625 130.34 332.625 130 332.625 Z " fill="#1F686A" transform="translate(204,53.375)" />
                    <path d="M0 0 C6.71486101 4.68177281 11.78700664 9.44505842 16.25 16.3125 C20.87136638 22.9036291 25.67768278 24.06771822 33.11328125 25.9296875 C38.37857001 27.26483709 42.60280395 29.8687913 47 33 C48.5778125 34.0828125 48.5778125 34.0828125 50.1875 35.1875 C60.71389912 45.71389912 65.11182891 58.1914376 65.4609375 72.6953125 C64.91491179 76.61003919 63.74450354 78.214686 61 81 C58.61596458 82.19201771 57.10748883 82.14555687 54.44604492 82.17700195 C53.50133835 82.18983719 52.55663177 82.20267242 51.58329773 82.21589661 C50.55936417 82.22328354 49.5354306 82.23067047 48.48046875 82.23828125 C47.42974686 82.246353 46.37902496 82.25442474 45.29646301 82.26274109 C43.06964776 82.27658815 40.84281123 82.28730751 38.6159668 82.29516602 C35.21166724 82.31237781 31.8083389 82.35625913 28.40429688 82.40039062 C26.24219465 82.41051745 24.08008416 82.41903358 21.91796875 82.42578125 C20.39117744 82.45204338 20.39117744 82.45204338 18.83354187 82.47883606 C11.74996775 82.45711705 11.74996775 82.45711705 7.88012695 80.09838867 C4.71680092 76.56783586 4.60390588 73.87074093 4.6484375 69.26171875 C5 67 5 67 7.25 64 C11.51579545 60.89760331 15.08805471 60.8555831 20.296875 60.68359375 C21.50214844 60.64169922 22.70742188 60.59980469 23.94921875 60.55664062 C25.20347656 60.51732422 26.45773437 60.47800781 27.75 60.4375 C29.01972656 60.39431641 30.28945313 60.35113281 31.59765625 60.30664062 C34.73166365 60.20060278 37.86574933 60.09853942 41 60 C36.17245203 52.47532197 30.93690708 47.03606057 22 45 C19.19993005 44.70463397 16.42717088 44.50398278 13.61328125 44.40625 C10.35687252 43.90002204 8.6138277 43.01553273 6 41 C4.04296875 38.14453125 4.04296875 38.14453125 2.1875 34.8125 C-4.48087939 23.4978873 -13.15155806 16.16429851 -25.9519043 12.43066406 C-38.57951773 9.7753881 -50.93339538 12.05438689 -61.75 18.8125 C-63.18477239 19.85042046 -64.6027633 20.91207524 -66 22 C-66.59296875 22.4434375 -67.1859375 22.886875 -67.796875 23.34375 C-73.03421671 27.86035661 -75.72910149 33.84397268 -78.54101562 40.04614258 C-80.3277836 43.76015031 -81.67546731 46.26509178 -85.49609375 48.05859375 C-88.80234151 48.94689443 -90.34879188 49.24169369 -93.5625 48.3125 C-94.32820313 48.10496094 -95.09390625 47.89742187 -95.8828125 47.68359375 C-97.58574945 47.13375248 -99.26636088 46.51501073 -100.9375 45.875 C-109.2844799 43.4901486 -116.40484904 45.09392236 -124 49 C-127.6029289 51.24182243 -129.45866328 53.58373441 -131.63671875 57.140625 C-132.08104248 57.86282227 -132.52536621 58.58501953 -132.9831543 59.32910156 C-133.31871338 59.88049805 -133.65427246 60.43189453 -134 61 C-132.72666054 60.99000725 -132.72666054 60.99000725 -131.42759705 60.97981262 C-123.40950962 60.91958622 -115.39149868 60.87396711 -107.37323666 60.84456348 C-103.25141145 60.82893834 -99.12977388 60.80775811 -95.00805664 60.77368164 C-91.02691884 60.74097513 -87.04596101 60.72312329 -83.06469917 60.71536827 C-81.54931368 60.70984495 -80.03393751 60.6990593 -78.51862907 60.68280983 C-76.38842717 60.66088458 -74.25895952 60.65803924 -72.12866211 60.65942383 C-70.9184288 60.65276199 -69.7081955 60.64610016 -68.46128845 60.63923645 C-64.30434065 61.07250726 -61.70405803 62.07706967 -58 64 C-55.52185391 67.40745087 -55 69.35056907 -55 73.5625 C-56.23810266 77.81847788 -57.50571147 79.28227947 -61 82 C-63.95111045 82.71886891 -66.81562664 82.68409406 -69.84179688 82.64697266 C-70.72207047 82.65573425 -71.60234406 82.66449585 -72.5092926 82.67352295 C-75.41294961 82.69549173 -78.31507809 82.68097326 -81.21875 82.6640625 C-83.23987113 82.66743136 -85.26099029 82.67228456 -87.28210449 82.67855835 C-91.5155773 82.68592627 -95.74852221 82.67522657 -99.98193359 82.65185547 C-105.40625782 82.62336797 -110.82934512 82.63977235 -116.25362396 82.66971779 C-120.42642523 82.6877928 -124.59893364 82.68203175 -128.77174377 82.66907883 C-130.77161302 82.66574539 -132.77150893 82.66982969 -134.77134705 82.68147659 C-137.56768123 82.69418853 -140.36201762 82.67480383 -143.15820312 82.64697266 C-143.98328873 82.65709381 -144.80837433 82.66721497 -145.65846252 82.67764282 C-149.94685067 82.59864152 -151.5307463 82.37510623 -155.00183105 79.60043335 C-158.15439173 75.4976652 -158.23311557 72.06496548 -158 67 C-156.09986606 53.59048331 -149.86845572 41.38856103 -139.3125 32.875 C-130.28411026 26.40638359 -119.97491591 22.61316314 -108.875 22.8125 C-108.18535156 22.81314453 -107.49570312 22.81378906 -106.78515625 22.81445312 C-103.07256495 22.84639703 -99.60966947 23.12216209 -96 24 C-95.48050781 23.26394531 -94.96101563 22.52789062 -94.42578125 21.76953125 C-87.4646098 12.02903811 -87.4646098 12.02903811 -83 8 C-82.37867188 7.38640625 -81.75734375 6.7728125 -81.1171875 6.140625 C-59.40184818 -14.56288847 -24.80660519 -15.37570216 0 0 Z " fill="#1F686A" transform="translate(447,10)" />
                    <path d="M0 0 C1.36207752 -0.00677899 2.72414586 -0.01568371 4.0861969 -0.02655029 C7.77849674 -0.04931771 11.47009698 -0.04051853 15.16240883 -0.02465487 C19.02914926 -0.01198232 22.89583042 -0.02373972 26.76257324 -0.03158569 C33.25572447 -0.04067837 39.7485912 -0.0287046 46.24169922 -0.00488281 C53.74513978 0.02232803 61.24790103 0.01351357 68.75132513 -0.01401484 C75.19736969 -0.03671602 81.64320993 -0.03990115 88.08928156 -0.02682149 C91.93759958 -0.01903241 95.78559845 -0.01797009 99.63389587 -0.03450394 C103.2522805 -0.0489645 106.86979068 -0.03889975 110.48808098 -0.01003265 C112.4467995 -0.00028422 114.40559211 -0.01510867 116.36427307 -0.03067017 C125.9372133 0.0847663 125.9372133 0.0847663 129.03845215 3.03115845 C130.8862272 5.85195418 131.42921444 7.30224845 131.37695312 10.64697266 C131.38984375 11.47197266 131.40273438 12.29697266 131.41601562 13.14697266 C130.68889116 15.88438242 129.71364115 17.62131045 127.65339661 19.57868576 C123.17542161 22.09454387 117.48901533 21.33355143 112.50390625 21.29394531 C111.14182873 21.3007243 109.77976039 21.30962902 108.41770935 21.32049561 C104.72540951 21.34326303 101.03380927 21.33446384 97.34149742 21.31860018 C93.47475699 21.30592763 89.60807583 21.31768504 85.74133301 21.32553101 C79.24818178 21.33462368 72.75531505 21.32264991 66.26220703 21.29882812 C58.75876647 21.27161728 51.25600522 21.28043174 43.75258112 21.30796015 C37.30653656 21.33066133 30.86069632 21.33384647 24.41462469 21.32076681 C20.56630667 21.31297772 16.7183078 21.31191541 12.87001038 21.32844925 C9.25162575 21.34290981 5.63411557 21.33284506 2.01582527 21.30397797 C0.05710675 21.29422953 -1.90168586 21.30905399 -3.86036682 21.32461548 C-13.43330705 21.20917901 -13.43330705 21.20917901 -16.5345459 18.26278687 C-18.38232095 15.44199113 -18.92530819 13.99169687 -18.87304688 10.64697266 C-18.8859375 9.82197266 -18.89882812 8.99697266 -18.91210938 8.14697266 C-18.18498491 5.40956289 -17.2097349 3.67263486 -15.14949036 1.71525955 C-10.67151536 -0.80059856 -4.98510908 -0.03960611 0 0 Z " fill="#1F686A" transform="translate(219.248046875,491.35302734375)" />
                    <path d="M0 0 C1.72445595 -0.01279495 1.72445595 -0.01279495 3.48374939 -0.02584839 C5.37736458 -0.02448883 5.37736458 -0.02448883 7.30923462 -0.02310181 C8.65130488 -0.02908576 9.99337169 -0.035891 11.33543396 -0.04345703 C14.98218832 -0.06113851 18.62884884 -0.06581332 22.27564192 -0.0670886 C25.31985836 -0.06898728 28.36405292 -0.07634449 31.40826094 -0.08343279 C38.59092098 -0.09972271 45.77353088 -0.10460122 52.95620728 -0.10317993 C60.36520167 -0.1019785 67.77390477 -0.1230791 75.18282545 -0.15466726 C81.54385956 -0.18082116 87.90479848 -0.1915476 94.26588595 -0.19026911 C98.0650402 -0.18975919 101.86393565 -0.19545876 105.66303635 -0.21662521 C109.23691237 -0.23599283 112.81028236 -0.23614275 116.38417625 -0.22159195 C118.3190951 -0.21850453 120.2540139 -0.23519093 122.18885803 -0.25247192 C123.34413498 -0.24408295 124.49941193 -0.23569397 125.68969727 -0.22705078 C127.1923668 -0.22868508 127.1923668 -0.22868508 128.7253933 -0.2303524 C132.23069654 0.40496578 133.91716468 1.83696941 136.47183228 4.26742554 C138.07269854 7.46915808 137.97100317 10.79319613 137.47183228 14.26742554 C135.67819317 17.07746014 134.45302292 18.77683021 131.47183228 20.26742554 C129.67146651 20.37143325 127.86725872 20.41129647 126.06391907 20.42132568 C124.91565643 20.42992615 123.7673938 20.43852661 122.58433533 20.4473877 C121.31832993 20.45164764 120.05232452 20.45590759 118.74795532 20.46029663 C117.40603421 20.46819713 116.06411523 20.47646605 114.72219849 20.4850769 C110.30933666 20.51130237 105.89646531 20.52660472 101.48355103 20.54086304 C99.96497911 20.54622244 98.44640725 20.55159995 96.92783546 20.55699539 C90.61152691 20.5786246 84.29522092 20.59736175 77.9788847 20.60861778 C68.92378883 20.62486006 59.86912187 20.65804358 50.81418771 20.71501863 C44.44894135 20.75370565 38.08380978 20.77324895 31.71844894 20.77853835 C27.91583559 20.78219349 24.11367964 20.79423097 20.31119347 20.82664108 C16.73317777 20.85670072 13.15589668 20.86304178 9.57778168 20.85125732 C7.64042287 20.85093115 5.70310954 20.87541094 3.76591492 20.90063477 C-4.72550809 20.83956933 -4.72550809 20.83956933 -8.78517151 17.94580078 C-10.99637968 14.5479476 -11.52816772 12.32197852 -11.52816772 8.26742554 C-9.15291413 1.97300351 -6.65345464 0.02227746 0 0 Z " fill="#1F686A" transform="translate(374.5281677246094,459.7325744628906)" />
                    <path d="M0 0 C0.83150574 -0.0087616 1.66301147 -0.01752319 2.51971436 -0.02655029 C5.2610737 -0.04850973 8.00081252 -0.03400446 10.7421875 -0.01708984 C12.65120757 -0.02045899 14.56022555 -0.02531242 16.46923828 -0.03158569 C20.46733045 -0.03895232 24.46486352 -0.02825829 28.46289062 -0.00488281 C33.58456931 0.02360487 38.70493797 0.00719977 43.8265686 -0.02274513 C47.76775969 -0.04082379 51.70864082 -0.03505748 55.64984131 -0.02210617 C57.53806717 -0.01877373 59.4263213 -0.02285356 61.31451416 -0.03450394 C63.95522455 -0.04722218 66.5938218 -0.02782357 69.234375 0 C70.01270691 -0.01012115 70.79103882 -0.02024231 71.59295654 -0.03067017 C75.61340944 0.04770342 77.41910562 0.48862349 80.59960938 3.03115845 C82.79223621 5.8739254 83.29747598 7.10851002 83.2421875 10.64697266 C83.26152344 11.88447266 83.26152344 11.88447266 83.28125 13.14697266 C82.29807782 16.84832675 80.59369013 18.26751878 77.6171875 20.64697266 C74.63069772 21.1417325 72.21577075 21.33271434 69.234375 21.29394531 C68.40286926 21.30270691 67.57136353 21.31146851 66.71466064 21.32049561 C63.9733013 21.34245504 61.23356248 21.32794977 58.4921875 21.31103516 C56.58316743 21.3144043 54.67414945 21.31925774 52.76513672 21.32553101 C48.76704455 21.33289764 44.76951148 21.3222036 40.77148438 21.29882812 C35.64980569 21.27034044 30.52943703 21.28674554 25.4078064 21.31669044 C21.46661531 21.3347691 17.52573418 21.32900279 13.58453369 21.31605148 C11.69630783 21.31271904 9.8080537 21.31679887 7.91986084 21.32844925 C5.27915045 21.34116749 2.6405532 21.32176889 0 21.29394531 C-0.77833191 21.30406647 -1.55666382 21.31418762 -2.35858154 21.32461548 C-6.37903444 21.24624189 -8.18473062 20.80532182 -11.36523438 18.26278687 C-13.55786121 15.42001991 -14.06310098 14.18543529 -14.0078125 10.64697266 C-14.02070312 9.82197266 -14.03359375 8.99697266 -14.046875 8.14697266 C-12.12734269 0.92049809 -6.61263318 -0.08598836 0 0 Z " fill="#1F686A" transform="translate(67.3828125,459.35302734375)" />
                    <path d="M0 0 C2.765625 1 2.765625 1 5.25 2.1875 C9.03710883 3.95440559 10.95801894 4.15821823 14.9375 2.8125 C16.30145802 2.23077562 17.65712758 1.62887072 19 1 C24.18897181 -0.72965727 29.59543704 -0.62308245 35 0 C38.05814885 1.6590767 39.44960706 3.89921413 41 7 C41.4583156 11.03317729 41.15966869 14.26117522 38.72265625 17.6328125 C35.44316411 20.23558404 31.24363362 20.8691374 27.2578125 21.92578125 C23.34222699 23.21689158 20.89622711 25.1352658 17.765625 27.7265625 C14.88894509 29.80133606 12.48786262 30.06459005 9 30 C5.68200963 28.73916366 3.39131402 27.34416775 0.73046875 25.00390625 C-2.36126164 22.73486807 -4.85405266 22.02740318 -8.5625 21.125 C-15.70553571 19.05642857 -15.70553571 19.05642857 -17.8125 16.125 C-19.13185558 12.65301164 -19.61156809 10.66940852 -19 7 C-14.27292072 -1.35117339 -9.06097162 -0.81999743 0 0 Z " fill="#1F686A" transform="translate(53,0)" />
                    <path d="M0 0 C1.89570798 0.71341138 3.78113825 1.45506273 5.65234375 2.23046875 C9.77564153 3.76727191 12.17033723 2.7183362 16.0625 1.10546875 C21.88808364 -1.05215482 27.97033634 -2.64727114 33.921875 -0.05859375 C36.21250475 1.39213842 37.77817363 2.66181602 39 5.10546875 C39.62683893 9.66348329 39.67731809 13.03110212 37.1875 16.98046875 C33.46851087 19.45979484 30.22199894 20.15607532 25.91015625 21.1484375 C22.64198776 22.22320432 20.47848214 23.71432358 17.75 25.79296875 C14.60242427 28.14368987 13.19951094 29.06889174 9.25 29.79296875 C5.34546598 28.96700963 3.15936839 27.52541049 0 25.10546875 C-3.54552582 22.42662702 -6.23320354 20.93491365 -10.5625 20.16796875 C-13.81311913 19.52004129 -15.20703457 18.9660373 -18.0625 17.04296875 C-20.36712073 13.54886635 -20.71975499 11.38212486 -20.5 7.26171875 C-19.70000747 3.81175097 -17.74407005 2.19618879 -15 0.10546875 C-10.43858166 -2.17524042 -4.74144295 -1.41378963 0 0 Z " fill="#1F686A" transform="translate(20,104.89453125)" />
                    <path d="M0 0 C2.26171875 0.8515625 2.26171875 0.8515625 4.2734375 2.06640625 C6.27774374 3.09238732 6.27774374 3.09238732 8.48046875 2.20703125 C9.23328125 1.82160156 9.98609375 1.43617188 10.76171875 1.0390625 C16.61537061 -1.89778681 21.71340289 -2.81496251 28.26171875 -2.1484375 C31.89638954 -0.52443566 33.03580571 0.51269294 35.26171875 3.8515625 C36.05085992 8.28736653 35.9068215 11.77639125 33.57421875 15.6640625 C29.40687597 18.41608132 25.27363765 19.42622846 20.484375 20.73828125 C17.32971743 21.82807205 15.42371793 22.98160428 12.88671875 25.1015625 C10.14526773 27.37074675 9.32773257 27.84018081 5.63671875 28.4765625 C0.92305645 27.60366207 -1.96877069 25.34623418 -5.57421875 22.30078125 C-8.10005267 20.60929319 -10.21248006 20.10950062 -13.17578125 19.4765625 C-17.97193313 18.21981682 -20.98403999 17.22035898 -23.73828125 12.8515625 C-24.42109874 9.69568334 -24.46868761 7.00143991 -23.73828125 3.8515625 C-17.13924859 -4.4840577 -9.29692168 -2.9642359 0 0 Z " fill="#1F686A" transform="translate(461.73828125,192.1484375)" />
                    <path d="M0 0 C0.67804688 0.38542969 1.35609375 0.77085938 2.0546875 1.16796875 C4.99653878 2.08382811 6.38729338 1.11062229 9.125 -0.1875 C15.88317986 -2.51190429 22.08683142 -4.22263308 29.125 -2.1875 C32.12133517 -0.62690877 33.64395989 0.40245119 34.75 3.64453125 C35.43165023 7.35810488 35.20752398 9.57795816 33.9375 13.1875 C31.71578975 16.40514933 29.85708196 17.46087434 26.046875 18.234375 C25.33015625 18.34265625 24.6134375 18.4509375 23.875 18.5625 C18.27455934 19.70298709 14.12639623 22.81110377 10.125 26.8125 C5.92130222 27.44869181 1.78975526 27.84700375 -1.91796875 25.54296875 C-3.09122918 24.47848743 -4.24177318 23.38838285 -5.3671875 22.2734375 C-7.8438076 19.87381077 -10.5064978 19.10378762 -13.8203125 18.3984375 C-21.26658308 16.77729372 -21.26658308 16.77729372 -23.875 12.8125 C-25.06436043 8.87274358 -25.2755703 5.87283315 -23.8125 2 C-17.3082492 -5.34350897 -8.13423216 -3.9924278 0 0 Z " fill="#1F686A" transform="translate(378.875,111.1875)" />
                    <path d="M0 0 C2.73300149 0.89624745 5.21965121 1.91992536 7.78125 3.22265625 C11.81324773 4.63527517 14.73197717 3.11965305 18.5 1.4375 C24.17358952 -0.73467427 30.02593149 -0.80816311 36 0 C39.3125 1.875 39.3125 1.875 41 5 C41.9397106 9.89934585 41.82578435 13.61386199 39.25 17.9375 C35.24977761 20.47610267 31.53097019 21.13978538 26.93359375 22.11328125 C23.21464979 23.23738282 21.30533484 25.03164329 18.58203125 27.6953125 C15.89756157 29.90917145 13.38202044 30 10 30 C6.55434781 29.15959703 5.02780923 28.02645268 2.4375 25.5625 C-0.49899691 22.93188819 -3.23407462 22.35070522 -7.0625 21.5625 C-13.64326614 20.09102434 -13.64326614 20.09102434 -16.25 17.3125 C-18.39613641 13.25017036 -19.04067145 10.48289241 -18 6 C-14.24439867 -1.78939535 -7.9001467 -1.12859239 0 0 Z " fill="#1F686A" transform="translate(97,64)" />
                    <path d="M0 0 C3.125 1.875 3.125 1.875 5 5 C5.98876625 10.02622846 5.7769173 13.70513784 3.125 18.125 C-1.29486216 20.7769173 -4.97377154 20.98876625 -10 20 C-13.125 18.125 -13.125 18.125 -15 15 C-15.98876625 9.97377154 -15.7769173 6.29486216 -13.125 1.875 C-8.70513784 -0.7769173 -5.02622846 -0.98876625 0 0 Z " fill="#1F686A" transform="translate(177,492)" />
                    <path d="M0 0 C2.69585834 3.0414812 3.86244031 5.03708215 4.4375 9.0625 C3.93824346 12.41465104 3.02623884 14.29834822 1 17 C-3.00254616 19.66836411 -6.29313299 19.8340238 -11 19 C-13.75569447 16.81840855 -15.43588747 15.12822506 -17 12 C-17.43523772 8.16990809 -17.11581685 6.23163369 -15.375 2.75 C-10.76991003 -2.58220943 -6.30544073 -2.8024181 0 0 Z " fill="#1F686A" transform="translate(428,73)" />
                </svg>