<svg version="1.1" xmlns="http://www.w3.org/2000/svg" width="512" height="512">
<path d="M0 0 C1.44469224 -0.00571017 2.88937997 -0.01267693 4.33406067 -0.02079773 C8.23909097 -0.0386727 12.14389587 -0.03757153 16.04895473 -0.03185534 C19.31673076 -0.02875533 22.58446401 -0.03486494 25.85223395 -0.04089409 C33.56493728 -0.05491905 41.2775298 -0.05339491 48.99023438 -0.04199219 C56.93037409 -0.03051217 64.87017599 -0.04458917 72.8102712 -0.07138866 C79.64366173 -0.09358388 86.47694651 -0.10017448 93.3103705 -0.09431225 C97.38454157 -0.09095068 101.45849611 -0.09330426 105.53263664 -0.11056328 C109.36514564 -0.12609161 113.1971562 -0.12201237 117.02964592 -0.10325813 C118.43040882 -0.09958848 119.83120914 -0.10263309 121.23193741 -0.11314392 C131.09033215 -0.1814322 137.67496122 1.15200477 145.89868164 6.52905273 C151.24622424 12.11966545 153.91732424 17.35601856 153.83544922 25.23046875 C153.81764404 25.89876709 153.79983887 26.56706543 153.78149414 27.25561523 C153.76711304 28.29069214 153.76711304 28.29069214 153.75244141 29.34667969 C153.72762636 31.03264285 153.68952164 32.71840162 153.64868164 34.40405273 C154.85200638 34.39517029 156.05533112 34.38628784 157.29512024 34.37713623 C168.66722078 34.29584675 180.03926193 34.23598972 191.41158772 34.19680405 C197.25742571 34.17598064 203.10302806 34.14775888 208.94873047 34.10229492 C214.59624212 34.0586501 220.24352793 34.03487621 225.8911953 34.02454376 C228.03964986 34.01718579 230.18809286 34.00281776 232.33645058 33.98113251 C256.45184611 33.74752259 256.45184611 33.74752259 265.36743164 40.44702148 C265.95524414 41.1547168 266.54305664 41.86241211 267.14868164 42.59155273 C267.75711914 43.28635742 268.36555664 43.98116211 268.99243164 44.69702148 C273.06018512 51.34549592 274.09142455 58.04941151 274.00944519 65.72450256 C274.01200846 66.61832325 274.01457174 67.51214393 274.01721269 68.4330501 C274.02212257 71.40412268 274.00570404 74.37467799 273.98925781 77.34570312 C273.98841094 79.48493437 273.98888787 81.62416648 273.99058533 83.76339722 C273.99144433 89.5540788 273.97383371 95.34457309 273.95286345 101.13521123 C273.93408099 107.19303129 273.93234497 113.25085587 273.92878723 119.30870056 C273.9194714 130.77259076 273.89486379 142.23639489 273.86473876 153.70024723 C273.83118045 166.754609 273.81470513 179.80897493 273.79965246 192.86336911 C273.76831388 219.71031132 273.71556229 246.5571772 273.64868164 273.40405273 C274.4852832 273.38310547 275.32188477 273.3621582 276.18383789 273.34057617 C279.32230473 273.27193307 282.4603858 273.2220271 285.59936523 273.18432617 C287.61215791 273.15459228 289.62460298 273.10373544 291.63696289 273.05249023 C299.85439562 272.96990297 306.08127505 273.07430457 312.21243191 278.88643551 C316.18056692 283.60694255 316.35897329 288.12755525 316.27978516 294.09960938 C316.29051811 295.52046089 316.29051811 295.52046089 316.3014679 296.97001648 C316.3183068 300.08524548 316.2989814 303.19902578 316.27758789 306.31420898 C316.27841696 308.48701598 316.28087777 310.65982291 316.28489685 312.83262634 C316.28775148 317.37949572 316.27308457 321.92587158 316.24560547 326.47265625 C316.21150345 332.29575363 316.21755112 338.11796994 316.23626804 343.94110966 C316.24684411 348.42532168 316.23789492 352.90932924 316.22288322 357.39352226 C316.21770682 359.54048493 316.21817663 361.68746899 316.22442818 363.83442879 C316.22988837 366.83604883 316.20947944 369.83641367 316.18212891 372.83789062 C316.18865479 373.72169403 316.19518066 374.60549744 316.2019043 375.51608276 C316.11764338 380.96409985 315.26697507 384.07945632 311.64868164 388.40405273 C306.51226695 392.92898948 303.46069033 393.5510198 296.76683426 393.53827381 C295.52511444 393.54180216 295.52511444 393.54180216 294.25830936 393.54540178 C291.45427749 393.5521162 288.6502917 393.55163283 285.84625244 393.55122375 C283.82764958 393.55452086 281.80904739 393.5582461 279.79044604 393.56236523 C274.21977627 393.57241077 268.64911727 393.57610612 263.07843971 393.57875454 C257.07966272 393.58265003 251.08089433 393.59222884 245.0821228 393.60096741 C231.26920584 393.61981742 217.45628824 393.62999089 203.64336208 393.63842809 C196.8202647 393.64263228 189.9971682 393.64785456 183.17407157 393.65311262 C159.82641376 393.67100394 136.47875571 393.6860009 113.13109207 393.69343281 C111.66488005 393.69390757 110.19866803 393.69438346 108.73245601 393.69486047 C107.64177167 393.69521503 107.64177167 393.69521503 106.5290533 393.69557676 C102.84497108 393.69677798 99.16088886 393.69799342 95.47680664 393.69921875 C94.74568405 393.6994589 94.01456146 393.69969905 93.26128363 393.69994648 C69.55067784 393.70784134 45.84012205 393.73127643 22.12953809 393.76377469 C-2.92763642 393.79805604 -27.98478167 393.81778237 -53.04198003 393.82107705 C-55.79156956 393.8214946 -58.54115908 393.82197417 -61.2907486 393.82250023 C-62.30631789 393.82268502 -62.30631789 393.82268502 -63.34240374 393.82287354 C-74.2480777 393.82520767 -85.15369369 393.84087945 -96.05934698 393.86134208 C-107.0170906 393.88157657 -117.9747739 393.88675465 -128.93253419 393.87757144 C-134.87144424 393.87301188 -140.81016569 393.87500891 -146.74905014 393.89433289 C-152.18223416 393.91185925 -157.61509053 393.91105286 -163.04827753 393.89543559 C-165.01735983 393.89304345 -166.9864642 393.89746551 -168.95551261 393.90926424 C-171.62611277 393.92427981 -174.29553638 393.91478275 -176.96610641 393.89903736 C-177.7359019 393.90925957 -178.50569739 393.91948178 -179.29882002 393.93001375 C-184.46439436 393.86325191 -187.36541191 392.64869494 -191.35131836 389.40405273 C-196.15694071 383.94902196 -196.50679332 380.49966848 -196.52832031 373.38378906 C-196.53817711 371.98107254 -196.53817711 371.98107254 -196.54823303 370.55001831 C-196.56799439 367.44537277 -196.57963606 364.34077571 -196.58959961 361.23608398 C-196.59367514 360.17649664 -196.59775066 359.11690929 -196.60194969 358.02521324 C-196.62282433 352.41508554 -196.637119 346.80498238 -196.64648438 341.19482422 C-196.65754083 335.40205471 -196.69192819 329.60967017 -196.73165607 323.81703663 C-196.75781653 319.36200756 -196.76617581 314.90707018 -196.76976585 310.45197105 C-196.77463468 308.31696668 -196.78625705 306.18196649 -196.80480385 304.04703712 C-196.82917853 301.05481235 -196.82823289 298.06358294 -196.82128906 295.07128906 C-196.83409912 294.19257645 -196.84690918 293.31386383 -196.86010742 292.40852356 C-196.8109079 286.57793462 -195.74544215 283.18312448 -192.35131836 278.40405273 C-187.03836152 274.28380049 -183.34409797 273.27744671 -176.71459961 273.30639648 C-175.41586914 273.30961914 -174.11713867 273.3128418 -172.77905273 273.31616211 C-171.40730728 273.32451742 -170.03556249 273.33298237 -168.66381836 273.34155273 C-167.28035641 273.34656938 -165.89689273 273.351132 -164.51342773 273.35522461 C-161.12601441 273.36702744 -157.73868803 273.38349255 -154.35131836 273.40405273 C-154.35408374 272.29398896 -154.35684912 271.18392519 -154.3596983 270.04022312 C-154.42631183 243.02366758 -154.47560273 216.00712269 -154.50675488 188.99050236 C-154.52222043 175.92544192 -154.54330409 162.86043576 -154.57763672 149.79541016 C-154.6075485 138.40727322 -154.62689563 127.01917559 -154.63358384 115.63100046 C-154.63749305 109.60166364 -154.64667398 103.57243927 -154.66850853 97.5431385 C-154.68890165 91.86576223 -154.69514638 86.18854452 -154.6906414 80.5111351 C-154.69146533 78.4298701 -154.69741404 76.34859969 -154.70893478 74.26736641 C-154.723923 71.41955202 -154.72024884 68.57233151 -154.71208191 65.72450256 C-154.72082043 64.90638236 -154.72955896 64.08826215 -154.73856229 63.24535042 C-154.67121108 54.52005445 -152.3213198 47.51330215 -146.32006836 41.13061523 C-141.14441517 36.59164954 -135.01013738 34.27500297 -128.14984131 34.28379822 C-127.31975555 34.28242355 -126.4896698 34.28104889 -125.63442993 34.27963257 C-124.73243866 34.28322784 -123.83044739 34.28682312 -122.90112305 34.29052734 C-121.94468903 34.29038132 -120.988255 34.29023529 -120.00283813 34.29008484 C-116.84293344 34.29078125 -113.68308776 34.298561 -110.52319336 34.30639648 C-108.3317264 34.30826163 -106.14025903 34.30968508 -103.9487915 34.3106842 C-98.18171029 34.3145018 -92.41465427 34.32432564 -86.64758301 34.33538818 C-80.76237326 34.34561857 -74.87715944 34.35018532 -68.99194336 34.35522461 C-57.44505729 34.36594856 -45.89818992 34.38301592 -34.35131836 34.40405273 C-34.37524658 33.38577393 -34.3991748 32.36749512 -34.42382812 31.31835938 C-34.44318464 29.96281709 -34.46195223 28.60726631 -34.48022461 27.25170898 C-34.4975061 26.58288696 -34.5147876 25.91406494 -34.53259277 25.22497559 C-34.60531119 18.01703782 -32.44487427 12.93310923 -27.74194336 7.56811523 C-19.65005543 -0.04122892 -10.55349577 -0.03776103 0 0 Z M-16.35131836 23.40405273 C-17.06174859 26.77310144 -17.00476494 30.06378737 -16.95259094 33.49629211 C-16.95686307 34.52145233 -16.96113519 35.54661254 -16.96553677 36.60283822 C-16.97378149 40.04263419 -16.94625575 43.48121455 -16.91894531 46.92089844 C-16.91753517 49.38465852 -16.91832615 51.84842071 -16.92115784 54.31217957 C-16.92229692 59.61884036 -16.90810355 64.92512178 -16.87996864 70.23168373 C-16.83931726 77.90399373 -16.8263098 85.57615514 -16.82002869 93.24856117 C-16.80908803 105.69671622 -16.77582016 118.14470737 -16.72851562 130.59277344 C-16.68261404 142.68423659 -16.64728243 154.77565498 -16.62597656 166.8671875 C-16.62463658 167.62022327 -16.62329659 168.37325904 -16.621916 169.14911407 C-16.61151876 175.03842959 -16.60173418 180.92774609 -16.59214318 186.81706297 C-16.54498253 215.67954334 -16.44438964 244.54161336 -16.35131836 273.40405273 C33.80868164 273.40405273 83.96868164 273.40405273 135.64868164 273.40405273 C135.79432732 229.09255303 135.79432732 229.09255303 135.89282227 184.78100586 C135.90261182 178.80973238 135.91271428 172.83845955 135.92333984 166.8671875 C135.92465859 166.1187725 135.92597733 165.3703575 135.92733604 164.59926325 C135.94909026 152.51226733 135.98851347 140.42539018 136.03444562 128.33846471 C136.08118212 115.93656188 136.10897107 103.53472129 136.11912411 91.132734 C136.12598915 83.478268 136.14768125 75.82413757 136.18826398 68.16977485 C136.21778633 62.30313515 136.22096287 56.43666824 136.21422005 50.56995201 C136.21559867 48.161258 136.22558504 45.7525516 136.24470901 43.34393311 C136.26950288 40.06091405 136.2636356 36.77934308 136.24995422 33.49629211 C136.26451843 32.53811925 136.27908264 31.57994638 136.29408818 30.59273797 C136.24400981 26.16198326 136.08224796 24.0230282 133.48350811 20.31297016 C130.22408853 18.11813993 128.58814059 17.77622696 124.69018555 17.76913452 C123.49572815 17.7550354 122.30127075 17.74093628 121.07061768 17.72640991 C119.76864441 17.73653107 118.46667114 17.74665222 117.12524414 17.75708008 C115.7336106 17.75030133 114.34198604 17.74139674 112.95037842 17.73052979 C109.17750757 17.70775964 105.40532128 17.71656274 101.63243866 17.73242521 C97.68161696 17.74509632 93.73085333 17.73334075 89.7800293 17.72549438 C83.14564505 17.7164013 76.51153923 17.72837659 69.87719727 17.75219727 C62.21016693 17.77940815 54.54380141 17.77059373 46.87678719 17.74306524 C40.29061765 17.72036526 33.70464809 17.71717834 27.11845207 17.73025858 C23.18629943 17.73804832 19.25445915 17.73910815 15.32232666 17.72257614 C11.62515439 17.70811738 7.92883804 17.71817722 4.23175812 17.74704742 C2.23009921 17.75679765 0.22836779 17.74196993 -1.77325439 17.72640991 C-3.56494049 17.74755859 -3.56494049 17.74755859 -5.39282227 17.76913452 C-6.42887604 17.77101965 -7.46492981 17.77290478 -8.53237915 17.77484703 C-12.59683269 18.6820597 -13.96315738 19.99462495 -16.35131836 23.40405273 Z M-135.35131836 56.40405273 C-136.63461231 60.2539346 -136.48575386 63.87785952 -136.47157288 67.88908386 C-136.4724273 68.76552734 -136.47328173 69.64197082 -136.47416204 70.54497319 C-136.47581419 73.49305606 -136.47029976 76.4410825 -136.46484375 79.38916016 C-136.4645618 81.49795022 -136.46471977 83.60674039 -136.46528625 85.7155304 C-136.46557391 91.45071558 -136.45968236 97.18587998 -136.4527123 102.92106032 C-136.44647341 108.9108582 -136.44587454 114.90065653 -136.44468689 120.89045715 C-136.44157516 132.23763778 -136.43336389 143.58480881 -136.4233374 154.9319852 C-136.4100847 170.26215184 -136.40467508 185.5923211 -136.39883518 200.92249203 C-136.3894239 225.08301946 -136.36950392 249.24352663 -136.35131836 273.40405273 C-102.69131836 273.40405273 -69.03131836 273.40405273 -34.35131836 273.40405273 C-34.35131836 200.47405273 -34.35131836 127.54405273 -34.35131836 52.40405273 C-88.54291842 43.8801092 -88.54291842 43.8801092 -135.35131836 56.40405273 Z M153.64868164 52.40405273 C153.64868164 125.33405273 153.64868164 198.26405273 153.64868164 273.40405273 C187.30868164 273.40405273 220.96868164 273.40405273 255.64868164 273.40405273 C255.73605026 235.49097617 255.73605026 235.49097617 255.79516602 197.57788086 C255.81298389 182.1225283 255.83395804 166.66722472 255.875 151.21191406 C255.90487316 139.95712488 255.92424972 128.70237534 255.93094712 117.44754761 C255.9348629 111.48652534 255.94408539 105.52561648 255.96587181 99.56463051 C255.98620397 93.95621135 255.99252203 88.34795255 255.98800468 82.73950005 C255.98883135 80.6791306 255.99481636 78.6187559 256.00629807 76.55841827 C256.02119088 73.74861169 256.01764689 70.93941311 256.00944519 68.1295929 C256.01818371 67.31149417 256.02692224 66.49339544 256.03592557 65.65050584 C255.999598 61.05629074 255.5509595 58.02922151 252.64868164 54.40405273 C225.18541947 36.09521129 186.65541496 52.40405273 153.64868164 52.40405273 Z M-178.35131836 291.40405273 C-178.35131836 319.12405273 -178.35131836 346.84405273 -178.35131836 375.40405273 C-167.46131836 375.40405273 -156.57131836 375.40405273 -145.35131836 375.40405273 C-145.35131836 361.87405273 -145.35131836 348.34405273 -145.35131836 334.40405273 C-147.33131836 333.41405273 -149.31131836 332.42405273 -151.35131836 331.40405273 C-153.55965576 328.41847927 -153.50567744 326.25369451 -152.97631836 322.65405273 C-152.86545898 321.85483398 -152.75459961 321.05561523 -152.64038086 320.23217773 C-152.54499023 319.62889648 -152.44959961 319.02561523 -152.35131836 318.40405273 C-148.86342 317.24141995 -145.7262547 317.24876817 -142.09765625 317.24291992 C-141.36237198 317.23795502 -140.62708771 317.23299011 -139.86952209 317.22787476 C-137.43766341 317.21327195 -135.00586992 317.206455 -132.57397461 317.20092773 C-130.88390603 317.19517562 -129.19383747 317.18941789 -127.50376892 317.18365479 C-123.96051733 317.17315077 -120.4172884 317.16730389 -116.87402344 317.16381836 C-112.33318993 317.15832874 -107.79265553 317.13428834 -103.25191593 317.10584641 C-99.76121645 317.08722817 -96.27058923 317.08201491 -92.77984428 317.08048248 C-91.1056905 317.07745459 -89.43153802 317.06942145 -87.75743294 317.0562973 C-85.41618133 317.03925022 -83.07566342 317.04111322 -80.734375 317.04760742 C-80.04281311 317.03839264 -79.35125122 317.02917786 -78.63873291 317.01968384 C-75.58962949 317.04619007 -73.59215218 317.26656301 -70.92088318 318.79156494 C-69.35131836 320.40405273 -69.35131836 320.40405273 -68.85522461 322.56030273 C-68.88422852 323.72045898 -68.88422852 323.72045898 -68.91381836 324.90405273 C-68.91510742 325.67749023 -68.91639648 326.45092773 -68.91772461 327.24780273 C-69.45615844 329.92541961 -70.21512483 330.7377249 -72.35131836 332.40405273 C-74.33131836 333.39405273 -74.33131836 333.39405273 -76.35131836 334.40405273 C-76.35131836 347.93405273 -76.35131836 361.46405273 -76.35131836 375.40405273 C-48.63131836 375.40405273 -20.91131836 375.40405273 7.64868164 375.40405273 C7.64868164 358.90405273 7.64868164 342.40405273 7.64868164 325.40405273 C3.68868164 325.07405273 -0.27131836 324.74405273 -4.35131836 324.40405273 C-7.16381836 322.34155273 -7.16381836 322.34155273 -8.35131836 319.40405273 C-8.59828205 316.52468067 -8.55355678 314.05230142 -7.35131836 311.40405273 C-3.83338541 308.88359882 -1.38095815 308.028492 2.92382812 308.02310181 C3.96683075 308.01464233 5.00983337 308.00618286 6.08444214 307.99746704 C7.21810211 308.00353973 8.35176208 308.00961243 9.51977539 308.01586914 C11.32298752 308.0079837 11.32298752 308.0079837 13.16262817 307.99993896 C16.45194199 307.98900979 19.7408927 307.99155434 23.03020096 308.00107622 C26.4765218 308.0086847 29.92281881 308.00162391 33.36914062 307.99691772 C39.15605 307.99146362 44.94284442 307.99864266 50.72973633 308.01293945 C57.41506507 308.0292654 64.10011931 308.02397664 70.7854414 308.00746024 C76.53081959 307.99383547 82.27611527 307.99193052 88.0215044 307.99977624 C91.45056977 308.00444735 94.87950621 308.00509321 98.30856323 307.99516678 C102.13176086 307.98755732 105.95442969 307.99915049 109.77758789 308.01586914 C111.47807785 308.0067601 111.47807785 308.0067601 113.21292114 307.99746704 C114.25592377 308.00592651 115.29892639 308.01438599 116.37353516 308.02310181 C117.72850853 308.02479842 117.72850853 308.02479842 119.1108551 308.02652931 C122.21241909 308.48791351 124.11400071 309.58805835 126.64868164 311.40405273 C127.85092006 314.05230142 127.89564533 316.52468067 127.64868164 319.40405273 C126.46118164 322.34155273 126.46118164 322.34155273 123.64868164 324.40405273 C117.70868164 324.89905273 117.70868164 324.89905273 111.64868164 325.40405273 C111.64868164 341.90405273 111.64868164 358.40405273 111.64868164 375.40405273 C139.36868164 375.40405273 167.08868164 375.40405273 195.64868164 375.40405273 C195.64868164 361.87405273 195.64868164 348.34405273 195.64868164 334.40405273 C193.66868164 333.41405273 191.68868164 332.42405273 189.64868164 331.40405273 C188.49151653 329.08972252 188.41657728 327.54344461 188.33618164 324.96655273 C188.29879883 324.1840918 188.26141602 323.40163086 188.22290039 322.59545898 C188.64868164 320.40405273 188.64868164 320.40405273 190.21385193 318.78936768 C193.47631365 316.93316519 196.38118388 316.99896526 200.03173828 317.04760742 C200.76877487 317.04556305 201.50581146 317.04351868 202.2651825 317.04141235 C204.69665497 317.03840901 207.12744623 317.05686684 209.55883789 317.07592773 C211.24987114 317.07898615 212.9409069 317.08086164 214.63194275 317.081604 C218.17350934 317.08620419 221.71484819 317.10061976 225.25634766 317.12280273 C229.79827409 317.15110642 234.34002137 317.16201683 238.88202763 317.16648483 C242.37269383 317.17063941 245.86332378 317.18045687 249.35397148 317.19235992 C251.02893216 317.19806062 252.70389632 317.20281999 254.37886238 317.20662689 C256.71764387 317.2134939 259.0562834 317.22712793 261.39501953 317.24291992 C262.43539871 317.24459671 262.43539871 317.24459671 263.49679565 317.24630737 C266.49409792 317.27314105 268.77952605 317.44766754 271.64868164 318.40405273 C273.07489228 326.2911694 273.07489228 326.2911694 271.52368164 330.34155273 C269.64868164 332.40405273 269.64868164 332.40405273 264.64868164 334.40405273 C264.64868164 347.93405273 264.64868164 361.46405273 264.64868164 375.40405273 C275.53868164 375.40405273 286.42868164 375.40405273 297.64868164 375.40405273 C297.64868164 347.68405273 297.64868164 319.96405273 297.64868164 291.40405273 C140.56868164 291.40405273 -16.51131836 291.40405273 -178.35131836 291.40405273 Z M25.64868164 325.40405273 C25.64868164 341.90405273 25.64868164 358.40405273 25.64868164 375.40405273 C33.89868164 375.40405273 42.14868164 375.40405273 50.64868164 375.40405273 C50.64868164 358.90405273 50.64868164 342.40405273 50.64868164 325.40405273 C42.39868164 325.40405273 34.14868164 325.40405273 25.64868164 325.40405273 Z M68.64868164 325.40405273 C68.64868164 341.90405273 68.64868164 358.40405273 68.64868164 375.40405273 C76.89868164 375.40405273 85.14868164 375.40405273 93.64868164 375.40405273 C93.64868164 358.90405273 93.64868164 342.40405273 93.64868164 325.40405273 C85.39868164 325.40405273 77.14868164 325.40405273 68.64868164 325.40405273 Z M-127.35131836 334.40405273 C-127.35131836 347.93405273 -127.35131836 361.46405273 -127.35131836 375.40405273 C-116.46131836 375.40405273 -105.57131836 375.40405273 -94.35131836 375.40405273 C-94.35131836 361.87405273 -94.35131836 348.34405273 -94.35131836 334.40405273 C-105.24131836 334.40405273 -116.13131836 334.40405273 -127.35131836 334.40405273 Z M213.64868164 334.40405273 C213.64868164 347.93405273 213.64868164 361.46405273 213.64868164 375.40405273 C224.53868164 375.40405273 235.42868164 375.40405273 246.64868164 375.40405273 C246.64868164 361.87405273 246.64868164 348.34405273 246.64868164 334.40405273 C235.75868164 334.40405273 224.86868164 334.40405273 213.64868164 334.40405273 Z " fill="#1F686A" transform="translate(196.351318359375,118.595947265625)"/>
<path d="M0 0 C6.06190963 4.34267055 8.96759038 12.83257695 11.75 19.5 C11.75 20.16 11.75 20.82 11.75 21.5 C13.36068359 21.66435547 13.36068359 21.66435547 15.00390625 21.83203125 C16.4401678 21.99161587 17.87636233 22.15180442 19.3125 22.3125 C20.01697266 22.38275391 20.72144531 22.45300781 21.44726562 22.52539062 C27.91190743 23.27016503 33.88521066 24.65927089 38.125 30 C38.60710937 30.5878125 39.08921875 31.175625 39.5859375 31.78125 C42.43488556 35.98775049 42.27620563 40.62861148 41.75 45.5 C40.59587332 50.00109405 38.6116371 52.81721604 34.96484375 55.70703125 C29.01128743 60.22672407 29.01128743 60.22672407 26.47509766 66.93408203 C26.6054495 71.57544863 27.31306731 76.04508322 28.12109375 80.609375 C29.13584561 86.72262185 28.06448133 90.5470563 24.5625 95.75 C20.39550298 99.82439709 16.82217284 101.31716122 11.03125 101.828125 C5.3856392 101.74867356 1.24379613 98.93383444 -3.51367188 96.16796875 C-7.45689806 93.876731 -7.45689806 93.876731 -11.84375 94.0625 C-12.6378125 94.536875 -13.431875 95.01125 -14.25 95.5 C-15.25675781 95.99757813 -16.26351562 96.49515625 -17.30078125 97.0078125 C-18.37714844 97.54148437 -19.45351562 98.07515625 -20.5625 98.625 C-26.70949861 101.44929666 -30.70223652 102.95630628 -37.3359375 100.83203125 C-42.49175514 98.6374546 -45.87802605 95.60178879 -48.25 90.5 C-49.38884983 85.79275403 -49.46689578 82.25827456 -48.4296875 77.56640625 C-46.55598512 69.97208271 -46.55598512 69.97208271 -48.28027344 62.66943359 C-50.65624032 59.80185877 -53.35572586 57.52012164 -56.26171875 55.2109375 C-60.25479355 51.93565664 -61.81362178 48.17388616 -62.6484375 43.05859375 C-62.57658981 36.55637802 -61.07784315 32.13517017 -56.5625 27.3125 C-50.32572659 22.19135632 -40.00974478 21.5 -32.25 21.5 C-31.97414062 20.63503906 -31.69828125 19.77007813 -31.4140625 18.87890625 C-25.92703795 2.95180478 -25.92703795 2.95180478 -18.5859375 -0.7890625 C-12.51792695 -2.63584832 -5.81761488 -2.72557548 0 0 Z M-10.25 17.5 C-10.54245605 18.0347998 -10.83491211 18.56959961 -11.13623047 19.12060547 C-12.46226264 21.54070623 -13.79356111 23.9578699 -15.125 26.375 C-15.58519531 27.21675781 -16.04539062 28.05851562 -16.51953125 28.92578125 C-16.96425781 29.73144531 -17.40898437 30.53710938 -17.8671875 31.3671875 C-18.27565918 32.11081543 -18.68413086 32.85444336 -19.10498047 33.62060547 C-20.59473204 36.06583097 -21.60290061 37.32154544 -24.40478516 38.09423828 C-25.27409668 38.25134277 -26.1434082 38.40844727 -27.0390625 38.5703125 C-27.98007813 38.74433594 -28.92109375 38.91835938 -29.890625 39.09765625 C-30.87546875 39.27167969 -31.8603125 39.44570313 -32.875 39.625 C-33.86757812 39.80675781 -34.86015625 39.98851563 -35.8828125 40.17578125 C-38.33735687 40.62420763 -40.79299494 41.06529424 -43.25 41.5 C-39.59970903 45.8333996 -35.88855872 49.9334322 -31.765625 53.82421875 C-29.31533319 56.53343315 -28.25478067 58.4275359 -28.23828125 62.12890625 C-28.34527344 63.09699219 -28.45226562 64.06507812 -28.5625 65.0625 C-28.67078125 66.11050781 -28.7790625 67.15851563 -28.890625 68.23828125 C-29.00921875 69.31464844 -29.1278125 70.39101562 -29.25 71.5 C-29.44142228 73.58297661 -29.62919848 75.66629307 -29.8125 77.75 C-29.95786647 79.33337626 -30.10351606 80.91672673 -30.25 82.5 C-29.1878125 81.9225 -28.125625 81.345 -27.03125 80.75 C-25.60461832 79.99914122 -24.17750915 79.2491892 -22.75 78.5 C-22.05390625 78.1184375 -21.3578125 77.736875 -20.640625 77.34375 C-15.78767385 74.82740496 -11.71801315 73.44133337 -6.25 74.5 C-3.26186461 75.57561898 -0.53141974 76.97536992 2.25 78.5 C2.97703125 78.8815625 3.7040625 79.263125 4.453125 79.65625 C6.22649265 80.58960139 7.98940082 81.54278103 9.75 82.5 C9.605625 81.34242187 9.46125 80.18484375 9.3125 78.9921875 C9.12481224 77.45314789 8.93732273 75.91408409 8.75 74.375 C8.60691406 73.23417969 8.60691406 73.23417969 8.4609375 72.0703125 C7.08988971 60.71020221 7.08988971 60.71020221 9.390625 56.4921875 C11.91250888 53.2939043 14.57543101 50.44978054 17.5 47.625 C18.00660156 47.12742187 18.51320313 46.62984375 19.03515625 46.1171875 C20.26885307 44.90676798 21.50877784 43.70270147 22.75 42.5 C18.30119832 39.71949895 13.05029111 39.52743347 7.94921875 38.90820312 C4.24035788 38.3528483 2.26603101 37.97566124 -0.546875 35.3828125 C-2.60225852 31.9037459 -4.35530639 28.37570777 -6 24.6875 C-6.31582031 23.99462891 -6.63164062 23.30175781 -6.95703125 22.58789062 C-7.72768245 20.89479329 -8.48973362 19.19778588 -9.25 17.5 C-9.58 17.5 -9.91 17.5 -10.25 17.5 Z " fill="#1F686A" transform="translate(266.25,1.5)"/>
<path d="M0 0 C3.39557453 3.06429897 6.01759637 5.48452279 7.35546875 9.97265625 C8.42832813 13.29633082 9.33942374 15.59732531 11.5625 18.3125 C15.64551257 19.69089722 19.39044122 20.23993426 23.65234375 20.65234375 C29.15410643 21.58121277 32.27718983 23.81876115 35.875 28 C38.70836185 33.56178438 38.99249046 38.09088261 37.8125 44.1875 C36.38253284 47.6967914 34.15485466 49.63583281 31.31103516 52.07910156 C28.66694771 54.37996214 26.63341597 56.43887501 24.5625 59.3125 C24.22717896 64.23787129 25.43524574 68.54421446 26.5625 73.3125 C26.77439857 79.36926734 25.59082102 83.63093773 21.5625 88.3125 C17.87958548 91.81126879 14.82049508 92.65599705 9.875 92.9375 C3.88384328 92.78101456 -0.03351036 90.80746143 -4.96484375 87.52734375 C-7.35799365 86.09806771 -7.35799365 86.09806771 -9.96484375 86.46875 C-12.55779743 87.35354936 -14.70187212 88.48941407 -17.0625 89.875 C-23.12568775 92.98340028 -28.97648401 93.71689392 -35.546875 91.6484375 C-39.26607043 89.82062778 -41.93248425 87.19350366 -43.7890625 83.48828125 C-45.36949527 78.18526285 -45.10942523 72.07999204 -43.8125 66.73828125 C-43.16269201 63.93598431 -42.88693846 62.15563421 -43.4375 59.3125 C-45.98066619 55.8886766 -48.7266635 53.01098761 -51.80078125 50.07421875 C-56.33686163 45.32309456 -56.895695 41.10768222 -56.75390625 34.74609375 C-56.14133592 30.03459606 -53.58278315 27.36384195 -50.19921875 24.2578125 C-47.08274337 22.06261485 -44.6529881 21.34379423 -40.9375 20.5625 C-39.8340625 20.32015625 -38.730625 20.0778125 -37.59375 19.828125 C-34.79630341 19.3711164 -32.26251749 19.2070889 -29.4375 19.3125 C-29.27894531 18.755625 -29.12039063 18.19875 -28.95703125 17.625 C-26.88209078 10.83845439 -24.40455857 3.9661763 -18.3125 -0.1875 C-12.44211065 -3.06488997 -5.76790507 -2.83151703 0 0 Z M-9.4375 18.3125 C-9.98019531 19.37210938 -10.52289063 20.43171875 -11.08203125 21.5234375 C-11.80428595 22.91166732 -12.52696435 24.29967676 -13.25 25.6875 C-13.60642578 26.38617188 -13.96285156 27.08484375 -14.33007812 27.8046875 C-14.85698242 28.81015625 -14.85698242 28.81015625 -15.39453125 29.8359375 C-15.71397705 30.45388184 -16.03342285 31.07182617 -16.36254883 31.70849609 C-18.44275477 34.81250542 -20.68624524 35.368346 -24.23046875 36.1640625 C-25.69404721 36.42896358 -27.15896575 36.68654567 -28.625 36.9375 C-29.37458984 37.0715625 -30.12417969 37.205625 -30.89648438 37.34375 C-32.74237928 37.67295419 -34.58980309 37.99356498 -36.4375 38.3125 C-34.9119094 41.96391356 -32.71269091 44.21368112 -29.875 46.9375 C-25.53472222 51.11805556 -25.53472222 51.11805556 -24.4375 53.3125 C-24.42150564 54.7634942 -24.4716851 56.21558507 -24.55859375 57.6640625 C-24.60693359 58.51484375 -24.65527344 59.365625 -24.70507812 60.2421875 C-24.76115234 61.13164063 -24.81722656 62.02109375 -24.875 62.9375 C-24.92720703 63.8346875 -24.97941406 64.731875 -25.03320312 65.65625 C-25.1630435 67.87534012 -25.29801339 70.09399871 -25.4375 72.3125 C-21.99152271 71.23805203 -18.95001115 70.18107356 -15.9375 68.1875 C-12.09889009 66.13110184 -10.69268136 65.87160169 -6.4375 66.3125 C-3.85734762 67.39539051 -1.50722953 68.49061075 0.9375 69.8125 C1.57816406 70.14636719 2.21882813 70.48023438 2.87890625 70.82421875 C4.44583671 71.64276451 6.00500241 72.47614513 7.5625 73.3125 C7.45421875 72.42111328 7.45421875 72.42111328 7.34375 71.51171875 C7.03802515 68.78142597 6.79639977 66.04985821 6.5625 63.3125 C6.4078125 61.91064453 6.4078125 61.91064453 6.25 60.48046875 C5.98202279 56.48872482 5.81497995 53.53169467 7.94921875 50.05078125 C9.73186955 48.02064747 11.61912062 46.18821821 13.5625 44.3125 C15.26829991 42.3421873 16.91374355 40.33144356 18.5625 38.3125 C17.28375 38.209375 16.005 38.10625 14.6875 38 C1.5849839 36.42465067 1.5849839 36.42465067 -2.12255859 32.55273438 C-5.02666482 28.12921982 -6.82185309 23.32858787 -8.4375 18.3125 C-8.7675 18.3125 -9.0975 18.3125 -9.4375 18.3125 Z " fill="#1F686A" transform="translate(380.4375,18.6875)"/>
<path d="M0 0 C5.60942009 2.44774695 8.36874716 6.65351816 11 12 C12.14832849 14.96268749 13.13006372 17.94461404 14 21 C14.7734375 21.03738281 15.546875 21.07476562 16.34375 21.11328125 C24.22607833 21.61080445 30.65153874 22.1610872 36.875 27.4375 C40.95000915 32.35148162 41.4589832 36.02893247 41.30078125 42.33203125 C40.74386193 47.27197797 38.16708336 49.87050068 34.6953125 53.23046875 C29.95323604 57.64944693 29.95323604 57.64944693 27.640625 63.4453125 C27.95351663 66.00608344 28.47051858 68.47564141 29 71 C29.58937824 78.42426461 29.81660637 84.07186908 25 90 C20.17466286 93.84057446 16.1213131 94.72084148 9.98046875 94.54296875 C5.39245721 93.70714489 1.70647829 91.5802654 -2.2734375 89.21484375 C-5.48585962 87.783521 -6.72099004 87.84834772 -10 89 C-11.38170299 89.80886643 -12.73627041 90.66557016 -14.0625 91.5625 C-19.58216545 94.73769217 -24.77289442 94.95049971 -31 94 C-35.90331294 91.72346185 -38.5537698 88.80185929 -41 84 C-42.60133091 78.3310548 -41.72354468 73.72971124 -40.4375 68.0625 C-39.68863456 63.61731156 -39.43372034 61.84050169 -41.984375 58.0546875 C-44.62850794 55.42073015 -44.62850794 55.42073015 -47.44921875 53.18359375 C-51.71509774 49.53179229 -53.57220831 45.8162133 -54.05078125 40.1796875 C-53.93556126 35.23409116 -52.66443494 31.1034068 -49.578125 27.203125 C-45.64678805 23.68927516 -42.29400613 22.79737261 -37.07446289 22.23632812 C-33.41440185 21.83155958 -30.49923664 21.28513413 -27 20 C-24.30529864 16.46901201 -23.0508306 13.61503675 -21.5546875 9.4453125 C-17.29650222 0.00883155 -9.44506369 -0.85414075 0 0 Z M-7 19 C-7.40089844 20.12019531 -7.80179688 21.24039063 -8.21484375 22.39453125 C-12.57765984 33.86586385 -12.57765984 33.86586385 -16.08203125 36.66015625 C-18.42785585 37.43364436 -20.54154109 37.76457458 -23 38 C-25.02201456 38.38975442 -27.04285545 38.78564518 -29.0625 39.1875 C-30.70722165 39.46500448 -32.35269316 39.73827835 -34 40 C-33.63648437 40.42410156 -33.27296875 40.84820312 -32.8984375 41.28515625 C-31.83665547 42.52390196 -30.78252903 43.76923323 -29.734375 45.01953125 C-28.05725205 46.99786988 -28.05725205 46.99786988 -26.265625 48.63671875 C-22.78124211 52.06302859 -21.61117152 54.36886389 -21.5625 59.3125 C-21.67030249 61.21087562 -21.8169283 63.10739963 -22 65 C-22.08121094 65.96679688 -22.16242188 66.93359375 -22.24609375 67.9296875 C-22.46358606 70.29198856 -22.71394665 72.64516793 -23 75 C-22.05898437 74.4946875 -21.11796875 73.989375 -20.1484375 73.46875 C-18.89095981 72.81185867 -17.63312831 72.15564433 -16.375 71.5 C-15.75753906 71.16613281 -15.14007813 70.83226562 -14.50390625 70.48828125 C-10.47751217 68.41150956 -7.51304071 67.36744443 -3 68 C-0.078125 69.3125 -0.078125 69.3125 2.75 71 C6.16161818 73.2458369 6.16161818 73.2458369 10 74 C9.76990234 72.081875 9.76990234 72.081875 9.53515625 70.125 C8.19579895 56.73010612 8.19579895 56.73010612 10.31640625 52.16796875 C12.09538264 50.21993197 13.92753875 48.62686106 16 47 C17.00772566 45.85791092 17.99035138 44.69280676 18.9375 43.5 C19.618125 42.675 20.29875 41.85 21 41 C16.84073711 38.57625688 12.68796716 38.36217093 7.97265625 37.85546875 C4.07159451 36.73282418 2.55574019 35.13035291 0 32 C-1.80078125 28.66796875 -1.80078125 28.66796875 -3.3125 25.1875 C-3.82425781 24.02605469 -4.33601563 22.86460938 -4.86328125 21.66796875 C-5.23839844 20.78753906 -5.61351562 19.90710938 -6 19 C-6.33 19 -6.66 19 -7 19 Z " fill="#1F686A" transform="translate(147,17)"/>
<path d="M0 0 C5.58126654 2.48056291 8.37369676 6.65819832 11 12 C11.84867222 14.33494792 12.44344096 16.57137874 13 19 C14.16015625 19.03867188 14.16015625 19.03867188 15.34375 19.078125 C23.61459585 19.5285176 29.53772854 20.53772854 35.5 26.5 C37.72225099 31.6852523 37.743431 36.44342809 37 42 C35.46653508 45.25094564 34.14173136 47.23724669 31.140625 49.2421875 C28.68059115 51.06261255 27.42418109 52.25128898 26 55 C25.67295399 59.04850536 26.06797353 63.04806928 26.55151367 67.07104492 C27.14776867 72.31524705 27.06692419 75.42724366 24 80 C20.44219836 83.90061065 16.87017617 85.75756976 11.625 86.4375 C7.26212465 86.47745307 4.50536634 84.72782503 0.75 82.625 C-4.06348686 80.17129758 -4.06348686 80.17129758 -9.22265625 80.9375 C-11.27056695 82.05595439 -13.29285738 83.22274747 -15.28515625 84.4375 C-19.32945081 86.76515155 -21.41562093 86.76406318 -26 86 C-30.65878291 84.5355664 -33.39370799 82.74270771 -36.5 78.9375 C-39.37722195 73.03095627 -38.6005124 66.13375575 -36.875 60 C-36.4442786 58.06519502 -36.4442786 58.06519502 -37 56 C-39.31841178 52.93622967 -41.83150159 50.29398082 -44.58203125 47.61328125 C-47.87650368 44.05269635 -48.86963118 41.40798328 -49.3125 36.625 C-48.83877141 31.12974835 -47.23578061 27.51039852 -43.75 23.25 C-40.87459222 20.96274381 -38.11064568 20.65520899 -34.5222168 20.20068359 C-27.90050398 19.46372885 -27.90050398 19.46372885 -22.90234375 15.32421875 C-21.93444995 13.21033868 -21.03135738 11.06544181 -20.19921875 8.89453125 C-16.52881388 0.03534556 -8.58557993 -0.83910059 0 0 Z M-6 21 C-6.32871094 21.83144531 -6.65742188 22.66289063 -6.99609375 23.51953125 C-10.79666467 32.20213636 -10.79666467 32.20213636 -14.15625 34.4296875 C-16.45283121 35.1925929 -18.60437606 35.66842575 -21 36 C-21.70382812 36.12375 -22.40765625 36.2475 -23.1328125 36.375 C-24.74749378 36.63648685 -26.37346087 36.82696392 -28 37 C-25.92617292 40.30276165 -24.18674267 42.82628588 -21.3125 45.5 C-18.47061407 48.57230911 -18.15414629 49.8380503 -18 54 C-18.22875776 57.68045817 -18.5763609 61.33715117 -19 65 C-14.90673793 63.72904849 -14.90673793 63.72904849 -11.0625 61.875 C-7.78926011 60.48635277 -5.54749875 60.59947595 -2 61 C1.4600542 62.44968694 4.73319699 64.1595476 8 66 C7.88140625 64.91460937 7.7628125 63.82921875 7.640625 62.7109375 C7.50924261 61.26573125 7.37909984 59.82041194 7.25 58.375 C7.16878906 57.66214844 7.08757812 56.94929688 7.00390625 56.21484375 C6.56386143 50.88541207 7.51527058 48.27002055 11 44 C11.56203125 43.30132812 12.1240625 42.60265625 12.703125 41.8828125 C13.46882813 41.01269531 13.46882813 41.01269531 14.25 40.125 C14.77078125 39.52945313 15.2915625 38.93390625 15.828125 38.3203125 C16.21484375 37.88460937 16.6015625 37.44890625 17 37 C16.11957031 36.91363281 15.23914063 36.82726562 14.33203125 36.73828125 C4.88389636 35.59527714 4.88389636 35.59527714 0.9375 32.9375 C-1.5632909 29.14597832 -3.35273196 25.22400017 -5 21 C-5.33 21 -5.66 21 -6 21 Z " fill="#1F686A" transform="translate(475,51)"/>
<path d="M0 0 C4.46030669 2.1896051 7.25617442 4.88426163 10 9 C10.29970703 10.09634766 10.29970703 10.09634766 10.60546875 11.21484375 C11.42689258 14.01494597 12.0872225 15.77059494 14 18 C17.17685776 19.00631101 20.13913361 19.56971723 23.42016602 20.04833984 C28.92840445 20.86442513 31.47690682 21.69399723 35 26 C37.96682903 30.88091227 38.52834851 34.95544019 37.77734375 40.5078125 C36.38937888 44.95766973 33.29102421 47.82369559 30 51 C27.4595774 53.33830958 27.4595774 53.33830958 26 56 C26.16703053 59.37801504 26.16703053 59.37801504 26.62109375 61.69140625 C27.55895839 67.40561249 28.09585982 73.60855428 25.5 78.9375 C21.48095669 83.86082806 17.51485542 85.57375332 11.3125 86.625 C7.17912138 86.49557914 4.31633358 84.59732274 0.75 82.625 C-4.06348686 80.17129758 -4.06348686 80.17129758 -9.22265625 80.9375 C-11.26916007 82.05518603 -13.2890024 83.22325246 -15.27734375 84.44140625 C-19.26946271 86.72670821 -21.49215597 86.69949304 -26 86 C-31.26594344 84.14143173 -33.79395768 81.39685804 -37 77 C-38.50547337 72.4835799 -38.40585937 67.98257921 -37.45703125 63.34765625 C-36.89961332 60.35939322 -36.59651843 58.0218194 -37 55 C-39.02061144 52.2269433 -41.17711756 50.17620425 -43.80078125 47.97265625 C-46.89488174 45.19730856 -47.84302849 43.31052955 -48.3359375 39.1953125 C-48.39595732 34.47775494 -48.37631286 30.87806334 -46.5 26.5 C-39.96205244 19.96205244 -32.9890137 19.29963379 -24 19 C-23.82984375 18.41992188 -23.6596875 17.83984375 -23.484375 17.2421875 C-21.53479817 10.95791326 -19.35688887 6.18443359 -14.4375 1.625 C-9.57038192 -0.67581945 -5.29437994 -0.78113802 0 0 Z M-6 21 C-6.39832031 21.84304687 -6.79664062 22.68609375 -7.20703125 23.5546875 C-7.73683594 24.65039062 -8.26664063 25.74609375 -8.8125 26.875 C-9.33457031 27.96554688 -9.85664062 29.05609375 -10.39453125 30.1796875 C-12 33 -12 33 -15 35 C-17.21584546 35.44703234 -19.44841961 35.81463242 -21.6875 36.125 C-22.86699219 36.29257813 -24.04648437 36.46015625 -25.26171875 36.6328125 C-26.16535156 36.75398438 -27.06898437 36.87515625 -28 37 C-27.61328125 37.43570313 -27.2265625 37.87140625 -26.828125 38.3203125 C-26.30734375 38.91585937 -25.7865625 39.51140625 -25.25 40.125 C-24.73953125 40.70507812 -24.2290625 41.28515625 -23.703125 41.8828125 C-23.14109375 42.58148438 -22.5790625 43.28015625 -22 44 C-21.2678125 44.8971875 -20.535625 45.794375 -19.78125 46.71875 C-17.48858363 50.94208278 -17.71953892 53.71873056 -18.25 58.375 C-18.31574219 59.11105469 -18.38148437 59.84710938 -18.44921875 60.60546875 C-18.6128644 62.40557086 -18.80367164 64.20316872 -19 66 C-18.35933594 65.6390625 -17.71867187 65.278125 -17.05859375 64.90625 C-7.93429883 60.01095019 -7.93429883 60.01095019 -2 61 C0.18252804 61.92966917 2.2363122 62.95689178 4.30078125 64.125 C5.97780435 65.15260325 5.97780435 65.15260325 8 65 C7.89300781 64.04738281 7.78601562 63.09476563 7.67578125 62.11328125 C7.55589844 60.85902344 7.43601563 59.60476562 7.3125 58.3125 C7.12107422 56.45044922 7.12107422 56.45044922 6.92578125 54.55078125 C7.0451306 48.84085717 9.97544124 45.82781717 13.6875 41.75 C15.95427836 39.66622492 15.95427836 39.66622492 17 37 C16.18015625 36.87882812 15.3603125 36.75765625 14.515625 36.6328125 C12.89914063 36.38144531 12.89914063 36.38144531 11.25 36.125 C10.18265625 35.96257812 9.1153125 35.80015625 8.015625 35.6328125 C3.25673094 34.63418447 3.25673094 34.63418447 1 33 C-0.703125 30.1796875 -0.703125 30.1796875 -2.25 26.875 C-2.77078125 25.77929688 -3.2915625 24.68359375 -3.828125 23.5546875 C-4.21484375 22.71164063 -4.6015625 21.86859375 -5 21 C-5.33 21 -5.66 21 -6 21 Z " fill="#1F686A" transform="translate(48,51)"/>
<path d="M0 0 C0.89805862 -0.0127597 1.79611725 -0.02551941 2.72138977 -0.03866577 C3.6849791 -0.04089142 4.64856842 -0.04311707 5.64135742 -0.04541016 C6.64011398 -0.05206696 7.63887054 -0.05872375 8.66789246 -0.06558228 C10.78020386 -0.0757017 12.89254719 -0.08039951 15.00488281 -0.08007812 C18.2247437 -0.08444272 21.44322413 -0.12074688 24.6628418 -0.15869141 C26.71817567 -0.16456153 28.77351603 -0.16852961 30.82885742 -0.17041016 C32.26513237 -0.19196671 32.26513237 -0.19196671 33.73042297 -0.21395874 C39.83806305 -0.17254688 43.45239968 0.68841809 48.43432617 4.29052734 C53.89054621 11.18259476 53.64202634 17.1377732 53.68432617 25.60302734 C53.70495117 26.62332031 53.72557617 27.64361328 53.74682617 28.69482422 C53.78544723 36.1631706 53.02791497 41.12058548 48.18432617 47.04052734 C42.15973212 51.96974065 36.77430411 52.74492536 29.24682617 52.68896484 C28.38549072 52.69183502 27.52415527 52.6947052 26.63671875 52.69766235 C24.82478168 52.69969395 23.01282222 52.69422771 21.20092773 52.68164062 C18.4422864 52.66557371 15.68510995 52.68151985 12.92651367 52.70068359 C11.1582813 52.698701 9.39004984 52.69485699 7.62182617 52.68896484 C6.80496338 52.69503754 5.98810059 52.70111023 5.14648438 52.70736694 C-1.42748122 52.62743125 -6.06530194 51.27945953 -11.31567383 47.10302734 C-16.42244945 40.71955781 -17.04869544 34.23260364 -16.94067383 26.35302734 C-16.95227539 25.510625 -16.96387695 24.66822266 -16.97583008 23.80029297 C-16.9423742 16.55709501 -15.83671235 10.02741993 -11.12817383 4.35302734 C-7.41441413 1.36390369 -4.78659643 0.04635617 0 0 Z M1.43432617 18.29052734 C1.43432617 23.57052734 1.43432617 28.85052734 1.43432617 34.29052734 C12.65432617 34.29052734 23.87432617 34.29052734 35.43432617 34.29052734 C35.43432617 29.01052734 35.43432617 23.73052734 35.43432617 18.29052734 C24.21432617 18.29052734 12.99432617 18.29052734 1.43432617 18.29052734 Z " fill="#1F686A" transform="translate(382.565673828125,255.70947265625)"/>
<path d="M0 0 C0.89805862 -0.0127597 1.79611725 -0.02551941 2.72138977 -0.03866577 C3.6849791 -0.04089142 4.64856842 -0.04311707 5.64135742 -0.04541016 C6.64011398 -0.05206696 7.63887054 -0.05872375 8.66789246 -0.06558228 C10.78020386 -0.0757017 12.89254719 -0.08039951 15.00488281 -0.08007812 C18.2247437 -0.08444272 21.44322413 -0.12074688 24.6628418 -0.15869141 C26.71817567 -0.16456153 28.77351603 -0.16852961 30.82885742 -0.17041016 C32.26513237 -0.19196671 32.26513237 -0.19196671 33.73042297 -0.21395874 C39.83724009 -0.17255246 43.42748861 0.73851145 48.43432617 4.29052734 C53.86232503 10.51184911 53.6385504 18.32686804 53.68432617 26.10302734 C53.70495117 26.96734375 53.72557617 27.83166016 53.74682617 28.72216797 C53.7896226 35.8103267 52.73401937 41.41591084 48.18432617 47.10302734 C42.1077443 51.93667202 36.77019401 52.7448948 29.24682617 52.68896484 C28.38549072 52.69183502 27.52415527 52.6947052 26.63671875 52.69766235 C24.82478168 52.69969395 23.01282222 52.69422771 21.20092773 52.68164062 C18.4422864 52.66557371 15.68510995 52.68151985 12.92651367 52.70068359 C11.1582813 52.698701 9.39004984 52.69485699 7.62182617 52.68896484 C6.80496338 52.69503754 5.98810059 52.70111023 5.14648438 52.70736694 C-1.43959333 52.62728398 -6.10583033 51.30312657 -11.31567383 47.04052734 C-16.81691913 40.31678308 -17.03748816 34.19186018 -16.94067383 25.79052734 C-16.95227539 24.78376953 -16.96387695 23.77701172 -16.97583008 22.73974609 C-16.94660561 15.30699088 -16.1258504 10.24457723 -11.12817383 4.47802734 C-7.45313828 1.34080188 -4.84189218 0.04689169 0 0 Z M1.43432617 18.29052734 C1.43432617 23.57052734 1.43432617 28.85052734 1.43432617 34.29052734 C12.65432617 34.29052734 23.87432617 34.29052734 35.43432617 34.29052734 C35.43432617 29.01052734 35.43432617 23.73052734 35.43432617 18.29052734 C24.21432617 18.29052734 12.99432617 18.29052734 1.43432617 18.29052734 Z " fill="#1F686A" transform="translate(92.565673828125,255.70947265625)"/>
<path d="M0 0 C0.77470642 -0.00960754 1.54941284 -0.01921509 2.34759521 -0.02911377 C3.17680481 -0.03336365 4.0060144 -0.03761353 4.86035156 -0.04199219 C5.72356018 -0.04769226 6.5867688 -0.05339233 7.47613525 -0.05926514 C9.3017861 -0.06870013 11.12745385 -0.07524315 12.953125 -0.07910156 C15.72719568 -0.08878418 18.50051784 -0.11981202 21.27441406 -0.15136719 C23.05305552 -0.15790027 24.83170225 -0.16314954 26.61035156 -0.16699219 C27.43146423 -0.17933899 28.2525769 -0.19168579 29.09857178 -0.20440674 C34.97247097 -0.18201653 40.87842638 0.48524876 45.5302124 4.47161865 C51.44019551 11.06778058 51.34004815 18.22858136 51.31347656 26.59863281 C51.32958984 27.60990234 51.34570312 28.62117188 51.36230469 29.66308594 C51.36718065 37.13794025 50.59248727 42.17092815 45.56347656 47.97363281 C41.88183955 51.11649367 39.26970206 52.40486664 34.41943359 52.45166016 C33.51814728 52.46441986 32.61686096 52.47717957 31.68826294 52.49032593 C30.23817337 52.4936644 30.23817337 52.4936644 28.75878906 52.49707031 C27.75766083 52.50372711 26.75653259 52.51038391 25.72506714 52.51724243 C23.60855952 52.52736098 21.49202006 52.5320597 19.37548828 52.53173828 C16.14464479 52.53610757 12.91517183 52.57242561 9.68457031 52.61035156 C7.62598122 52.61622071 5.56738566 52.62018945 3.50878906 52.62207031 C2.54611115 52.63644135 1.58343323 52.65081238 0.59158325 52.6656189 C-5.13133555 52.6268188 -8.47394283 52.01550165 -12.99902344 48.16113281 C-19.19183949 41.79629409 -19.32430209 34.567249 -19.24902344 26.16113281 C-19.25675781 25.29746094 -19.26449219 24.43378906 -19.27246094 23.54394531 C-19.2494864 15.98532248 -18.49830435 9.81753603 -12.99902344 4.16113281 C-8.7642782 1.19681115 -5.12649183 0.0516596 0 0 Z M-0.99902344 18.16113281 C-0.99902344 23.44113281 -0.99902344 28.72113281 -0.99902344 34.16113281 C10.22097656 34.16113281 21.44097656 34.16113281 33.00097656 34.16113281 C33.00097656 28.88113281 33.00097656 23.60113281 33.00097656 18.16113281 C21.78097656 18.16113281 10.56097656 18.16113281 -0.99902344 18.16113281 Z " fill="#1F686A" transform="translate(384.9990234375,186.8388671875)"/>
<path d="M0 0 C0.8627504 -0.00428513 1.72550079 -0.00857025 2.61439514 -0.01298523 C4.43229294 -0.01870754 6.25021363 -0.01924432 8.06811523 -0.01489258 C10.83552437 -0.0117326 13.6018634 -0.03521767 16.36914062 -0.06054688 C18.14192575 -0.06282023 19.91471372 -0.0635232 21.6875 -0.0625 C22.50749985 -0.07170975 23.32749969 -0.08091949 24.17234802 -0.09040833 C30.76787829 -0.03780194 35.39205311 1.29774466 40.66015625 5.48828125 C45.76693187 11.87175078 46.39317786 18.35870496 46.28515625 26.23828125 C46.29675781 27.08068359 46.30835938 27.92308594 46.3203125 28.79101562 C46.28947144 35.46810404 45.48773846 42.13190512 41.15625 47.45703125 C40.26099609 48.1221875 40.26099609 48.1221875 39.34765625 48.80078125 C38.74824219 49.26484375 38.14882812 49.72890625 37.53125 50.20703125 C34.70957949 52.11080895 32.94083441 52.43588474 29.5715332 52.4777832 C28.67332352 52.49061844 27.77511383 52.50345367 26.84968567 52.51667786 C25.87577377 52.52406479 24.90186188 52.53145172 23.8984375 52.5390625 C22.89685104 52.54713425 21.89526459 52.55520599 20.86332703 52.56352234 C18.73906183 52.57737092 16.61477432 52.5880896 14.49047852 52.59594727 C11.25298344 52.61312038 8.01651999 52.65699539 4.77929688 52.70117188 C2.71485126 52.71130227 0.65039695 52.71981728 -1.4140625 52.7265625 C-2.37785324 52.74407059 -3.34164398 52.76157867 -4.3346405 52.77961731 C-10.46935753 52.75998043 -14.08916563 51.92546408 -19.08984375 48.30078125 C-24.53335872 41.42476234 -24.29746031 35.49568219 -24.33984375 27.05078125 C-24.36046875 26.03886719 -24.38109375 25.02695313 -24.40234375 23.984375 C-24.43618197 17.4620585 -24.26797821 10.98620967 -19.77905273 5.78076172 C-13.85069661 0.43165157 -7.56864088 -0.00839162 0 0 Z M-6.08984375 18.30078125 C-6.08984375 23.58078125 -6.08984375 28.86078125 -6.08984375 34.30078125 C5.13015625 34.30078125 16.35015625 34.30078125 27.91015625 34.30078125 C27.91015625 29.02078125 27.91015625 23.74078125 27.91015625 18.30078125 C16.69015625 18.30078125 5.47015625 18.30078125 -6.08984375 18.30078125 Z " fill="#1F686A" transform="translate(100.08984375,186.69921875)"/>
<path d="M0 0 C0.86132034 -0.00960754 1.72264069 -0.01921509 2.61006165 -0.02911377 C3.53820175 -0.03336365 4.46634186 -0.03761353 5.42260742 -0.04199219 C6.38075851 -0.04769226 7.33890961 -0.05339233 8.32609558 -0.05926514 C10.3544301 -0.06871263 12.38277995 -0.07524813 14.41113281 -0.07910156 C17.50572687 -0.08879717 20.5996539 -0.11981896 23.6940918 -0.15136719 C25.66609307 -0.15789849 27.63809908 -0.16314846 29.61010742 -0.16699219 C30.53217484 -0.17933899 31.45424225 -0.19168579 32.4042511 -0.20440674 C37.60461608 -0.18648388 41.22793127 0.2369394 45.71557617 3.16113281 C52.58060101 10.18218094 53.05941675 16.67156947 53.02807617 26.03613281 C53.04418945 26.99132812 53.06030273 27.94652344 53.0769043 28.93066406 C53.08124493 35.25931204 52.78435999 41.68989467 48.36962891 46.68359375 C42.38156729 51.98039422 36.94848585 52.47750812 29.32104492 52.49707031 C27.96176628 52.50705551 27.96176628 52.50705551 26.57502747 52.51724243 C24.66120425 52.52734719 22.74734596 52.53206013 20.83349609 52.53173828 C17.92314771 52.53610271 15.01432754 52.57242078 12.10424805 52.61035156 C10.23901882 52.61622214 8.37378244 52.62018992 6.50854492 52.62207031 C5.21596016 52.64362686 5.21596016 52.64362686 3.89726257 52.6656189 C-3.16218572 52.61291037 -8.54675498 50.82675774 -13.65942383 45.84863281 C-17.42996633 39.6127356 -17.62370627 33.38883728 -17.59692383 26.28613281 C-17.61303711 25.43921875 -17.62915039 24.59230469 -17.64575195 23.71972656 C-17.65089343 17.00495795 -16.86644986 10.40040183 -12.56567383 5.00488281 C-11.97786133 4.56144531 -11.39004883 4.11800781 -10.78442383 3.66113281 C-10.19661133 3.19707031 -9.60879883 2.73300781 -9.00317383 2.25488281 C-6.02260416 0.35815666 -3.43847504 0.03101868 0 0 Z M0.71557617 18.16113281 C0.71557617 23.44113281 0.71557617 28.72113281 0.71557617 34.16113281 C11.93557617 34.16113281 23.15557617 34.16113281 34.71557617 34.16113281 C34.71557617 28.88113281 34.71557617 23.60113281 34.71557617 18.16113281 C23.49557617 18.16113281 12.27557617 18.16113281 0.71557617 18.16113281 Z " fill="#1F686A" transform="translate(383.284423828125,323.8388671875)"/>
<path d="M0 0 C0.86132034 -0.00960754 1.72264069 -0.01921509 2.61006165 -0.02911377 C3.53820175 -0.03336365 4.46634186 -0.03761353 5.42260742 -0.04199219 C6.38075851 -0.04769226 7.33890961 -0.05339233 8.32609558 -0.05926514 C10.3544301 -0.06871263 12.38277995 -0.07524813 14.41113281 -0.07910156 C17.50572687 -0.08879717 20.5996539 -0.11981896 23.6940918 -0.15136719 C25.66609307 -0.15789849 27.63809908 -0.16314846 29.61010742 -0.16699219 C30.53217484 -0.17933899 31.45424225 -0.19168579 32.4042511 -0.20440674 C39.22164491 -0.18091085 43.49559664 0.94115328 48.46557617 5.91113281 C52.87423071 12.27918937 53.05642003 18.51934086 53.02807617 26.03613281 C53.04418945 26.88304687 53.06030273 27.72996094 53.0769043 28.60253906 C53.08167979 34.8393316 52.5596843 41.7949428 48.36962891 46.75415039 C42.40981683 51.99455995 36.8872917 52.47766506 29.32104492 52.49707031 C27.96176628 52.50705551 27.96176628 52.50705551 26.57502747 52.51724243 C24.66120425 52.52734719 22.74734596 52.53206013 20.83349609 52.53173828 C17.92314771 52.53610271 15.01432754 52.57242078 12.10424805 52.61035156 C10.23901882 52.61622214 8.37378244 52.62018992 6.50854492 52.62207031 C5.21596016 52.64362686 5.21596016 52.64362686 3.89726257 52.6656189 C-3.1727587 52.61283143 -8.59837844 50.8471782 -13.65942383 45.78613281 C-17.56314435 39.48012275 -17.62103966 33.4919439 -17.59692383 26.28613281 C-17.61303711 25.3309375 -17.62915039 24.37574219 -17.64575195 23.39160156 C-17.6504321 16.56795326 -17.11371681 10.54985417 -12.56567383 5.10253906 C-11.97786133 4.6475 -11.39004883 4.19246094 -10.78442383 3.72363281 C-9.90270508 3.01400391 -9.90270508 3.01400391 -9.00317383 2.29003906 C-6.03793847 0.34241857 -3.44776735 0.0311025 0 0 Z M0.71557617 18.16113281 C0.71557617 23.44113281 0.71557617 28.72113281 0.71557617 34.16113281 C11.93557617 34.16113281 23.15557617 34.16113281 34.71557617 34.16113281 C34.71557617 28.88113281 34.71557617 23.60113281 34.71557617 18.16113281 C23.49557617 18.16113281 12.27557617 18.16113281 0.71557617 18.16113281 Z " fill="#1F686A" transform="translate(93.284423828125,323.8388671875)"/>
<path d="M0 0 C1.27037109 -0.02416992 1.27037109 -0.02416992 2.56640625 -0.04882812 C9.28117487 -0.0539696 15.88573098 0.73047397 21.28125 5.03125 C21.7246875 5.6190625 22.168125 6.206875 22.625 6.8125 C23.0890625 7.4003125 23.553125 7.988125 24.03125 8.59375 C27.39430775 13.87855504 26.34988542 20.60691785 26.375 26.625 C26.395625 27.84896484 26.41625 29.07292969 26.4375 30.33398438 C26.44523437 32.11192383 26.44523437 32.11192383 26.453125 33.92578125 C26.46714355 35.54673706 26.46714355 35.54673706 26.48144531 37.20043945 C25.89354122 42.3333254 23.96976069 45.48651177 20.3125 49.0625 C13.88019891 53.60294783 7.86568341 53.65048756 0.25 53.625 C-1.18279297 53.64916992 -1.18279297 53.64916992 -2.64453125 53.67382812 C-8.97317923 53.67816876 -15.40376185 53.38128382 -20.39746094 48.96655273 C-26.38609469 42.19636984 -26.24006699 35.58708912 -26.25 27 C-26.27449219 25.89720703 -26.29898437 24.79441406 -26.32421875 23.65820312 C-26.35307982 15.6011533 -25.38064776 9.912895 -19.5625 3.9375 C-13.32660279 0.1669575 -7.10270447 -0.02678245 0 0 Z M-7.875 18.3125 C-7.875 23.9225 -7.875 29.5325 -7.875 35.3125 C-2.595 35.3125 2.685 35.3125 8.125 35.3125 C8.125 29.7025 8.125 24.0925 8.125 18.3125 C2.845 18.3125 -2.435 18.3125 -7.875 18.3125 Z " fill="#1F686A" transform="translate(289.875,237.6875)"/>
<path d="M0 0 C1.27037109 -0.02416992 1.27037109 -0.02416992 2.56640625 -0.04882812 C8.80319879 -0.05360362 15.75880999 0.46839187 20.71801758 4.65844727 C26.64622417 11.40047702 26.49014454 18.10495913 26.5 26.625 C26.52449219 27.72779297 26.54898438 28.83058594 26.57421875 29.96679688 C26.59909429 36.91121742 25.85918294 41.41606039 22.125 47.3125 C16.61915596 52.81834404 10.65037299 53.57815872 3.16796875 53.63476562 C2.20503906 53.63154297 1.24210937 53.62832031 0.25 53.625 C-1.18279297 53.64916992 -1.18279297 53.64916992 -2.64453125 53.67382812 C-9.46817956 53.67850827 -15.48627864 53.14179298 -20.93359375 48.59375 C-21.38863281 48.0059375 -21.84367188 47.418125 -22.3125 46.8125 C-22.78558594 46.2246875 -23.25867188 45.636875 -23.74609375 45.03125 C-27.18129073 39.80119231 -26.09997076 32.99763222 -26.125 27 C-26.145625 25.77603516 -26.16625 24.55207031 -26.1875 23.29101562 C-26.19265625 22.10572266 -26.1978125 20.92042969 -26.203125 19.69921875 C-26.2124707 18.61858154 -26.22181641 17.53794434 -26.23144531 16.42456055 C-25.64748358 11.32609466 -23.71688217 8.15438217 -20.125 4.5625 C-13.75694344 0.15384546 -7.51679195 -0.02834386 0 0 Z M-7.875 18.3125 C-7.875 23.9225 -7.875 29.5325 -7.875 35.3125 C-2.595 35.3125 2.685 35.3125 8.125 35.3125 C8.125 29.7025 8.125 24.0925 8.125 18.3125 C2.845 18.3125 -2.435 18.3125 -7.875 18.3125 Z " fill="#1F686A" transform="translate(221.875,237.6875)"/>
<path d="M0 0 C1.05058594 -0.02449219 2.10117188 -0.04898437 3.18359375 -0.07421875 C10.4097238 -0.10135065 16.24403941 0.75927395 21.67895508 5.82275391 C27.21172375 12.03015521 26.36949158 18.726956 26.4375 26.625 C26.46650391 27.73230469 26.49550781 28.83960938 26.52539062 29.98046875 C26.57929637 36.95504231 25.89824547 41.46036886 22.125 47.375 C15.95753287 53.24161507 9.95450341 52.62180142 1.83813477 52.67016602 C-0.16999192 52.68735018 -2.17783174 52.73125424 -4.18554688 52.77539062 C-6.09883789 52.78795898 -6.09883789 52.78795898 -8.05078125 52.80078125 C-9.21520752 52.81536377 -10.37963379 52.82994629 -11.5793457 52.8449707 C-16.71060102 52.1132375 -19.77701831 49.59168242 -23.1875 45.8125 C-27.15578616 40.08053111 -26.13695872 33.27101199 -26.1875 26.5625 C-26.21650391 25.29083984 -26.24550781 24.01917969 -26.27539062 22.70898438 C-26.35385038 11.18747052 -26.35385038 11.18747052 -21.875 6.375 C-21.25625 5.6325 -20.6375 4.89 -20 4.125 C-14.25001297 -0.61028343 -7.06231869 0.00860209 0 0 Z M-7.875 18.375 C-7.875 23.655 -7.875 28.935 -7.875 34.375 C-2.595 34.375 2.685 34.375 8.125 34.375 C8.125 29.095 8.125 23.815 8.125 18.375 C2.845 18.375 -2.435 18.375 -7.875 18.375 Z " fill="#1F686A" transform="translate(221.875,314.625)"/>
<path d="M0 0 C1.27166016 -0.020625 2.54332031 -0.04125 3.85351562 -0.0625 C5.08392578 -0.06765625 6.31433594 -0.0728125 7.58203125 -0.078125 C8.70456299 -0.0874707 9.82709473 -0.09681641 10.98364258 -0.10644531 C15.27201984 0.37065831 18.63240642 1.83157735 21.83203125 4.75 C27.14499709 11.57334074 26.43700397 17.7008275 26.5 26.0625 C26.52900391 27.33416016 26.55800781 28.60582031 26.58789062 29.91601562 C26.64373118 38.11598653 26.25732338 41.96651089 20.625 47.89453125 C14.25338938 53.07146488 8.36773592 52.49118493 0.4375 52.5625 C-1.15191406 52.60600586 -1.15191406 52.60600586 -2.7734375 52.65039062 C-10.03894477 52.70898343 -15.94596667 51.94213524 -21.3659668 46.76660156 C-26.80342086 40.56278203 -26.06078067 34.39297692 -26.125 26.5625 C-26.15400391 25.40298828 -26.18300781 24.24347656 -26.21289062 23.04882812 C-26.26544121 15.93833034 -25.69169964 11.26700675 -21.8125 5.25 C-15.29113631 -0.95324839 -8.53154601 0.03428045 0 0 Z M-7.8125 18.25 C-7.8125 23.53 -7.8125 28.81 -7.8125 34.25 C-2.5325 34.25 2.7475 34.25 8.1875 34.25 C8.1875 28.97 8.1875 23.69 8.1875 18.25 C2.9075 18.25 -2.3725 18.25 -7.8125 18.25 Z " fill="#1F686A" transform="translate(289.8125,161.75)"/>
<path d="M0 0 C1.26328125 -0.02900391 2.5265625 -0.05800781 3.828125 -0.08789062 C10.83150466 -0.13570782 15.65485053 -0.09387834 21.25 4.3125 C26.76158912 11.41954913 26.49171916 17.39892567 26.5625 26.0625 C26.59150391 27.23039062 26.62050781 28.39828125 26.65039062 29.6015625 C26.70065161 36.42159139 26.41445122 40.81328877 22.25 46.3125 C15.56495774 52.65471958 9.15137961 52.65140307 0.375 52.625 C-1.22021484 52.64916992 -1.22021484 52.64916992 -2.84765625 52.67382812 C-9.82679673 52.67816299 -15.30043761 52.39786556 -20.7109375 47.55859375 C-21.17757812 46.96175781 -21.64421875 46.36492187 -22.125 45.75 C-22.60710937 45.15058594 -23.08921875 44.55117187 -23.5859375 43.93359375 C-27.16434022 38.95024768 -26.01816234 32.52782056 -26.0625 26.625 C-26.09150391 25.35720703 -26.12050781 24.08941406 -26.15039062 22.78320312 C-26.19824084 15.74922161 -26.1339956 10.95249434 -21.75 5.3125 C-15.14850862 -0.80595543 -8.57432496 0.06482605 0 0 Z M-7.75 18.3125 C-7.75 23.5925 -7.75 28.8725 -7.75 34.3125 C-2.47 34.3125 2.81 34.3125 8.25 34.3125 C8.25 29.0325 8.25 23.7525 8.25 18.3125 C2.97 18.3125 -2.31 18.3125 -7.75 18.3125 Z " fill="#1F686A" transform="translate(221.75,161.6875)"/>
<path d="M0 0 C1.06347656 -0.01611328 2.12695312 -0.03222656 3.22265625 -0.04882812 C10.20179673 -0.05316299 15.67543761 0.22713444 21.0859375 5.06640625 C21.55257812 5.66324219 22.01921875 6.26007813 22.5 6.875 C22.98210937 7.47441406 23.46421875 8.07382812 23.9609375 8.69140625 C27.54826959 13.68718751 26.35138552 20.14707179 26.375 26.0625 C26.395625 27.33867187 26.41625 28.61484375 26.4375 29.9296875 C26.44523437 31.78207031 26.44523437 31.78207031 26.453125 33.671875 C26.4624707 34.80077148 26.47181641 35.92966797 26.48144531 37.09277344 C26.00481416 41.39812391 24.55933875 44.77596918 21.58984375 47.95703125 C15.20748018 52.83766222 10.90857091 52.56050112 2.96850586 52.60766602 C0.96249427 52.62478668 -1.04323089 52.66867119 -3.04882812 52.71289062 C-15.25824183 52.79301298 -15.25824183 52.79301298 -20.875 48.3125 C-26.27437159 41.35015243 -26.1149979 35.60774581 -26.1875 27.125 C-26.21650391 26.01318359 -26.24550781 24.90136719 -26.27539062 23.75585938 C-26.32920948 16.76354814 -25.6538843 12.24382573 -21.875 6.3125 C-15.30604385 -0.08802138 -8.69904524 -0.02617041 0 0 Z M-7.875 18.3125 C-7.875 23.5925 -7.875 28.8725 -7.875 34.3125 C-2.595 34.3125 2.685 34.3125 8.125 34.3125 C8.125 29.0325 8.125 23.7525 8.125 18.3125 C2.845 18.3125 -2.435 18.3125 -7.875 18.3125 Z " fill="#1F686A" transform="translate(289.875,314.6875)"/>
</svg>