<svg version="1.1" xmlns="http://www.w3.org/2000/svg" width="512" height="512">
<path d="M0 0 C2.05876931 -0.00965086 4.116516 -0.04066047 6.17504883 -0.07226562 C21.18882307 -0.13117205 21.18882307 -0.13117205 27.63793945 5.03710938 C34.59910023 13.36385671 34.6819479 20.66688399 34.39575195 31.24023438 C35.5559082 31.18802734 35.5559082 31.18802734 36.73950195 31.13476562 C45.15265101 30.91610705 50.66204892 31.72716502 57.64575195 36.42773438 C63.25384392 42.16328298 65.5184165 48.65025634 65.52514648 56.58789062 C65.52829865 57.65579834 65.53145081 58.72370605 65.53469849 59.82397461 C65.53166214 61.54596069 65.53166214 61.54596069 65.52856445 63.30273438 C65.52999954 65.07789429 65.52999954 65.07789429 65.53146362 66.88891602 C65.53214397 69.39046278 65.53029978 71.89201132 65.52612305 74.39355469 C65.5207728 78.22530071 65.52607298 82.05692951 65.5324707 85.88867188 C65.5318099 88.31835963 65.53052868 90.74804732 65.52856445 93.17773438 C65.53058868 94.3257251 65.53261292 95.47371582 65.53469849 96.65649414 C65.53154633 97.72440186 65.52839417 98.79230957 65.52514648 99.89257812 C65.52395309 101.30011353 65.52395309 101.30011353 65.5227356 102.73608398 C65.4053704 105.05055611 65.05008213 107.02446675 64.39575195 109.24023438 C65.2155957 109.19382812 66.03543945 109.14742188 66.88012695 109.09960938 C67.9577832 109.06351562 69.03543945 109.02742188 70.14575195 108.99023438 C71.2130957 108.94382812 72.28043945 108.89742188 73.38012695 108.84960938 C76.39575195 109.24023438 76.39575195 109.24023438 78.7512207 111.04101562 C80.39575195 113.24023438 80.39575195 113.24023438 80.95825195 116.67773438 C80.39575195 120.24023438 80.39575195 120.24023438 78.52075195 123.17773438 C73.98219768 126.1731802 70.76763263 125.59835975 65.39575195 125.24023438 C65.39575195 130.19023437 65.39575195 135.14023438 65.39575195 140.24023438 C67.29325195 140.15773437 69.19075195 140.07523438 71.14575195 139.99023438 C76.73787396 139.74709864 76.73787396 139.74709864 79.7512207 142.00585938 C81.47508257 144.34801849 81.96384286 145.37769101 81.95825195 148.24023438 C81.98016602 148.90023437 82.00208008 149.56023437 82.0246582 150.24023438 C80.96124172 153.6220309 79.4675282 154.43774469 76.39575195 156.24023438 C72.20300467 156.84800464 68.03265976 156.76882906 63.80271912 156.7322998 C61.86115664 156.73931829 61.86115664 156.73931829 59.88037068 156.74647856 C56.28897517 156.75899251 52.69802629 156.74668249 49.10666168 156.73040366 C45.23257571 156.71723675 41.35854302 156.7271953 37.48445129 156.73451233 C30.77011517 156.74419714 24.05590878 156.73972126 17.34158134 156.72608948 C7.62072489 156.70672511 -2.09998572 156.71316676 -11.82084595 156.72666329 C-27.60941228 156.74825397 -43.39794423 156.75495662 -59.18652344 156.74951172 C-60.1315637 156.74919109 -61.07660397 156.74887045 -62.05028182 156.7485401 C-69.71427482 156.74582862 -77.37826747 156.74239898 -85.04226017 156.73893452 C-91.73129834 156.73594035 -98.42033654 156.73323159 -105.109375 156.73095703 C-106.52202421 156.73046876 -106.52202421 156.73046876 -107.96321178 156.72997063 C-123.6841814 156.72502291 -139.40510333 156.73572977 -155.12605804 156.75752878 C-164.81756396 156.77020943 -174.50887292 156.76880565 -184.2003681 156.74907792 C-190.84754232 156.73644138 -197.49461696 156.73795897 -204.14179111 156.75045145 C-207.97319788 156.75714437 -211.80431347 156.75734227 -215.6356926 156.73987007 C-219.79811547 156.72101074 -223.95989098 156.73324818 -228.12232971 156.74816895 C-229.92076501 156.7324356 -229.92076501 156.7324356 -231.75553232 156.71638441 C-244.57854843 156.81842953 -255.07660931 160.56918145 -264.60424805 169.24023438 C-286.2576449 192.78528486 -276.2899796 241.61290628 -276.60424805 264.24023438 C-128.10424805 264.24023438 20.39575195 264.24023438 173.39575195 264.24023438 C171.80510573 244.38539568 171.80510573 244.38539568 167.13891602 225.57080078 C166.85584595 224.7024762 166.57277588 223.83415161 166.28112793 222.93951416 C165.98895386 222.04875183 165.69677979 221.1579895 165.39575195 220.24023438 C164.78524321 218.32952238 164.17556152 216.41854595 163.56665039 214.50732422 C161.99625599 209.61649147 160.38500437 204.74035948 158.75415039 199.86938477 C157.75707317 196.88681688 156.77145064 193.90061358 155.78637695 190.9140625 C155.14382582 188.98480009 154.50062124 187.05575515 153.85668945 185.12695312 C153.56805023 184.24980148 153.27941101 183.37264984 152.98202515 182.46891785 C149.49723226 171.92029639 149.49723226 171.92029639 142.64575195 163.42773438 C142.0321582 162.88503906 141.41856445 162.34234375 140.78637695 161.78320312 C133.47092523 157.06162889 126.63003636 156.78611027 118.14575195 156.67773438 C116.01538938 156.64325009 113.88513909 156.6006177 111.75512695 156.54882812 C110.82152344 156.53650146 109.88791992 156.5241748 108.92602539 156.51147461 C106.27310838 156.22708723 104.64960594 155.64149156 102.39575195 154.24023438 C100.31416175 151.56390412 100.39987605 150.1226977 100.52075195 146.67773438 C101.39575195 143.24023437 101.39575195 143.24023437 103.07885742 141.55029297 C106.0044337 139.89606301 107.98862064 139.85263619 111.34106445 139.84179688 C113.08129883 139.83599609 113.08129883 139.83599609 114.85668945 139.83007812 C116.06583008 139.84167969 117.2749707 139.85328125 118.52075195 139.86523438 C120.2996582 139.84783203 120.2996582 139.84783203 122.11450195 139.83007812 C135.71880057 139.87512547 146.51661135 143.60265523 156.64575195 152.86523438 C164.1480871 160.96196217 167.58253779 171.87952139 170.99731445 182.17773438 C171.40106293 183.37849609 171.8048114 184.57925781 172.22079468 185.81640625 C173.06719874 188.34285589 173.90979834 190.87020703 174.74633789 193.39990234 C175.58997686 195.94911875 176.44307428 198.49481436 177.3059082 201.03759766 C178.57003563 204.76764336 179.81707496 208.50301483 181.05981445 212.24023438 C181.43594879 213.34616943 181.81208313 214.45210449 182.19961548 215.59155273 C187.63648088 232.18492847 189.99644393 248.29179232 190.00512695 265.69335938 C190.02016671 267.45840933 190.03690556 269.22344552 190.05523682 270.98846436 C190.09827391 275.55847949 190.11876509 280.12830523 190.13397217 284.69848633 C190.1537773 289.39220092 190.19571782 294.08571751 190.2355957 298.77929688 C190.31020507 307.93288063 190.36091144 317.08641866 190.39575195 326.24023438 C190.93917236 326.49272949 191.48259277 326.74522461 192.04248047 327.00537109 C192.75847412 327.34842285 193.47446777 327.69147461 194.2121582 328.04492188 C194.92057861 328.37991699 195.62899902 328.71491211 196.35888672 329.06005859 C200.07207465 331.21150897 202.48068054 334.41009155 204.39575195 338.24023438 C204.66470116 341.98433336 204.62737903 345.73756494 204.64575195 349.49023438 C204.67668945 351.04677734 204.67668945 351.04677734 204.70825195 352.63476562 C204.74125229 359.09458084 204.44467999 363.89752941 199.89575195 368.88476562 C195.61825503 372.21542078 192.82358729 373.36725663 187.46533203 373.35375977 C186.46452103 373.35368423 185.46371002 373.3536087 184.43257141 373.35353088 C183.3543663 373.3483696 182.27616119 373.34320831 181.1652832 373.33789062 C180.0597258 373.33647568 178.9541684 373.33506073 177.81510925 373.33360291 C174.27946278 373.32799951 170.74387933 373.31544642 167.20825195 373.30273438 C164.81307058 373.29771981 162.41788821 373.29315683 160.02270508 373.2890625 C154.14703249 373.27802898 148.27139672 373.26128753 142.39575195 373.24023438 C142.26773697 373.91932861 142.13972198 374.59842285 142.00782776 375.2980957 C141.74847694 376.64037231 141.74847694 376.64037231 141.48388672 378.00976562 C141.31462173 378.89510986 141.14535675 379.7804541 140.97096252 380.69262695 C137.96638297 393.99990874 128.36851755 405.3198825 117.2121582 412.70507812 C103.31066623 420.2824517 87.65743535 422.62251186 72.3684082 418.27148438 C58.09089935 413.31844582 45.83881271 403.92842641 38.8918457 390.28710938 C36.33166791 384.48112212 35.12054813 379.498123 34.39575195 373.24023438 C33.38857431 373.24438244 33.38857431 373.24438244 32.36104965 373.24861431 C16.02810776 373.31484837 -0.30479163 373.36450236 -16.63783646 373.39567089 C-24.53635733 373.41114414 -32.43478859 373.43224234 -40.33325195 373.46655273 C-47.21702755 373.49644115 -54.10073826 373.51580605 -60.98457694 373.52249986 C-64.63002031 373.52641309 -68.27527802 373.53561904 -71.92066193 373.55742455 C-75.98877726 373.58156163 -80.05656918 373.58220473 -84.12475586 373.58081055 C-85.3353215 373.59159637 -86.54588715 373.6023822 -87.7931366 373.61349487 C-89.45476585 373.60730888 -89.45476585 373.60730888 -91.14996338 373.60099792 C-92.59349119 373.60514599 -92.59349119 373.60514599 -94.06618118 373.60937786 C-97.07631275 373.17157597 -98.42856321 372.33921084 -100.60424805 370.24023438 C-101.77832439 366.63973359 -101.93184481 364.96094725 -100.35424805 361.49023438 C-98.60424805 359.24023438 -98.60424805 359.24023438 -95.60424805 357.24023438 C-93.20484638 356.99413872 -93.20484638 356.99413872 -90.30818176 356.99972534 C-89.21021774 356.99697601 -88.11225372 356.99422668 -86.98101807 356.99139404 C-85.77620789 356.99858459 -84.57139771 357.00577515 -83.33007812 357.01318359 C-82.06167587 357.01289154 -80.79327362 357.01259949 -79.48643494 357.01229858 C-76.00732817 357.01172414 -72.52835898 357.02349316 -69.04928422 357.0374465 C-65.41377854 357.04993867 -61.7782698 357.05112316 -58.14274597 357.05349731 C-51.25795138 357.05971654 -44.37322021 357.07613333 -37.48845357 357.09619629 C-29.65057349 357.11854153 -21.8126904 357.12954526 -13.9747864 357.13958716 C2.14876353 357.16049919 18.27224965 357.19568375 34.39575195 357.24023438 C34.54588242 355.96631332 34.69601288 354.69239227 34.85069275 353.37986755 C35.19854932 350.42815607 35.64641548 347.96880678 36.9621582 345.27539062 C37.27846191 344.62497803 37.59476562 343.97456543 37.9206543 343.30444336 C38.26306152 342.64387939 38.60546875 341.98331543 38.95825195 341.30273438 C39.31612793 340.60543213 39.67400391 339.90812988 40.04272461 339.18969727 C47.61818067 324.9330407 59.17225506 317.06865672 74.39575195 312.24023438 C89.63184906 308.27329035 105.40916072 311.84627832 118.8215332 319.44335938 C122.53242151 322.03366077 125.46132996 325.17543152 128.4230957 328.58007812 C130.22541699 330.48904849 130.22541699 330.48904849 132.4152832 330.09179688 C133.06883789 329.81078125 133.72239258 329.52976562 134.39575195 329.24023438 C135.0299707 328.99144531 135.66418945 328.74265625 136.31762695 328.48632812 C137.22254883 328.08607422 137.22254883 328.08607422 138.14575195 327.67773438 C139.21825195 327.20335937 140.29075195 326.72898437 141.39575195 326.24023438 C141.4215332 325.40621094 141.44731445 324.5721875 141.47387695 323.71289062 C141.92573901 314.74753659 142.84124835 307.21921148 149.64575195 300.86523438 C157.24928186 295.07819258 163.99787221 294.91985211 173.39575195 295.24023438 C173.39575195 290.29023438 173.39575195 285.34023438 173.39575195 280.24023438 C35.12575195 280.24023438 -103.14424805 280.24023438 -245.60424805 280.24023438 C-245.27424805 295.42023438 -244.94424805 310.60023438 -244.60424805 326.24023438 C-239.37765607 328.85508868 -239.37765607 328.85508868 -233.60424805 330.24023438 C-231.68192159 328.62051894 -231.68192159 328.62051894 -229.85424805 326.30273438 C-225.80828306 322.00850951 -221.76952978 319.38087662 -216.54174805 316.80273438 C-215.55126465 316.30882202 -215.55126465 316.30882202 -214.54077148 315.80493164 C-207.05800702 312.25349081 -200.0542512 310.86547655 -191.79174805 310.92773438 C-191.00203613 310.93337402 -190.21232422 310.93901367 -189.39868164 310.94482422 C-175.07764187 311.24104069 -162.23280061 316.84358305 -151.8581543 326.75195312 C-144.11162671 335.30401218 -138.44551275 345.67284476 -137.60424805 357.24023438 C-136.86819336 357.20542969 -136.13213867 357.170625 -135.3737793 357.13476562 C-125.65436311 356.86513849 -125.65436311 356.86513849 -121.60424805 360.24023438 C-119.75392815 362.09055427 -120.31284673 364.6649552 -120.1784668 367.13476562 C-120.81266386 370.27084101 -122.0411265 371.36894726 -124.60424805 373.24023438 C-127.83862305 373.63085938 -127.83862305 373.63085938 -131.35424805 373.49023438 C-132.5247168 373.45414062 -133.69518555 373.41804688 -134.90112305 373.38085938 C-135.7931543 373.33445312 -136.68518555 373.28804688 -137.60424805 373.24023438 C-137.66612305 374.31273437 -137.72799805 375.38523437 -137.79174805 376.49023438 C-139.08129894 386.47100496 -144.0113866 394.84650473 -150.60424805 402.24023438 C-151.12631836 402.85511719 -151.64838867 403.47 -152.1862793 404.10351562 C-161.2271482 414.02427444 -174.33154048 419.53828852 -187.5769043 420.44335938 C-203.99469491 420.69242826 -218.23765951 416.12984721 -230.3659668 404.83203125 C-238.42408016 396.78463346 -243.61146391 386.44964516 -245.60424805 375.24023438 C-245.60424805 374.58023437 -245.60424805 373.92023438 -245.60424805 373.24023438 C-246.21510757 373.24911682 -246.8259671 373.25799927 -247.45533752 373.26715088 C-253.83080662 373.35585589 -260.20609952 373.41606468 -266.58203125 373.45996094 C-268.95938237 373.480038 -271.33668434 373.50730551 -273.71386719 373.54199219 C-277.1370865 373.59068052 -280.5596511 373.61324291 -283.9831543 373.63085938 C-285.04071426 373.65150452 -286.09827423 373.67214966 -287.18788147 373.69342041 C-293.57712179 373.69534977 -297.40679118 373.03899389 -302.60424805 369.24023438 C-308.21323806 363.18842936 -307.84402444 357.78673215 -307.91674805 349.92773438 C-307.94575195 348.89455078 -307.97475586 347.86136719 -308.00463867 346.796875 C-308.05639611 340.58996338 -307.77103165 336.94885247 -303.60424805 332.24023438 C-300.43979208 329.3191981 -297.59600141 327.75963298 -293.60424805 326.24023438 C-293.60278149 325.5592292 -293.60131493 324.87822403 -293.59980392 324.17658234 C-293.5626102 307.53884939 -293.50343069 290.90135059 -293.42034531 274.26378632 C-293.38068414 266.21768396 -293.34822649 258.17167759 -293.33325195 250.12548828 C-293.32016792 243.10524794 -293.29303334 236.08521992 -293.24963498 229.06509924 C-293.22717036 225.35445899 -293.21132822 221.64407913 -293.2123642 217.93336487 C-293.21168096 193.99496093 -292.4554416 173.84520866 -275.04174805 155.49023438 C-264.04477363 145.33918106 -249.98100336 140.10136619 -235.13012695 140.12670898 C-234.40748657 140.12656296 -233.68484619 140.12641693 -232.94030762 140.12626648 C-230.57044388 140.12695877 -228.20066042 140.13471891 -225.83081055 140.14257812 C-224.18028812 140.14444474 -222.52976513 140.14586749 -220.87924194 140.14686584 C-216.54903618 140.15067187 -212.21886431 140.16048571 -207.88867188 140.17156982 C-203.46444151 140.1818252 -199.04020564 140.18637229 -194.6159668 140.19140625 C-185.94537664 140.20210979 -177.27482048 140.21969099 -168.60424805 140.24023438 C-168.60424805 135.29023438 -168.60424805 130.34023437 -168.60424805 125.24023438 C-170.15112305 125.34335938 -171.69799805 125.44648438 -173.29174805 125.55273438 C-177.18994081 125.54167567 -178.36530896 125.39793417 -181.72924805 123.17773438 C-184.08229675 119.4912914 -184.30766274 117.53887972 -183.60424805 113.24023438 C-181.9597168 111.04101562 -181.9597168 111.04101562 -179.60424805 109.24023438 C-176.58862305 108.84960938 -176.58862305 108.84960938 -173.35424805 108.99023438 C-172.2765918 109.02632813 -171.19893555 109.06242187 -170.08862305 109.09960938 C-169.2687793 109.14601563 -168.44893555 109.19242187 -167.60424805 109.24023438 C-167.76795898 108.70914063 -167.93166992 108.17804688 -168.1003418 107.63085938 C-168.71781182 104.70146673 -168.69926729 101.98200502 -168.66674805 98.99023438 C-168.65772461 97.91257812 -168.64870117 96.83492188 -168.6394043 95.72460938 C-168.62200195 94.49484375 -168.62200195 94.49484375 -168.60424805 93.24023438 C-169.74639771 93.2795105 -169.74639771 93.2795105 -170.91162109 93.31958008 C-174.37145239 93.42370452 -177.8309539 93.48861167 -181.29174805 93.55273438 C-182.48993164 93.59462891 -183.68811523 93.63652344 -184.92260742 93.6796875 C-194.84426955 93.81787221 -194.84426955 93.81787221 -197.9362793 90.94726562 C-199.60424805 88.24023438 -199.60424805 88.24023438 -199.60424805 84.61523438 C-198.65881046 81.42438251 -198.24053357 80.13835995 -195.60424805 78.24023438 C-192.94246584 76.90934327 -190.91685409 77.12754445 -187.94018555 77.14257812 C-186.25795898 77.14741211 -186.25795898 77.14741211 -184.54174805 77.15234375 C-183.36612305 77.16072266 -182.19049805 77.16910156 -180.97924805 77.17773438 C-179.79588867 77.18224609 -178.6125293 77.18675781 -177.39331055 77.19140625 C-174.46357298 77.20321971 -171.53393533 77.2196918 -168.60424805 77.24023438 C-168.62165039 76.50708008 -168.63905273 75.77392578 -168.65698242 75.01855469 C-168.67051758 74.04499023 -168.68405273 73.07142578 -168.69799805 72.06835938 C-168.71540039 71.10833008 -168.73280273 70.14830078 -168.75073242 69.15917969 C-168.4023465 62.2170096 -165.76228233 56.90231111 -160.66674805 52.24023438 C-155.04385661 47.58989077 -150.00379636 46.92411453 -142.9440918 46.90429688 C-142.11720352 46.89764008 -141.29031525 46.89098328 -140.43836975 46.88412476 C-138.69607764 46.87402964 -136.95374711 46.86930676 -135.21142578 46.86962891 C-132.5468008 46.86524269 -129.88381611 46.82885639 -127.21948242 46.79101562 C-125.52352453 46.78514937 -123.82755879 46.7811787 -122.1315918 46.77929688 C-120.939282 46.75774033 -120.939282 46.75774033 -119.72288513 46.73574829 C-116.1581175 46.76521695 -114.02669911 46.93505536 -111.09863281 49.05029297 C-108.92247752 52.23933283 -109.13279756 54.46863046 -109.60424805 58.24023438 C-111.36439935 61.42527007 -112.10315721 62.0732041 -115.60424805 63.24023438 C-118.08045618 63.34595725 -120.53375989 63.4012169 -123.01049805 63.41601562 C-124.49098117 63.43920374 -125.97144999 63.46332066 -127.4519043 63.48828125 C-129.78256971 63.52346018 -132.11270427 63.55278291 -134.44360352 63.56616211 C-136.69571662 63.58161359 -138.94629057 63.62178588 -141.19799805 63.66601562 C-141.89493774 63.66410721 -142.59187744 63.66219879 -143.30993652 63.66023254 C-146.23760011 63.73442086 -148.15664079 63.89320074 -150.50463867 65.71362305 C-152.1558004 69.167643 -152.1558004 69.167643 -152.60424805 77.24023438 C-121.91424805 77.24023438 -91.22424805 77.24023438 -59.60424805 77.24023438 C-59.4902186 67.72102603 -59.4902186 67.72102603 -63.60424805 64.24023438 C-65.85241375 63.76986023 -65.85241375 63.76986023 -68.3503418 63.79882812 C-69.27008789 63.77240234 -70.18983398 63.74597656 -71.13745117 63.71875 C-72.57507813 63.69844727 -72.57507813 63.69844727 -74.04174805 63.67773438 C-75.93645167 63.64319218 -77.83102869 63.60052736 -79.7253418 63.54882812 C-80.56508545 63.53650146 -81.4048291 63.5241748 -82.27001953 63.51147461 C-84.812609 63.21602257 -86.42928739 62.5695928 -88.60424805 61.24023438 C-90.70104207 58.54435634 -90.59935626 57.14729038 -90.41674805 53.67773438 C-89.34743601 49.1537219 -89.34743601 49.1537219 -86.60424805 47.24023438 C-83.78857422 47.05834961 -83.78857422 47.05834961 -80.3972168 47.29882812 C-79.17067383 47.35361328 -77.94413086 47.40839844 -76.68041992 47.46484375 C-74.0980125 47.60622115 -71.51696567 47.77529755 -68.93823242 47.97265625 C-65.25796608 48.10953363 -62.18084075 48.1355256 -58.60424805 47.24023438 C-56.30865003 44.86673267 -55.11787424 42.73674196 -53.82080078 39.71142578 C-51.87478931 35.75848015 -48.55075446 33.95784344 -44.60424805 32.24023438 C-41.17455607 31.09700372 -37.95221165 31.13862607 -34.35424805 31.17773438 C-32.73776367 31.19126953 -32.73776367 31.19126953 -31.08862305 31.20507812 C-30.2687793 31.21667969 -29.44893555 31.22828125 -28.60424805 31.24023438 C-28.66225586 30.2734375 -28.72026367 29.30664062 -28.7800293 28.31054688 C-29.0658676 20.06207013 -29.01688077 12.96070419 -23.60424805 6.24023438 C-16.25144074 0.07474809 -9.29333324 0.02634227 0 0 Z M-12.60424805 19.24023438 C-12.60424805 23.20023438 -12.60424805 27.16023438 -12.60424805 31.24023438 C-2.37424805 31.24023438 7.85575195 31.24023438 18.39575195 31.24023438 C19.49575195 20.87356771 19.49575195 20.87356771 15.39575195 16.24023438 C12.74515992 15.64039067 12.74515992 15.64039067 9.73950195 15.74414062 C8.08241211 15.74317383 8.08241211 15.74317383 6.3918457 15.7421875 C5.23813477 15.76216797 4.08442383 15.78214844 2.89575195 15.80273438 C1.74204102 15.79564453 0.58833008 15.78855469 -0.6003418 15.78125 C-7.3328092 15.5091394 -7.3328092 15.5091394 -12.60424805 19.24023438 Z M-42.60424805 51.24023438 C-43.38424549 55.25006366 -43.30422898 59.22869094 -43.26831055 63.30273438 C-43.27309418 64.48617432 -43.27787781 65.66961426 -43.2828064 66.88891602 C-43.28620817 69.39047576 -43.27698662 71.8920798 -43.25610352 74.39355469 C-43.22934556 78.22626718 -43.25584586 82.05605066 -43.2878418 85.88867188 C-43.28453775 88.31836585 -43.27813164 90.748058 -43.26831055 93.17773438 C-43.2784317 94.3257251 -43.28855286 95.47371582 -43.29898071 96.65649414 C-43.28321991 97.72440186 -43.26745911 98.79230957 -43.2512207 99.89257812 C-43.24724274 100.83093506 -43.24326477 101.76929199 -43.23916626 102.73608398 C-42.76384974 105.41576422 -42.76384974 105.41576422 -40.56004333 107.5440979 C-36.86417214 109.66491525 -33.80876881 109.78960415 -29.66455078 109.72607422 C-28.8802066 109.72987091 -28.09586243 109.7336676 -27.28775024 109.73757935 C-24.70403615 109.74496811 -22.12145534 109.72362859 -19.5378418 109.70117188 C-17.73853182 109.69878655 -15.93921932 109.69788232 -14.13990784 109.69839478 C-10.37306069 109.69526975 -6.60659496 109.67872625 -2.83984375 109.65185547 C1.98788225 109.61785166 6.81518985 109.61022778 11.64302158 109.61174583 C15.35678601 109.61120197 19.07045902 109.60023263 22.78419304 109.58574295 C24.56438442 109.57938053 26.34458615 109.57543735 28.12478828 109.57395554 C30.61185473 109.56961799 33.09847806 109.55210815 35.58544922 109.53076172 C36.68820946 109.53212128 36.68820946 109.53212128 37.81324768 109.5335083 C42.93909851 109.48289328 42.93909851 109.48289328 47.39575195 107.24023438 C49.41134861 104.27330704 49.65155417 101.81274912 49.67041016 98.27563477 C49.67994217 97.29103775 49.68947418 96.30644073 49.69929504 95.29200745 C49.69838364 94.2346489 49.69747223 93.17729034 49.6965332 92.08789062 C49.70296089 90.44946449 49.70296089 90.44946449 49.70951843 88.77793884 C49.71525908 86.46890964 49.71576395 84.15986235 49.71142578 81.85083008 C49.70826696 78.31951013 49.73172523 74.78902881 49.75708008 71.2578125 C49.75935321 69.01367293 49.7600565 66.76953111 49.7590332 64.52539062 C49.76824295 63.4700563 49.7774527 62.41472198 49.78694153 61.32740784 C49.85127467 54.23919949 49.85127467 54.23919949 46.39575195 48.24023438 C43.51363893 47.27953003 41.69725151 47.13441554 38.70825195 47.17773438 C37.90000977 47.18675781 37.09176758 47.19578125 36.2590332 47.20507812 C35.64415039 47.21667969 35.02926758 47.22828125 34.39575195 47.24023438 C34.38157227 47.90410156 34.36739258 48.56796875 34.3527832 49.25195312 C34.10766995 53.78986062 33.83566287 56.58036801 31.27075195 60.42773438 C28.39575195 62.24023438 28.39575195 62.24023438 24.70825195 62.24023438 C21.39575195 61.24023438 21.39575195 61.24023438 19.39575195 58.24023438 C18.90075195 52.79523438 18.90075195 52.79523438 18.39575195 47.24023438 C8.16575195 47.24023438 -2.06424805 47.24023438 -12.60424805 47.24023438 C-12.93424805 50.87023437 -13.26424805 54.50023437 -13.60424805 58.24023438 C-16.93100207 61.56698839 -18.04847538 61.96130952 -22.60424805 62.24023438 C-25.35379132 61.27417863 -26.29432562 60.86007923 -27.60424805 58.24023438 C-27.83174955 56.36966646 -28.01387615 54.49337479 -28.16674805 52.61523438 C-28.25053711 51.61234375 -28.33432617 50.60945313 -28.4206543 49.57617188 C-28.48124023 48.8053125 -28.54182617 48.03445312 -28.60424805 47.24023438 C-29.99828561 47.1308981 -31.3948858 47.05403885 -32.79174805 46.99023438 C-33.56905273 46.94382813 -34.34635742 46.89742187 -35.1472168 46.84960938 C-38.8656628 47.44077726 -40.09561334 48.3727836 -42.60424805 51.24023438 Z M-152.60424805 93.24023438 C-153.25349555 101.95837215 -153.25349555 101.95837215 -149.60424805 108.24023438 C-145.96509241 109.45328625 -142.60612008 109.41152188 -138.81567383 109.43310547 C-138.02347443 109.44128296 -137.23127502 109.44946045 -136.41506958 109.45788574 C-133.79324089 109.4827007 -131.17146612 109.49924391 -128.54956055 109.51367188 C-127.65388241 109.51899555 -126.75820427 109.52431923 -125.83538437 109.52980423 C-121.09640102 109.55651625 -116.35744387 109.57589914 -111.6184082 109.59033203 C-107.69564564 109.60368418 -103.77340166 109.63156266 -99.85083008 109.67236328 C-95.11405916 109.72163215 -90.37775949 109.7464456 -85.64074326 109.75355911 C-83.83619925 109.76027771 -82.031666 109.77551561 -80.22726822 109.79944992 C-77.70149021 109.831047 -75.17753483 109.83114734 -72.65161133 109.82373047 C-71.90754028 109.8401358 -71.16346924 109.85654114 -70.39685059 109.8734436 C-66.79880188 109.83022286 -64.67735221 109.28524572 -61.60128784 107.39126587 C-58.62283296 103.31346948 -58.62283296 103.31346948 -59.60424805 93.24023438 C-90.29424805 93.24023438 -120.98424805 93.24023438 -152.60424805 93.24023438 Z M-152.60424805 125.24023438 C-152.60424805 130.19023437 -152.60424805 135.14023438 -152.60424805 140.24023438 C-121.91424805 140.24023438 -91.22424805 140.24023438 -59.60424805 140.24023438 C-59.60424805 135.29023438 -59.60424805 130.34023437 -59.60424805 125.24023438 C-90.29424805 125.24023438 -120.98424805 125.24023438 -152.60424805 125.24023438 Z M-43.60424805 125.24023438 C-43.60424805 130.19023437 -43.60424805 135.14023438 -43.60424805 140.24023438 C-12.91424805 140.24023438 17.77575195 140.24023438 49.39575195 140.24023438 C49.39575195 135.29023438 49.39575195 130.34023437 49.39575195 125.24023438 C18.70575195 125.24023438 -11.98424805 125.24023438 -43.60424805 125.24023438 Z M-276.60424805 280.24023438 C-276.60424805 285.19023437 -276.60424805 290.14023437 -276.60424805 295.24023438 C-271.65424805 295.24023438 -266.70424805 295.24023438 -261.60424805 295.24023438 C-261.60424805 290.29023438 -261.60424805 285.34023438 -261.60424805 280.24023438 C-266.55424805 280.24023438 -271.50424805 280.24023438 -276.60424805 280.24023438 Z M-276.60424805 311.24023438 C-276.60424805 316.19023437 -276.60424805 321.14023437 -276.60424805 326.24023438 C-271.65424805 326.24023438 -266.70424805 326.24023438 -261.60424805 326.24023438 C-261.60424805 321.29023438 -261.60424805 316.34023438 -261.60424805 311.24023438 C-266.55424805 311.24023438 -271.50424805 311.24023438 -276.60424805 311.24023438 Z M160.27075195 313.11523438 C157.54068653 317.66534341 158.04546423 320.98591854 158.39575195 326.24023438 C163.34575195 326.24023438 168.29575195 326.24023438 173.39575195 326.24023438 C173.39575195 321.29023438 173.39575195 316.34023438 173.39575195 311.24023438 C166.48114855 310.6375578 166.48114855 310.6375578 160.27075195 313.11523438 Z M-222.99487305 342.93554688 C-229.6011142 352.39594076 -230.81239164 362.04780973 -229.60424805 373.24023438 C-227.41134467 383.63717628 -221.37424877 391.90768533 -212.7175293 397.95898438 C-203.4195794 403.59618875 -194.09653142 405.81235619 -183.34643555 403.55664062 C-171.94786175 400.36980039 -163.66481433 394.34344643 -157.3503418 384.23242188 C-152.22607688 374.5889713 -151.29182247 365.31533779 -154.16674805 354.80273438 C-157.91815826 343.56162054 -164.60692587 335.46452524 -175.09643555 329.92382812 C-192.88623691 322.34864565 -211.12515494 328.5067611 -222.99487305 342.93554688 Z M57.5793457 341.30273438 C52.18098747 348.662902 48.50378911 358.64570685 49.01293945 367.86132812 C51.07700934 380.68804811 56.23546811 389.11889235 65.95825195 397.47851562 C74.02773933 403.31078936 83.63254598 405.00988857 93.39575195 404.24023438 C104.42886183 402.22177396 113.99637573 396.4892056 120.39575195 387.24023438 C126.34051074 376.98745558 128.26407017 366.84517428 125.7121582 355.09179688 C122.29939641 344.98095904 115.49836396 336.10162147 106.0246582 330.95117188 C88.56610382 322.98158547 70.28091217 326.88031051 57.5793457 341.30273438 Z M-292.60424805 345.24023438 C-292.88333802 347.68702622 -292.88333802 347.68702622 -292.79174805 350.30273438 C-292.78530273 351.18058594 -292.77885742 352.0584375 -292.7722168 352.96289062 C-292.74703937 355.27149429 -292.74703937 355.27149429 -291.60424805 357.24023438 C-276.42424805 357.24023438 -261.24424805 357.24023438 -245.60424805 357.24023438 C-245.60424805 352.95023437 -245.60424805 348.66023438 -245.60424805 344.24023438 C-247.98998527 341.85449715 -248.49955493 341.9854343 -251.74682617 341.96557617 C-252.60111206 341.95604416 -253.45539795 341.94651215 -254.33557129 341.93669128 C-255.72153503 341.9380584 -255.72153503 341.9380584 -257.13549805 341.93945312 C-258.08235474 341.935168 -259.02921143 341.93088287 -260.00476074 341.9264679 C-262.00878092 341.92071906 -264.01282196 341.92022839 -266.0168457 341.92456055 C-269.09191257 341.92772169 -272.16601891 341.90426411 -275.2409668 341.87890625 C-277.18497599 341.87663353 -279.12898779 341.87592964 -281.07299805 341.87695312 C-281.99697388 341.86774338 -282.92094971 341.85853363 -283.8729248 341.8490448 C-284.72721069 341.85527359 -285.58149658 341.86150238 -286.46166992 341.86791992 C-287.21508667 341.8672905 -287.96850342 341.86666107 -288.74475098 341.86601257 C-291.01800448 342.09575694 -291.01800448 342.09575694 -292.60424805 345.24023438 Z M142.39575195 344.24023438 C142.39575195 348.53023438 142.39575195 352.82023437 142.39575195 357.24023438 C157.57575195 357.24023438 172.75575195 357.24023438 188.39575195 357.24023438 C189.62759961 354.77653906 189.56307538 353.05078427 189.58325195 350.30273438 C189.59743164 349.42746094 189.61161133 348.5521875 189.6262207 347.65039062 C189.56238545 344.97779102 189.56238545 344.97779102 187.39575195 342.24023438 C185.47935018 341.79067568 185.47935018 341.79067568 183.25317383 341.86791992 C182.39888794 341.86169113 181.54460205 341.85546234 180.66442871 341.8490448 C179.74045288 341.85825455 178.81647705 341.86746429 177.86450195 341.87695312 C176.91764526 341.87645462 175.97078857 341.87595612 174.99523926 341.8754425 C172.99118962 341.87778542 170.98713717 341.88752669 168.9831543 341.90405273 C165.9081808 341.92763904 162.83407409 341.92461616 159.7590332 341.91796875 C157.81501759 341.92354545 155.87100565 341.93065528 153.92700195 341.93945312 C153.00302612 341.93854172 152.07905029 341.93763031 151.1270752 341.93669128 C150.27278931 341.9462233 149.41850342 341.95575531 148.53833008 341.96557617 C147.40820496 341.97248726 147.40820496 341.97248726 146.25524902 341.97953796 C144.15020005 342.0843969 144.15020005 342.0843969 142.39575195 344.24023438 Z " fill="#1F686A" transform="translate(307.604248046875,45.759765625)"/>
<path d="M0 0 C1.11596558 -0.0071553 2.23193115 -0.01431061 3.38171387 -0.02168274 C7.06926444 -0.038587 10.75560244 -0.0191565 14.44311523 0.00219727 C17.00471599 0.0013688 19.5663167 -0.00108975 22.12791443 -0.00511169 C27.4954469 -0.00797084 32.86255013 0.00621511 38.22998047 0.03417969 C44.43259837 0.06624676 50.63458766 0.06620866 56.83725029 0.04896492 C62.80938355 0.0330948 68.78132412 0.03993295 74.75346184 0.05690193 C77.29283062 0.06209119 79.83221751 0.06159297 82.37158394 0.05535698 C85.91739211 0.04991787 89.4621266 0.0702395 93.0078125 0.09765625 C94.0609111 0.09113037 95.1140097 0.08460449 96.19902039 0.07788086 C103.30808406 0.17153333 103.30808406 0.17153333 106.55992126 2.53944397 C108.98129556 6.21140493 109.07422318 8.42707335 109.1003418 12.83740234 C109.10994934 14.14248245 109.11955688 15.44756256 109.12945557 16.79219055 C109.13430379 18.22417018 109.13858256 19.65615184 109.14233398 21.08813477 C109.14808593 22.55303449 109.15384365 24.01793419 109.15960693 25.48283386 C109.17011869 28.55708161 109.17595993 31.63130321 109.17944336 34.70556641 C109.18492278 38.6398884 109.20893787 42.57386338 109.23741531 46.50807667 C109.25606566 49.53558858 109.2612486 52.56301739 109.26277924 55.59058189 C109.26580185 57.04062481 109.27381725 58.49066639 109.28696442 59.94065285 C109.30406997 61.97257233 109.30029334 64.00463491 109.2956543 66.03662109 C109.30112274 67.76964226 109.30112274 67.76964226 109.30670166 69.53767395 C108.89713936 72.98523148 108.00146452 74.86421063 105.93920898 77.63110352 C103.54332338 78.82904632 102.04231546 78.76724705 99.36650085 78.78500366 C98.40334961 78.79360413 97.44019836 78.80220459 96.44786072 78.81106567 C94.85742699 78.8174556 94.85742699 78.8174556 93.23486328 78.82397461 C92.12094208 78.8321521 91.00702087 78.84032959 89.85934448 78.84875488 C86.1607111 78.87363625 82.46211613 78.89013101 78.76342773 78.90454102 C76.87242309 78.91252653 76.87242309 78.91252653 74.94321632 78.92067337 C69.64601401 78.94190778 64.34882521 78.96103789 59.05159283 78.97229576 C51.46084769 78.98853419 43.87061451 79.02170915 36.28006238 79.07869661 C30.29890251 79.12206967 24.3179757 79.13804108 18.33664894 79.14442825 C15.79248216 79.1511578 13.24832333 79.16642365 10.70425987 79.19031906 C7.14635404 79.22183312 3.58974624 79.2220274 0.03173828 79.21459961 C-1.02247818 79.23100494 -2.07669464 79.24741028 -3.16285706 79.26431274 C-7.78974681 79.22469945 -10.30327768 79.13945591 -14.21363831 76.51528931 C-16.44679293 73.02839145 -16.69387779 71.02604302 -16.70776367 66.90063477 C-16.71652527 66.2446933 -16.72528687 65.58875183 -16.73431396 64.91293335 C-16.75622861 62.75580682 -16.74178713 60.60074896 -16.72485352 58.44360352 C-16.72822402 56.93814706 -16.7330786 55.43269326 -16.73934937 53.92724609 C-16.74670981 50.77650979 -16.73604319 47.62648363 -16.71264648 44.47583008 C-16.68415766 40.44364396 -16.7005663 36.41312181 -16.7305088 32.3809967 C-16.74860511 29.27359554 -16.7428134 26.16658678 -16.72986984 23.05917358 C-16.7265422 21.57286378 -16.73060039 20.08651798 -16.74226761 18.60025024 C-16.75501676 16.51973578 -16.73555105 14.44188872 -16.70776367 12.36157227 C-16.70378571 11.17974365 -16.69980774 9.99791504 -16.69570923 8.78027344 C-14.83570434 -0.44527931 -7.82004885 -0.08699058 0 0 Z M-0.06079102 16.63110352 C-0.06079102 31.81110352 -0.06079102 46.99110352 -0.06079102 62.63110352 C17.30926542 64.51270973 17.30926542 64.51270973 23.36499023 59.36157227 C24.91813166 57.20111176 24.91813166 57.20111176 26.25170898 54.81860352 C27.36228002 53.16749052 28.47296076 51.5164513 29.58374023 49.86547852 C30.12853027 49.0050293 30.67332031 48.14458008 31.23461914 47.25805664 C34.08387391 42.86705387 37.28637231 38.74384636 40.43920898 34.56860352 C41.55845455 33.06033333 42.67321514 31.54872222 43.78295898 30.03344727 C44.24895508 29.39914795 44.71495117 28.76484863 45.19506836 28.11132812 C47.85032245 24.33547057 50.37871176 20.47184935 52.93920898 16.63110352 C35.44920898 16.63110352 17.95920898 16.63110352 -0.06079102 16.63110352 Z M69.36499023 20.04907227 C68.29103311 21.61469225 67.2550402 23.20681063 66.25170898 24.81860352 C65.0774832 26.55491444 63.90027784 28.28921321 62.72045898 30.02172852 C62.11331055 30.9350293 61.50616211 31.84833008 60.88061523 32.78930664 C57.52987674 37.69405967 53.88097721 42.36839018 50.25170898 47.06860352 C48.91369673 48.8167103 47.57640594 50.56536963 46.23999023 52.31469727 C45.67449463 53.05260498 45.10899902 53.7905127 44.52636719 54.55078125 C44.00260498 55.2372876 43.47884277 55.92379395 42.93920898 56.63110352 C42.37613037 57.33887939 41.81305176 58.04665527 41.23291016 58.77587891 C39.74854539 60.5275649 39.74854539 60.5275649 39.93920898 62.63110352 C43.4727386 63.36141548 46.41327896 63.46658482 49.93920898 62.63110352 C53.09773261 60.04531039 55.2895946 56.88973291 57.60229492 53.54467773 C59.10310502 51.3965131 60.6602077 49.29706747 62.22827148 47.19750977 C65.24109638 43.15843361 68.22002857 39.09588639 71.18920898 35.0246582 C72.87927207 32.71308197 74.57900619 30.40901655 76.28295898 28.10766602 C77.052771 27.06594238 77.052771 27.06594238 77.83813477 26.00317383 C78.80375691 24.69672508 79.77082228 23.39134152 80.73950195 22.0871582 C82.95381701 19.59787466 82.95381701 19.59787466 83.93920898 16.63110352 C75.72794085 15.52242289 75.72794085 15.52242289 69.36499023 20.04907227 Z M91.93920898 32.63110352 C90.93233436 33.88330121 89.96962864 35.17104379 89.02514648 36.47094727 C88.42831055 37.28756836 87.83147461 38.10418945 87.21655273 38.94555664 C86.5887793 39.81116211 85.96100586 40.67676758 85.31420898 41.56860352 C84.09409345 43.24528681 82.87274113 44.92107081 81.65014648 46.59594727 C81.04396484 47.42723145 80.4377832 48.25851562 79.81323242 49.11499023 C77.35684093 52.41300623 74.79636309 55.62307634 72.21118164 58.82080078 C70.74757379 60.53509516 70.74757379 60.53509516 70.93920898 62.63110352 C78.19920898 62.63110352 85.45920898 62.63110352 92.93920898 62.63110352 C92.93920898 52.73110352 92.93920898 42.83110352 92.93920898 32.63110352 C92.60920898 32.63110352 92.27920898 32.63110352 91.93920898 32.63110352 Z " fill="#1F686A" transform="translate(233.060791015625,216.368896484375)"/>
<path d="M0 0 C0.84096725 -0.00817749 1.68193451 -0.01635498 2.54838562 -0.02478027 C5.33254282 -0.04960217 8.11664923 -0.06614019 10.90087891 -0.08056641 C11.85171986 -0.08589008 12.80256081 -0.09121376 13.78221512 -0.09669876 C18.81297245 -0.1234137 23.84370508 -0.14279574 28.87451172 -0.15722656 C34.07231388 -0.17388977 39.26948389 -0.21868622 44.46704674 -0.26959801 C48.46305072 -0.30323263 52.45890374 -0.31479968 56.45503616 -0.32045364 C58.37122059 -0.32717429 60.2873948 -0.34241743 62.20344162 -0.36634445 C64.88485273 -0.39792439 67.5645459 -0.39804412 70.24609375 -0.390625 C71.03691849 -0.40703033 71.82774323 -0.42343567 72.64253235 -0.44033813 C76.51466657 -0.39648893 78.55579246 0.0537727 81.74365234 2.3086853 C84.17836003 5.80439795 84.38515937 7.68836056 84.39941406 11.92333984 C84.40817566 12.57928131 84.41693726 13.23522278 84.42596436 13.91104126 C84.447879 16.06816779 84.43343752 18.22322565 84.41650391 20.38037109 C84.41987442 21.88582755 84.42472899 23.39128135 84.43099976 24.89672852 C84.4383602 28.04746482 84.42769358 31.19749098 84.40429688 34.34814453 C84.37580805 38.38033065 84.39221669 42.4108528 84.42215919 46.44297791 C84.4402555 49.55037907 84.43446379 52.65738783 84.42152023 55.76480103 C84.41819259 57.25111083 84.42225078 58.73745663 84.433918 60.22372437 C84.44666715 62.30423883 84.42720144 64.38208589 84.39941406 66.46240234 C84.39344711 68.23514526 84.39344711 68.23514526 84.38735962 70.04370117 C83.53397317 74.27646516 82.26169876 75.70017998 78.75244141 78.19287109 C75.7620553 78.68771886 73.34255728 78.87859013 70.35717773 78.83984375 C69.52394989 78.84860535 68.69072205 78.85736694 67.83224487 78.86639404 C65.08245461 78.88836669 62.33427884 78.87383675 59.58447266 78.85693359 C57.66501051 78.86030395 55.74555044 78.86515839 53.82609558 78.87142944 C49.80190728 78.87879922 45.77827409 78.86809781 41.75415039 78.84472656 C36.61726961 78.8163348 31.48170059 78.83258098 26.34486866 78.86258888 C22.37859903 78.88074125 18.41263516 78.87486595 14.44635582 78.86194992 C12.55388926 78.85863279 10.66139422 78.86264288 8.76896095 78.87434769 C-10.64954433 78.9680452 -10.64954433 78.9680452 -18.24755859 73.19287109 C-20.50146484 70.84130859 -20.50146484 70.84130859 -21.81005859 68.56787109 C-22.26509766 67.81248047 -22.72013672 67.05708984 -23.18896484 66.27880859 C-24.8058538 63.09276172 -25.37959387 60.49532758 -25.44042969 56.97192383 C-25.45649261 56.12351425 -25.47255554 55.27510468 -25.48910522 54.40098572 C-25.53387093 50.50634762 -25.57465953 46.61187701 -25.59765625 42.71704102 C-25.61415764 40.67167741 -25.64137005 38.62637006 -25.6796875 36.58129883 C-25.73489071 33.61688624 -25.75640065 30.65382457 -25.77099609 27.68896484 C-25.79366547 26.78754257 -25.81633484 25.8861203 -25.83969116 24.9573822 C-25.81722969 18.09706807 -23.94607057 12.97053114 -20.24755859 7.19287109 C-17.89599609 4.93896484 -17.89599609 4.93896484 -15.62255859 3.63037109 C-14.48947266 2.9478125 -14.48947266 2.9478125 -13.33349609 2.25146484 C-8.90168194 0.00236066 -4.85324723 0.02600992 0 0 Z M-7.90869141 17.68212891 C-9.84445351 21.31221232 -9.81954435 24.740568 -9.77880859 28.75537109 C-9.7826355 29.58367432 -9.7864624 30.41197754 -9.79040527 31.26538086 C-9.79312284 33.01368426 -9.7857724 34.76202843 -9.76904297 36.51025391 C-9.74762941 39.18402886 -9.76884803 41.85511706 -9.79443359 44.52880859 C-9.79179029 46.22933535 -9.78666525 47.92986043 -9.77880859 49.63037109 C-9.78690552 50.42838135 -9.79500244 51.2263916 -9.80334473 52.04858398 C-9.74312138 55.61927053 -9.57412633 57.75517841 -7.40869141 60.6574707 C-3.4229955 63.48915186 0.75519473 64.04782869 5.54541016 63.65380859 C14.19083594 61.65855593 19.2323792 50.98512562 23.77832031 44.12744141 C26.8581531 39.54920864 30.19005743 35.16647998 33.50244141 30.75537109 C34.62557622 29.2383092 35.74557796 27.71892068 36.86181641 26.19677734 C37.32555664 25.56586182 37.78929687 24.93494629 38.26708984 24.28491211 C40.15478513 21.62619072 41.95331772 18.91207802 43.75244141 16.19287109 C36.84745821 16.09149287 29.94266676 16.02141489 23.03710938 15.97314453 C20.68775256 15.95302295 18.33844586 15.92572258 15.98925781 15.89111328 C12.61331826 15.8426207 9.23804054 15.81990752 5.86181641 15.80224609 C4.81064636 15.78160095 3.75947632 15.76095581 2.67645264 15.73968506 C-2.85671228 15.70585486 -2.85671228 15.70585486 -7.90869141 17.68212891 Z M62.05175781 17.8190918 C61.49149902 18.57794678 60.93124023 19.33680176 60.35400391 20.11865234 C59.71624023 20.96935303 59.07847656 21.82005371 58.42138672 22.6965332 C57.74688477 23.62344971 57.07238281 24.55036621 56.37744141 25.50537109 C55.6771582 26.44711182 54.976875 27.38885254 54.25537109 28.35913086 C52.07612055 31.29532478 49.91436272 34.24390443 47.75244141 37.19287109 C46.4126773 38.9985846 45.07158698 40.80331506 43.72900391 42.60693359 C41.36071208 45.79632635 38.99480481 48.98734078 36.64306641 52.18896484 C36.17932617 52.81988037 35.71558594 53.4507959 35.23779297 54.10083008 C33.35127702 56.75789043 31.56002476 59.48149606 29.75244141 62.19287109 C42.29244141 62.19287109 54.83244141 62.19287109 67.75244141 62.19287109 C67.75244141 47.01287109 67.75244141 31.83287109 67.75244141 16.19287109 C63.84209862 15.73213296 63.84209862 15.73213296 62.05175781 17.8190918 Z " fill="#1F686A" transform="translate(118.24755859375,216.80712890625)"/>
<path d="M0 0 C0.6495163 -0.00700928 1.29903259 -0.01401855 1.9682312 -0.02124023 C4.10588946 -0.03877883 6.24221209 -0.02720852 8.37988281 -0.01367188 C9.87575533 -0.01636933 11.37162613 -0.02025386 12.86749268 -0.02526855 C16.00134997 -0.03115906 19.1347506 -0.0226206 22.26855469 -0.00390625 C26.26427272 0.01880476 30.25891125 0.0058085 34.25458908 -0.01819611 C37.34494983 -0.03273433 40.43505996 -0.02801037 43.52542877 -0.01768494 C44.99726746 -0.0150356 46.46912967 -0.01822362 47.94094086 -0.02760315 C57.65858899 -0.07591801 66.11834968 0.32982638 73.52050781 7.26757812 C78.02044182 13.20209599 79.99862792 20.54158241 82.33300781 27.51757812 C82.74196289 28.71366699 83.15091797 29.90975586 83.57226562 31.14208984 C84.73582126 34.54606065 85.88033484 37.95601183 87.01379395 41.37011719 C87.472751 42.74852169 87.93549877 44.12567042 88.40222168 45.50146484 C94.138605 62.48091227 94.138605 62.48091227 91.14550781 70.83007812 C88.49347986 74.76239543 85.83606222 77.01655999 81.33300781 78.51757812 C78.54531669 78.62943043 75.78197687 78.68525738 72.99365234 78.69458008 C72.14293152 78.70115128 71.29221069 78.70772247 70.41571045 78.7144928 C67.59907951 78.73421191 64.78250181 78.74588407 61.96582031 78.75585938 C60.52301004 78.76197267 60.52301004 78.76197267 59.05105209 78.76820946 C53.96193405 78.78906227 48.87284292 78.80336854 43.78369141 78.81274414 C38.52545514 78.82381903 33.26764083 78.85823366 28.00955391 78.89791584 C23.96722622 78.92404475 19.92499977 78.93243256 15.88259506 78.93602562 C13.94410216 78.94089964 12.00561402 78.95253678 10.06720352 78.97106361 C7.35484449 78.99538039 4.64358673 78.99450403 1.93115234 78.98754883 C1.13097687 79.00035889 0.33080139 79.01316895 -0.49362183 79.02636719 C-4.0768732 78.99287863 -6.48710963 78.61381412 -9.66394043 76.91423035 C-12.33403874 73.71945666 -12.3004984 71.83997253 -12.31396484 67.70117188 C-12.32710724 66.68580856 -12.32710724 66.68580856 -12.34051514 65.64993286 C-12.36247981 63.41765795 -12.34796994 61.1873723 -12.33105469 58.95507812 C-12.33442374 57.40095643 -12.33927711 55.8468373 -12.34555054 54.29272461 C-12.35291778 51.03766766 -12.34222222 47.78329736 -12.31884766 44.52832031 C-12.29035867 40.35814259 -12.30676362 36.18957366 -12.33670998 32.01945496 C-12.35478774 28.81087139 -12.34902302 25.60266859 -12.33607101 22.39407349 C-12.33273826 20.85669768 -12.33681959 19.31928718 -12.34846878 17.7819519 C-12.36118703 15.63169977 -12.34179422 13.48404333 -12.31396484 11.33398438 C-12.30998688 10.11138916 -12.30600891 8.88879395 -12.3019104 7.62915039 C-11.66699219 4.51757812 -11.66699219 4.51757812 -9.54324341 2.12390137 C-6.09495668 0.19810883 -3.93838963 0.01071449 0 0 Z M4.33300781 16.51757812 C4.33300781 31.69757813 4.33300781 46.87757813 4.33300781 62.51757812 C21.70306425 64.39918434 21.70306425 64.39918434 27.75878906 59.24804688 C29.31193048 57.08758637 29.31193048 57.08758637 30.64550781 54.70507812 C31.75607885 53.05396513 32.86675959 51.40292591 33.97753906 49.75195312 C34.5223291 48.89150391 35.06711914 48.03105469 35.62841797 47.14453125 C38.47767274 42.75352848 41.68017114 38.63032097 44.83300781 34.45507812 C45.95225338 32.94680794 47.06701397 31.43519683 48.17675781 29.91992188 C48.64275391 29.28562256 49.10875 28.65132324 49.58886719 27.99780273 C52.24412128 24.22194518 54.77251059 20.35832396 57.33300781 16.51757812 C39.84300781 16.51757812 22.35300781 16.51757812 4.33300781 16.51757812 Z M65.33300781 32.51757812 C64.16894196 33.91480115 63.04867847 35.3485405 61.94628906 36.79492188 C61.25470703 37.70177734 60.563125 38.60863281 59.85058594 39.54296875 C59.12291016 40.50396484 58.39523437 41.46496094 57.64550781 42.45507812 C56.58299805 43.84436523 56.58299805 43.84436523 55.49902344 45.26171875 C51.20751117 50.90844542 47.2843022 56.59063654 43.33300781 62.51757812 C54.22300781 62.51757812 65.11300781 62.51757812 76.33300781 62.51757812 C73.03300781 52.61757813 69.73300781 42.71757812 66.33300781 32.51757812 C66.00300781 32.51757812 65.67300781 32.51757812 65.33300781 32.51757812 Z " fill="#1F686A" transform="translate(368.6669921875,216.482421875)"/>
<path d="M0 0 C4.96606843 3.83401842 8.92420632 8.36872511 10.81640625 14.40234375 C11.65557958 22.02320852 11.64765753 29.16019608 6.81640625 35.40234375 C1.52654081 41.26806796 -4.3117084 44.03359276 -12.12109375 44.77734375 C-19.83328293 44.39929526 -25.53496308 41.95604962 -30.74609375 36.23828125 C-35.35097594 30.35704585 -36.66406323 24.72950336 -36.18359375 17.40234375 C-34.64720368 10.04589979 -31.53256232 4.31891394 -25.21484375 0.08203125 C-17.42076653 -3.95620441 -7.70845076 -4.52207654 0 0 Z M-19.18359375 16.40234375 C-20.35469824 19.26194435 -20.35469824 19.26194435 -20.18359375 22.40234375 C-18.26806037 25.85030384 -16.93433146 27.11482718 -13.24609375 28.52734375 C-10.00944692 28.67606737 -10.00944692 28.67606737 -7.30859375 26.33984375 C-4.98858384 23.57618851 -4.98858384 23.57618851 -4.62109375 20.33984375 C-5.31896361 16.69541224 -6.12736098 15.49345038 -9.18359375 13.40234375 C-13.49450512 12.77366917 -16.21351239 13.10225335 -19.18359375 16.40234375 Z " fill="#1F686A" transform="translate(408.18359375,390.59765625)"/>
<path d="M0 0 C6.12340916 3.48502708 9.48985602 8.05894515 12 14.5625 C13.24215946 21.39437705 12.92752464 26.88335225 9.625 33 C5.50683971 38.80286222 1.47217855 42.2227012 -5.25 44.6875 C-12.75727095 45.79151043 -18.77766643 44.85112643 -25.375 41 C-30.46482945 36.51007678 -33.95427982 31.82072628 -34.7109375 24.94921875 C-34.80930211 16.73577416 -34.26949541 11.09775718 -28.50390625 5.03125 C-20.26803742 -2.56630007 -10.53771693 -4.73479868 0 0 Z M-16.75 15.625 C-18.88823431 18.75011169 -19.0579669 20.28162465 -18.375 24 C-16.39533737 27.06307631 -16.39533737 27.06307631 -13.375 29 C-9.38164275 29.16299417 -7.90760325 28.47797727 -4.9375 25.8125 C-3.12206097 23.08094049 -3.12206097 23.08094049 -3.375 19.875 C-4.53602448 16.53705462 -5.21247557 15.5385254 -8.375 14 C-12.02943439 13.46706165 -13.68022452 13.5246273 -16.75 15.625 Z " fill="#1F686A" transform="translate(127.375,390)"/>
<path d="M0 0 C1.40572266 -0.01643555 1.40572266 -0.01643555 2.83984375 -0.03320312 C7.1463555 0.01261083 9.83205742 0.18046025 13.62109375 2.34765625 C15.60209393 4.68284773 16.16242223 5.55307765 16.0625 8.5625 C16.06443359 9.5525 16.06443359 9.5525 16.06640625 10.5625 C15.24776829 13.45313888 13.79255446 14.65606254 11.5 16.5625 C8.99804688 17.08007812 8.99804688 17.08007812 6.21875 17.09375 C5.21199219 17.09890625 4.20523438 17.1040625 3.16796875 17.109375 C1.59982422 17.08617187 1.59982422 17.08617187 0 17.0625 C-1.04542969 17.07796875 -2.09085938 17.0934375 -3.16796875 17.109375 C-4.17472656 17.10421875 -5.18148437 17.0990625 -6.21875 17.09375 C-7.13591797 17.08923828 -8.05308594 17.08472656 -8.99804688 17.08007812 C-12.26867012 16.4034855 -13.46504456 15.16621733 -15.5 12.5625 C-16.18933516 8.34989622 -16.08398571 6.39780597 -13.62109375 2.875 C-9.13899308 -0.44590563 -5.43488944 -0.13830186 0 0 Z " fill="#1F686A" transform="translate(201.5,340.4375)"/>
<path d="M0 0 C0.89396484 -0.01160156 1.78792969 -0.02320313 2.70898438 -0.03515625 C7.60760698 -0.0133361 11.1282719 0.11634642 15.0625 3.375 C16.48912219 6.22824437 16.37283868 8.20954549 16.0625 11.375 C14.76171875 14.0390625 14.76171875 14.0390625 12.0625 16.375 C8.22098944 17.11230657 4.46183353 17.02644904 0.5625 16.9375 C-0.48292969 16.94845703 -1.52835938 16.95941406 -2.60546875 16.97070312 C-10.31746112 16.8966443 -10.31746112 16.8966443 -13.21289062 14.46069336 C-15.02943896 12.26381164 -15.76601857 11.20444368 -15.9375 8.375 C-15.20280393 5.63658737 -14.37045628 3.85773468 -12.4765625 1.74609375 C-8.46249207 -0.42150428 -4.48596297 -0.0579665 0 0 Z " fill="#1F686A" transform="translate(247.9375,371.625)"/>
<path d="M0 0 C1.34771484 -0.04350586 1.34771484 -0.04350586 2.72265625 -0.08789062 C6.96671128 -0.12863857 9.47625584 -0.05809408 13.22265625 2.08203125 C15.22260058 4.42693517 15.78797662 5.28638062 15.6875 8.3125 C15.68943359 9.3025 15.68943359 9.3025 15.69140625 10.3125 C14.87276829 13.20313888 13.41755446 14.40606254 11.125 16.3125 C8.62304688 16.83007812 8.62304688 16.83007812 5.84375 16.84375 C4.83699219 16.84890625 3.83023438 16.8540625 2.79296875 16.859375 C1.22482422 16.83617187 1.22482422 16.83617187 -0.375 16.8125 C-1.42042969 16.82796875 -2.46585938 16.8434375 -3.54296875 16.859375 C-4.54972656 16.85421875 -5.55648437 16.8490625 -6.59375 16.84375 C-7.51091797 16.83923828 -8.42808594 16.83472656 -9.37304688 16.83007812 C-12.64547034 16.15311308 -13.84649236 14.92458291 -15.875 12.3125 C-16.34418683 8.55900538 -16.40636381 6.27401547 -14.5625 2.9375 C-10.66699857 -0.8137236 -5.06081801 0.05399166 0 0 Z " fill="#1F686A" transform="translate(201.875,371.6875)"/>
<path d="M0 0 C0.89396484 -0.01160156 1.78792969 -0.02320313 2.70898438 -0.03515625 C7.60760698 -0.0133361 11.1282719 0.11634642 15.0625 3.375 C16.50680855 6.26361709 16.43938506 8.17147701 16.0625 11.375 C13.97902078 14.40470753 12.34178296 16.12829596 8.65332031 16.83959961 C5.75308771 17.01282081 2.90435329 17.00750721 0 16.9375 C-0.99322266 16.94845703 -1.98644531 16.95941406 -3.00976562 16.97070312 C-10.21934153 16.89787913 -10.21934153 16.89787913 -13.56640625 14.4609375 C-15.0083193 12.26725782 -15.77861237 10.99664595 -15.9375 8.375 C-15.20280393 5.63658737 -14.37045628 3.85773468 -12.4765625 1.74609375 C-8.46249207 -0.42150428 -4.48596297 -0.0579665 0 0 Z " fill="#1F686A" transform="translate(247.9375,340.625)"/>
<path d="M0 0 C1.05960938 -0.00386719 2.11921875 -0.00773437 3.2109375 -0.01171875 C4.86996094 0.00568359 4.86996094 0.00568359 6.5625 0.0234375 C8.22152344 0.00603516 8.22152344 0.00603516 9.9140625 -0.01171875 C10.97367188 -0.00785156 12.03328125 -0.00398438 13.125 0 C14.58099609 0.00507568 14.58099609 0.00507568 16.06640625 0.01025391 C18.97297131 0.46227253 19.84168076 1.05444377 21.5625 3.3984375 C22.68553133 7.08839759 22.89988847 8.70832472 21.1875 12.2109375 C19.5625 14.3984375 19.5625 14.3984375 18.5625 15.3984375 C14.63372852 15.73473932 10.69131251 15.7234612 6.75 15.7734375 C5.64333984 15.81082031 4.53667969 15.84820312 3.39648438 15.88671875 C-4.74284985 15.97535034 -4.74284985 15.97535034 -8.203125 13.1015625 C-9.88286064 9.42315407 -9.50858126 7.25433002 -8.4375 3.3984375 C-6.03527821 0.07517154 -3.97295058 0.01384993 0 0 Z " fill="#1F686A" transform="translate(55.4375,263.6015625)"/>
<path d="M0 0 C1.05960938 -0.00386719 2.11921875 -0.00773438 3.2109375 -0.01171875 C4.86996094 0.00568359 4.86996094 0.00568359 6.5625 0.0234375 C8.22152344 0.00603516 8.22152344 0.00603516 9.9140625 -0.01171875 C10.97367188 -0.00785156 12.03328125 -0.00398437 13.125 0 C14.58099609 0.00507568 14.58099609 0.00507568 16.06640625 0.01025391 C18.97297131 0.46227253 19.84168076 1.05444377 21.5625 3.3984375 C22.68553133 7.08839759 22.89988847 8.70832472 21.1875 12.2109375 C19.5625 14.3984375 19.5625 14.3984375 18.5625 15.3984375 C14.63372852 15.73473932 10.69131251 15.7234612 6.75 15.7734375 C5.64333984 15.81082031 4.53667969 15.84820312 3.39648438 15.88671875 C-4.74284985 15.97535034 -4.74284985 15.97535034 -8.203125 13.1015625 C-9.88286064 9.42315407 -9.50858126 7.25433002 -8.4375 3.3984375 C-6.03527821 0.07517154 -3.97295058 0.01384993 0 0 Z " fill="#1F686A" transform="translate(55.4375,232.6015625)"/>
</svg>