<!-- sample rectangle -->
 <svg version="1.1" xmlns="http://www.w3.org/2000/svg" width="512" height="512">
                    <path d="M0 0 C4.64144081 0.77357347 7.08678566 1.28993615 11.0715332 3.25317383 C12.50750603 3.95444145 12.50750603 3.95444145 13.9724884 4.6698761 C14.98832504 5.1771373 16.00416168 5.6843985 17.05078125 6.20703125 C18.63260445 6.9897364 18.63260445 6.9897364 20.24638367 7.78825378 C22.46816071 8.89122418 24.68783288 9.9984434 26.90551758 11.10961914 C30.31009115 12.81129601 33.72572807 14.48915305 37.14257812 16.16601562 C39.30019334 17.24075494 41.45711924 18.31687946 43.61328125 19.39453125 C44.63923904 19.89571976 45.66519684 20.39690826 46.72224426 20.9132843 C48.13457588 21.62873665 48.13457588 21.62873665 49.57543945 22.35864258 C50.40783646 22.77310135 51.24023346 23.18756012 52.09785461 23.61457825 C54 25 54 25 54.91860962 26.83836365 C55.03110558 29.82612899 54.07735445 31.56521515 52.72680664 34.22753906 C52.20619156 35.26831604 51.68557648 36.30909302 51.14918518 37.38140869 C50.57530563 38.49820007 50.00142609 39.61499146 49.41015625 40.765625 C48.83164413 41.91415955 48.25313202 43.06269409 47.65708923 44.24603271 C46.12062259 47.29608196 44.56987798 50.33864865 43.01605225 53.37988281 C41.43235612 56.48584514 39.86226454 59.59866537 38.29101562 62.7109375 C35.20729443 68.81407461 32.10843577 74.90941508 29 81 C24.86517082 80.26566409 21.85528874 79.01444061 18.1875 76.9375 C16.72376953 76.11572266 16.72376953 76.11572266 15.23046875 75.27734375 C14.49441406 74.85582031 13.75835937 74.43429688 13 74 C14.58019592 68.7936703 16.77884995 64.01626689 19.125 59.125 C19.49753906 58.34125 19.87007813 57.5575 20.25390625 56.75 C21.16618997 54.83186501 22.08266984 52.91572671 23 51 C-0.44129476 62.78506736 -23.08329077 75.53261949 -45 90 C-41.69869165 93.33680629 -38.34443865 96.58824857 -34.875 99.75 C-33.60269531 100.91789062 -33.60269531 100.91789062 -32.3046875 102.109375 C-30.06384899 104.17716215 -30.06384899 104.17716215 -27 105 C-26.7525 104.443125 -26.505 103.88625 -26.25 103.3125 C-22.52825472 96.42727123 -16.54264449 91.96940772 -9.1640625 89.34765625 C1.49113598 87.63590054 11.85937229 88.24895243 20.984375 94.3203125 C27.16100629 99.15075492 30.94014748 105.48876172 33 113 C33.27481442 116.16667354 33.25312452 119.3168194 33.22705078 122.49365234 C33.22734283 123.43087128 33.22763489 124.36809021 33.22793579 125.33370972 C33.22654738 128.41788127 33.21100909 131.50180838 33.1953125 134.5859375 C33.19158064 136.72970447 33.18873448 138.87347315 33.18673706 141.01724243 C33.17911427 146.64952331 33.15947735 152.28170044 33.1373291 157.91394043 C33.11684153 163.66526893 33.10772911 169.41661425 33.09765625 175.16796875 C33.07623023 186.44535799 33.04211059 197.72267035 33 209 C34.13953125 208.97905273 35.2790625 208.95810547 36.453125 208.93652344 C40.70966869 208.86373386 44.96615814 208.81805958 49.22314453 208.78027344 C51.06015293 208.76024627 52.89709829 208.73301618 54.73388672 208.69824219 C57.38525002 208.64932935 60.03576541 208.62694237 62.6875 208.609375 C63.49928711 208.58872986 64.31107422 208.56808472 65.14746094 208.54681396 C71.94284794 208.54418254 77.10990436 210.46739006 82.2421875 214.96484375 C82.78101563 215.61582031 83.31984375 216.26679688 83.875 216.9375 C84.42929687 217.58589844 84.98359375 218.23429688 85.5546875 218.90234375 C88.9784189 223.87138094 89.29080788 228.46795391 89.26742554 234.36799622 C89.27195665 235.2078356 89.27648776 236.04767498 89.28115618 236.91296405 C89.29381104 239.72564207 89.29217911 242.53812674 89.29052734 245.35083008 C89.29651193 247.36812082 89.30331731 249.38540927 89.31088257 251.4026947 C89.32855726 256.8821121 89.33323858 262.36146705 89.33451414 267.8409102 C89.33641341 272.41590303 89.34377129 276.99088132 89.35085833 281.56586856 C89.36714562 292.36073302 89.37202699 303.15556412 89.37060547 313.95043945 C89.36940405 325.08342728 89.39050518 336.21622124 89.4220928 347.34916002 C89.44825091 356.90940094 89.45897295 366.46957852 89.45769465 376.02985495 C89.45718486 381.73884786 89.46287729 387.44766851 89.48405075 393.15662575 C89.50342506 398.52716146 89.50356294 403.89736046 89.48901749 409.2679081 C89.48692728 411.2367146 89.4916429 413.20554213 89.5037384 415.17431259 C89.51920695 417.86695372 89.50987228 420.55843614 89.49447632 423.25105286 C89.50476344 424.02587488 89.51505057 424.80069689 89.52564943 425.59899837 C89.44315408 432.15034526 87.36332685 437.30308228 83.03515625 442.2421875 C82.38417969 442.78101563 81.73320312 443.31984375 81.0625 443.875 C80.41410156 444.42929687 79.76570313 444.98359375 79.09765625 445.5546875 C75.00889322 448.37189853 71.46226376 449.25056025 66.53121948 449.18426514 C65.44428299 449.17519638 64.3573465 449.16612762 63.23747253 449.15678406 C62.0542189 449.13694962 60.87096527 449.11711517 59.65185547 449.09667969 C57.72553921 449.07757525 55.79922256 449.05849512 53.87289739 449.04031134 C51.80373716 449.01951243 49.73466005 448.99433765 47.66555405 448.96874237 C43.32273813 448.9178705 38.98006347 448.89543735 34.63699341 448.87994385 C33.90083829 448.87722654 33.16468317 448.87450923 32.40622032 448.87170959 C30.90033121 448.86627573 29.39444175 448.8609406 27.88855195 448.85570192 C17.78695914 448.82016432 7.68663806 448.77051885 -2.4140625 448.62646484 C-9.23689224 448.52936747 -16.05804279 448.4841992 -22.88157928 448.49506879 C-26.47841695 448.49888299 -30.07110061 448.47924954 -33.66705704 448.39571381 C-54.3290472 447.93686636 -67.44629073 451.7543837 -84.93381882 462.30239105 C-99.44689995 470.33764237 -116.82439575 474.67090469 -133 478 C-133.7331543 478.16226074 -134.46630859 478.32452148 -135.22167969 478.49169922 C-176.42724882 487.32146403 -220.35547743 480.16887802 -259 465 C-257.02 459.72 -255.04 454.44 -253 449 C-242.6875 452.09375 -242.6875 452.09375 -232.375 455.1875 C-231.46621094 455.46013672 -230.55742187 455.73277344 -229.62109375 456.01367188 C-227.14916992 456.75524902 -227.14916992 456.75524902 -224.67724609 457.49682617 C-224.12375488 457.66287354 -223.57026367 457.8289209 -223 458 C-223.11430048 455.1033852 -223.2410424 452.20821684 -223.375 449.3125 C-223.42140625 448.08756836 -223.42140625 448.08756836 -223.46875 446.83789062 C-223.72852335 441.49088925 -223.99161977 437.18128714 -227.76953125 433.078125 C-229.1219969 431.86788805 -230.47614221 430.65952531 -231.83203125 429.453125 C-238.80777088 421.55985565 -239.77777795 414.29696304 -239.59692383 404.08862305 C-239.562497 401.93731254 -239.57633415 399.79009948 -239.59570312 397.63867188 C-239.58785947 388.82980036 -239.00707017 382.57268048 -233.03515625 375.7578125 C-232.38417969 375.21898437 -231.73320312 374.68015625 -231.0625 374.125 C-230.41410156 373.57070313 -229.76570312 373.01640625 -229.09765625 372.4453125 C-223.66181423 368.69994649 -218.26558476 368.6337914 -211.8828125 368.43359375 C-205.33960561 368.14964326 -201.4805501 366.88513779 -196.90332031 362.18041992 C-196.13191711 361.39587936 -195.36051392 360.61133881 -194.56573486 359.80302429 C-193.74482361 358.95408096 -192.92391235 358.10513763 -192.078125 357.23046875 C-190.31260785 355.4367428 -188.54697932 353.64312647 -186.78125 351.84960938 C-184.01562297 349.02195188 -181.2534286 346.19102124 -178.49414062 343.35717773 C-175.82245911 340.6187998 -173.13841328 337.89299534 -170.453125 335.16796875 C-169.64031067 334.32509811 -168.82749634 333.48222748 -167.99005127 332.61381531 C-162.12946223 326.67858563 -156.59223788 321.75625501 -148.16772461 320.36889648 C-146.92514893 320.36962158 -145.68257324 320.37034668 -144.40234375 320.37109375 C-143.72377823 320.36868179 -143.04521271 320.36626984 -142.34608459 320.36378479 C-140.92687064 320.36475453 -139.50761466 320.37793688 -138.08862305 320.40307617 C-135.93731254 320.437503 -133.79009948 320.42366585 -131.63867188 320.40429688 C-122.82980036 320.41214053 -116.57268048 320.99292983 -109.7578125 326.96484375 C-109.21898437 327.61582031 -108.68015625 328.26679688 -108.125 328.9375 C-107.57070313 329.58589844 -107.01640625 330.23429687 -106.4453125 330.90234375 C-103.00473415 335.89583179 -102.68098444 340.58678412 -102.6640625 346.51953125 C-102.6574057 347.33693283 -102.6507489 348.15433441 -102.64389038 348.99650574 C-102.63379122 350.72201294 -102.62907251 352.44755898 -102.62939453 354.1730957 C-102.62503114 356.7937974 -102.5887117 359.41280009 -102.55078125 362.03320312 C-102.54491027 363.71614013 -102.54094276 365.39908506 -102.5390625 367.08203125 C-102.52469147 367.85625931 -102.51032043 368.63048737 -102.49551392 369.42817688 C-102.55043338 376.0689827 -104.57480455 381.23248074 -108.96484375 386.2421875 C-115.09918311 391.31971988 -119.85617611 393.11274489 -127.6953125 394.33984375 C-130.32131163 395.09203672 -131.33874836 395.85894587 -133 398 C-133.91836795 400.75510385 -134.16316691 402.52316188 -134.1875 405.375 C-134.20167969 406.12523437 -134.21585937 406.87546875 -134.23046875 407.6484375 C-133.76490711 412.39874438 -131.91995918 415.45785983 -128.48046875 418.671875 C-127.78759766 419.33703125 -127.09472656 420.0021875 -126.38085938 420.6875 C-124.93263483 422.04932112 -123.48215462 423.4087479 -122.02929688 424.765625 C-115.33010954 431.2107266 -110.49085199 437.45635349 -110.1875 447.0625 C-110.13980469 448.18785156 -110.09210938 449.31320312 -110.04296875 450.47265625 C-110.02878906 451.30667969 -110.01460938 452.14070313 -110 453 C-101.92239002 449.82782118 -93.91666547 446.61061228 -86.07421875 442.8828125 C-84 442 -84 442 -82 442 C-82.53042357 441.26381534 -82.53042357 441.26381534 -83.07156277 440.51275826 C-88.53915152 431.58564743 -87.69657436 422.18561097 -87.63110352 412.08154297 C-87.63624729 410.06351087 -87.64353202 408.04548326 -87.65278625 406.02746582 C-87.67124749 400.56884686 -87.65839579 395.11071845 -87.63869596 389.65212011 C-87.62226913 383.93035692 -87.63112776 378.2086238 -87.63621521 372.48684692 C-87.64073091 362.88193963 -87.62489684 353.27722743 -87.59692383 343.67236328 C-87.56485618 332.57616571 -87.56489653 321.48031956 -87.5821386 310.38409698 C-87.59801334 299.69572865 -87.59126515 289.00748885 -87.57420158 278.31912613 C-87.56733857 273.77623182 -87.56835583 269.23344077 -87.57574654 264.69054794 C-87.58341931 259.34041794 -87.57125051 253.990687 -87.54389763 248.640625 C-87.53702388 246.6798941 -87.53690496 244.71912585 -87.54411316 242.75839615 C-87.55283365 240.07692246 -87.53680844 237.39667312 -87.5146637 234.71530151 C-87.52290446 233.94389009 -87.53114523 233.17247867 -87.53963572 232.37769115 C-87.44036827 225.8422718 -85.35299624 220.68512891 -81.03515625 215.7578125 C-80.38417969 215.21898437 -79.73320312 214.68015625 -79.0625 214.125 C-78.41410156 213.57070312 -77.76570313 213.01640625 -77.09765625 212.4453125 C-71.82931994 208.81536011 -67.16814921 208.72747849 -60.98046875 208.8046875 C-60.12189774 208.8075174 -59.26332672 208.81034729 -58.3787384 208.81326294 C-55.64818125 208.8244193 -52.9179573 208.84951541 -50.1875 208.875 C-48.33138496 208.88503568 -46.47526476 208.8941605 -44.61914062 208.90234375 C-40.07929954 208.92434374 -35.53970619 208.95884219 -31 209 C-30.85206467 198.51558497 -30.76986207 188.03284706 -30.76940536 177.54732895 C-30.76717392 172.67711214 -30.74310417 167.80912714 -30.66748047 162.93945312 C-30.59519479 158.23122864 -30.58242464 153.52611688 -30.60929108 148.81745148 C-30.60934648 147.02978545 -30.58868098 145.24198384 -30.5460434 143.45482635 C-30.26337031 131.54561827 -30.26337031 131.54561827 -36.15127945 121.61020279 C-38.65528211 119.22358066 -41.25391812 117.10906904 -44 115 C-45.33454224 113.90105408 -45.33454224 113.90105408 -46.69604492 112.77990723 C-48.83463561 111.03018365 -51.02001143 109.38100797 -53.25 107.75 C-54.00667969 107.18410156 -54.76335937 106.61820312 -55.54296875 106.03515625 C-57.35574347 104.68131184 -59.17434162 103.33638714 -61 102 C-61.53109375 102.40557129 -62.0621875 102.81114258 -62.609375 103.22900391 C-63.31578125 103.76444824 -64.0221875 104.29989258 -64.75 104.8515625 C-65.79414062 105.64554443 -65.79414062 105.64554443 -66.859375 106.45556641 C-69.78595751 108.56705831 -72.82861941 110.28216885 -76 112 C-79.3 108.04 -82.6 104.08 -86 100 C-83.80682128 95.61364256 -82.08649371 94.48743095 -78 92 C-83.17573151 88.44168459 -88.53529047 85.69364826 -94.25 83.125 C-94.94738281 82.80265381 -95.64476562 82.48030762 -96.36328125 82.14819336 C-100.09112012 80.44765409 -100.09112012 80.44765409 -104.10058594 80.23388672 C-106.36795384 80.94076263 -106.36795384 80.94076263 -108 84 C-107.28441781 86.90433459 -107.28441781 86.90433459 -105.85620117 90.1328125 C-105.60450668 90.74956345 -105.35281219 91.36631439 -105.0934906 92.00175476 C-104.54403415 93.34323842 -103.98823288 94.6821365 -103.42693138 96.01870728 C-102.53570916 98.14229804 -101.66208312 100.27237195 -100.7928009 102.4050293 C-98.62741733 107.70749401 -96.43347234 112.99802268 -94.237854 118.2880249 C-92.388097 122.7469808 -90.55073996 127.21065799 -88.72948647 131.68133545 C-87.87445943 133.766194 -87.00203589 135.84316601 -86.12870789 137.92041016 C-82.16138045 147.53238145 -79.0122492 157.20880526 -82.6328125 167.4296875 C-85.66871367 173.13718171 -90.45478607 177.49104143 -95 182 C-96.50208638 183.51354497 -98.00333708 185.02791957 -99.50390625 186.54296875 C-103.64888507 190.71601838 -107.81709677 194.86498979 -112 199 C-115.08413917 196.1576075 -117.0538834 193.4389141 -118.99609375 189.73046875 C-119.54821533 188.68810059 -120.10033691 187.64573242 -120.66918945 186.57177734 C-121.54450317 184.89656006 -121.54450317 184.89656006 -122.4375 183.1875 C-123.68813583 180.82834979 -124.94033555 178.47011629 -126.1953125 176.11328125 C-126.51226578 175.51676758 -126.82921906 174.92025391 -127.15577698 174.30566406 C-130.27976871 168.44112366 -133.52872262 162.65116539 -136.8125 156.875 C-137.34504395 155.9365625 -137.87758789 154.998125 -138.42626953 154.03125 C-140.42509319 150.51361805 -142.428719 146.9987715 -144.4375 143.48681641 C-145.73236464 141.22218276 -147.02263223 138.9549819 -148.3125 136.6875 C-148.88158081 135.70015869 -148.88158081 135.70015869 -149.4621582 134.69287109 C-152 130.22583478 -152 130.22583478 -152 128 C-157.30611576 132.39659142 -162.06458524 137.09626767 -166.69433594 142.19664001 C-169.70161456 145.50554135 -172.76759316 148.75669949 -175.84191895 152.00327969 C-178.1564707 154.45387683 -180.44417949 156.92146051 -182.68457031 159.44018555 C-198.51466497 177.08022054 -198.51466497 177.08022054 -208.7265625 178.28173828 C-214.56199461 178.48484324 -220.2532745 178.01143769 -226 177 C-225.59571777 177.9787207 -225.19143555 178.95744141 -224.77490234 179.96582031 C-223.27957499 183.59740218 -221.80472741 187.23700798 -220.3359375 190.87939453 C-219.69729644 192.45490385 -219.0531172 194.02817997 -218.40332031 195.59912109 C-217.47037214 197.85731215 -216.55761859 200.12277861 -215.6484375 202.390625 C-215.20641495 203.44240936 -215.20641495 203.44240936 -214.75546265 204.51544189 C-212.80384981 209.46439817 -212.80384981 209.46439817 -213.73034668 211.9942627 C-215.09104127 214.14382263 -216.54289933 215.7833223 -218.34814453 217.57519531 C-219.36897629 218.59580048 -219.36897629 218.59580048 -220.41043091 219.63702393 C-221.5105098 220.72161896 -221.5105098 220.72161896 -222.6328125 221.828125 C-223.38464813 222.57713074 -224.13648376 223.32613647 -224.91110229 224.09783936 C-227.31107901 226.4866302 -229.71792009 228.86836897 -232.125 231.25 C-233.75436352 232.86933169 -235.38327534 234.48911802 -237.01171875 236.109375 C-241.00258806 240.07820505 -244.99911415 244.04126899 -249 248 C-251.56283784 245.76638546 -252.47957873 244.12432849 -253.24707031 240.83007812 C-259.18464441 215.289099 -259.18464441 215.289099 -275.45214844 196.01708984 C-288.31783156 188.86183325 -302.77904059 184.57839826 -317 181 C-317 178 -317 178 -315.67126465 176.3105011 C-315.04949341 175.69539169 -314.42772217 175.08028229 -313.78710938 174.4465332 C-313.08638306 173.74603348 -312.38565674 173.04553375 -311.66369629 172.32380676 C-310.89811401 171.57370834 -310.13253174 170.82360992 -309.34375 170.05078125 C-308.56688843 169.27816452 -307.79002686 168.50554779 -306.98962402 167.70951843 C-304.50001473 165.23673885 -302.00019042 162.7745763 -299.5 160.3125 C-297.81312034 158.64066155 -296.12691343 156.96814401 -294.44140625 155.29492188 C-290.30205286 151.18869475 -286.15425893 147.09114359 -282 143 C-276.42251967 144.61855866 -270.94265058 146.29692582 -265.5546875 148.48046875 C-263.91113281 149.14272461 -263.91113281 149.14272461 -262.234375 149.81835938 C-261.12578125 150.27017578 -260.0171875 150.72199219 -258.875 151.1875 C-257.72773438 151.65091797 -256.58046875 152.11433594 -255.3984375 152.59179688 C-252.59732875 153.72391166 -249.79792518 154.86004534 -247 156 C-247.18803444 155.10877945 -247.18803444 155.10877945 -247.37986755 154.19955444 C-248.9554437 145.47178844 -249.76176444 136.59340229 -245.03839111 128.73742676 C-239.25953047 121.07077967 -231.89986499 114.6336686 -224.80731201 108.21765137 C-221.8794303 105.54510282 -219.01762601 102.80367383 -216.15039062 100.06640625 C-211.13288216 95.28654895 -206.06221684 90.57184741 -200.94252014 85.90127563 C-198.93626204 84.14451449 -198.93626204 84.14451449 -198 82 C-198.67546875 81.75636719 -199.3509375 81.51273437 -200.046875 81.26171875 C-204.27715822 79.45433584 -208.20863024 77.07184189 -212.12109375 74.65820312 C-218.31692633 71.13871472 -222.95205062 71.92960015 -229.65625 73.70239258 C-232.58840884 74.56892106 -235.48048626 75.51509221 -238.375 76.5 C-239.42647217 76.85674805 -240.47794434 77.21349609 -241.5612793 77.58105469 C-268.03650717 86.79575725 -291.68930916 101.70024852 -312 121 C-312.49999512 121.47276367 -312.99999023 121.94552734 -313.51513672 122.43261719 C-327.50831832 135.74932695 -342.94477685 152.73942244 -350 171 C-348.69971467 174.96232402 -345.67906906 177.49415446 -342.73046875 180.2890625 C-341.66557297 181.32376337 -340.6011347 182.35893527 -339.53710938 183.39453125 C-337.87041253 185.00582611 -336.20020006 186.61290843 -334.52124023 188.21142578 C-326.98370305 195.4084284 -320.2532054 202.04102412 -318.3359375 212.6875 C-318.42750336 220.45228479 -319.18367729 226.70173184 -324 233 C-330.43221636 239.22472551 -336.46259178 241.31594277 -345.36328125 241.1953125 C-346.15526413 241.1924826 -346.94724701 241.18965271 -347.76322937 241.18673706 C-350.27980999 241.17558863 -352.79602789 241.15049422 -355.3125 241.125 C-357.02408338 241.11496329 -358.73567237 241.10583864 -360.44726562 241.09765625 C-364.63176082 241.07737271 -368.81547688 241.03821482 -373 241 C-373.33 251.56 -373.66 262.12 -374 273 C-369.359375 272.87625 -364.71875 272.7525 -359.9375 272.625 C-358.48722412 272.59100098 -357.03694824 272.55700195 -355.54272461 272.52197266 C-354.38264893 272.4863623 -353.22257324 272.45075195 -352.02734375 272.4140625 C-350.25991821 272.36693115 -350.25991821 272.36693115 -348.45678711 272.31884766 C-341.69919688 271.69554002 -337.32785372 269.85591181 -332.125 265.5625 C-323.40948834 258.83663368 -316.02409279 256.80973805 -305 258 C-295.06637664 259.83646818 -288.79230998 266.03303062 -282 273 C-281.28328125 273.71929687 -280.5665625 274.43859375 -279.828125 275.1796875 C-272.66401755 282.80303261 -270.30249822 290.46649586 -270.375 300.8125 C-270.34277344 301.72064453 -270.31054688 302.62878906 -270.27734375 303.56445312 C-270.26221165 314.28554431 -274.93025173 322.35332529 -282.328125 329.87890625 C-284.27604008 331.80168919 -286.25925094 333.68424632 -288.25 335.5625 C-289.76186684 337.01668226 -291.26934642 338.47525118 -292.77508545 339.93577576 C-294.12566571 341.24151851 -295.4868452 342.53627215 -296.84863281 343.83032227 C-300.37019869 347.38186062 -301.26610104 349.96323595 -301.9362793 354.85205078 C-303.48798368 366.09436038 -307.02120384 373.23530487 -315.92578125 380.5625 C-321.26167454 384.26044488 -326.63968722 385.16010275 -333 386 C-326.72106491 393.79781355 -320.08423136 401.10930355 -313 408.1875 C-312.2582251 408.92991943 -311.5164502 409.67233887 -310.75219727 410.43725586 C-307.91406692 413.24672152 -305.33285852 415.77809432 -302 418 C-303.56367357 421.52238047 -305.69495889 424.27123994 -308.125 427.25 C-308.84945312 428.14203125 -309.57390625 429.0340625 -310.3203125 429.953125 C-310.87460937 430.62859375 -311.42890625 431.3040625 -312 432 C-316.153095 430.33269909 -319.11201621 427.33728 -322.3125 424.3125 C-322.89354492 423.76795166 -323.47458984 423.22340332 -324.07324219 422.66235352 C-325.72059167 421.11352199 -327.36094981 419.55760339 -329 418 C-329.68964844 417.35289062 -330.37929688 416.70578125 -331.08984375 416.0390625 C-365.64887467 382.69976209 -390.01126769 329.38446508 -391.16113281 281.45605469 C-391.18064788 279.8613861 -391.19442324 278.26663925 -391.203125 276.671875 C-391.21013931 275.8087973 -391.21715363 274.9457196 -391.22438049 274.05648804 C-391.24178654 271.28760503 -391.2482323 268.5189357 -391.25 265.75 C-391.25067474 264.80525818 -391.25134949 263.86051636 -391.25204468 262.887146 C-391.23668373 249.37669371 -390.95298344 236.23800867 -388 223 C-387.82839355 222.19127441 -387.65678711 221.38254883 -387.47998047 220.54931641 C-375.04271161 162.96442816 -340.66702274 113.98285882 -291.5859375 81.72265625 C-276.38223487 72.07377754 -259.5687952 64.90366467 -243 58 C-251.25 53.38 -259.5 48.76 -268 44 C-268 40.38122665 -266.94735491 39.58929457 -264.49472046 37.10353088 C-263.98857208 36.60659225 -263.48242371 36.10965363 -262.9609375 35.59765625 C-262.44246246 35.07868271 -261.92398743 34.55970917 -261.38980103 34.02500916 C-260.28868256 32.92623332 -259.18386434 31.83115467 -258.07568359 30.73950195 C-256.39380517 29.08104331 -254.72545871 27.40986054 -253.05859375 25.73632812 C-251.9851619 24.66847924 -250.91096633 23.60139741 -249.8359375 22.53515625 C-249.09493301 21.79278465 -249.09493301 21.79278465 -248.33895874 21.03541565 C-242.30816843 15.12437575 -236.29972698 11.1424419 -227.71025085 10.94822693 C-219.06740575 11.4523942 -211.60904576 14.52067134 -203.70703125 17.78515625 C-202.26595693 18.36794122 -200.82435225 18.9494163 -199.38224792 19.52964783 C-195.62051133 21.04721448 -191.86616123 22.58225943 -188.11315918 24.12127686 C-184.26926267 25.69385414 -180.4185249 27.24949066 -176.56835938 28.80664062 C-169.03884286 31.85471782 -161.5170579 34.92132659 -154 38 C-152.883245 37.05249926 -151.7678716 36.10336998 -150.65307617 35.15356445 C-149.72116707 34.36101006 -149.72116707 34.36101006 -148.77043152 33.55244446 C-146.48618326 31.54944772 -144.40458041 29.38911341 -142.3125 27.1875 C-127.71093499 12.51986456 -108.00113612 1.06846786 -86.8203125 0.90234375 C-84.92185028 0.90893563 -83.02340004 0.92077967 -81.125 0.9375 C-80.15046875 0.94201172 -79.1759375 0.94652344 -78.171875 0.95117188 C-75.78118566 0.96289094 -73.3906256 0.97929781 -71 1 C-70.03944186 26.32917914 -75.80192219 45.43789473 -91 66 C-89.92782227 66.16109253 -89.92782227 66.16109253 -88.83398438 66.32543945 C-85.72264749 67.06601697 -83.4393768 68.22486003 -80.65625 69.79296875 C-79.65722656 70.34017578 -78.65820312 70.88738281 -77.62890625 71.45117188 C-75.53797757 72.61149372 -73.4520259 73.78082865 -71.37109375 74.95898438 C-70.37207031 75.50232422 -69.37304688 76.04566406 -68.34375 76.60546875 C-67.43818359 77.11231201 -66.53261719 77.61915527 -65.59960938 78.14135742 C-63.03205013 79.24914576 -63.03205013 79.24914576 -60.4921875 78.35424805 C-57.83794779 76.91194126 -55.3059792 75.38633818 -52.78125 73.7265625 C-51.77755371 73.07268555 -50.77385742 72.41880859 -49.73974609 71.74511719 C-48.67062988 71.04547852 -47.60151367 70.34583984 -46.5 69.625 C-24.20134407 55.17597105 -0.84881711 42.69361355 23 31 C19.83666282 28.45398073 16.55686888 26.66295959 12.921875 24.86328125 C11.18164062 23.99799805 11.18164062 23.99799805 9.40625 23.11523438 C8.18754332 22.51423507 6.96879276 21.91332472 5.75 21.3125 C4.51544113 20.70024041 3.28106412 20.08761397 2.046875 19.47460938 C-0.96696214 17.97946361 -3.98324802 16.48925573 -7 15 C-3.535 7.575 -3.535 7.575 0 0 Z M-126.6953125 36.63671875 C-127.20094727 37.15153809 -127.70658203 37.66635742 -128.22753906 38.19677734 C-130.37990345 40.38649682 -132.56098972 42.54603771 -134.7421875 44.70703125 C-139.18308529 49.11675877 -143.59719273 53.55228564 -148 58 C-155.87048363 55.88044512 -163.37280131 52.9676774 -170.91164398 49.8982811 C-173.02941804 49.03635515 -175.14953178 48.18042715 -177.27032471 47.32595825 C-183.29207211 44.8984475 -189.30915285 42.45944896 -195.32568359 40.01904297 C-199.02451223 38.51920579 -202.72569637 37.02530712 -206.42829132 35.53479385 C-208.50961955 34.69472461 -210.58801939 33.84768267 -212.66644287 33.00045776 C-213.94772283 32.48413722 -215.22914834 31.96817766 -216.51074219 31.45263672 C-217.62197449 31.00201874 -218.73320679 30.55140076 -219.87811279 30.08712769 C-222.95807053 29.01460101 -225.7546439 28.31304416 -229 28 C-231.31456578 29.25886222 -231.31456578 29.25886222 -233.1875 31.25 C-233.84105469 31.87390625 -234.49460938 32.4978125 -235.16796875 33.140625 C-235.77253906 33.75421875 -236.37710938 34.3678125 -237 35 C-237.57363281 35.53109375 -238.14726562 36.0621875 -238.73828125 36.609375 C-240.22398255 37.93391556 -240.22398255 37.93391556 -240 40 C-238.91005737 40.60134766 -238.91005737 40.60134766 -237.7980957 41.21484375 C-236.76773193 41.78332031 -235.73736816 42.35179688 -234.67578125 42.9375 C-234.11061798 43.24929703 -233.54545471 43.56109406 -232.96316528 43.88233948 C-229.77029148 45.64385329 -226.57754472 47.40559675 -223.38500977 49.16772461 C-217.25737626 52.54959984 -211.12914361 55.93034783 -204.99623108 59.30264282 C-202.42565111 60.71622632 -199.8556755 62.13090666 -197.28573608 63.5456543 C-196.07300228 64.21286514 -194.85997872 64.87954967 -193.64663696 65.5456543 C-185.69175657 69.91307227 -177.81620796 74.38935039 -170 79 C-175.08757066 85.32492086 -180.91953515 90.76996701 -186.8201561 96.31458092 C-190.57781753 99.86336107 -194.28890274 103.4609609 -198.00611687 107.05200481 C-201.25688325 110.18731576 -204.52342496 113.30185208 -207.83105469 116.37719727 C-224.69196386 130.58840353 -224.69196386 130.58840353 -232.90557861 149.87417603 C-232.6283085 153.69217343 -231.84019844 157.26501522 -231 161 C-218.42856451 162.7005743 -218.42856451 162.7005743 -206.84436035 158.63208008 C-202.77373834 155.32426074 -199.24993333 151.50683919 -195.703125 147.65625 C-194.36853189 146.28426506 -193.0293878 144.91669395 -191.68597412 143.55334473 C-188.19398754 139.9856756 -184.76629423 136.36219557 -181.34942627 132.72271729 C-177.83948594 129.00665201 -174.270851 125.34788392 -170.70703125 121.68359375 C-163.74672067 114.51000703 -156.85311583 107.27595827 -150 100 C-147.39092239 103.20975182 -145.15917149 106.27178606 -143.22265625 109.9296875 C-142.71581299 110.87827637 -142.20896973 111.82686523 -141.68676758 112.80419922 C-140.88275513 114.32424561 -140.88275513 114.32424561 -140.0625 115.875 C-135.57407691 124.26437297 -131.0139181 132.60299998 -126.3125 140.875 C-120.81543808 150.55085771 -115.38579106 160.26180893 -110 170 C-106.92819086 168.62344977 -104.71651082 167.03936308 -102.3125 164.6875 C-101.40951172 163.82705078 -101.40951172 163.82705078 -100.48828125 162.94921875 C-98.64597073 160.53632388 -98.31849728 159.01710152 -98 156 C-98.6651839 153.21360855 -98.6651839 153.21360855 -99.89453125 150.3125 C-100.34747559 149.15983643 -100.80041992 148.00717285 -101.26708984 146.81958008 C-101.51787292 146.19983307 -101.76865601 145.58008606 -102.02703857 144.94155884 C-102.82656052 142.96524422 -103.60937333 140.98295658 -104.38916016 138.9987793 C-107.40271711 131.36170787 -110.50261586 123.76024044 -113.61705017 116.16384888 C-115.29452533 112.0669692 -116.96133598 107.96578089 -118.62802124 103.86450195 C-119.86697806 100.83213383 -121.12417192 97.80774935 -122.38208008 94.78320312 C-123.1487608 92.90397674 -123.91466636 91.02443386 -124.6796875 89.14453125 C-125.04570572 88.27915237 -125.41172394 87.4137735 -125.78883362 86.52217102 C-126.11101364 85.72055038 -126.43319366 84.91892975 -126.76513672 84.09301758 C-127.19715897 83.04746452 -127.19715897 83.04746452 -127.63790894 81.98078918 C-128.12269966 79.32878168 -127.43855962 78.23520686 -126 76 C-124.32977486 74.22266375 -122.59960604 72.50105739 -120.8359375 70.81640625 C-119.78469996 69.79539146 -118.73393481 68.77389012 -117.68359375 67.75195312 C-116.04363776 66.16711558 -114.40021913 64.58648201 -112.74755859 63.01489258 C-103.1790032 53.88865446 -95.32411055 44.39466577 -91.0625 31.625 C-90.68222656 30.52414063 -90.30195313 29.42328125 -89.91015625 28.2890625 C-88.96294032 24.86607619 -88.42367164 21.52316419 -88 18 C-102.21719171 18 -116.9223914 27.06683617 -126.6953125 36.63671875 Z M-10 110 C-15.00673475 116.3599063 -15.14863728 121.78511557 -15.11352539 129.64575195 C-15.11367142 130.5047963 -15.11381744 131.36384064 -15.1139679 132.24891663 C-15.11327312 135.07873082 -15.10550111 137.9084786 -15.09765625 140.73828125 C-15.09579052 142.70411646 -15.09436735 144.66995213 -15.09336853 146.63578796 C-15.08955553 151.80279836 -15.07973562 156.96978052 -15.06866455 162.13677979 C-15.05842427 167.41214618 -15.0538653 172.68751715 -15.04882812 177.96289062 C-15.03811226 188.30860813 -15.02052531 198.6542973 -15 209 C-4.44 209 6.12 209 17 209 C17.06790372 197.6816685 17.12288991 186.36347335 17.15543652 175.04498386 C17.17106094 169.7887824 17.19224023 164.53272811 17.22631836 159.27661133 C17.25902688 154.19969686 17.27687724 149.12292353 17.28463173 144.04591179 C17.29015464 142.11352252 17.3009394 140.18114055 17.31719017 138.24881172 C17.33911733 135.53232538 17.34196057 132.81641478 17.34057617 130.09985352 C17.351362 129.30934601 17.36214783 128.5188385 17.3732605 127.70437622 C17.34062327 121.74658792 16.65840436 114.98865227 12.54796124 110.36757755 C7.79005841 106.32724367 4.60665061 105.64396995 -1.4609375 105.72265625 C-5.22460402 106.13376444 -7.21790187 107.4828636 -10 110 Z M-279.28515625 165.1875 C-280.20167969 166.115625 -281.11820312 167.04375 -282.0625 168 C-283.44115234 169.3921875 -283.44115234 169.3921875 -284.84765625 170.8125 C-285.55792969 171.534375 -286.26820313 172.25625 -287 173 C-284.49943542 175.93347749 -281.89596874 177.06585586 -278.34375 178.48046875 C-276.68666016 179.14272461 -276.68666016 179.14272461 -274.99609375 179.81835938 C-273.84238281 180.27017578 -272.68867188 180.72199219 -271.5 181.1875 C-269.76943359 181.88262695 -269.76943359 181.88262695 -268.00390625 182.59179688 C-262.17253437 185.10216061 -262.17253437 185.10216061 -256 186 C-255.88213135 186.70213623 -255.7642627 187.40427246 -255.64282227 188.12768555 C-254.94628696 191.24000529 -253.91219758 194.00153761 -252.71484375 196.95703125 C-252.26689453 198.06884766 -251.81894531 199.18066406 -251.35742188 200.32617188 C-250.88884766 201.47666016 -250.42027344 202.62714844 -249.9375 203.8125 C-249.22883789 205.56723633 -249.22883789 205.56723633 -248.50585938 207.35742188 C-247.34111284 210.23987543 -246.17236766 213.12063965 -245 216 C-241.87737482 216.32828283 -241.87737482 216.32828283 -239.73828125 214.03125 C-238.53751953 212.77828125 -238.53751953 212.77828125 -237.3125 211.5 C-236.50425781 210.6646875 -235.69601563 209.829375 -234.86328125 208.96875 C-233.94095703 207.99421875 -233.94095703 207.99421875 -233 207 C-234.41738014 203.17508409 -235.84574742 199.35521055 -237.296875 195.54296875 C-238.40454312 192.62440079 -239.45298882 189.69529544 -240.453125 186.73828125 C-240.92670286 185.40871859 -241.40064621 184.07928603 -241.875 182.75 C-242.28492188 181.54859375 -242.69484375 180.3471875 -243.1171875 179.109375 C-245.7073087 174.83191343 -248.45355495 173.78813389 -253 172 C-253.92006836 171.62133789 -254.84013672 171.24267578 -255.78808594 170.85253906 C-258.82660355 169.62065394 -261.8786681 168.43046687 -264.9375 167.25 C-266.5162793 166.63318359 -266.5162793 166.63318359 -268.12695312 166.00390625 C-274.106763 162.86067912 -274.106763 162.86067912 -279.28515625 165.1875 Z M-360 190 C-367.15191502 207.01882438 -367.15191502 207.01882438 -370 225 C-365.77089131 225.05817206 -361.54188591 225.09365463 -357.3125 225.125 C-356.11431641 225.14175781 -354.91613281 225.15851563 -353.68164062 225.17578125 C-352.52470703 225.18222656 -351.36777344 225.18867188 -350.17578125 225.1953125 C-349.11270752 225.20578613 -348.04963379 225.21625977 -346.9543457 225.22705078 C-343.19159806 224.93787176 -340.37527469 223.85361878 -337.1875 221.875 C-335.64886249 219.44557236 -335.23530744 217.29928745 -335.27954102 214.43798828 C-336.81659912 209.23667948 -341.43586319 205.63579683 -345.28955078 201.99707031 C-346.88120048 200.49414515 -348.44405307 198.96552786 -350.00390625 197.4296875 C-354.37283416 192.33526735 -354.37283416 192.33526735 -360 190 Z M-69 228 C-71.23344993 232.18971576 -71.28476761 236.2106164 -71.26069641 240.84996033 C-71.26452196 241.63404111 -71.26834751 242.41812189 -71.27228898 243.2259627 C-71.28259699 245.84984762 -71.27863103 248.47351282 -71.2746582 251.09741211 C-71.27900588 252.98001813 -71.28418922 254.86262238 -71.29014587 256.745224 C-71.30354075 261.85675794 -71.30411402 266.96821796 -71.30158257 272.07976604 C-71.30051325 276.34676604 -71.30539522 280.61375106 -71.310188 284.88074785 C-71.32128476 294.94679576 -71.32171955 305.01280636 -71.31567383 315.07885742 C-71.3096322 325.46431992 -71.32194949 335.84964699 -71.3432439 346.23508638 C-71.36085429 355.15156415 -71.36686216 364.06799879 -71.36360615 372.98449332 C-71.36179234 378.30997592 -71.36443933 383.63536192 -71.37832069 388.96082878 C-71.39088531 393.9685386 -71.38896783 398.97603714 -71.37590981 403.98374367 C-71.37354154 405.82115627 -71.37628763 407.65858368 -71.38453293 409.49597931 C-71.39498097 412.00525058 -71.38691559 414.51381035 -71.3742218 417.02305603 C-71.38159609 417.74923046 -71.38897037 418.47540488 -71.39656812 419.22358459 C-71.34720059 423.86591103 -70.62629204 427.14456534 -68 431 C-64.54680585 432.99762057 -61.52094539 433.25201076 -57.57972717 433.26069641 C-56.50451309 433.26778122 -55.42929901 433.27486603 -54.32150269 433.28216553 C-52.56726486 433.2784494 -52.56726486 433.2784494 -50.77758789 433.2746582 C-49.53803848 433.27976913 -48.29848907 433.28488007 -47.02137756 433.29014587 C-43.62873629 433.30165391 -40.23633956 433.30411715 -36.84369588 433.30158257 C-34.00824193 433.30051135 -31.17281041 433.3054001 -28.33736128 433.310188 C-21.64652124 433.32127521 -14.95573735 433.32172497 -8.26489258 433.31567383 C-1.36942407 433.30963339 5.52584042 433.32194849 12.42127413 433.3432439 C18.34839677 433.3608737 24.27545455 433.3668591 30.20260245 433.36360615 C33.7395807 433.3617954 37.2764134 433.36440863 40.81336784 433.37832069 C44.7583908 433.39325788 48.70315491 433.3839168 52.64819336 433.37231445 C53.81566101 433.37995819 54.98312866 433.38760193 56.18597412 433.39547729 C64.0674489 433.42784552 64.0674489 433.42784552 71 430 C73.23344993 425.81028424 73.28476761 421.7893836 73.26069641 417.15003967 C73.26452196 416.36595889 73.26834751 415.58187811 73.27228898 414.7740373 C73.28259699 412.15015238 73.27863103 409.52648718 73.2746582 406.90258789 C73.27900588 405.01998187 73.28418922 403.13737762 73.29014587 401.254776 C73.30354075 396.14324206 73.30411402 391.03178204 73.30158257 385.92023396 C73.30051325 381.65323396 73.30539522 377.38624894 73.310188 373.11925215 C73.32128476 363.05320424 73.32171955 352.98719364 73.31567383 342.92114258 C73.3096322 332.53568008 73.32194949 322.15035301 73.3432439 311.76491362 C73.36085429 302.84843585 73.36686216 293.93200121 73.36360615 285.01550668 C73.36179234 279.69002408 73.36443933 274.36463808 73.37832069 269.03917122 C73.39088531 264.0314614 73.38896783 259.02396286 73.37590981 254.01625633 C73.37354154 252.17884373 73.37628763 250.34141632 73.38453293 248.50402069 C73.39498097 245.99474942 73.38691559 243.48618965 73.3742218 240.97694397 C73.38159609 240.25076954 73.38897037 239.52459512 73.39656812 238.77641541 C73.34720059 234.13408897 72.62629204 230.85543466 70 227 C66.54680585 225.00237943 63.52094539 224.74798924 59.57972717 224.73930359 C58.50451309 224.73221878 57.42929901 224.72513397 56.32150269 224.71783447 C54.56726486 224.7215506 54.56726486 224.7215506 52.77758789 224.7253418 C51.53803848 224.72023087 50.29848907 224.71511993 49.02137756 224.70985413 C45.62873629 224.69834609 42.23633956 224.69588285 38.84369588 224.69841743 C36.00824193 224.69948865 33.17281041 224.6945999 30.33736128 224.689812 C23.64652124 224.67872479 16.95573735 224.67827503 10.26489258 224.68432617 C3.36942407 224.69036661 -3.52584042 224.67805151 -10.42127413 224.6567561 C-16.34839677 224.6391263 -22.27545455 224.6331409 -28.20260245 224.63639385 C-31.7395807 224.6382046 -35.2764134 224.63559137 -38.81336784 224.62167931 C-42.7583908 224.60674212 -46.70315491 224.6160832 -50.64819336 224.62768555 C-51.81566101 224.62004181 -52.98312866 224.61239807 -54.18597412 224.60452271 C-62.0674489 224.57215448 -62.0674489 224.57215448 -69 228 Z M-321 279 C-322.30698963 280.02787891 -323.61984195 281.04833325 -324.9375 282.0625 C-325.84822266 282.79146484 -325.84822266 282.79146484 -326.77734375 283.53515625 C-332.74276665 287.46667398 -337.7802003 288.45389262 -344.77734375 288.51171875 C-345.58869278 288.52966995 -346.40004181 288.54762115 -347.23597717 288.56611633 C-349.80310008 288.61988463 -352.3700407 288.65400616 -354.9375 288.6875 C-356.68817623 288.72070276 -358.4388285 288.75519513 -360.18945312 288.79101562 C-364.45950314 288.87559126 -368.72950225 288.94256074 -373 289 C-371.97574424 297.34660959 -370.91861627 305.59630888 -368.8125 313.75 C-368.59891846 314.5850708 -368.38533691 315.4201416 -368.1652832 316.28051758 C-364.31080361 330.8226042 -358.73998512 344.8161077 -351.90820312 358.21142578 C-351.09449025 359.81391517 -350.31812343 361.4352402 -349.546875 363.05859375 C-348.20787416 365.52497173 -347.1791818 367.23427903 -345 369 C-338.42974647 370.67336145 -330.96195072 369.09276193 -325 366 C-320.63117617 361.96723954 -319.44864664 357.24521069 -318.6484375 351.45703125 C-316.59484876 337.18257619 -307.62936285 329.22782689 -297.43554688 319.76757812 C-291.04852366 313.64272571 -287.69338445 309.02906236 -286.6796875 300.21484375 C-287.2819286 293.19271255 -290.00897546 289.78067485 -295 285 C-295.69351563 284.27296875 -296.38703125 283.5459375 -297.1015625 282.796875 C-302.92735102 276.72757855 -302.92735102 276.72757855 -310.875 274.625 C-315.24806092 274.75409405 -317.5492449 276.26815222 -321 279 Z M-153.09667969 342.81958008 C-153.86808289 343.60412064 -154.63948608 344.38866119 -155.43426514 345.19697571 C-156.66563202 346.4703907 -156.66563202 346.4703907 -157.921875 347.76953125 C-159.68739215 349.5632572 -161.45302068 351.35687353 -163.21875 353.15039062 C-165.98437703 355.97804812 -168.7465714 358.80897876 -171.50585938 361.64282227 C-174.17754089 364.3812002 -176.86158672 367.10700466 -179.546875 369.83203125 C-180.35968933 370.67490189 -181.17250366 371.51777252 -182.00994873 372.38618469 C-188.54433189 379.00378996 -194.91594443 384.43900712 -204.54101562 384.6484375 C-205.24935547 384.64070313 -205.95769531 384.63296875 -206.6875 384.625 C-212.17358423 384.625 -216.29697958 384.77063965 -221 388 C-223.61626542 392.14993825 -223.29928742 396.74376437 -223.25 401.5 C-223.25773438 402.24636719 -223.26546875 402.99273437 -223.2734375 403.76171875 C-223.25503614 408.96010422 -222.89768429 412.93893892 -219.23046875 416.921875 C-217.8780031 418.13211195 -216.52385779 419.34047469 -215.16796875 420.546875 C-207.81787011 428.86374337 -207.22933687 436.83324432 -207.1875 447.5625 C-207.16431331 448.96683499 -207.13893942 450.37113566 -207.11132812 451.77539062 C-207.05276304 455.18387883 -207.01625567 458.59109142 -207 462 C-179.97992873 466.3922209 -153.67594825 465.21764256 -127 459 C-126.94550162 457.27119018 -126.90698312 455.54187288 -126.875 453.8125 C-126.85179687 452.84957031 -126.82859375 451.88664062 -126.8046875 450.89453125 C-127.14464944 445.85629526 -128.86754783 442.74070323 -132.51953125 439.328125 C-133.21240234 438.66296875 -133.90527344 437.9978125 -134.61914062 437.3125 C-136.06736517 435.95067888 -137.51784538 434.5912521 -138.97070312 433.234375 C-145.45693579 426.99415116 -150.06503064 421.40349819 -150.62890625 412.15234375 C-150.6328424 410.08061465 -150.61030643 408.00868119 -150.5625 405.9375 C-150.57345703 404.90044922 -150.58441406 403.86339844 -150.59570312 402.79492188 C-150.52408142 395.26509319 -149.22462311 389.73681157 -144.25390625 383.9765625 C-139.2486316 379.97696659 -135.27004611 378.21745679 -128.9375 377.125 C-124.82152954 376.34713058 -122.48908933 375.57130208 -120 372 C-118.39121443 367.1736433 -118.77385544 362.24187181 -118.75 357.1875 C-118.729375 356.10662109 -118.70875 355.02574219 -118.6875 353.91210938 C-118.56825163 345.97959879 -118.56825163 345.97959879 -122 339 C-126.14993825 336.38373458 -130.74376437 336.70071258 -135.5 336.75 C-136.24636719 336.74226563 -136.99273437 336.73453125 -137.76171875 336.7265625 C-138.49003906 336.72914063 -139.21835937 336.73171875 -139.96875 336.734375 C-140.62294922 336.73663086 -141.27714844 336.73888672 -141.95117188 336.74121094 C-146.75046668 337.34741357 -149.7820936 339.41267391 -153.09667969 342.81958008 Z " fill="#1F686A" transform="translate(407,15)" />
                    <path d="M0 0 C0.44730469 0.38671875 0.89460937 0.7734375 1.35546875 1.171875 C4.8521026 4.18390075 8.37407463 7.14321031 12 10 C11.12903396 14.46535281 8.59219162 17.0727733 5.625 20.375 C4.51864318 21.63740685 3.41452645 22.90177991 2.3125 24.16796875 C1.75433594 24.80911621 1.19617188 25.45026367 0.62109375 26.11083984 C-21.97677199 52.44552133 -41.34291561 82.18187304 -57.75976562 112.69580078 C-58.60268393 114.2618368 -59.45052511 115.82523097 -60.30273438 117.38623047 C-89.77238078 171.43184112 -108.59563317 231.33670703 -117.33984375 292.1875 C-117.45286835 292.97128021 -117.56589294 293.75506042 -117.68234253 294.56259155 C-118.23896797 298.43889218 -118.78207792 302.31632254 -119.30175781 306.19775391 C-119.49665098 307.60320312 -119.69163345 309.00863995 -119.88671875 310.4140625 C-120.05389404 311.6613916 -120.22106934 312.9087207 -120.39331055 314.19384766 C-120.59351807 315.11987793 -120.79372559 316.0459082 -121 317 C-124.09185642 318.54592821 -126.69044457 317.62583428 -130.0625 317.125 C-131.96708984 316.85042969 -131.96708984 316.85042969 -133.91015625 316.5703125 C-137 316 -137 316 -138 315 C-137.87326149 304.54357381 -136.1331444 294.16811367 -134.4375 283.875 C-134.24300766 282.68546219 -134.24300766 282.68546219 -134.04458618 281.47189331 C-129.36901432 253.09091472 -122.90746416 225.36022001 -114 198 C-113.60554688 196.78231934 -113.21109375 195.56463867 -112.8046875 194.31005859 C-91.77797511 129.98358001 -58.61273867 69.87060616 -15.45458984 17.76318359 C-14.07983671 16.09677421 -12.71865242 14.42047218 -11.36328125 12.73828125 C-10.19345703 11.29001953 -10.19345703 11.29001953 -9 9.8125 C-8.34 8.99394531 -7.68 8.17539063 -7 7.33203125 C-4.78782525 4.75260092 -2.42931329 2.37448504 0 0 Z " fill="#1F686A" transform="translate(250,180)" />
                    <path d="M0 0 C0.95390625 -0.0038269 1.9078125 -0.00765381 2.890625 -0.01159668 C4.90105245 -0.01431036 6.91151553 -0.00698737 8.921875 0.00976562 C11.99038787 0.03118291 15.05655952 0.00994534 18.125 -0.015625 C20.08333848 -0.01298163 22.0416755 -0.00785645 24 0 C25.36898437 -0.01214539 25.36898437 -0.01214539 26.765625 -0.02453613 C32.32079872 0.056806 35.69337704 0.68925526 40 4.53125 C43.91645391 9.10425706 44.59545403 12.93197517 44.53125 18.78125 C44.53699036 19.94575684 44.53699036 19.94575684 44.54284668 21.13378906 C44.54555654 22.7675914 44.53826031 24.4014378 44.52148438 26.03515625 C44.50005871 28.52442896 44.52131466 31.01081618 44.546875 33.5 C44.54423156 35.09375632 44.53910623 36.68751085 44.53125 38.28125 C44.53934692 39.01891602 44.54744385 39.75658203 44.55578613 40.51660156 C44.46324376 45.66112956 43.22216175 48.56007373 40 52.53125 C35.03642855 56.87973911 31.57478402 56.79255616 25.375 56.53125 C19.11627244 56.53252482 15.25396774 57.30254303 10.69970703 61.73828125 C9.24634101 63.34134819 7.85357931 64.97638028 6.48046875 66.6484375 C3.10460577 70.57188141 0.70933058 72.33401497 -4.50170898 72.93530273 C-12.34179718 72.99328517 -12.34179718 72.99328517 -15.14672852 72.97729492 C-17.42751403 72.96878725 -19.70578982 72.99756465 -21.98632812 73.02929688 C-23.44791592 73.03090932 -24.90950812 73.03033052 -26.37109375 73.02734375 C-28.3500061 73.03012329 -28.3500061 73.03012329 -30.36889648 73.03295898 C-35.79623157 72.28306498 -38.82799695 69.89924018 -42.3359375 65.8046875 C-44.40838302 61.727905 -44.66508678 58.66200384 -44.625 54.15625 C-44.65722656 53.43953125 -44.68945312 52.7228125 -44.72265625 51.984375 C-44.73410798 45.64011433 -42.24316115 42.07733558 -38 37.53125 C-34.38138319 33.93226248 -30.64802625 30.45773308 -26.83789062 27.0625 C-22.85621852 23.28635602 -20.58124338 20.79529041 -20.09375 15.203125 C-20.09439453 14.39198242 -20.09503906 13.58083984 -20.09570312 12.74511719 C-19.93966024 9.13543135 -18.33182281 7.178184 -16 4.53125 C-10.75089933 0.09189432 -6.56885199 -0.05827769 0 0 Z M-4 16.53125 C-4.33 20.16125 -4.66 23.79125 -5 27.53125 C-9.49169892 34.9474507 -15.98380358 40.60125339 -22.25 46.52734375 C-22.98992187 47.24535156 -23.72984375 47.96335937 -24.4921875 48.703125 C-25.50321533 49.6636377 -25.50321533 49.6636377 -26.53466797 50.64355469 C-28.40879374 52.65959259 -28.40879374 52.65959259 -28 56.53125 C-16.69102515 58.0953403 -16.69102515 58.0953403 -5.95556641 55.40185547 C-3.04610797 53.05273717 -0.72893908 50.36844801 1.58984375 47.44921875 C4.48778875 43.94068566 6.56815069 41.88599141 11.17407227 41.21411133 C13.724679 41.0132186 16.25461371 40.91103415 18.8125 40.84375 C21.844375 40.740625 24.87625 40.6375 28 40.53125 C28 32.61125 28 24.69125 28 16.53125 C17.44 16.53125 6.88 16.53125 -4 16.53125 Z " fill="#1F686A" transform="translate(260,247.46875)" />
                    <path d="M0 0 C5.28 0 10.56 0 16 0 C16 58.08 16 116.16 16 176 C10.72 176 5.44 176 0 176 C0 117.92 0 59.84 0 0 Z " fill="#1F686A" transform="translate(440,256)" />
                    <path d="M0 0 C5.28 0 10.56 0 16 0 C16 58.08 16 116.16 16 176 C10.72 176 5.44 176 0 176 C0 117.92 0 59.84 0 0 Z " fill="#1F686A" transform="translate(400,256)" />
                    <path d="M0 0 C5.28 0 10.56 0 16 0 C16 58.08 16 116.16 16 176 C10.72 176 5.44 176 0 176 C0 117.92 0 59.84 0 0 Z " fill="#1F686A" transform="translate(360,256)" />
                    <path d="M0 0 C7.92 0 15.84 0 24 0 C24 5.28 24 10.56 24 16 C16.08 16 8.16 16 0 16 C0 10.72 0 5.44 0 0 Z " fill="#1F686A" transform="translate(448,480)" />
                    <path d="M0 0 C7.92 0 15.84 0 24 0 C24 5.28 24 10.56 24 16 C16.08 16 8.16 16 0 16 C0 10.72 0 5.44 0 0 Z " fill="#1F686A" transform="translate(352,480)" />
                </svg>