<svg version="1.1" xmlns="http://www.w3.org/2000/svg" width="512" height="512">
<path d="M0 0 C0.75796875 0.54011719 1.5159375 1.08023437 2.296875 1.63671875 C3.31007813 2.33861328 3.31007813 2.33861328 4.34375 3.0546875 C10.29230172 7.68266074 14.01036823 13.83009696 18 20.11328125 C21.20116494 25.08756243 24.10389165 28.87858815 29.296875 31.88671875 C30.1425 32.386875 30.988125 32.88703125 31.859375 33.40234375 C41.28635076 38.17626096 52.70678562 36.12013403 62.359375 33.13671875 C76.05775557 28.96284587 87.96349368 29.75211752 101.015625 35.921875 C113.6821464 42.93928423 121.49336991 53.94180649 125.734375 67.63671875 C127.15607035 74.80700833 126.79400924 82.73805953 125.796875 89.94921875 C124.42858553 100.04035358 125.31018857 108.88361707 131.359375 117.38671875 C137.04191016 124.12289063 144.19389116 127.2295064 152.234375 130.44921875 C164.86723051 135.74952552 173.06756059 144.0399258 178.57421875 156.53515625 C180.49368237 161.52166317 181.90021339 166.28178705 182.296875 171.63671875 C182.37421875 172.61125 182.37421875 172.61125 182.453125 173.60546875 C183.02120077 186.67121142 178.625956 197.90106502 170.109375 207.57421875 C166.85571433 211.08904282 163.45097818 214.39623106 159.984375 217.69921875 C153.31863402 224.2821555 150.79196226 230.99272399 149.984375 240.19921875 C150.1386774 249.33734999 154.69257429 257.87950733 158.9296875 265.75 C163.9027021 276.25016511 164.11738351 290.05845482 160.734375 301.13671875 C155.64889663 313.86819607 147.54742289 323.83828659 134.9609375 329.60546875 C126.29643918 332.9594681 118.51824371 333.81225633 109.296875 333.63671875 C120.68463966 360.66980853 132.12988317 387.67782237 143.64086914 414.65869141 C144.35027901 416.32213341 144.35027901 416.32213341 145.07402039 418.0191803 C145.9519066 420.07751277 146.83021367 422.13566583 147.70906067 424.19358826 C148.50459137 426.05883259 149.29751276 427.92519237 150.08758545 429.79275513 C150.95092502 431.82312605 151.82634107 433.84837928 152.70977783 435.87008667 C153.16858337 436.93445953 153.62738892 437.9988324 154.10009766 439.09545898 C154.52038239 440.0591893 154.94066711 441.02291962 155.37368774 442.01585388 C156.71017532 445.81004981 156.58672255 447.84779157 155.296875 451.63671875 C153.80140574 453.87992265 152.77300333 454.46389209 150.25756836 455.37695312 C145.85673369 455.76307402 142.31209 454.3335925 138.17578125 452.91796875 C137.28663025 452.62431427 136.39747925 452.33065979 135.48138428 452.02810669 C132.60364423 451.07515888 129.73164223 450.10602267 126.859375 449.13671875 C124.89974861 448.48491357 122.93970561 447.83435957 120.97924805 447.18505859 C117.14413111 445.91407086 113.31070936 444.63817117 109.47851562 443.35839844 C103.20684648 441.26850742 96.91425259 439.24923689 90.609375 437.26171875 C89.09991705 436.78505001 87.59047769 436.30832239 86.08105469 435.83154297 C84.20788574 435.24010498 84.20788574 435.24010498 82.296875 434.63671875 C79.6361008 440.07871851 76.97694034 445.52150324 74.31884766 450.96481323 C72.92856561 453.81052402 71.53658861 456.65540146 70.14453125 459.50024414 C64.4267667 471.19108056 64.4267667 471.19108056 58.8828125 482.96484375 C58.4295459 483.94428955 57.9762793 484.92373535 57.50927734 485.93286133 C56.72512932 487.64121764 55.95128211 489.35435621 55.18994141 491.07299805 C53.39096668 494.98889579 52.32910286 497.05093103 48.296875 498.63671875 C44.96193639 499.05358608 43.12033316 499.2498832 40.37915039 497.20874023 C37.39157005 493.51848829 35.79759295 489.47138223 33.98046875 485.109375 C33.57123672 484.14870117 33.1620047 483.18802734 32.7403717 482.19824219 C31.39586654 479.03570398 30.06517385 475.86754598 28.734375 472.69921875 C27.80295935 470.50215121 26.870657 468.30545937 25.9375 466.10913086 C23.04416335 459.29050391 20.16905921 452.46427727 17.296875 445.63671875 C16.3765272 443.45049458 15.4561182 441.26429617 14.53564453 439.078125 C14.09108414 438.02206558 13.64652374 436.96600616 13.18849182 435.87794495 C12.31208056 433.79640135 11.43540642 431.71496842 10.55845642 429.63365173 C8.509021 424.76930969 6.46330482 419.90350701 4.42749023 415.03344727 C-1.73568106 397.23052053 -1.73568106 397.23052053 -15.19140625 385.64453125 C-24.03408139 383.10681135 -32.78136135 383.32379991 -41.328125 386.88671875 C-45.56769705 389.43161299 -47.60004026 391.56967022 -49.6875 396.0390625 C-50.19039551 397.10914551 -50.69329102 398.17922852 -51.21142578 399.28173828 C-53.6671708 404.80495399 -56.02728744 410.35974751 -58.328125 415.94921875 C-59.45434253 418.66388117 -60.58445822 421.37691464 -61.71484375 424.08984375 C-62.01940994 424.82163345 -62.32397614 425.55342316 -62.63777161 426.30738831 C-67.07944994 436.96302091 -71.61607068 447.57859195 -76.140625 458.19921875 C-77.41889024 461.20147549 -78.69711677 464.20374865 -79.97515869 467.20610046 C-80.78179829 469.09872715 -81.58982994 470.99076123 -82.39935303 472.88215637 C-84.12418932 476.91335364 -85.83834134 480.94662094 -87.49267578 485.00732422 C-87.76016129 485.65579819 -88.02764679 486.30427216 -88.30323792 486.97239685 C-88.98788234 488.63620676 -89.66254263 490.304116 -90.33618164 491.97241211 C-91.79841801 494.82245418 -93.23096164 496.60937164 -95.703125 498.63671875 C-99.70097541 499.13645005 -102.29773327 498.7459871 -105.703125 496.63671875 C-106.87612915 494.98100281 -106.87612915 494.98100281 -107.83447266 492.97924805 C-108.38667984 491.84891144 -108.38667984 491.84891144 -108.95004272 490.69573975 C-109.3352005 489.875755 -109.72035828 489.05577026 -110.1171875 488.2109375 C-110.52901276 487.35929016 -110.94083801 486.50764282 -111.36514282 485.63018799 C-112.6978491 482.86698861 -114.01310414 480.09587213 -115.328125 477.32421875 C-116.23168397 475.44227877 -117.13630588 473.56084876 -118.04199219 471.67993164 C-120.22576275 467.13774518 -122.39602766 462.58928681 -124.5604248 458.0378418 C-126.11508802 454.7710727 -127.67849682 451.50855097 -129.2421875 448.24609375 C-131.41194287 443.71715365 -133.55996072 439.17828817 -135.703125 434.63671875 C-136.67733398 434.95310303 -137.65154297 435.2694873 -138.65527344 435.59545898 C-139.30663773 435.80695084 -139.95800201 436.01844269 -140.62910461 436.23634338 C-142.11057334 436.71739028 -143.59200733 437.19854414 -145.07341003 437.67979431 C-149.21904713 439.02610514 -153.36562138 440.36941792 -157.51391602 441.70751953 C-168.36597374 445.20983309 -168.36597374 445.20983309 -179.18032837 448.82637024 C-181.12724927 449.48864604 -183.07636173 450.14398853 -185.02636719 450.79711914 C-187.3873582 451.59054864 -189.74377496 452.39775886 -192.09472656 453.22045898 C-199.83333546 455.79664779 -199.83333546 455.79664779 -204.3359375 454.96875 C-207.0978322 453.41461454 -208.37164425 452.53464744 -209.703125 449.63671875 C-209.29081205 444.43878696 -207.87279829 440.03193749 -205.80859375 435.29296875 C-205.3596299 434.23446213 -205.3596299 434.23446213 -204.90159607 433.15457153 C-203.90572309 430.81188308 -202.89815919 428.47441288 -201.890625 426.13671875 C-201.18003582 424.47087756 -200.47025668 422.80469063 -199.76123047 421.13818359 C-198.23221873 417.54818143 -196.69829262 413.96033488 -195.16064453 410.37402344 C-192.61140542 404.42677944 -190.0759355 398.47372091 -187.54296875 392.51953125 C-187.11175217 391.50591019 -186.68053558 390.49228912 -186.23625183 389.44795227 C-185.36637978 387.40315193 -184.49654225 385.3583369 -183.6267395 383.31350708 C-182.33596851 380.28015127 -181.04400197 377.24730728 -179.75170898 374.21459961 C-174.00132208 360.71626285 -168.29921939 347.19988437 -162.703125 333.63671875 C-163.42685303 333.65049561 -164.15058105 333.66427246 -164.89624023 333.6784668 C-179.32462901 333.83847478 -191.95701613 329.96851581 -202.6015625 319.92578125 C-213.08994901 308.50162792 -216.72786319 295.51997988 -216.15625 280.3359375 C-215.45857852 270.66848408 -211.17809256 262.29542194 -206.7734375 253.8046875 C-202.58876297 245.32843069 -203.07443152 237.87840222 -205.65625 229.12890625 C-208.41048782 222.57217592 -213.03354156 218.18784728 -218.078125 213.38671875 C-228.77284381 202.93005855 -235.30879872 191.87643596 -235.953125 176.63671875 C-235.73229543 163.51944213 -231.43188666 150.91875615 -222.421875 141.2421875 C-215.57656832 134.84804876 -207.82199237 131.0971667 -199.21191406 127.65258789 C-190.10821788 123.88783433 -184.73958698 118.60838619 -180.703125 109.63671875 C-178.21100489 102.99106513 -178.26159272 96.89301928 -179.203125 89.94921875 C-181.21170439 74.83990513 -178.91319687 61.03409639 -169.703125 48.63671875 C-162.74754207 39.93148403 -151.99708555 32.92467978 -140.8515625 30.85546875 C-131.90410288 29.94445468 -124.32256393 30.50493604 -115.765625 33.13671875 C-104.97269105 36.42660479 -94.63365673 37.62801859 -83.94921875 33 C-77.92589732 29.34410577 -74.42910688 25.20823883 -70.765625 19.32421875 C-61.96302754 5.76208684 -52.52162995 -3.09834331 -36.35546875 -6.91796875 C-23.57661005 -9.06346196 -10.8542784 -7.1382436 0 0 Z M-50.703125 18.63671875 C-53.71919721 22.54940345 -56.43413844 26.65689579 -59.125 30.796875 C-66.15317822 41.47949405 -76.04645463 48.84781338 -88.703125 51.63671875 C-99.82065888 52.70649363 -109.96832457 51.71954557 -120.59838867 48.43530273 C-130.40654235 45.42087522 -138.4595577 45.7515856 -147.703125 50.63671875 C-155.87084744 56.34947048 -161.78299377 63.68694784 -163.703125 73.63671875 C-164.01142886 78.96856191 -163.66074217 84.10457557 -162.9375 89.390625 C-161.27946075 105.28016781 -164.62176737 118.41270471 -174.57421875 131.00390625 C-181.02661036 137.65756512 -189.24229566 141.07831314 -197.59179688 144.83227539 C-207.38006775 149.2352111 -213.632087 154.13096882 -217.78515625 164.28125 C-220.6235774 173.34086818 -220.2319663 181.98286524 -215.98046875 190.53125 C-213.04204363 195.37470914 -209.19292714 199.25881633 -205.05078125 203.08984375 C-194.05453144 213.40731271 -187.90441909 225.17372519 -187.390625 240.44921875 C-187.62417267 249.74441592 -189.92032752 257.26611002 -194.13671875 265.48974609 C-198.86155094 274.75726158 -201.85073476 282.04264379 -199.703125 292.63671875 C-196.76393178 300.80114436 -192.56086671 308.30560783 -184.953125 312.82421875 C-184.15390625 313.31277344 -183.3546875 313.80132812 -182.53125 314.3046875 C-175.71185044 317.51658702 -168.79440828 317.9829727 -161.390625 318.51171875 C-147.60333688 319.70386167 -136.68415669 323.23385664 -126.85546875 333.58203125 C-119.78962355 342.50921163 -116.62314203 352.56519502 -114.20703125 363.51367188 C-111.85291875 373.09827279 -106.70546497 380.25584975 -98.2109375 385.41015625 C-89.35730932 389.74043546 -81.13661388 390.50092568 -71.703125 387.63671875 C-66.35284958 385.42950942 -61.93535454 382.09051176 -57.328125 378.63671875 C-44.46995108 369.069948 -32.3060912 367.45968101 -16.703125 368.63671875 C-7.35380497 370.51086652 0.93650389 375.95251527 8.359375 381.76171875 C14.83194283 386.71362305 22.03282529 389.95304601 30.296875 389.63671875 C41.74929705 388.04227177 49.70084821 383.42837862 56.65795898 374.26757812 C59.48489176 369.7296625 60.65098209 364.85087395 61.921875 359.69921875 C65.61157166 345.24181822 70.707561 333.03483134 83.890625 324.94921875 C92.54669581 320.22772558 100.77671075 319.02063806 110.50878906 318.40722656 C120.50846014 317.71358609 129.64288584 315.39627622 137.296875 308.63671875 C139.65842472 305.80595283 141.51271058 302.85622057 143.296875 299.63671875 C143.915625 298.60546875 144.534375 297.57421875 145.171875 296.51171875 C148.70458395 286.83516814 146.88843758 278.19658395 142.8112793 269.16821289 C141.46900674 266.36031362 140.07662237 263.58177484 138.6796875 260.80078125 C132.68696862 248.53334662 132.90477984 235.43555855 137.296875 222.63671875 C140.60953214 213.44409519 147.19968938 207.34449938 154.20361328 200.82543945 C160.75479708 194.63059925 165.23928587 187.76452648 166.296875 178.63671875 C166.4190812 169.60703842 164.10025854 161.92424651 159.171875 154.38671875 C153.59407326 149.05143013 147.01995095 145.92919512 140.02978516 142.82470703 C127.06328336 137.01487493 118.30705055 129.89249482 112.296875 116.63671875 C108.81210145 107.15315644 108.43392935 97.41074798 109.796875 87.44921875 C111.14033544 77.20533286 110.46794157 68.60023959 104.37890625 59.89453125 C98.22564544 52.55418118 90.93784617 47.71075084 81.3515625 46.36328125 C75.39338162 46.08565992 70.53395694 47.37774424 64.921875 49.13671875 C51.77320353 53.13038966 36.7775316 54.22486863 24.296875 47.63671875 C23.42804688 47.20101562 22.55921875 46.7653125 21.6640625 46.31640625 C12.13062865 41.10859015 6.97409483 33.45488317 1.19140625 24.46875 C-4.22528795 16.37162981 -9.60318513 11.65428982 -19.09765625 9.140625 C-30.98298879 6.84196249 -42.2922092 9.76702572 -50.703125 18.63671875 Z M-146.703125 338.63671875 C-153.54805548 353.82548323 -160.20490976 369.07493165 -166.60498047 384.45605469 C-169.64670775 391.76048993 -172.72669214 399.04654402 -175.859375 406.3125 C-176.20655075 407.11839569 -176.5537265 407.92429138 -176.91142273 408.75460815 C-178.61297294 412.7024433 -180.31896971 416.64828635 -182.03051758 420.59179688 C-182.64677197 422.01947737 -183.26290773 423.44720908 -183.87890625 424.875 C-184.16572266 425.53180252 -184.45253906 426.18860504 -184.74804688 426.86531067 C-186.22439876 430.13228652 -186.22439876 430.13228652 -186.703125 433.63671875 C-179.55919783 431.90855273 -172.63012963 429.63774828 -165.6875 427.24609375 C-164.78205444 426.9358728 -163.87660889 426.62565186 -162.94372559 426.30603027 C-159.14985058 425.00528733 -155.35673769 423.70302912 -151.57128906 422.37792969 C-148.78124945 421.40346382 -145.98519592 420.4483176 -143.1875 419.49609375 C-141.9154068 419.0431192 -141.9154068 419.0431192 -140.61761475 418.58099365 C-135.6372144 416.90598676 -131.92359167 416.13488373 -126.703125 417.63671875 C-125.14770508 419.02954102 -125.14770508 419.02954102 -124.16015625 420.890625 C-123.76521973 421.61523926 -123.3702832 422.33985352 -122.96337891 423.08642578 C-122.54749512 423.92802246 -122.13161133 424.76961914 -121.703125 425.63671875 C-121.21634277 426.59819824 -120.72956055 427.55967773 -120.22802734 428.55029297 C-118.57870584 431.87500211 -116.97958634 435.22026568 -115.390625 438.57421875 C-114.8231958 439.76249268 -114.2557666 440.9507666 -113.67114258 442.17504883 C-112.00930813 445.65954042 -110.35460187 449.14730795 -108.703125 452.63671875 C-108.24808594 453.59771484 -107.79304688 454.55871094 -107.32421875 455.54882812 C-105.10579802 460.23950142 -102.89812507 464.93504187 -100.703125 469.63671875 C-100.043125 469.63671875 -99.383125 469.63671875 -98.703125 469.63671875 C-98.20498291 468.47438721 -97.70684082 467.31205566 -97.19360352 466.11450195 C-87.89257812 444.41210937 -87.89257812 444.41210937 -86.70687866 441.64596558 C-85.91411 439.795846 -85.12181401 437.94552382 -84.32998657 436.09500122 C-82.26348895 431.26727112 -80.18784417 426.44377885 -78.09716797 421.62646484 C-77.67910385 420.66000534 -77.26103973 419.69354584 -76.83030701 418.69779968 C-76.02877786 416.84545864 -75.22441436 414.99434084 -74.41688538 413.14460754 C-74.06009201 412.318535 -73.70329865 411.49246246 -73.33569336 410.64135742 C-73.01950546 409.9140593 -72.70331757 409.18676117 -72.37754822 408.43742371 C-71.5862117 406.64503754 -71.5862117 406.64503754 -71.703125 404.63671875 C-72.41855469 404.65992188 -73.13398438 404.683125 -73.87109375 404.70703125 C-89.79047266 404.99535118 -103.18109418 402.18220733 -115.703125 391.82421875 C-124.57520038 383.23196764 -127.47708117 372.85232965 -130.625 361.234375 C-133.19114089 352.22133098 -136.48059155 343.89000401 -144.703125 338.63671875 C-145.363125 338.63671875 -146.023125 338.63671875 -146.703125 338.63671875 Z M86.9453125 341.91796875 C80.64262794 348.4894882 78.41292605 356.16256266 76.28125 364.8203125 C72.6462083 378.91331146 66.77754931 389.71060331 54.296875 397.63671875 C47.7215218 401.08052653 41.79808607 403.78001882 34.3125 403.734375 C33.37792969 403.73115234 32.44335938 403.72792969 31.48046875 403.72460938 C30.51238281 403.71623047 29.54429687 403.70785156 28.546875 403.69921875 C27.56332031 403.69470703 26.57976562 403.69019531 25.56640625 403.68554688 C23.14316709 403.67378358 20.72005227 403.65734559 18.296875 403.63671875 C18.92489649 407.36708743 19.98543468 410.57669134 21.47412109 414.05029297 C21.92483978 415.10844208 22.37555847 416.16659119 22.8399353 417.25680542 C23.57272202 418.95693283 23.57272202 418.95693283 24.3203125 420.69140625 C24.82229156 421.86631622 25.32427063 423.0412262 25.84146118 424.2517395 C27.17427776 427.37110806 28.51282444 430.48798539 29.8526001 433.60437012 C31.20728389 436.75820076 32.55653998 439.91435091 33.90625 443.0703125 C36.31413063 448.69843851 38.72702406 454.3243996 41.14276123 459.94915771 C42.52915432 463.17762283 43.91337549 466.40701279 45.296875 469.63671875 C45.956875 469.63671875 46.616875 469.63671875 47.296875 469.63671875 C47.80549072 468.58919434 48.31410645 467.54166992 48.83813477 466.46240234 C50.75886829 462.50709029 52.68067814 458.55230196 54.6027832 454.59765625 C55.42826377 452.89890161 56.2534677 451.2000125 57.07836914 449.50097656 C59.4418065 444.63330132 61.81253218 439.76928626 64.19024658 434.90856934 C65.24964839 432.73367252 66.29752401 430.55356216 67.34326172 428.37207031 C67.96161327 427.09816125 68.58024691 425.82438905 69.19921875 424.55078125 C69.72894287 423.44943848 70.25866699 422.3480957 70.80444336 421.21337891 C72.296875 418.63671875 72.296875 418.63671875 75.296875 416.63671875 C82.08147646 416.9288718 88.12492133 419.03865095 94.5078125 421.234375 C96.08183334 421.76495766 96.08183334 421.76495766 97.68765259 422.30625916 C101.01819208 423.43011115 104.34516899 424.56407482 107.671875 425.69921875 C111.02052061 426.83631798 114.36987371 427.97124778 117.72036743 429.10289001 C119.80048693 429.80602207 121.87944465 430.51260212 123.9571228 431.22291565 C124.8921463 431.54001999 125.8271698 431.85712433 126.79052734 432.18383789 C127.61467133 432.46505997 128.43881531 432.74628204 129.28793335 433.036026 C131.26676639 433.73221115 131.26676639 433.73221115 133.296875 433.63671875 C131.38097416 427.60377168 129.18885302 421.77915881 126.6640625 415.9765625 C126.13977158 414.75878365 126.13977158 414.75878365 125.60488892 413.5164032 C124.46381309 410.86758802 123.31782096 408.22093012 122.171875 405.57421875 C120.55315667 401.8209716 118.93688017 398.06667386 117.3203125 394.3125 C116.90751038 393.35486755 116.49470825 392.39723511 116.06939697 391.4105835 C113.1589305 384.65461253 110.27108779 377.88931938 107.3984375 371.1171875 C107.00840546 370.19773849 106.61837341 369.27828949 106.21652222 368.33097839 C104.70532834 364.76695541 103.19497838 361.20257798 101.6864624 357.63742065 C100.65138115 355.19143585 99.61483873 352.74607447 98.578125 350.30078125 C98.2737149 349.5797673 97.96930481 348.85875336 97.65567017 348.1158905 C96.29366611 344.90545238 94.9127506 341.72852004 93.296875 338.63671875 C90.44268964 338.63671875 89.02145619 340.09501331 86.9453125 341.91796875 Z " fill="#1F686A" transform="translate(282.703125,10.36328125)"/>
<path d="M0 0 C1.04438232 0.29003906 1.04438232 0.29003906 2.10986328 0.5859375 C28.81337017 8.1372674 52.19110904 23.88811285 69 46 C69.58136719 46.7425 70.16273438 47.485 70.76171875 48.25 C90.73817224 75.07153195 98.31466804 108.52829697 93.8125 141.4375 C88.78452065 175.03726783 71.37518915 205.02929904 44 225.5625 C15.81243436 245.9363013 -18.73154608 254.3393119 -53.1875 248.9375 C-86.55324887 242.8868145 -116.3043949 224.4146045 -136.10742188 196.86132812 C-155.90607008 168.19848396 -162.8037155 133.69029192 -157.09375 99.43359375 C-153.01678445 77.76887889 -143.24824798 57.74512745 -129 41 C-128.26007813 40.10925781 -127.52015625 39.21851563 -126.7578125 38.30078125 C-121.41811221 32.09646757 -115.50053643 26.95677528 -109 22 C-107.84951172 21.10861328 -107.84951172 21.10861328 -106.67578125 20.19921875 C-93.77675082 10.67277013 -79.38556243 4.27277827 -64 0 C-62.23462891 -0.51046875 -62.23462891 -0.51046875 -60.43359375 -1.03125 C-42.08741679 -5.38116682 -18.08621848 -5.22974992 0 0 Z M-61 16 C-61.65935547 16.19335938 -62.31871094 16.38671875 -62.99804688 16.5859375 C-78.95277474 21.36792809 -92.51546544 29.00583376 -105 40 C-106.08076847 40.85740965 -107.16364219 41.71218329 -108.25 42.5625 C-130.02348635 61.86172654 -141.37270004 91.31080835 -143.25 119.79296875 C-143.78413146 149.33711531 -133.3727859 177.42292563 -113.09545898 198.85986328 C-111.74273203 200.25209109 -110.37162663 201.62638838 -109 203 C-108.22269531 203.78890625 -107.44539063 204.5778125 -106.64453125 205.390625 C-92.32897751 219.10669994 -74.08297372 227.35215628 -55 232 C-53.62714844 232.3403125 -53.62714844 232.3403125 -52.2265625 232.6875 C-25.18169602 238.2669567 4.20506306 231.83857739 27.31640625 217.11376953 C53.11939591 200.04398432 70.72279091 175.00591325 77.25 144.6875 C82.3172718 115.5745894 76.77296709 85.0837314 59.734375 60.68359375 C57.55787748 57.72607416 55.31472057 54.85018416 53 52 C52.42636719 51.27296875 51.85273438 50.5459375 51.26171875 49.796875 C46.52336298 44.05204271 40.88612452 39.52526565 35 35 C34.21882812 34.3915625 33.43765625 33.783125 32.6328125 33.15625 C13.84326097 19.23806368 -8.52132714 12.5768948 -31.75 12.6875 C-32.98919189 12.69313965 -34.22838379 12.6987793 -35.50512695 12.70458984 C-44.38528865 12.82239326 -52.45486369 13.42475344 -61 16 Z " fill="#1F686A" transform="translate(288,86)"/>
<path d="M0 0 C5.59408364 5.01409504 9.60040713 9.85073914 10.3359375 17.48828125 C10.46230299 29.85946304 7.86345548 35.34560323 -0.57421875 44.36328125 C-2.99754226 46.99732855 -5.25533717 49.71284423 -7.5 52.5 C-11.11032442 56.96276213 -14.88427929 61.22719533 -18.75 65.46875 C-21.07862053 68.0884481 -23.29562947 70.7751531 -25.5 73.5 C-29.11032442 77.96276213 -32.88427929 82.22719533 -36.75 86.46875 C-39.07862053 89.0884481 -41.29562947 91.7751531 -43.5 94.5 C-47.15434616 99.01381782 -50.95286829 103.35514661 -54.8671875 107.64453125 C-56.86936064 109.85572246 -58.81300427 112.10678639 -60.75 114.375 C-65.58420216 119.89980247 -69.98587466 123.6134213 -77.48828125 124.3359375 C-88.54303469 124.44885633 -94.04606099 123.05042718 -102.0625 115.25 C-105.51154985 111.65418207 -108.84948747 107.97955837 -112.08984375 104.1953125 C-114.50834017 101.41577264 -117.00304862 98.70877826 -119.5 96 C-123.73697472 91.39167405 -127.93911502 86.76477171 -132 82 C-133.14855469 80.6696875 -133.14855469 80.6696875 -134.3203125 79.3125 C-141.60156662 70.6967395 -144.65109725 64.82593842 -144.3359375 53.37109375 C-143.51896806 45.17290042 -139.44260631 40.78055789 -133.21484375 35.6328125 C-127.13119281 31.14786348 -120.30569812 31.29880459 -113 32 C-103.9499806 33.83101553 -97.97789333 41.49667224 -92 48 C-90.88625 49.19882813 -90.88625 49.19882813 -89.75 50.421875 C-86.97703686 53.49524248 -84.74059836 56.22041499 -83 60 C-75.50676856 52.7484857 -68.80185381 44.81756929 -62.25 36.71875 C-59.35288632 33.21807097 -56.29929566 29.87660232 -53.23828125 26.51953125 C-50.97152842 23.96795083 -48.82459913 21.34828468 -46.6875 18.6875 C-34.51587146 3.80164071 -20.64679711 -12.64364122 0 0 Z M-24.359375 17.3125 C-29.31059927 22.87858219 -34.10580829 28.51862012 -38.78515625 34.31640625 C-40.95632827 36.94708557 -43.20241357 39.47942424 -45.5 42 C-49.41768842 46.29857479 -53.08967142 50.75609805 -56.74609375 55.27734375 C-59.65553115 58.79186346 -62.72008388 62.14683031 -65.80859375 65.50390625 C-68.06557337 68.07469053 -70.08255621 70.75706489 -72.125 73.5 C-74.4187481 76.39568598 -76.15567052 78.56911295 -79.6875 79.8125 C-83.76432481 80.04326367 -84.86292531 79.58808662 -88 77 C-92.34935344 73.00783984 -96.24965667 68.64313318 -100.109375 64.18359375 C-102.26645829 61.69225169 -104.43832963 59.21543464 -106.625 56.75 C-107.69621094 55.53570312 -107.69621094 55.53570312 -108.7890625 54.296875 C-113.17615058 49.67891875 -113.17615058 49.67891875 -118.9375 47.4375 C-123.25851556 48.23115592 -125.11756811 49.70579213 -128 53 C-128.9263616 56.58193153 -129.10942355 57.63705986 -128 61 C-125.45827325 65.06411516 -122.26093643 68.50883188 -119 72 C-118.4107373 72.63599121 -117.82147461 73.27198242 -117.21435547 73.92724609 C-114.04653776 77.34017806 -110.85831905 80.73209938 -107.6484375 84.10546875 C-103.98747247 87.97568766 -100.48700675 91.97337549 -97 96 C-95.42173041 97.79612889 -93.83921186 99.58854553 -92.25 101.375 C-91.51265625 102.20773438 -90.7753125 103.04046875 -90.015625 103.8984375 C-87.37040336 106.65643991 -85.60408884 107.89339609 -81.8125 108.5625 C-73.3239998 107.31009833 -68.33720693 99.17611095 -63.28515625 92.82421875 C-61.10408853 90.12864274 -58.83908559 87.55875624 -56.5 85 C-53.38541332 81.58260628 -50.4081338 78.0947765 -47.5 74.5 C-43.88967558 70.03723787 -40.11572071 65.77280467 -36.25 61.53125 C-33.12874823 58.01984176 -30.19851553 54.36436757 -27.24609375 50.7109375 C-25.08872217 48.1070838 -22.85256081 45.61227167 -20.5625 43.125 C-17.08195641 39.26934482 -13.69962462 35.35375202 -10.4375 31.3125 C-9.99543213 30.78994629 -9.55336426 30.26739258 -9.09790039 29.72900391 C-5.96777982 25.76605324 -5.43228151 22.97345053 -6 18 C-7.40878096 15.0098357 -7.40878096 15.0098357 -10 13 C-16.53276645 11.09955885 -19.64643412 12.69319371 -24.359375 17.3125 Z " fill="#1F686A" transform="translate(323,149)"/>
</svg>