<svg version="1.1" xmlns="http://www.w3.org/2000/svg" width="512" height="512">
<path d="M0 0 C11.85576423 9.87061301 19.11457795 23.82612071 21.20703125 39.03515625 C22.22839603 55.08236835 19.0624198 69.23549379 8.85546875 81.96875 C5.75562014 85.44724461 2.50072141 88.74263656 -0.79296875 92.03515625 C0.33238281 92.49664062 1.45773437 92.958125 2.6171875 93.43359375 C32.91596816 106.17262743 55.71500867 127.95218347 68.48046875 158.484375 C73.47301289 171.12800657 75.38832536 184.12509507 75.45703125 197.66015625 C75.48796875 199.19542969 75.48796875 199.19542969 75.51953125 200.76171875 C75.56852131 210.16781089 75.56852131 210.16781089 72.20703125 214.03515625 C68.96016926 215.65858725 65.39222305 215.17932863 61.82447815 215.17559814 C60.94692224 215.17856927 60.06936633 215.18154039 59.16521782 215.18460155 C56.2072223 215.19331432 53.24926712 215.19479895 50.29125977 215.19628906 C48.17763176 215.20091535 46.0640046 215.20593975 43.95037842 215.21133423 C38.19634701 215.22447695 32.44232728 215.23090662 26.68828321 215.23534489 C23.09717414 215.23827209 19.50606831 215.24237618 15.91496086 215.24684906 C4.69002565 215.2605278 -6.53490223 215.27019309 -17.7598452 215.27405095 C-30.73790744 215.27853531 -43.71586454 215.29609916 -56.6938948 215.32505155 C-66.71258495 215.34662997 -76.73124543 215.35675314 -86.74995857 215.35809207 C-92.73994199 215.35914269 -98.72982664 215.36510514 -104.71978569 215.38291168 C-110.3512173 215.39932648 -115.98247519 215.40158009 -121.61392212 215.39277267 C-123.68480454 215.3919988 -125.75569606 215.39639079 -127.82655525 215.40623093 C-130.64572437 215.41884495 -133.46426827 215.4131315 -136.28343201 215.40264893 C-137.10988313 215.41070533 -137.93633425 215.41876173 -138.78782934 215.42706227 C-144.36392844 215.37830667 -144.36392844 215.37830667 -146.46304947 213.6994102 C-151.85615981 206.95050045 -149.28264982 191.78240337 -148.59082031 183.66259766 C-145.05758057 154.88335998 -129.03264743 128.25244562 -106.48046875 110.34375 C-96.16708648 102.50870877 -84.67775669 97.04977 -72.79296875 92.03515625 C-73.44523437 91.42929687 -74.0975 90.8234375 -74.76953125 90.19921875 C-80.60624019 84.60355384 -85.11613514 79.23851266 -88.79296875 72.03515625 C-89.18226563 71.28363281 -89.5715625 70.53210938 -89.97265625 69.7578125 C-96.81205973 55.55481768 -96.26905439 39.66744738 -91.48193359 24.90869141 C-85.9665229 9.91037046 -74.41963162 -0.94314719 -60.29296875 -7.77734375 C-40.09509392 -16.34101732 -17.69607739 -12.44912857 0 0 Z M-70.29296875 22.00390625 C-76.53250101 30.45327286 -78.96862181 40.6179772 -77.79296875 51.03515625 C-75.37241285 62.80456578 -69.93020636 73.20220937 -59.79296875 80.03515625 C-49.25740607 86.32844577 -39.04135901 88.49052252 -26.98046875 85.97265625 C-15.93952024 82.98936966 -7.18462097 76.37799876 -1.328125 66.5859375 C4.54594131 55.4677772 5.91997333 44.92423566 2.24609375 32.76953125 C-2.13915243 21.22940973 -9.66775607 13.19166399 -20.79296875 8.03515625 C-21.48003906 7.71417969 -22.16710937 7.39320313 -22.875 7.0625 C-40.96855053 -0.15477897 -58.59357459 7.92130217 -70.29296875 22.00390625 Z M-108.54296875 135.84765625 C-124.08583771 153.92871849 -131.79296875 175.23623445 -131.79296875 199.03515625 C-69.09296875 199.03515625 -6.39296875 199.03515625 58.20703125 199.03515625 C58.20703125 173.78720447 49.75574811 153.05433595 33.20703125 134.03515625 C32.69011719 133.43445313 32.17320312 132.83375 31.640625 132.21484375 C15.70132988 115.03715728 -8.7364252 104.7009883 -31.94921875 103.83203125 C-61.91713079 103.29725725 -87.90191458 114.13896134 -108.54296875 135.84765625 Z " fill="#1F686A" transform="translate(292.79296875,239.96484375)"/>
<path d="M0 0 C3.32419573 2.42200053 6.23806058 5.00197254 9 8.0625 C9.48082031 8.53945313 9.96164062 9.01640625 10.45703125 9.5078125 C19.62459105 19.11634353 21.57503711 31.56601422 21.33984375 44.30078125 C20.73505059 56.82075248 14.68821686 66.42135317 6 75.0625 C7.06476563 75.58457031 8.12953125 76.10664063 9.2265625 76.64453125 C34.92583057 89.55073225 51.22627594 107.52918102 61.03515625 134.95703125 C63.23185358 142.58927731 63.33524109 150.22465631 63.4375 158.125 C63.47109619 159.78656128 63.47109619 159.78656128 63.50537109 161.48168945 C63.50230957 162.5305835 63.49924805 163.57947754 63.49609375 164.66015625 C63.49794678 165.60383057 63.4997998 166.54750488 63.50170898 167.51977539 C62.84006279 170.87308202 61.6299093 171.92172303 59 174.0625 C56.5199585 174.56586456 56.5199585 174.56586456 53.68652344 174.57043457 C52.6097937 174.58171387 51.53306396 174.59299316 50.42370605 174.60461426 C48.65936218 174.59246887 48.65936218 174.59246887 46.859375 174.58007812 C44.99545105 174.59059204 44.99545105 174.59059204 43.09387207 174.60131836 C39.68864814 174.61590873 36.28439618 174.61248748 32.87922668 174.59980202 C29.31497902 174.58967116 25.75077274 174.59906792 22.18652344 174.60534668 C16.20109606 174.61262288 10.21586614 174.60303627 4.23046875 174.58398438 C-2.68838958 174.56221546 -9.60677642 174.56926687 -16.52562332 174.59129 C-22.46715962 174.60944495 -28.40855402 174.61200193 -34.3501091 174.60153532 C-37.89823891 174.59530082 -41.44614714 174.59446329 -44.9942627 174.60768127 C-48.94948641 174.62138678 -52.90418248 174.60238835 -56.859375 174.58007812 C-58.03560425 174.58817505 -59.2118335 174.59627197 -60.42370605 174.60461426 C-61.50043579 174.59333496 -62.57716553 174.58205566 -63.68652344 174.57043457 C-64.62155701 174.56892647 -65.55659058 174.56741837 -66.5199585 174.56586456 C-69.74879559 173.91051982 -70.95066156 172.58425577 -73 170.0625 C-73.53125 168.0625 -73.53125 168.0625 -73.5 166.0625 C-73.5103125 165.4025 -73.520625 164.7425 -73.53125 164.0625 C-72.69522967 160.91512936 -71.68014989 159.98393439 -69 158.0625 C-65.33511126 157.46199658 -61.6950292 157.55816715 -57.98925781 157.60839844 C-56.86701309 157.60781433 -55.74476837 157.60723022 -54.58851624 157.60662842 C-50.87640532 157.60941675 -47.16509577 157.64054576 -43.453125 157.671875 C-40.88051797 157.67933468 -38.30790527 157.6850289 -35.73529053 157.68902588 C-29.65435021 157.70274172 -23.57374096 157.73427184 -17.49292541 157.77442384 C-10.56918407 157.81914838 -3.64542892 157.84113024 3.27842093 157.86120558 C17.51910188 157.90300502 31.75954071 157.97335275 46 158.0625 C45.69619413 155.49198686 45.38776555 152.92217027 45.07666016 150.35253906 C44.99154678 149.62829742 44.90643341 148.90405579 44.81874084 148.15786743 C42.60303814 130.00423432 32.79066151 114.82618764 19 103.0625 C2.86261008 91.15253716 -16.72261072 85.85475854 -36.58569336 88.78295898 C-48.84471486 90.8390932 -59.76765387 95.23613091 -69.5 103 C-75.37526698 107.67786202 -75.37526698 107.67786202 -79.5 107.875 C-83.40565693 106.96832964 -84.8045494 106.39958491 -87 103.0625 C-88.11350459 99.57351895 -88.42636455 97.90850411 -86.76171875 94.60546875 C-80.11241974 85.00747838 -68.13687765 80.14269854 -58 75.0625 C-58.51949219 74.54042969 -59.03898437 74.01835937 -59.57421875 73.48046875 C-64.93525873 67.82214374 -68.30004482 62.36440307 -71 55.0625 C-71.36931641 54.08023438 -71.36931641 54.08023438 -71.74609375 53.078125 C-75.33147949 41.50598343 -73.10318947 28.86616021 -68.375 18 C-62.50107825 7.14214465 -52.4283897 -1.28139155 -40.875 -5.375 C-26.95920842 -9.15682101 -12.30172802 -7.8431116 0 0 Z M-50 21.0625 C-55.22501242 29.49790562 -57.37388191 37.5250561 -55.57421875 47.3984375 C-53.37300629 55.09592892 -48.68514145 61.5735277 -42 66 C-34.2950006 70.2723706 -25.9463655 71.52716525 -17.3515625 69.41015625 C-8.27429653 66.15630553 -2.35376695 60.65629929 2.08984375 52.17578125 C5.23172632 44.88068053 5.12430383 36.22991569 2.4375 28.8125 C-1.47455892 20.29077725 -7.41788269 14.75867991 -16 11.0625 C-28.48909515 7.09447792 -41.62243674 11.21420897 -50 21.0625 Z " fill="#1F686A" transform="translate(446,280.9375)"/>
<path d="M0 0 C1.56422193 1.20033185 3.10788258 2.42815829 4.625 3.6875 C5.26050781 4.19925781 5.89601563 4.71101563 6.55078125 5.23828125 C15.34713902 13.0984413 19.98575433 24.35701276 20.87109375 35.89453125 C21.3250771 48.37219487 18.15083317 59.62944532 10.625 69.6875 C8.9859156 71.38129984 7.32440657 73.05422939 5.625 74.6875 C6.73617187 75.244375 7.84734375 75.80125 8.9921875 76.375 C31.05342584 87.61645853 31.05342584 87.61645853 35.625 96.6875 C35.55309193 100.21099544 34.99731132 102.1215868 33.0625 105.0625 C30.34873786 106.87167476 28.28051285 107.55522672 25 107.3984375 C20.67531273 106.10387651 17.51901213 102.94200976 14.046875 100.1484375 C10.42152325 97.39188306 6.54594245 95.54192801 2.375 93.75 C1.72595703 93.46825928 1.07691406 93.18651855 0.40820312 92.89624023 C-6.9556217 89.83950534 -14.43408526 88.26452149 -22.375 87.6875 C-23.36886719 87.60628906 -23.36886719 87.60628906 -24.3828125 87.5234375 C-43.02964487 86.74353196 -61.34076995 94.20634523 -75.2890625 106.19140625 C-87.93412079 118.15718455 -95.60195708 132.87022278 -97.5078125 150.13671875 C-97.59361572 150.86741577 -97.67941895 151.59811279 -97.76782227 152.35095215 C-97.97582463 154.1291542 -98.17621981 155.90824342 -98.375 157.6875 C-97.49151194 157.68196924 -97.49151194 157.68196924 -96.59017563 157.67632675 C-82.2601243 157.58799766 -67.93009726 157.52180115 -53.59983444 157.48025131 C-46.66980972 157.4596241 -39.7399667 157.4315008 -32.81005859 157.38574219 C-26.12516016 157.34162242 -19.4404897 157.31837735 -12.75543976 157.30799103 C-10.20208002 157.30058716 -7.64873089 157.28612959 -5.09545135 157.26457977 C-1.52531907 157.23563983 2.04402755 157.2315402 5.61425781 157.23339844 C6.67521164 157.21901733 7.73616547 157.20463623 8.82926941 157.18981934 C15.98721744 157.23026537 15.98721744 157.23026537 19.27996826 159.59088135 C20.72740557 161.84712852 21.16656795 163.02715103 21.125 165.6875 C21.14046875 166.6775 21.14046875 166.6775 21.15625 167.6875 C20.38272795 170.59958303 18.92424778 171.78045664 16.625 173.6875 C14.1449585 174.19086456 14.1449585 174.19086456 11.31152344 174.19543457 C10.2347937 174.20671387 9.15806396 174.21799316 8.04870605 174.22961426 C6.87247681 174.22151733 5.69624756 174.21342041 4.484375 174.20507812 C2.62045105 174.21559204 2.62045105 174.21559204 0.71887207 174.22631836 C-2.68635186 174.24090873 -6.09060382 174.23748748 -9.49577332 174.22480202 C-13.06002098 174.21467116 -16.62422726 174.22406792 -20.18847656 174.23034668 C-26.17390394 174.23762288 -32.15913386 174.22803627 -38.14453125 174.20898438 C-45.06338958 174.18721546 -51.98177642 174.19426687 -58.90062332 174.21629 C-64.84215962 174.23444495 -70.78355402 174.23700193 -76.7251091 174.22653532 C-80.27323891 174.22030082 -83.82114714 174.21946329 -87.3692627 174.23268127 C-91.32448641 174.24638678 -95.27918248 174.22738835 -99.234375 174.20507812 C-100.41060425 174.21317505 -101.5868335 174.22127197 -102.79870605 174.22961426 C-103.87543579 174.21833496 -104.95216553 174.20705566 -106.06152344 174.19543457 C-106.99655701 174.19392647 -107.93159058 174.19241837 -108.8949585 174.19086456 C-112.13461159 173.53332453 -113.33561176 172.23539008 -115.375 169.6875 C-115.89257812 167.19238281 -115.89257812 167.19238281 -115.90625 164.390625 C-115.91462891 163.35736084 -115.92300781 162.32409668 -115.93164062 161.25952148 C-115.91294922 160.16325439 -115.89425781 159.0669873 -115.875 157.9375 C-115.86146484 156.81093994 -115.84792969 155.68437988 -115.83398438 154.52368164 C-115.35558994 135.09725198 -108.46455477 117.89693988 -96.375 102.6875 C-95.74464844 101.88183594 -95.11429688 101.07617188 -94.46484375 100.24609375 C-84.72553674 88.61353828 -72.06184463 80.86661475 -58.375 74.6875 C-58.89449219 74.15382813 -59.41398437 73.62015625 -59.94921875 73.0703125 C-70.48738556 61.81142079 -74.02434304 50.37969038 -73.6875 35.2109375 C-73.13290859 24.13297411 -68.28232012 15.098135 -60.9375 7 C-60.091875 6.236875 -59.24625 5.47375 -58.375 4.6875 C-57.65957031 3.96626953 -57.65957031 3.96626953 -56.9296875 3.23046875 C-42.06514685 -10.95188283 -16.5472347 -11.06471718 0 0 Z M-50.375 20.6875 C-55.89917009 28.82259625 -57.22045663 35.90435898 -56.375 45.6875 C-54.66166817 52.89175072 -51.02415453 58.89104804 -45.375 63.6875 C-36.81523683 68.91702096 -28.96701895 71.03089296 -18.96875 69.26171875 C-10.4884991 66.82812562 -3.58411297 61.35140334 0.6953125 53.6484375 C4.53305134 45.55371104 4.79080797 37.51674186 2.0625 29.0625 C-1.567311 20.07681403 -7.52033896 14.50106011 -16.375 10.6875 C-29.00434618 6.67491751 -41.80826207 10.94045595 -50.375 20.6875 Z " fill="#1F686A" transform="translate(118.375,281.3125)"/>
<path d="M0 0 C0.79664063 0.65355469 1.59328125 1.30710938 2.4140625 1.98046875 C21.89884809 18.53952028 33.64801749 43.09629141 35.84375 68.46484375 C36.10202387 72.65533734 36.14310492 76.80442403 36 81 C35.97164062 81.88300781 35.94328125 82.76601563 35.9140625 83.67578125 C35.66147864 87.73516478 35.29647407 90.46195447 33.3125 94.0625 C30.42200065 96.48426973 28.7648802 97 25 97 C21.47093933 95.39588152 20.17227092 94.25840638 18 91 C17.90632245 88.03451994 17.91342047 85.14765401 18 82.1875 C18.29705721 59.76180262 12.27301365 38.8806993 -3 22 C-3.66515625 21.24203125 -4.3303125 20.4840625 -5.015625 19.703125 C-19.52386877 4.12019651 -39.66186249 -3.62969715 -60.55859375 -5.28125 C-83.2255336 -5.89873758 -104.14184349 2.19608495 -120.65625 17.69140625 C-135.62378258 32.43442584 -144.44845886 50.93834618 -146 72 C-146.02545314 76.08440735 -145.88561474 80.1662604 -145.69726562 84.24609375 C-145.60831822 88.33767453 -145.65806693 90.43595656 -147.828125 94.015625 C-150.61338894 96.5604345 -152.24122898 97 -156 97 C-159.52906067 95.39588152 -160.82772908 94.25840638 -163 91 C-168.26414297 67.16237145 -159.79823421 40.92292436 -147.0234375 20.90234375 C-130.25699673 -2.84454747 -107.02275866 -16.8974983 -78.609375 -22.46875 C-50.84338446 -26.28392427 -21.25734502 -18.45200767 0 0 Z " fill="#1F686A" transform="translate(320,209)"/>
<path d="M0 0 C4.99707186 1.82831603 8.42334409 6.14063231 12.03149414 9.90115356 C12.9302124 10.80977646 13.82893066 11.71839935 14.75488281 12.65455627 C17.12863725 15.06077286 19.48604938 17.48094727 21.83685303 19.90945435 C24.24428508 22.3887971 26.67193016 24.84817428 29.09790039 27.30935669 C33.84452429 32.13304795 38.57059312 36.9761762 43.28149414 41.83474731 C43.4806543 40.17765747 43.4806543 40.17765747 43.68383789 38.48709106 C44.28149414 34.83474731 44.28149414 34.83474731 45.84399414 32.39724731 C48.81886584 30.49027827 50.81603602 30.3576451 54.28149414 30.30349731 C57.39409546 31.13028204 58.39244538 32.19803294 60.28149414 34.83474731 C61.19015013 38.1072868 61.582193 41.4029902 61.96899414 44.77224731 C62.08710449 45.71068481 62.20521484 46.64912231 62.3269043 47.61599731 C62.6634782 50.35377888 62.974048 53.0935679 63.28149414 55.83474731 C63.45188723 57.20065518 63.62243708 58.5665435 63.79321289 59.93240356 C64.77128611 69.09263766 64.77128611 69.09263766 61.28149414 73.83474731 C54.18734207 77.38182335 42.39808045 74.56264211 34.78149414 73.64724731 C33.82597656 73.54637817 32.87045898 73.44550903 31.88598633 73.34158325 C27.37046607 72.7489911 24.84187604 72.26397601 21.16040039 69.44412231 C19.28149414 66.83474731 19.28149414 66.83474731 18.71899414 63.27224731 C19.28149414 59.83474731 19.28149414 59.83474731 20.90649414 57.52224731 C23.59843279 55.60955406 26.14648624 54.818195 29.28149414 53.83474731 C28.81208908 53.37200409 28.34268402 52.90926086 27.85905457 52.43249512 C22.96723721 47.60713875 18.08608401 42.77118302 13.2109375 37.9289856 C11.391052 36.12416993 9.56848081 34.32205813 7.74316406 32.5227356 C5.11728558 29.93331772 2.50127508 27.33427336 -0.11303711 24.73318481 C-0.92875687 23.93294891 -1.74447662 23.13271301 -2.58491516 22.30822754 C-6.45316367 18.44113149 -9.80696668 15.07802022 -11.71850586 9.83474731 C-11.71850586 5.93318351 -11.1802617 4.38045876 -8.65600586 1.39724731 C-5.48798856 -0.28786827 -3.5335144 -0.54307216 0 0 Z " fill="#1F686A" transform="translate(102.718505859375,121.16525268554688)"/>
<path d="M0 0 C2.58110819 1.63470186 2.9462218 2.84225063 3.9375 5.75 C4.05510777 11.86560393 0.1971587 15.97541216 -3.85058594 20.19116211 C-5.38750335 21.7276092 -6.93253498 23.25597024 -8.484375 24.77734375 C-9.29996887 25.58869278 -10.11556274 26.40004181 -10.95587158 27.23597717 C-13.54692202 29.81031646 -16.14823763 32.37399176 -18.75 34.9375 C-20.51501241 36.68745589 -22.27934299 38.43809976 -24.04296875 40.18945312 C-28.35411692 44.46763235 -32.6737278 48.73711833 -37 53 C-36.44570313 53.18175781 -35.89140625 53.36351562 -35.3203125 53.55078125 C-34.59585938 53.80214844 -33.87140625 54.05351562 -33.125 54.3125 C-32.40570313 54.55613281 -31.68640625 54.79976562 -30.9453125 55.05078125 C-29 56 -29 56 -27 59 C-26.46507518 63.12656287 -26.41811203 65.18730052 -28.87109375 68.61328125 C-33.22867469 71.93722876 -37.14403309 72.24854766 -42.5 72.8125 C-43.4801709 72.92795166 -44.4603418 73.04340332 -45.47021484 73.16235352 C-65.13677851 75.35419707 -65.13677851 75.35419707 -69.2734375 72.34765625 C-73.75735126 66.25075089 -71.58518324 58.07569757 -70.75 51.0625 C-70.62753906 49.90814453 -70.50507813 48.75378906 -70.37890625 47.56445312 C-69.6817338 41.54875219 -68.94521355 36.33630188 -66 31 C-62.79468579 29.3973429 -59.47781792 29.51792623 -56 30 C-53.5625 31.5625 -53.5625 31.5625 -52 34 C-51.61936779 36.3260857 -51.28125868 38.65981857 -51 41 C-50.49301071 40.48856949 -49.98602142 39.97713898 -49.46366882 39.45021057 C-44.68686579 34.63334754 -39.90526785 29.8212919 -35.11822796 25.01460361 C-32.6572813 22.54321598 -30.19823117 20.07000087 -27.7434082 17.5925293 C-24.92170444 14.74495544 -22.09196256 11.90549236 -19.26171875 9.06640625 C-18.38037766 8.17474258 -17.49903656 7.28307892 -16.59098816 6.36439514 C-15.77036392 5.54361984 -14.94973969 4.72284454 -14.10424805 3.87719727 C-13.38254929 3.15105728 -12.66085052 2.4249173 -11.9172821 1.67677307 C-8.04916205 -1.70611959 -4.7742094 -1.02304487 0 0 Z " fill="#1F686A" transform="translate(417,122)"/>
<path d="M0 0 C0.66 -0.0103125 1.32 -0.020625 2 -0.03125 C4.93687585 0.74885765 6.09453442 2.15933361 8 4.5 C8.51898193 7.29681396 8.51898193 7.29681396 8.54589844 10.55371094 C8.56561707 11.77467468 8.58533569 12.99563843 8.60565186 14.25360107 C8.60688049 15.56725647 8.60810913 16.88091187 8.609375 18.234375 C8.62435993 19.59631312 8.64108775 20.95823309 8.65948486 22.32012939 C8.7031367 25.89740848 8.72315223 29.47444246 8.73822021 33.05194092 C8.75779946 36.7053475 8.79976841 40.35848968 8.83984375 44.01171875 C8.91512207 51.17440805 8.96542744 58.33698629 9 65.5 C9.7528125 64.68789062 10.505625 63.87578125 11.28125 63.0390625 C14 60.5 14 60.5 17.5 59.875 C21.9297642 60.66602932 23.39210172 61.86474785 26 65.5 C26.81237431 68.74949723 26.53591638 70.56226243 24.87304688 73.47192383 C21.11903183 79.03233993 17.10071 84.27974902 12.8125 89.4375 C12.19697266 90.19095703 11.58144531 90.94441406 10.94726562 91.72070312 C4.7431333 99.22884593 4.7431333 99.22884593 0.1875 99.9375 C-6.45707047 99.02550013 -10.63998113 92.81105176 -14.5 87.75 C-14.9741333 87.13382812 -15.4482666 86.51765625 -15.93676758 85.8828125 C-17.30171344 84.09621213 -18.65300022 82.30015231 -20 80.5 C-20.67417969 79.60796875 -21.34835938 78.7159375 -22.04296875 77.796875 C-24.36073683 74.55970723 -25.85796627 72.17143218 -26.6875 68.25 C-25.71214956 64.34859824 -24.24268638 62.84577313 -21 60.5 C-17.5 59.875 -17.5 59.875 -14 60.5 C-11.28125 63.0390625 -11.28125 63.0390625 -9 65.5 C-8.99635437 64.7446698 -8.99270874 63.9893396 -8.98895264 63.21112061 C-8.95107077 56.08946433 -8.89421699 48.96833106 -8.81609726 41.84701157 C-8.77660357 38.18591277 -8.74442479 34.52505515 -8.72900391 30.86376953 C-8.71384913 27.32973078 -8.67942639 23.79635499 -8.63169098 20.26261139 C-8.60965376 18.25971038 -8.60752524 16.25662244 -8.60565186 14.25360107 C-8.57607391 12.42215546 -8.57607391 12.42215546 -8.54589844 10.55371094 C-8.53701599 9.47893494 -8.52813354 8.40415894 -8.51898193 7.29681396 C-7.64723155 2.59891703 -4.81917882 -0.07529967 0 0 Z " fill="#1F686A" transform="translate(256,56.5)"/>
</svg>