<svg version="1.1" xmlns="http://www.w3.org/2000/svg" width="512" height="512">
<path d="M0 0 C3.24831679 2.64606476 5.64562166 4.93686498 7 9 C7.51643481 15.30050466 6.99637607 17.83995369 3 23 C0.2578125 25.38671875 0.2578125 25.38671875 -2.875 27.6875 C-4.02402648 28.54478407 -5.172441 29.40288882 -6.3203125 30.26171875 C-6.9174707 30.70435059 -7.51462891 31.14698242 -8.12988281 31.60302734 C-11.3711967 34.02428036 -14.56173217 36.50955264 -17.75 39 C-18.35827637 39.46881592 -18.96655273 39.93763184 -19.59326172 40.4206543 C-22.76833922 42.79773131 -22.76833922 42.79773131 -25 46 C-24.21625 46.04125 -23.4325 46.0825 -22.625 46.125 C-11.58574368 48.78964808 -2.75694714 57.09987477 3.37109375 66.3125 C10.16611376 77.52346827 14.41818205 90.86061125 15 104 C15.0515625 104.84304688 15.103125 105.68609375 15.15625 106.5546875 C15.37724782 112.76104301 14.706325 117.09320648 10.3125 121.8125 C6.99137028 123.51794499 3.69464135 124.0131301 0 124 C-2.62055902 123.08876016 -4.62554462 122.21222005 -7 120.875 C-7.65355469 120.52824219 -8.30710938 120.18148437 -8.98046875 119.82421875 C-10.46607175 119.03135595 -11.94622267 118.22822452 -13.421875 117.41699219 C-16.3961275 115.78227992 -19.38499446 114.17602342 -22.375 112.5703125 C-28.26211846 109.40225921 -34.13496464 106.20872676 -40 103 C-38.57742141 123.7068993 -32.17548676 149.41134897 -16 164 C-15.02804688 163.5153125 -14.05609375 163.030625 -13.0546875 162.53125 C13.85577378 149.34675169 45.70901493 138 76 138 C76 111.27 76 84.54 76 57 C62.44767475 57.15799647 62.44767475 57.15799647 48.89599609 57.36035156 C47.18848676 57.37204142 45.48096623 57.38223255 43.7734375 57.390625 C42.89727783 57.41108887 42.02111816 57.43155273 41.1184082 57.45263672 C35.60514269 57.45576481 32.2447469 56.87231601 28 53 C24.42082561 47.91567142 24.54713687 42.99062724 24.56640625 37 C24.5611644 36.04609375 24.55592255 35.0921875 24.55052185 34.109375 C24.54411804 32.09896821 24.54541733 30.08852386 24.55395508 28.078125 C24.56247297 25.00973625 24.53366775 21.94320548 24.50195312 18.875 C24.50034107 16.91666722 24.50091872 14.95833116 24.50390625 13 C24.49267227 12.08734375 24.48143829 11.1746875 24.46986389 10.234375 C24.53069636 4.65045724 25.27198283 1.42998146 29 -3 C33.87101508 -7.41435742 38.85596884 -7.15198606 45.17749023 -7.16113281 C45.99909637 -7.16609772 46.82070251 -7.17106262 47.66720581 -7.17617798 C50.38101035 -7.19076518 53.09475648 -7.19759499 55.80859375 -7.203125 C57.69661968 -7.20887821 59.5846456 -7.21463592 61.47267151 -7.22039795 C65.4294563 -7.23089738 69.38622082 -7.23674733 73.34301758 -7.24023438 C78.41170251 -7.24572437 83.48011954 -7.26976763 88.54872036 -7.29820633 C92.44778731 -7.31683149 96.34678961 -7.32203819 100.24589729 -7.32357025 C102.11459891 -7.32659634 103.9832994 -7.33462339 105.85195732 -7.34775543 C108.46588436 -7.36481738 111.07915505 -7.36293569 113.69311523 -7.35644531 C114.46366745 -7.3656601 115.23421967 -7.37487488 116.02812195 -7.3843689 C120.52336562 -7.34941867 123.4328677 -6.79795766 127 -4 C128.54586876 -0.90826248 128.29359521 1.59429552 128 5 C126.48504639 7.19818115 126.48504639 7.19818115 124 9 C121.17517099 9.37411527 118.74675159 9.5073417 115.92675781 9.45410156 C115.11662735 9.45468567 114.30649689 9.45526978 113.47181702 9.45587158 C110.79848129 9.45308852 108.12626553 9.4219869 105.453125 9.390625 C103.59796762 9.38316338 101.74280236 9.37747007 99.88763428 9.37347412 C95.00809923 9.35821155 90.12904147 9.31892436 85.24969482 9.2746582 C80.26939348 9.23371894 75.28901491 9.21546598 70.30859375 9.1953125 C60.5388192 9.15243058 50.76952399 9.08207562 41 9 C41 19.89 41 30.78 41 42 C56.88199714 41.98226175 72.76351462 41.94383031 88.64531612 41.86790943 C96.02016925 41.83331357 103.39483651 41.80791104 110.76977539 41.80444336 C117.20072009 41.8013959 123.63133331 41.78080107 130.06215006 41.73947543 C133.4646782 41.7182139 136.86673594 41.70550902 140.26933098 41.71384621 C144.07581672 41.71875342 147.88093798 41.69264964 151.68725586 41.65942383 C153.36393089 41.67236229 153.36393089 41.67236229 155.07447815 41.68556213 C165.50887842 41.5332527 172.0668532 37.07379721 180 30.75 C180.85658203 30.08097656 180.85658203 30.08097656 181.73046875 29.3984375 C184.45572966 27.30384303 184.45572966 27.30384303 187 25 C186.07058594 24.33613281 185.14117187 23.67226562 184.18359375 22.98828125 C181.70442708 21.21744792 179.22526042 19.44661458 176.74609375 17.67578125 C176.12444336 17.23766113 175.50279297 16.79954102 174.86230469 16.34814453 C173.62617338 15.45329437 172.41229428 14.52683066 171.22363281 13.56982422 C167.05638321 10.29322208 164.32681211 9.45207198 158.875 9.5 C151.21349063 9.18994957 151.21349063 9.18994957 148.5625 6.875 C147 4 147 4 147 0.375 C147.94543759 -2.81585187 148.36371447 -4.10187442 151 -6 C153.86640948 -7.43320474 156.36593671 -7.20862054 159.5625 -7.25 C161.32787109 -7.28867188 161.32787109 -7.28867188 163.12890625 -7.328125 C171.97973609 -6.5779033 178.09515137 -2.9836468 185.0625 2.3125 C185.81337891 2.86873047 186.56425781 3.42496094 187.33789062 3.99804688 C188.83151163 5.10696688 190.32071072 6.2218705 191.80517578 7.34301758 C193.28761205 8.46218275 194.77574423 9.57383706 196.26904297 10.6784668 C196.98334473 11.20738525 197.69764648 11.73630371 198.43359375 12.28125 C199.07224365 12.75240234 199.71089355 13.22355469 200.36889648 13.70898438 C203.60953117 16.27394115 204.73548656 18.41791017 205.4140625 22.4765625 C205.77242427 27.29453736 205.60826976 31.05515882 202.5625 34.9375 C196.87313803 40.56880726 189.92907811 45.17947984 183.21777344 49.51025391 C180.97885964 50.95220008 180.97885964 50.95220008 179.02441406 52.68896484 C170.24720394 59.43408165 158.84743905 57.63430588 148.375 57.375 C141.32125 57.25125 134.2675 57.1275 127 57 C127 83.73 127 110.46 127 138 C131.29 138.33 135.58 138.66 140 139 C143.97314165 139.63717712 147.87686445 140.31693491 151.8125 141.125 C152.88218018 141.34381836 153.95186035 141.56263672 155.05395508 141.78808594 C193.91911712 150.00863066 230.81608891 166.20697766 262 191 C262.9075 191.71542969 263.815 192.43085938 264.75 193.16796875 C279.85759789 205.29267444 294.07456405 218.71260604 306 234 C306.78890625 234.98355469 307.5778125 235.96710938 308.390625 236.98046875 C338.57919166 274.95057891 338.57919166 274.95057891 337 292 C335.21131297 297.16731808 332.46969681 299.90559452 328 303 C323.04698361 304.72878135 318.51157993 305.28795561 313.30777931 305.25447559 C312.56120272 305.25768207 311.81462613 305.26088855 311.04542601 305.26419219 C308.54775278 305.27248297 306.05031991 305.26657117 303.55264282 305.26069641 C301.74222671 305.26371751 299.93181187 305.26760679 298.12139928 305.27228898 C293.14927737 305.28258301 288.17722744 305.28038357 283.20509958 305.27610838 C277.84166591 305.27364372 272.47824969 305.2826521 267.11482239 305.29014587 C256.60838317 305.30290209 246.1019695 305.30468542 235.59552385 305.30234561 C227.05648134 305.30056333 218.51744658 305.30231016 209.978405 305.30657005 C208.76356835 305.30716524 207.5487317 305.30776043 206.29708182 305.30837366 C203.82922114 305.30958539 201.36136046 305.31079953 198.89349978 305.31201603 C175.74432825 305.32289511 152.5951713 305.32072733 129.44599895 305.31463119 C108.26493177 305.30946164 87.08391057 305.32071784 65.90285249 305.33972941 C44.15775444 305.35909772 22.41267816 305.36736558 0.66757143 305.36360615 C-11.54209317 305.36169259 -23.75171862 305.36419679 -35.96137619 305.37832069 C-46.3554777 305.39022263 -56.74951597 305.3916527 -67.14361833 305.37953053 C-72.44697089 305.37363354 -77.75020771 305.37256512 -83.05355263 305.38453293 C-87.90932826 305.39536341 -92.76489112 305.39232211 -97.62065668 305.37827124 C-99.3763159 305.37561651 -101.13199164 305.37801517 -102.88763468 305.38600711 C-122.64709816 305.46970436 -122.64709816 305.46970436 -129.15625 300.28125 C-129.5996875 299.6934375 -130.043125 299.105625 -130.5 298.5 C-130.9640625 297.9121875 -131.428125 297.324375 -131.90625 296.71875 C-134.62991805 292.43870021 -134.88923048 287.86461381 -134 283 C-129.48322257 271.75610725 -122.30640225 255.73439002 -112 249 C-108.4758443 249.06076131 -106.08383034 249.27744644 -103.125 251.25 C-101.54639534 253.70560725 -101.06585466 255.03654009 -101 258 C-103.51681228 264.17763013 -107.22623056 269.79748581 -110.73779297 275.45654297 C-111.11436035 276.07029785 -111.49092773 276.68405273 -111.87890625 277.31640625 C-112.2147876 277.85724854 -112.55066895 278.39809082 -112.89672852 278.95532227 C-114.4688327 281.86888114 -115.69587503 284.95704174 -117 288 C-35.49 288.33 46.02 288.66 130 289 C130.33 285.04 130.66 281.08 131 277 C133.36425376 268.72511184 136.64413743 263.6143649 144 259 C147.07373047 257.92041016 147.07373047 257.92041016 150.5546875 257.0390625 C151.19701828 256.87577454 151.83934906 256.71248657 152.50114441 256.54425049 C160.50880008 254.55353185 168.59725579 252.91120266 176.68432617 251.28027344 C179.35506374 250.74141213 182.02427415 250.19541902 184.69335938 249.6484375 C186.39575052 249.3016765 188.09822147 248.95530704 189.80078125 248.609375 C190.59648026 248.44693298 191.39217926 248.28449097 192.21199036 248.11712646 C197.76702433 247 197.76702433 247 200 247 C200.00410889 246.32533691 200.00821777 245.65067383 200.01245117 244.95556641 C200.04571708 241.84453839 200.11639508 238.73538435 200.1875 235.625 C200.19620117 234.03365234 200.19620117 234.03365234 200.20507812 232.41015625 C200.4666764 222.93448523 202.91815604 215.78159516 209.75 209.0625 C217.11075994 202.54982762 226.74052044 202.50076849 236.0625 202.3125 C237.21427734 202.27833984 238.36605469 202.24417969 239.55273438 202.20898438 C242.3683921 202.12720179 245.18376571 202.05782625 248 202 C229.89744093 188.0837434 209.48992275 176.74924634 188 169 C187.83145508 169.61383545 187.66291016 170.2276709 187.48925781 170.86010742 C185.98204641 176.26414322 184.14367025 181.51969133 182.125 186.75 C181.65320313 187.98234375 181.18140625 189.2146875 180.6953125 190.484375 C177.54265003 197.02215432 173.94363445 200.91743576 167.36816406 203.95947266 C159.47932356 206.39657313 151.06787097 206.58630952 142.875 207.1875 C140.98421644 207.33852261 139.09358829 207.49150427 137.203125 207.64648438 C136.27687317 207.72206573 135.35062134 207.79764709 134.39630127 207.8755188 C130.77617604 208.17505588 127.15710892 208.48665866 123.53796387 208.79779053 C121.11894713 208.99052302 118.70091843 209.13685634 116.27832031 209.27587891 C109.23939268 209.63517774 109.23939268 209.63517774 102.94848633 212.44995117 C101.28493851 214.53835109 100.17612784 216.60227666 99 219 C97.79647482 221.06454785 96.58914576 223.12688091 95.37890625 225.1875 C93.45721141 228.5994484 91.55157307 232.01972887 89.65429688 235.4453125 C81.20828954 250.41028336 81.20828954 250.41028336 74.5625 254.5 C67.52964956 255.8722635 61.90455211 254.72192745 55.3125 252.3125 C54.21325195 251.94608398 54.21325195 251.94608398 53.09179688 251.57226562 C47.05702444 249.42282008 43.58778827 246.3816824 40 241 C38.69546539 231.82275069 40.77565081 222.65677323 42.57666016 213.69213867 C43.97939727 206.90234033 43.97939727 206.90234033 44 200 C41.45311633 196.2592646 38.56796839 193.59459783 35.125 190.6875 C28.38668966 184.91543793 23.50487503 178.13131007 20 170 C20 169.01 20 168.02 20 167 C-6.71987708 177.94248455 -31.90530973 190.01981831 -54 209 C-55.04464628 209.86310194 -56.09029886 210.72498673 -57.13671875 211.5859375 C-62.39043458 215.9571845 -67.46168417 220.36521348 -72.171875 225.328125 C-72.87231934 226.06095703 -73.57276367 226.79378906 -74.29443359 227.54882812 C-75.6548909 228.98814789 -76.99735998 230.44474196 -78.31884766 231.91992188 C-81.47119799 235.25531191 -83.57883315 237.44509083 -88.3203125 237.5859375 C-92 237 -92 237 -94.5 234.875 C-96.25938039 231.50285426 -96.3926178 229.7606163 -96 226 C-94.48828125 223.68359375 -94.48828125 223.68359375 -92.3125 221.4375 C-91.50296875 220.59058594 -90.6934375 219.74367188 -89.859375 218.87109375 C-88.9078646 217.9124572 -87.95461083 216.95554918 -87 216 C-86.44892578 215.44199707 -85.89785156 214.88399414 -85.33007812 214.30908203 C-81.58005033 210.51202212 -77.79803689 206.7489948 -74 203 C-73.34 202.34 -72.68 201.68 -72 201 C-72.40726318 200.18716553 -72.40726318 200.18716553 -72.82275391 199.35791016 C-86.06440296 172.74572591 -94.29730485 145.40221144 -94.0625 115.4375 C-94.05798828 114.33341797 -94.05347656 113.22933594 -94.04882812 112.09179688 C-94.0371514 109.394473 -94.02077525 106.69726653 -94 104 C-96.83356241 105.93716513 -99.66681225 107.87478696 -102.5 109.8125 C-103.35263428 110.39547852 -104.20526855 110.97845703 -105.08374023 111.57910156 C-109.31202792 114.47145907 -113.53747989 117.3677162 -117.75390625 120.27734375 C-118.48222656 120.77967529 -119.21054688 121.28200684 -119.9609375 121.79956055 C-121.34059467 122.7517612 -122.71952546 123.70501535 -124.09765625 124.65942383 C-129.77800072 128.57871359 -133.11331291 129.78837495 -140 129 C-143.38012411 127.56031751 -145.25668378 126.40501341 -146.99609375 123.1171875 C-149.19493582 117.24659478 -149.71643106 111.22079353 -150 105 C-150.04125 104.19820313 -150.0825 103.39640625 -150.125 102.5703125 C-150.63143066 83.26264357 -145.16437851 65.59299566 -132.3515625 51.140625 C-131 50 -131 50 -129 50 C-131.89594888 46.88918902 -134.83223037 44.69883417 -138.46484375 42.50390625 C-139.51220703 41.86259766 -140.55957031 41.22128906 -141.63867188 40.56054688 C-143.83330212 39.23129481 -146.02861235 37.90316473 -148.22460938 36.57617188 C-149.27326172 35.93357422 -150.32191406 35.29097656 -151.40234375 34.62890625 C-152.35616943 34.05213135 -153.30999512 33.47535645 -154.29272461 32.88110352 C-157.77983287 30.45814661 -161.07522437 27.84955126 -163 24 C-163.63384658 18.9654472 -163.65574849 15.158489 -161.125 10.6875 C-151.62535927 1.26768818 -135.76346766 -0.98594332 -123 -1 C-108.88344139 -0.42612822 -96.46590374 3.26841198 -84 10 C-83.64550781 9.5875 -83.29101562 9.175 -82.92578125 8.75 C-62.03381808 -13.91246853 -25.18910259 -16.696541 0 0 Z M-69 18 C-69.90685547 18.75023437 -69.90685547 18.75023437 -70.83203125 19.515625 C-78.77718839 26.64722574 -82.29996706 36.30851375 -84.1640625 46.6015625 C-85 49 -85 49 -86.6171875 50.2578125 C-89.1963117 51.06114627 -91.76344902 51.53408009 -94.43237305 51.93725586 C-105.3527576 53.58904623 -116.36709216 57.18749498 -123.66015625 66.0078125 C-132.77061252 79.76231751 -135.00668201 93.67537071 -133 110 C-130.01439467 108.58472084 -127.33121616 106.95084596 -124.60546875 105.0859375 C-123.7434082 104.49748047 -122.88134766 103.90902344 -121.99316406 103.30273438 C-120.60436035 102.34850586 -120.60436035 102.34850586 -119.1875 101.375 C-118.22424805 100.71564453 -117.26099609 100.05628906 -116.26855469 99.37695312 C-107.22811709 93.17863048 -98.22543671 86.92591651 -89.234375 80.65625 C-88.36361328 80.05554688 -87.49285156 79.45484375 -86.59570312 78.8359375 C-84.8318616 77.58837465 -83.09643336 76.29985412 -81.38867188 74.9765625 C-73.34698054 68.86708533 -73.34698054 68.86708533 -68.13574219 69.39160156 C-63.26524757 70.77903556 -58.98690737 73.35926609 -54.625 75.875 C-53.56571289 76.46780762 -52.50642578 77.06061523 -51.41503906 77.67138672 C-49.26980931 78.87350535 -47.12846665 80.08258888 -44.99121094 81.29882812 C-41.64267537 83.20321891 -38.27558907 85.07178162 -34.90380859 86.93457031 C-32.76151291 88.11863671 -30.62240359 89.30824793 -28.484375 90.5 C-27.76958984 90.89832031 -27.05480469 91.29664063 -26.31835938 91.70703125 C-24.65261201 92.63603273 -22.98729871 93.56581268 -21.32226562 94.49609375 C-18.55039873 96.04309253 -15.77545875 97.58445666 -13 99.125 C-12.13213867 99.6111377 -11.26427734 100.09727539 -10.37011719 100.59814453 C-9.16597168 101.26499268 -9.16597168 101.26499268 -7.9375 101.9453125 C-7.22464844 102.34250488 -6.51179688 102.73969727 -5.77734375 103.14892578 C-4.02779103 104.14396169 -4.02779103 104.14396169 -2 104 C-1.76519557 98.68237017 -2.50453554 94.15668154 -4.125 89.125 C-4.34945801 88.42318604 -4.57391602 87.72137207 -4.80517578 86.99829102 C-8.16813159 77.00303163 -14.43709737 67.74446578 -23.9375 62.6875 C-31.76044504 59.20733054 -39.26381583 58.68249485 -47.70703125 58.34375 C-51 58 -51 58 -54 56 C-55.26101881 52.8026627 -55.07684816 50.23548414 -54 47 C-50.93202964 43.60370299 -47.41889503 40.93865249 -43.73193359 38.26171875 C-41.52300958 36.65251107 -39.37127572 34.97543638 -37.21508789 33.29663086 C-35.61407592 32.05402139 -34.00358568 30.82470419 -32.390625 29.59765625 C-28.08042332 26.30916021 -23.82993265 22.94490787 -19.58056641 19.57836914 C-17.10133221 17.62052977 -14.63039505 15.7535967 -12 14 C-12.68645952 10.78948973 -12.68645952 10.78948973 -15.5546875 9.6484375 C-34.36691163 2.43339624 -53.42100383 4.34725715 -69 18 Z M-134.75 16.375 C-135.42160156 16.50132812 -136.09320313 16.62765625 -136.78515625 16.7578125 C-140.80697108 17.53764015 -140.80697108 17.53764015 -144 20 C-142.76702278 20.78140102 -141.53392226 21.56260748 -140.30078125 22.34375 C-139.51018311 22.84511475 -138.71958496 23.34647949 -137.9050293 23.86303711 C-136.16659836 24.96070915 -134.42451371 26.05261444 -132.67895508 27.13891602 C-128.8114845 29.55067539 -124.98738885 31.95280748 -121.3359375 34.68359375 C-115.49991324 38.86149201 -111.70384737 40.67428791 -104.4375 39.6875 C-100.46719287 38.53354659 -98.58287063 37.83141071 -96.1953125 34.42578125 C-94.56417594 30.21294925 -93.54683259 27.35950222 -95 23 C-105.79320082 14.97240393 -122.08226648 13.78670081 -134.75 16.375 Z M92 57 C92 83.4 92 109.8 92 137 C98.27 137 104.54 137 111 137 C111 110.6 111 84.2 111 57 C104.73 57 98.46 57 92 57 Z M-73.4375 88 C-74.39462891 88.556875 -74.39462891 88.556875 -75.37109375 89.125 C-82.42434628 97.24385183 -78.48120081 120.94703743 -77.79785156 130.96289062 C-76.03927173 148.94685801 -71.21946193 177.78053807 -58 191 C-57.14019531 190.3709375 -56.28039062 189.741875 -55.39453125 189.09375 C-47.47036644 183.34077475 -39.41788914 178.00598723 -31 173 C-31.43570313 172.32195312 -31.87140625 171.64390625 -32.3203125 170.9453125 C-33.57666808 168.98191698 -34.82616288 167.01412146 -36.0703125 165.04296875 C-37.2126288 163.24162382 -38.36875755 161.44871673 -39.5546875 159.67578125 C-48.79364233 145.36788634 -54.34184027 127.53022435 -55.484375 110.5859375 C-55.60253763 99.90441621 -55.60253763 99.90441621 -59.30224609 90.30175781 C-63.87712709 86.67464374 -68.4028183 85.07073065 -73.4375 88 Z M35 162 C36.98562072 170.60435643 43.14589796 176.36774562 49.625 181.9375 C55.18240109 186.89100193 59.48970798 191.84015678 60.24731445 199.50073242 C60.22365048 206.32427065 59.36307613 212.69776896 58 219.375 C57.62096722 221.27784698 57.2458273 223.18147443 56.875 225.0859375 C56.70742187 225.9114209 56.53984375 226.7369043 56.3671875 227.58740234 C55.87461396 230.41711635 55.87461396 230.41711635 56 235 C59.96 236.32 63.92 237.64 68 239 C71.82778222 232.84552662 75.61568707 226.68515841 79.25 220.4140625 C79.8169458 219.43969238 80.3838916 218.46532227 80.96801758 217.46142578 C82.09931663 215.51301494 83.22434057 213.56094476 84.3425293 211.60498047 C88.92624314 203.72748411 93.33119001 198.30682983 102 195 C105.48828125 194.27734375 105.48828125 194.27734375 109.3125 193.9375 C110.03743652 193.86789062 110.76237305 193.79828125 111.50927734 193.7265625 C114.33798582 193.46275092 117.16835535 193.23028052 120 193 C121.37452597 192.88705485 122.74903664 192.77392329 124.12353516 192.66064453 C124.86276718 192.59978165 125.60199921 192.53891876 126.3636322 192.47621155 C128.70111007 192.2830633 131.03842213 192.08798688 133.37573242 191.89282227 C136.50408365 191.63180188 139.6330569 191.3822915 142.76293945 191.14038086 C144.24041394 191.02087815 145.7178723 190.90117583 147.1953125 190.78125 C148.50516113 190.67876953 149.81500977 190.57628906 151.16455078 190.47070312 C158.63352912 189.79295635 158.63352912 189.79295635 164.88598633 186.15478516 C166.01605502 183.96894552 166.98216632 181.83620965 167.82421875 179.5234375 C168.13037109 178.688125 168.43652344 177.8528125 168.75195312 176.9921875 C169.06068359 176.12851562 169.36941406 175.26484375 169.6875 174.375 C170.00783203 173.50359375 170.32816406 172.6321875 170.65820312 171.734375 C172.35946424 167.47141324 172.35946424 167.47141324 173 163 C162.72493929 160.07454514 152.46980271 157.57063169 141.9375 155.75 C140.99962646 155.58725586 140.06175293 155.42451172 139.09545898 155.25683594 C126.79617077 153.20386712 114.75922413 152.75868701 102.3125 152.75 C101.44384308 152.74932526 100.57518616 152.74865051 99.6802063 152.74795532 C66.4797932 152.76004114 66.4797932 152.76004114 35 162 Z M219 223 C216.97595688 226.03606468 216.7441145 226.73935975 216.65625 230.16796875 C216.61177734 231.38516602 216.61177734 231.38516602 216.56640625 232.62695312 C216.53353516 233.89442383 216.53353516 233.89442383 216.5 235.1875 C216.26634074 243.99095635 215.79720541 251.87771907 210 259 C205.28447315 262.67557158 199.73261912 263.29392109 194.00390625 264.375 C192.40445412 264.69090088 192.40445412 264.69090088 190.77268982 265.01318359 C187.37101104 265.6846132 183.96712108 266.34366431 180.5625 267 C176.08260074 267.86497029 171.60522165 268.74169482 167.12890625 269.625 C166.10374405 269.81884277 165.07858185 270.01268555 164.02235413 270.21240234 C156.7019667 271.65684199 151.6595249 272.78730013 147 279 C146.67 282.3 146.34 285.6 146 289 C203.42 289 260.84 289 320 289 C320.33 288.34 320.66 287.68 321 287 C319.97870041 284.68444087 318.90174901 282.5255398 317.6875 280.3125 C317.32575684 279.64621582 316.96401367 278.97993164 316.59130859 278.29345703 C308.34212176 263.38186962 298.0504422 249.85506506 287.0625 236.875 C286.40048584 236.0869397 286.40048584 236.0869397 285.72509766 235.28295898 C284.7685698 234.16960938 283.78538862 233.0788303 282.7824707 232.00708008 C281 230 281 230 278.97338867 227.1550293 C274.87342221 222.04193097 271.67333333 218.9368992 264.99389648 218.0546875 C260.07958478 217.70752115 255.19432663 217.76924149 250.27368164 217.95043945 C247.17611081 218.06291355 244.08575695 218.09393075 240.98632812 218.11132812 C239.00512585 218.14373599 237.02399152 218.180686 235.04296875 218.22265625 C234.12412399 218.23651871 233.20527924 218.25038116 232.2585907 218.2646637 C226.73473234 218.4894717 223.34944719 219.27475737 219 223 Z " fill="#1F686A" transform="translate(163,194)"/>
<path d="M0 0 C0.81210938 -0.00773438 1.62421875 -0.01546875 2.4609375 -0.0234375 C17.14906822 0.02363984 26.77574247 7.65469322 38 16.28271484 C39.31729486 17.2904871 40.65000356 18.27824785 41.99267578 19.25195312 C44.11700851 20.86441269 46.09251033 22.52675485 48.09716797 24.27929688 C60.08627789 34.27775757 70.29487479 34.85150032 85.5 34.375 C88.62513671 34.33137992 91.7499004 34.30488323 94.87527466 34.28536987 C96.80006139 34.26764139 98.72480406 34.23343444 100.64889526 34.17874146 C112.95041053 33.91663193 122.71204603 36.22275952 132.1875 44.25 C135.96266276 47.22161406 140.00584799 48.45101413 144.5625 49.75 C153.89256294 52.44041497 160.78688734 55.6808225 165.75 64.41796875 C168.19669715 69.54074092 168.68586305 75.0155208 166.90625 80.44140625 C163.11884923 88.48963289 156.523023 94.11226327 148.19003296 97.1325531 C141.40025286 99.08398754 135.32561506 99.59057788 128.2890625 99.41015625 C126.15105214 99.39831736 124.01302906 99.38861768 121.875 99.38085938 C118.56102096 99.35414164 115.24968466 99.31249245 111.93652344 99.2331543 C95.40940743 98.62681583 95.40940743 98.62681583 81.47554016 106.39154053 C80.1719965 107.65738826 78.89712923 108.95258574 77.625 110.25 C76.41736216 111.18611106 75.188838 112.09715876 73.92578125 112.95703125 C71.75153679 114.48894989 69.57950874 116.02368494 67.41015625 117.5625 C66.49580811 118.21025391 66.49580811 118.21025391 65.56298828 118.87109375 C61.986555 121.41577694 58.43177169 123.99044486 54.875 126.5625 C54.12395996 127.10503418 53.37291992 127.64756836 52.59912109 128.20654297 C48.66042006 131.05241555 44.72494991 133.9026625 40.79296875 136.7578125 C39.60429199 137.61959106 39.60429199 137.61959106 38.39160156 138.4987793 C36.89381823 139.58475071 35.39699281 140.67204517 33.90136719 141.76098633 C30.27125086 144.39125377 26.61326989 146.97728276 22.91015625 149.50390625 C21.8584021 150.22235718 21.8584021 150.22235718 20.78540039 150.95532227 C14.22097125 154.88923206 8.16224468 154.61677243 0.6875 154.625 C-0.47974609 154.64949219 -1.64699219 154.67398438 -2.84960938 154.69921875 C-13.72331798 154.73639382 -13.72331798 154.73639382 -18.375 150.25 C-21.10037369 145.65853415 -21.40076522 141.45077882 -20.375 136.25 C-18.13548266 131.63214315 -15.26280591 127.49671401 -12.3125 123.3125 C-11.5505763 122.20004271 -10.79079509 121.08611487 -10.03320312 119.97070312 C-8.54653279 117.7852869 -7.04983771 115.60814653 -5.54638672 113.43408203 C-2.3722397 108.77957052 0.63911808 104.0268121 3.625 99.25 C2.366875 99.30800781 1.10875 99.36601563 -0.1875 99.42578125 C-1.91662881 99.47276845 -3.64579875 99.51825874 -5.375 99.5625 C-6.19484375 99.60439453 -7.0146875 99.64628906 -7.859375 99.68945312 C-16.57733032 99.85456592 -24.27299624 97.12056416 -32.375 94.25 C-33.12642273 93.98516815 -33.87784546 93.7203363 -34.65203857 93.44747925 C-39.41931618 91.75582625 -44.16287156 90.00642243 -48.89575195 88.22094727 C-51.33066117 87.30567328 -53.77154105 86.40769688 -56.21289062 85.50976562 C-76.67179544 77.88337774 -76.67179544 77.88337774 -82.375 68.25 C-83.72065532 65.29425128 -84.87311483 62.27892285 -86.01171875 59.23828125 C-86.33662796 58.3882402 -86.66153717 57.53819916 -86.99629211 56.66239929 C-88.02534244 53.96502908 -89.04397784 51.26386076 -90.0625 48.5625 C-90.75779557 46.7360737 -91.45375257 44.90989905 -92.15039062 43.08398438 C-93.42023069 39.74929513 -94.68790737 36.41382622 -95.94799805 33.07543945 C-96.200186 32.40736771 -96.45237396 31.73929596 -96.71220398 31.05097961 C-98.24802222 26.87778416 -98.68297276 23.71560503 -98.375 19.25 C-96.85507896 16.06540354 -95.09204041 13.51420034 -92.375 11.25 C-87.28265671 9.55255224 -81.95648177 9.98105786 -76.625 9.9375 C-75.45710938 9.90849609 -74.28921875 9.87949219 -73.0859375 9.84960938 C-65.40043313 9.79297017 -60.55653815 10.141058 -54.8984375 15.70092773 C-53.44254664 17.29355563 -52.09018131 18.93418986 -50.75 20.625 C-50.29882812 21.17671875 -49.84765625 21.7284375 -49.3828125 22.296875 C-48.93421875 22.84601562 -48.485625 23.39515625 -48.0234375 23.9609375 C-47.5689624 24.50314941 -47.1144873 25.04536133 -46.64624023 25.60400391 C-45.375 27.25 -45.375 27.25 -43.49609375 30.609375 C-41.49105262 33.00767005 -40.31792827 33.260028 -37.17089844 33.81298828 C-33.12268675 34.0673504 -29.11642748 34.13434623 -25.0625 34.125 C-23.63993702 34.14313626 -22.2174054 34.16394191 -20.79492188 34.1875 C-17.32144147 34.23922691 -13.84891461 34.25443951 -10.375 34.25 C-11.4578125 32.69152344 -11.4578125 32.69152344 -12.5625 31.1015625 C-21.87045553 17.29296596 -21.87045553 17.29296596 -21.03515625 10.3046875 C-19.8354042 6.57054797 -18.36822664 4.85280577 -15.375 2.25 C-10.24194793 -0.00730603 -5.50071852 -0.05189357 0 0 Z M-1.375 16.25 C0.10528355 20.43509484 2.19925724 23.83311593 4.6875 27.5 C5.40035156 28.55703125 6.11320312 29.6140625 6.84765625 30.703125 C8.39387457 33.07727649 8.39387457 33.07727649 9.625 34.25 C11.40571246 34.33726223 13.1898314 34.35699041 14.97265625 34.34765625 C16.05224609 34.34443359 17.13183594 34.34121094 18.24414062 34.33789062 C19.38044922 34.32951172 20.51675781 34.32113281 21.6875 34.3125 C22.82767578 34.30798828 23.96785156 34.30347656 25.14257812 34.29882812 C27.97010351 34.28699747 30.7975264 34.2705141 33.625 34.25 C29.63438395 30.1123524 25.22034073 26.90327059 20.5625 23.5625 C19.74716797 22.96888672 18.93183594 22.37527344 18.09179688 21.76367188 C17.30740234 21.19841797 16.52300781 20.63316406 15.71484375 20.05078125 C15.00191162 19.53684814 14.28897949 19.02291504 13.55444336 18.4934082 C10.15666273 16.30374646 7.37239279 16.1363975 3.4375 16.1875 C2.53644531 16.19652344 1.63539063 16.20554687 0.70703125 16.21484375 C-0.32357422 16.23224609 -0.32357422 16.23224609 -1.375 16.25 Z M-80.375 26.25 C-78.19919279 34.07057969 -75.43630433 41.58565835 -72.4375 49.125 C-72.00759766 50.23875 -71.57769531 51.3525 -71.13476562 52.5 C-70.71001953 53.56992188 -70.28527344 54.63984375 -69.84765625 55.7421875 C-69.46875244 56.70495605 -69.08984863 57.66772461 -68.69946289 58.65966797 C-65.37053491 65.17025339 -60.33703269 66.72275575 -53.7890625 69.0703125 C-52.8545224 69.41504608 -51.9199823 69.75977966 -50.9571228 70.11495972 C-47.97511608 71.21205826 -44.98772558 72.2935858 -42 73.375 C-39.99703029 74.10968126 -37.99442169 74.84534783 -35.9921875 75.58203125 C-28.19537506 78.44864827 -28.19537506 78.44864827 -20.375 81.25 C-19.46965358 81.59155656 -18.56430716 81.93311312 -17.63152599 82.28501987 C-14.22402181 83.29473815 -11.48927866 83.50410123 -7.94352722 83.51069641 C-6.66933426 83.51778122 -5.3951413 83.52486603 -4.08233643 83.53216553 C-2.6827389 83.52987201 -1.28314171 83.52736236 0.11645508 83.5246582 C1.60025793 83.52900864 3.08405854 83.53419289 4.56785583 83.54014587 C8.58866317 83.55351333 12.60937636 83.55411692 16.63020158 83.55158257 C19.99231109 83.55051106 23.35440169 83.55540099 26.71650714 83.560188 C34.65257194 83.57127598 42.58858941 83.57172496 50.5246582 83.56567383 C58.69759125 83.55963762 66.87035198 83.57193767 75.04325563 83.5932439 C82.07192033 83.61088995 89.10053035 83.61685642 96.12921637 83.61360615 C100.32187218 83.61179751 104.51440514 83.6143873 108.70704079 83.62832069 C112.65270819 83.64094296 116.59810821 83.63891364 120.54377174 83.62590981 C121.98646131 83.62355379 123.42916994 83.62624353 124.87183762 83.63453293 C134.10589774 83.68373702 142.25154669 83.66129358 149.75 77.8125 C151.77330354 75.5067035 151.77330354 75.5067035 151.8125 73.25 C148.30710667 67.34617966 142.91513366 65.32506299 136.625 63.6875 C131.23121679 62.25287533 127.19898307 60.61152472 122.625 57.25 C121.1059655 56.18492983 119.58529294 55.12218954 118.0625 54.0625 C117.33933594 53.55332031 116.61617187 53.04414062 115.87109375 52.51953125 C111.56042832 50.08306818 107.1249236 50.12418325 102.26235962 50.11869812 C100.97823685 50.11468994 99.69411407 50.11068176 98.37107849 50.10655212 C96.95523069 50.10702716 95.53938291 50.10756326 94.12353516 50.1081543 C92.62678424 50.10512092 91.13003424 50.10159897 89.63328552 50.09762573 C86.4139661 50.08975051 83.19465768 50.08459703 79.97533035 50.08133507 C74.88182452 50.07541369 69.78838813 50.05886305 64.69491577 50.03999329 C62.94957165 50.03365633 61.20422749 50.0273307 59.45888329 50.02101612 C58.58495391 50.01785031 57.71102453 50.0146845 56.81061244 50.01142275 C44.9561106 49.96937846 33.10164179 49.93636655 21.24707031 49.92407227 C13.24539712 49.91568865 5.24389669 49.89318916 -2.75769007 49.8547166 C-6.989443 49.8349705 -11.22093777 49.82254664 -15.45273972 49.82755089 C-19.43378662 49.83220159 -23.41434403 49.81836937 -27.39529228 49.79053879 C-28.85331681 49.78363479 -30.31139204 49.78349197 -31.7694149 49.79073906 C-41.32200811 49.83341252 -46.95275329 49.48798643 -54 42.734375 C-54.78375 41.83203125 -55.5675 40.9296875 -56.375 40 C-57.23351562 39.03964844 -58.09203125 38.07929687 -58.9765625 37.08984375 C-61.375 34.25 -61.375 34.25 -63.1484375 31.75390625 C-65.71071332 28.24796299 -67.05130383 26.45865324 -71.47265625 25.76171875 C-74.48497856 25.7511492 -77.38514207 25.89651926 -80.375 26.25 Z M10.61181641 115.67895508 C9.42227956 118.03602622 8.32976028 120.40390066 7.24560547 122.81494141 C5.16628501 127.22229886 2.60983875 131.19549868 -0.08764648 135.24487305 C-1.46504426 136.99311306 -1.46504426 136.99311306 -1.375 138.25 C4.46262973 139.46476688 9.41538847 139.24138993 14.5390625 136.0703125 C18.24064869 133.53395047 21.79121398 130.8022325 25.32470703 128.03808594 C28.4171645 125.63422705 31.57206227 123.32059617 34.73095703 121.00512695 C36.32222012 119.83853605 37.91046545 118.66781722 39.49560547 117.49291992 C45.76710501 112.84523306 52.1263446 108.33194836 58.546875 103.89257812 C60.25624077 102.70195052 61.94335715 101.47947256 63.625 100.25 C63.625 99.92 63.625 99.59 63.625 99.25 C31.67641465 94.90664958 31.67641465 94.90664958 10.61181641 115.67895508 Z " fill="#1F686A" transform="translate(221.375,12.75)"/>
<path d="M0 0 C12.2090837 9.81908077 21.62868775 23.08423313 24.32910156 38.76318359 C25.20991562 49.61850827 25.6542852 61.60907865 21.32910156 71.76318359 C20.87664062 72.86533203 20.42417969 73.96748047 19.95800781 75.10302734 C12.89100218 90.71144985 1.17644845 101.86437448 -14.7487793 108.36499023 C-22.44343314 111.22938249 -30.4827756 113.14114024 -38.41772461 115.21240234 C-41.4962874 116.01655031 -44.57104311 116.83414696 -47.64550781 117.65380859 C-49.61860748 118.17542793 -51.59190799 118.69628825 -53.56542969 119.21630859 C-54.4759761 119.45794739 -55.38652252 119.69958618 -56.32466125 119.94854736 C-70.87073414 123.73052801 -70.87073414 123.73052801 -77.67089844 120.76318359 C-82.8269633 116.22630215 -84.92390551 111.29205661 -86.54589844 104.76318359 C-86.78002441 103.87308594 -87.01415039 102.98298828 -87.25537109 102.06591797 C-87.77728444 100.07492764 -88.291686 98.08195779 -88.79980469 96.08740234 C-89.58108584 93.10592134 -90.41164794 90.14284529 -91.26591492 87.18156433 C-97.96129725 63.92293361 -102.27866912 42.08480599 -90.40136719 19.64990234 C-81.28213782 4.43746329 -67.85174434 -5.81110313 -50.67089844 -10.23681641 C-32.90769988 -13.30223696 -14.76546503 -10.92955083 0 0 Z M-72.62402344 21.89990234 C-80.99760945 33.61333469 -83.08005837 45.73375307 -81.67089844 59.76318359 C-80.25472711 67.7745776 -77.91326688 75.57751769 -75.67089844 83.38818359 C-75.09066077 85.47353441 -74.51252207 87.55947043 -73.93652344 89.64599609 C-72.53868823 94.69211364 -71.11292199 99.72952424 -69.67089844 104.76318359 C-66.51013161 105.78099525 -64.52737674 105.71524709 -61.33642578 104.85449219 C-60.06392471 104.51821304 -60.06392471 104.51821304 -58.76571655 104.17514038 C-57.85528595 103.92317902 -56.94485535 103.67121765 -56.00683594 103.41162109 C-54.58596176 103.02775742 -54.58596176 103.02775742 -53.13638306 102.63613892 C-51.12948275 102.09102254 -49.12392225 101.54095312 -47.11962891 100.98632812 C-44.08200679 100.14814709 -41.03916792 99.33156975 -37.99511719 98.51708984 C-36.04033342 97.98323793 -34.08589475 97.4481205 -32.13183594 96.91162109 C-31.23355072 96.67180511 -30.3352655 96.43198914 -29.40975952 96.18490601 C-14.91331567 92.12139026 -3.78071157 84.66601855 3.92285156 71.49365234 C9.59733869 60.47568983 10.32143737 47.20067389 6.76660156 35.32568359 C2.22954823 23.7292291 -5.93540308 14.2480901 -17.23339844 8.88818359 C-37.30543443 0.63140425 -58.3062953 5.17050014 -72.62402344 21.89990234 Z " fill="#1F686A" transform="translate(487.6708984375,234.23681640625)"/>
<path d="M0 0 C6.58970448 4.84813973 10.65405479 10.52770428 12.1875 18.609375 C13.10494779 26.06525349 11.79572235 32.80724806 7.5234375 39.03515625 C2.20509273 45.50828106 -2.78605872 49.05541685 -11.1796875 49.98046875 C-20.65409621 50.31665745 -27.5009491 48.84191409 -34.625 42.484375 C-40.41022615 36.16098827 -42.56161948 28.75251461 -42.19140625 20.2734375 C-41.06332068 12.34194928 -36.7597067 5.85760721 -30.8125 0.609375 C-21.87206015 -5.7130476 -9.27310421 -5.42964655 0 0 Z M-24.8125 17.609375 C-26.23691503 21.5785315 -26.26476751 24.53821511 -24.625 28.421875 C-21.45698456 32.24534191 -20.01893515 33.45370595 -14.9375 34.109375 C-11.55617738 33.9576895 -10.48541577 33.41907145 -7.375 31.609375 C-4.63498933 28.40155764 -3.80369268 26.72073931 -3.5703125 22.60546875 C-3.98263 19.20717449 -5.63258081 17.15261405 -7.8125 14.609375 C-14.25888152 10.31178732 -19.97545339 11.94649117 -24.8125 17.609375 Z " fill="#1F686A" transform="translate(465.8125,261.390625)"/>
</svg>