<svg version="1.1" xmlns="http://www.w3.org/2000/svg" width="512" height="512">
<path d="M0 0 C1.93870003 1.2883766 3.76346313 2.6780086 5.6015625 4.10546875 C8.56418541 6.55704266 8.56418541 6.55704266 11.3515625 5.85546875 C13.96126045 4.15916508 16.46817764 2.3792645 18.91015625 0.44921875 C26.15067778 -4.09613883 35.60676092 -3.8539206 43.8515625 -2.76953125 C52.42251315 -0.2509167 58.96799441 4.7807665 63.8515625 12.23046875 C70.30444531 25.05557333 72.2338399 39.05308808 68.3515625 53.04296875 C64.24125552 64.49413978 57.14496243 73.52165702 48.8515625 82.23046875 C47.5096885 83.7228333 46.17562699 85.22228077 44.8515625 86.73046875 C44.2946875 87.35953125 43.7378125 87.98859375 43.1640625 88.63671875 C41.7685368 90.21037336 41.7685368 90.21037336 40.8515625 92.23046875 C41.40803467 92.32021973 41.96450684 92.4099707 42.5378418 92.50244141 C83.74142154 99.26789985 122.40100566 114.4715807 154.8515625 141.23046875 C155.41149902 141.6888916 155.97143555 142.14731445 156.54833984 142.61962891 C169.18195547 153.02150524 180.89213866 164.20573885 190.8515625 177.23046875 C191.37363281 177.90319824 191.89570313 178.57592773 192.43359375 179.26904297 C201.03693754 190.39949762 208.47780831 201.6914233 214.8515625 214.23046875 C215.26889648 215.03677734 215.68623047 215.84308594 216.11621094 216.67382812 C231.48636657 246.57640191 239.19963838 278.75726946 240.8515625 312.23046875 C241.46902344 312.30523437 242.08648437 312.38 242.72265625 312.45703125 C250.30950966 313.6348989 256.60617647 316.13307207 261.48828125 322.296875 C266.27107539 329.73829969 266.50054836 336.48824746 265.8515625 345.23046875 C264.1924338 352.80865118 259.1682054 357.96826796 252.8515625 362.23046875 C247.16709542 364.77936107 241.70373574 364.42815046 235.6081543 364.29541016 C233.27773006 364.26296619 230.9473007 364.23088906 228.61686707 364.1991272 C227.38491293 364.17898182 226.15295879 364.15883644 224.88367271 364.1380806 C218.3257803 364.04218287 211.76742587 364.01646225 205.20898438 363.98046875 C196.87801382 363.93393674 188.54912894 363.86607394 180.21948242 363.70605469 C173.4750177 363.57673131 166.73399839 363.53320403 159.9883213 363.5381279 C157.43147966 363.5258574 154.87459711 363.48531798 152.31870079 363.41472244 C135.56375363 362.86983829 135.56375363 362.86983829 121.31627369 370.68353844 C118.60552733 373.37590367 116.08892075 376.16994497 113.65130043 379.11082077 C109.51858984 383.9781359 104.88997127 388.39866448 100.0390625 392.54296875 C96.64960645 395.45297326 93.48704797 398.55206817 90.3515625 401.73046875 C86.68309752 405.44893836 82.9200703 408.96715062 78.9453125 412.35546875 C76.31170694 414.71392149 73.83330032 417.21492555 71.3515625 419.73046875 C68.29818299 422.82538377 65.22832565 425.84981152 61.9140625 428.66796875 C58.408258 431.65041184 55.19688369 434.88481202 51.9765625 438.16796875 C41.1762314 449.09729956 30.38216102 458.177418 14.4315033 458.48202515 C11.80923359 458.49335137 9.18831446 458.49413717 6.56616211 458.48583984 C5.11675317 458.48859276 3.66734574 458.49227448 2.21794128 458.49681091 C-0.89277755 458.50489671 -4.00342461 458.50709804 -7.11415291 458.50486374 C-12.03534402 458.5020221 -16.95639259 458.51641323 -21.87754822 458.53384399 C-35.86764406 458.58079319 -49.85772922 458.6048172 -63.84790039 458.61132812 C-71.58258472 458.61507964 -79.31710675 458.63311227 -87.05172151 458.66642249 C-91.94164259 458.68662174 -96.8311447 458.68901471 -101.72109044 458.67814231 C-104.76430633 458.67553301 -107.80727873 458.68954897 -110.85043144 458.70822334 C-112.25889574 458.71353977 -113.66740504 458.71205785 -115.07585144 458.70318794 C-124.97871935 458.43271893 -124.97871935 458.43271893 -133.1484375 463.23046875 C-135.04205791 465.11600828 -136.82548943 466.98170675 -138.5859375 468.98046875 C-139.02486328 469.46773438 -139.46378906 469.955 -139.91601562 470.45703125 C-141.89421965 472.66074482 -143.8481119 474.88447542 -145.78930664 477.12084961 C-150.59769999 482.65628991 -155.58721203 487.99764493 -160.63085938 493.31835938 C-164.15385367 497.05178999 -167.56983342 500.83214105 -170.84106445 504.7890625 C-173.79266985 508.04326946 -176.67861753 509.06850512 -180.984375 509.54296875 C-185.82383234 509.73415719 -189.24279366 509.66711846 -193.6484375 507.54296875 C-198.54236292 503.01608773 -201.18598684 498.42181738 -203.6953125 492.36328125 C-204.02364578 491.58824249 -204.35197906 490.81320374 -204.69026184 490.01467896 C-205.7677108 487.46491883 -206.83329373 484.91039103 -207.8984375 482.35546875 C-208.65047482 480.56717858 -209.40300509 478.77909564 -210.15600586 476.99121094 C-217.06829808 460.54600053 -223.86411487 444.05174798 -230.57858276 427.52485657 C-232.33268223 423.21261309 -234.11476209 418.91375816 -235.92578125 414.625 C-236.50573853 413.2332959 -236.50573853 413.2332959 -237.09741211 411.81347656 C-237.7603931 410.22355421 -238.43309546 408.63761841 -239.11938477 407.05761719 C-241.36420549 401.61065445 -242.28513836 396.88459376 -240.52294922 391.21972656 C-238.00126756 385.4786096 -233.89195927 381.65726659 -229.2734375 377.54296875 C-228.23123047 376.58680664 -228.23123047 376.58680664 -227.16796875 375.61132812 C-223.25148901 372.03781695 -219.24830922 368.59133538 -215.1484375 365.23046875 C-215.91027344 365.2046875 -216.67210937 365.17890625 -217.45703125 365.15234375 C-227.17300695 364.61863223 -233.80107571 363.09103052 -240.5859375 355.85546875 C-246.22564565 349.40683277 -246.59588733 342.93912774 -246.46484375 334.6484375 C-245.80459079 327.51607523 -242.59215557 322.80814076 -237.1484375 318.23046875 C-231.77066557 314.14798812 -227.84114019 312.87386337 -221.1484375 312.23046875 C-221.11403564 311.6698877 -221.07963379 311.10930664 -221.04418945 310.53173828 C-217.96051151 263.1721821 -202.97024702 217.62862988 -173.1484375 180.23046875 C-172.44332031 179.33328125 -171.73820312 178.43609375 -171.01171875 177.51171875 C-152.39568348 154.25003015 -130.26940932 134.71842415 -104.1484375 120.23046875 C-103.19783447 119.68664551 -103.19783447 119.68664551 -102.22802734 119.13183594 C-77.03669319 104.73856809 -49.64017759 96.82577763 -21.1484375 92.23046875 C-24.08585379 88.77624875 -27.03526212 85.33858513 -30.078125 81.9765625 C-43.31022169 67.21691909 -51.14727847 52.8489528 -50.49609375 32.61328125 C-49.82858679 21.51687519 -44.97925849 11.47693106 -36.8359375 3.91796875 C-26.62956836 -3.99582503 -11.7559665 -6.28649174 0 0 Z M-28.3984375 22.04296875 C-32.73329741 29.93860644 -33.67488716 38.61455394 -31.30859375 47.3203125 C-28.48345071 54.71134328 -24.40467662 60.3824676 -19.1484375 66.23046875 C-18.70048828 66.73191406 -18.25253906 67.23335937 -17.79101562 67.75 C-14.80204408 71.08369689 -11.75059937 74.3500318 -8.66552734 77.59472656 C-7.18112072 79.19522936 -5.76594541 80.83821003 -4.35546875 82.50390625 C-3.45374996 83.51748342 -2.55143325 84.53052906 -1.6484375 85.54296875 C-0.875 86.44660156 -0.1015625 87.35023437 0.6953125 88.28125 C4.81898512 90.82792406 7.85533452 91.23680013 12.66796875 91.03442383 C18.99077459 89.4377214 22.8431793 84.58402156 27.1015625 79.91796875 C28.03638231 78.94858009 28.97387416 77.98176085 29.9140625 77.01757812 C41.29362848 65.18743255 52.27116916 52.17685677 52.06640625 35.11328125 C51.5207345 27.79135846 49.01240093 22.39130718 43.8515625 17.23046875 C40.30760665 14.54195052 36.12731523 14.70116861 31.8515625 15.23046875 C24.58003336 17.9394698 20.54478404 23.43681741 16.18359375 29.55859375 C14.27040286 31.95990079 13.09071966 32.19858113 10.0390625 32.60546875 C5.70326616 32.09537506 4.61150433 30.5565525 1.8515625 27.23046875 C1.03282483 26.04726077 0.22047542 24.85961077 -0.5859375 23.66796875 C-3.56626016 19.35261197 -7.16843459 16.89046972 -12.1484375 15.23046875 C-19.62676621 14.61749099 -23.52940278 15.95667534 -28.3984375 22.04296875 Z M-145.73828125 175.84375 C-179.19766255 211.58075531 -203.1484375 262.56605111 -203.1484375 312.23046875 C-62.5684375 312.23046875 78.0115625 312.23046875 222.8515625 312.23046875 C221.50191847 295.12797641 221.50191847 295.12797641 218.7265625 278.35546875 C218.51265869 277.37118896 218.29875488 276.38690918 218.07836914 275.37280273 C206.86783435 226.07384014 178.46871693 181.42395244 137.8515625 151.23046875 C137.29388184 150.80668945 136.73620117 150.38291016 136.16162109 149.94628906 C60.22608435 92.29111935 -47.46980662 96.34008256 -145.73828125 175.84375 Z M-227.1484375 333.23046875 C-228.69430626 336.32220627 -228.44203271 338.82476427 -228.1484375 342.23046875 C-226.68422887 344.57988027 -226.68422887 344.57988027 -224.1484375 346.23046875 C-221.41682647 346.62257078 -219.08858352 346.76842074 -216.35848999 346.73383331 C-215.16812618 346.74255396 -215.16812618 346.74255396 -213.95371461 346.75145078 C-211.27792079 346.76612125 -208.60303418 346.75213305 -205.92724609 346.73840332 C-203.99623328 346.74300945 -202.06522397 346.74936043 -200.13422203 346.7573123 C-194.81495055 346.77406822 -189.49596475 346.76573084 -184.17669201 346.75336742 C-178.44518753 346.74434482 -172.71373337 346.75827276 -166.98223877 346.76928711 C-155.74911851 346.7871068 -144.51610494 346.78321699 -133.28298044 346.77163655 C-124.15647917 346.76261605 -115.03000787 346.76137222 -105.90350342 346.76573181 C-103.9577451 346.76665121 -103.9577451 346.76665121 -101.97267854 346.76758918 C-99.33779159 346.76886804 -96.70290465 346.77016489 -94.06801772 346.77147955 C-70.04541931 346.78256979 -46.02287864 346.77105384 -22.00028953 346.75010916 C-0.06070867 346.73112608 21.87877933 346.73282456 43.81835938 346.75195312 C68.45574439 346.77336192 93.09307326 346.78179672 117.73046684 346.76950407 C120.35585403 346.76822983 122.98124122 346.76697234 125.60662842 346.76573181 C126.89848922 346.76511471 128.19035003 346.76449761 129.52135813 346.76386181 C138.64065522 346.76040295 147.75991943 346.76624877 156.87921143 346.77565002 C167.98720702 346.78684936 179.0950895 346.78387351 190.20307207 346.76252705 C195.87440501 346.75198881 201.54554911 346.74794196 207.2168808 346.76112366 C212.4031818 346.77299602 217.58911797 346.76657051 222.77538562 346.74521345 C224.65688233 346.74072543 226.53840953 346.74306256 228.41988683 346.7527166 C230.96757454 346.76479165 233.51399471 346.75249726 236.06161499 346.73383331 C236.80079721 346.74319798 237.53997943 346.75256264 238.30156112 346.76221108 C241.68947514 346.71223076 243.54901873 346.45380291 246.30718422 344.41775846 C248.56924407 341.2140225 248.39780917 339.05419547 247.8515625 335.23046875 C245.98447745 332.86549436 244.53094819 331.5701616 241.8515625 330.23046875 C239.34956289 330.13121491 236.87531776 330.09303905 234.37297344 330.09904099 C233.58875835 330.09698835 232.80454325 330.09493572 231.99656406 330.09282088 C229.34084886 330.08711873 226.685185 330.08861207 224.02946472 330.09002686 C222.11739409 330.08744506 220.20532401 330.08443242 218.29325467 330.08102345 C213.0170935 330.0729284 207.74094591 330.07116249 202.46477926 330.07042599 C196.78299872 330.06857978 191.1012253 330.06103466 185.41944885 330.05429077 C172.98574476 330.04068928 160.55204388 330.03467995 148.11833358 330.03028011 C140.36023817 330.02752083 132.60214402 330.02328407 124.84404945 330.01877594 C103.38006613 330.00658105 81.91608444 329.99624667 60.45209789 329.99290085 C59.06356904 329.99267921 57.67504018 329.99245743 56.28651132 329.9922355 C54.89458973 329.99201485 53.50266815 329.99179437 52.11074656 329.99157405 C49.31821581 329.99113149 46.52568505 329.99068438 43.7331543 329.99023438 C43.04076686 329.99012498 42.34837941 329.99001559 41.63501053 329.98990289 C19.17847108 329.98627132 -3.27803611 329.97034807 -25.73456321 329.94704401 C-49.46572647 329.92246215 -73.19686756 329.90873551 -96.9280445 329.90753293 C-109.86871746 329.90661478 -122.80934818 329.90082736 -135.75000954 329.88271332 C-146.76760194 329.86734591 -157.78513906 329.86217195 -168.80274013 329.87045142 C-174.42758025 329.87436983 -180.05230892 329.87337048 -185.67713547 329.85939407 C-190.82217529 329.84672634 -195.96701909 329.84778954 -201.11205836 329.85998479 C-202.97748755 329.86195421 -204.84293029 329.85880643 -206.70834038 329.85014042 C-209.23657619 329.83913495 -211.76410954 329.84647357 -214.29232502 329.85853195 C-215.02303454 329.85093676 -215.75374406 329.84334157 -216.5065963 329.83551621 C-220.88322884 329.88083553 -223.66679889 330.53833874 -227.1484375 333.23046875 Z M-195.1484375 373.23046875 C-196.47212492 374.18563259 -197.79623445 375.14021227 -199.12109375 376.09375 C-202.49626396 378.76913777 -205.84240226 381.47026705 -209.1484375 384.23046875 C-210.08574707 385.00390625 -210.08574707 385.00390625 -211.04199219 385.79296875 C-212.91205322 387.35246778 -214.75223943 388.94095905 -216.5859375 390.54296875 C-217.44747437 391.26190308 -217.44747437 391.26190308 -218.32641602 391.99536133 C-220.12292265 393.53426437 -220.12292265 393.53426437 -222.1484375 396.23046875 C-221.84337948 401.20780271 -219.96372824 405.55942723 -218.03515625 410.09765625 C-217.71315247 410.86981979 -217.39114868 411.64198334 -217.05938721 412.43754578 C-215.99083527 414.99604751 -214.9133807 417.55070012 -213.8359375 420.10546875 C-213.08539158 421.89809361 -212.33548539 423.69098643 -211.58618164 425.48413086 C-209.97651488 429.3339662 -208.36340571 433.18233484 -206.74804688 437.02978516 C-204.01045004 443.55406076 -201.28912228 450.08506447 -198.5703125 456.6171875 C-197.88211174 458.27056122 -197.88211174 458.27056122 -197.18000793 459.95733643 C-196.26627025 462.15263805 -195.35255841 464.34795043 -194.43887329 466.54327393 C-192.26968398 471.75357535 -190.09785298 476.96277468 -187.92578125 482.171875 C-187.54222473 483.09175705 -187.15866821 484.0116391 -186.76348877 484.95939636 C-185.89184899 487.04977217 -185.02016943 489.14013137 -184.1484375 491.23046875 C-181.16717959 488.87751504 -178.4637925 486.64356267 -176.0234375 483.73046875 C-173.07706992 480.28137323 -170.04430913 476.93284821 -166.9609375 473.60546875 C-163.39075278 469.75056057 -159.93350279 465.82475783 -156.55493164 461.80078125 C-140.19744001 442.35849564 -140.19744001 442.35849564 -126.87830734 440.86338806 C-123.06983068 440.72874173 -119.27207154 440.71506845 -115.46240234 440.74804688 C-114.00594213 440.74585677 -112.54948369 440.74185358 -111.09303284 440.7361908 C-107.97572305 440.72767419 -104.85875887 440.73134009 -101.74146652 440.74461365 C-96.80683012 440.76506819 -91.87253687 440.75492316 -86.93789673 440.74035645 C-76.46637889 440.71368307 -65.99497468 440.72031875 -55.5234375 440.73046875 C-44.20900611 440.7414305 -32.89475348 440.74659905 -21.58035243 440.71317434 C-16.68006123 440.69983842 -11.78029112 440.70570552 -6.88003135 440.72653961 C-3.828009 440.73555104 -0.77618579 440.72802928 2.27581978 440.7161274 C3.68507506 440.71400431 5.09436042 440.71867263 6.50356483 440.73083305 C16.1882593 440.80966195 23.33364018 440.07025744 30.59765625 433.09375 C31.20279053 432.52084229 31.8079248 431.94793457 32.43139648 431.35766602 C33.04442627 430.75881592 33.65745605 430.15996582 34.2890625 429.54296875 C34.94011963 428.92156006 35.59117676 428.30015137 36.26196289 427.65991211 C40.53809833 423.56232539 44.73005818 419.38264725 48.88671875 415.1640625 C50.77286742 413.30791222 52.71583915 411.57490018 54.7265625 409.85546875 C58.09713993 406.96832075 61.23660114 403.88799877 64.3515625 400.73046875 C68.02003109 397.01200399 71.78305473 393.49378685 75.7578125 390.10546875 C78.89324958 387.29761465 81.81981085 384.28565214 84.77197266 381.28833008 C88.03906647 377.9898986 91.41400744 374.90713843 95 371.9609375 C97.51562088 369.60984035 99.64724425 366.87565065 101.8515625 364.23046875 C80.4015625 364.23046875 58.9515625 364.23046875 36.8515625 364.23046875 C37.1815625 366.54046875 37.5115625 368.85046875 37.8515625 371.23046875 C38.74442254 380.67136592 36.25055661 389.05585726 30.46484375 396.6328125 C22.89369349 404.13063442 13.71025378 406.53171739 3.42138672 406.52099609 C2.49059296 406.52771332 1.55979919 406.53443054 0.60079956 406.54135132 C-2.4641051 406.56029075 -5.52879053 406.56425274 -8.59375 406.56640625 C-10.7279367 406.57283438 -12.86212252 406.57956275 -14.99630737 406.58657837 C-19.46321661 406.59853908 -23.93004854 406.60226016 -28.39697266 406.60107422 C-34.1249345 406.6008705 -39.85240316 406.62823285 -45.58024788 406.66261864 C-49.98455085 406.68482999 -54.38873375 406.68891362 -58.79308701 406.68785477 C-60.90544213 406.69021711 -63.01780026 406.69907606 -65.13010025 406.7145195 C-68.07943898 406.73407311 -71.02769535 406.72838443 -73.97705078 406.71630859 C-74.85091431 406.72754761 -75.72477783 406.73878662 -76.62512207 406.75036621 C-82.53576167 406.68873925 -82.53576167 406.68873925 -85.69284058 404.32730103 C-88.13593917 400.80794213 -87.54950224 398.44164856 -87.1484375 394.23046875 C-85.1484375 391.23046875 -85.1484375 391.23046875 -82.1484375 390.23046875 C-79.24914197 390.13045577 -76.37315408 390.08679472 -73.47363281 390.08862305 C-72.14384903 390.08341141 -72.14384903 390.08341141 -70.78720093 390.07809448 C-68.86053342 390.07073952 -66.93385746 390.06539275 -65.00717926 390.06180382 C-61.95529819 390.05463757 -58.90357782 390.03896921 -55.85174561 390.02046204 C-47.17397275 389.96800363 -38.49628735 389.92002637 -29.81835938 389.90454102 C-24.51088765 389.89444885 -19.20381944 389.86509174 -13.89650726 389.82322121 C-11.87599492 389.81092293 -9.85542555 389.8057878 -7.83487701 389.80801964 C-5.00308828 389.8103776 -2.17245294 389.7881681 0.65917969 389.76049805 C1.90476151 389.77040016 1.90476151 389.77040016 3.17550659 389.78050232 C8.85119627 389.68971006 12.16425972 388.46497058 16.8515625 385.23046875 C19.65089817 381.84107703 20.82832393 378.41563568 20.9140625 374.04296875 C19.35449294 369.91469638 16.80630206 367.52937166 13.1633358 365.1086607 C9.86462385 363.85555241 6.65632438 363.93090037 3.1756897 363.92939758 C2.39810787 363.92133864 1.62052603 363.9132797 0.81938112 363.90497655 C-1.78888797 363.88058959 -4.3970098 363.87053683 -7.00537109 363.8605957 C-8.87485308 363.84642654 -10.74432952 363.83151053 -12.61380005 363.81590271 C-18.75811144 363.76866086 -24.90243665 363.74296626 -31.046875 363.71875 C-33.16516787 363.70934036 -35.28346036 363.6998459 -37.40175247 363.69026756 C-46.21870506 363.65176513 -55.03564809 363.61855806 -63.85266685 363.59989643 C-76.46870655 363.57312667 -89.08371706 363.51568396 -101.69938409 363.41413146 C-110.57944376 363.34510821 -119.45923092 363.31091376 -128.33955252 363.30233163 C-133.63777166 363.29634557 -138.93493204 363.27557944 -144.23286057 363.21776772 C-149.22541338 363.1641149 -154.21625162 363.1539666 -159.20902634 363.17591286 C-161.0318513 363.17662478 -162.85476166 363.16219179 -164.67731476 363.13070297 C-177.4657514 362.92210267 -185.11895221 365.24448928 -195.1484375 373.23046875 Z " fill="#1F686A" transform="translate(246.1484375,2.76953125)"/>
<path d="M0 0 C3 2.0625 3 2.0625 5 5 C5.63130259 8.928105 5.56689193 11.03491588 3.54296875 14.48046875 C0.04161445 17.9495525 -3.66817834 19.16264851 -8.25 20.8125 C-10.06567542 21.50683972 -11.87946414 22.20613165 -13.69140625 22.91015625 C-14.59133301 23.25965332 -15.49125977 23.60915039 -16.41845703 23.96923828 C-32.67839968 30.4615286 -47.28772273 40.11548813 -60.0078125 52.12890625 C-62 54 -62 54 -65.0625 56.375 C-68.72600462 59.64877009 -71.66591306 63.29523226 -74.71875 67.13671875 C-76.10292476 68.87404768 -77.51317181 70.59157306 -78.96875 72.26953125 C-92.3055237 87.87464966 -100.82983679 107.59735051 -107.11328125 126.96875 C-108.10738702 129.24599669 -109.05757848 130.45929583 -111 132 C-114.90129801 133.01144763 -117.09079221 133.40409235 -120.8125 131.75 C-123 130 -123 130 -125 127 C-125.33079332 119.93740039 -123.07063648 113.40509898 -120.5 106.9375 C-120.14615234 106.03136963 -119.79230469 105.12523926 -119.42773438 104.19165039 C-108.09017757 75.87505984 -89.27681338 49.60656466 -65 31 C-63.50919922 29.78570312 -63.50919922 29.78570312 -61.98828125 28.546875 C-53.8615339 21.97698548 -45.23588146 16.85578938 -36 12 C-35.38979004 11.67370605 -34.77958008 11.34741211 -34.15087891 11.01123047 C-10.05728208 -1.82859674 -10.05728208 -1.82859674 0 0 Z " fill="#1F686A" transform="translate(208,142)"/>
</svg>