<svg version="1.1" xmlns="http://www.w3.org/2000/svg" width="512" height="512">
<path d="M0 0 C0.78944 -0.00570007 1.57888 -0.01140015 2.39224243 -0.01727295 C4.05786832 -0.02666461 5.7235123 -0.03323352 7.38916016 -0.03710938 C9.87307522 -0.04671647 12.35612559 -0.07775416 14.83984375 -0.109375 C29.1892246 -0.20448843 43.0361395 1.64861581 56.9140625 5.390625 C57.6867749 5.59856689 58.4594873 5.80650879 59.25561523 6.02075195 C102.27926539 18.11236605 139.983005 47.48677938 162.70703125 85.90234375 C170.85729285 100.586717 177.46729247 115.50407208 181.7890625 131.765625 C182.03543457 132.68674072 182.28180664 133.60785645 182.53564453 134.55688477 C186.03921417 148.31814119 186.91664009 161.76861391 186.8515625 175.890625 C186.84940735 176.73172821 186.8472522 177.57283142 186.84503174 178.43942261 C186.79506247 190.58354435 186.51179655 202.36827813 183.5390625 214.203125 C183.34038574 215.02409668 183.14170898 215.84506836 182.93701172 216.69091797 C175.32336986 247.44774983 160.82189648 274.20596889 139.1953125 297.29296875 C121.92966279 316.20901145 112.4198313 338.14851185 107.5390625 363.203125 C108.28929687 363.45707031 109.03953125 363.71101563 109.8125 363.97265625 C112.71737785 365.28359683 114.10236341 366.49472355 116.1640625 368.890625 C116.73382813 369.53386719 117.30359375 370.17710937 117.890625 370.83984375 C123.39047804 378.72470415 123.55693734 386.97863427 122.5390625 396.203125 C121.48391731 399.13042017 120.28603952 401.56070596 118.6328125 404.1875 C117.2211015 406.40687199 117.2211015 406.40687199 117.5390625 410.203125 C118.32098287 411.66922569 119.16171479 413.10455743 120.0390625 414.515625 C123.98598034 422.08428847 124.0229696 431.52094953 121.4765625 439.640625 C117.9185854 447.21779846 112.37731122 451.79285725 104.96875 455.390625 C102.34959234 456.2664848 100.28183963 456.35929736 97.5390625 456.203125 C97.3534375 457.399375 97.1678125 458.595625 96.9765625 459.828125 C94.45865599 471.00903851 88.1241466 480.79485348 80.5390625 489.203125 C79.93578125 489.89921875 79.3325 490.5953125 78.7109375 491.3125 C68.21332358 502.69226636 51.31865735 511.27328932 35.75865173 512.40542603 C32.50438539 512.49967699 29.25563469 512.53270491 26 512.5390625 C24.80154449 512.5457193 23.60308899 512.5523761 22.36831665 512.55923462 C19.83849616 512.56932964 17.30864921 512.57405262 14.77880859 512.57373047 C10.94713361 512.5780874 7.11662661 512.61439864 3.28515625 512.65234375 C-20.59966518 512.76395461 -20.59966518 512.76395461 -31.4609375 508.203125 C-32.19086914 507.9153418 -32.92080078 507.62755859 -33.67285156 507.33105469 C-41.35270575 504.08476809 -48.25120479 499.73631096 -54.4609375 494.203125 C-55.12351562 493.63335937 -55.78609375 493.06359375 -56.46875 492.4765625 C-66.5329531 483.20170866 -72.79581212 471.24286756 -76.4609375 458.203125 C-76.4609375 457.543125 -76.4609375 456.883125 -76.4609375 456.203125 C-77.5953125 456.161875 -78.7296875 456.120625 -79.8984375 456.078125 C-87.08995656 455.14895528 -92.50073274 450.77783103 -96.8984375 445.203125 C-102.3487874 437.74965505 -102.40782916 429.09287482 -101.4609375 420.203125 C-100.39904717 417.30605138 -99.18040012 414.86859405 -97.5546875 412.25390625 C-96.14721201 410.0022595 -96.14721201 410.0022595 -96.4609375 406.203125 C-97.24483389 404.75851594 -98.08546882 403.34414746 -98.9609375 401.953125 C-102.90061841 394.34391273 -102.92413325 385.36458155 -100.609375 377.19921875 C-97.95437818 371.28417481 -93.85330323 366.79803549 -88.4609375 363.203125 C-87.8009375 363.203125 -87.1409375 363.203125 -86.4609375 363.203125 C-92.53550024 337.37774933 -100.74266845 316.6528792 -119.09301758 297.03833008 C-146.21162375 267.70156699 -165.42008209 227.22672735 -165.6640625 186.77734375 C-165.67112213 185.99639343 -165.67818176 185.21544312 -165.68545532 184.41082764 C-165.91240397 151.94386886 -165.91240397 151.94386886 -162.4609375 138.203125 C-162.26226074 137.38215332 -162.06358398 136.56118164 -161.85888672 135.71533203 C-154.2176184 104.84689753 -139.52721791 77.17376116 -117.4609375 54.203125 C-117.00170898 53.71279785 -116.54248047 53.2224707 -116.06933594 52.71728516 C-86.94204521 21.69204719 -42.96774862 0.24897211 0 0 Z M-96.3125 58.23046875 C-98.4609375 60.203125 -98.4609375 60.203125 -101.02734375 62.23046875 C-104.6516675 65.16832348 -107.4786007 68.63176118 -110.4609375 72.203125 C-111.09128906 72.945625 -111.72164062 73.688125 -112.37109375 74.453125 C-136.15042199 103.19632892 -148.68141939 138.3793009 -148.7109375 175.578125 C-148.71161224 176.34012207 -148.71228699 177.10211914 -148.71298218 177.88720703 C-148.69698062 189.25518936 -148.21658691 200.13713132 -145.4609375 211.203125 C-145.29464844 211.92242187 -145.12835938 212.64171875 -144.95703125 213.3828125 C-142.17434169 225.29684631 -137.82362561 236.22703255 -132.4609375 247.203125 C-131.89375 248.36714844 -131.3265625 249.53117188 -130.7421875 250.73046875 C-123.14806237 265.50677355 -112.64378522 278.47914518 -101.2734375 290.51953125 C-84.58911483 308.24662409 -74.95701406 332.43158728 -71.0390625 356.1328125 C-70.78552081 359.06655831 -70.78552081 359.06655831 -69.4609375 360.203125 C-67.22163864 360.29749029 -64.97932 360.32054827 -62.73803711 360.31665039 C-61.66734025 360.31683119 -61.66734025 360.31683119 -60.57501316 360.31701565 C-58.25440463 360.31626665 -55.93387549 360.30863905 -53.61328125 360.30078125 C-52.1846114 360.29931179 -50.75594101 360.2982911 -49.32727051 360.29772949 C-44.01765132 360.29247708 -38.70804364 360.27851599 -33.3984375 360.265625 C-21.5390625 360.245 -9.6796875 360.224375 2.5390625 360.203125 C2.5390625 331.163125 2.5390625 302.123125 2.5390625 272.203125 C-9.6709375 271.873125 -21.8809375 271.543125 -34.4609375 271.203125 C-59.61130937 264.91553203 -81.42216307 255.05560853 -95.4609375 232.203125 C-100.7467888 222.96209188 -104.87364322 213.56691962 -107.4609375 203.203125 C-107.6360083 202.51839111 -107.8110791 201.83365723 -107.99145508 201.12817383 C-108.66020225 196.96163204 -108.6437921 192.84670133 -108.6640625 188.6328125 C-108.66976257 187.71476837 -108.67546265 186.79672424 -108.68133545 185.8508606 C-108.6907568 183.91604761 -108.69730801 181.98121878 -108.70117188 180.04638672 C-108.71092664 177.0814256 -108.74199637 174.11714382 -108.7734375 171.15234375 C-108.77996335 169.27083744 -108.78521546 167.38932619 -108.7890625 165.5078125 C-108.8014093 164.6202829 -108.8137561 163.7327533 -108.82647705 162.81832886 C-108.82347595 161.99382233 -108.82047485 161.1693158 -108.81738281 160.31982422 C-108.82285126 159.23325027 -108.82285126 159.23325027 -108.82843018 158.12472534 C-108.33921013 155.56661883 -107.56918267 154.71254092 -105.4609375 153.203125 C-103.30291748 152.81544495 -103.30291748 152.81544495 -100.76855469 152.79907227 C-99.33996124 152.78004601 -99.33996124 152.78004601 -97.88250732 152.76063538 C-96.85135803 152.76357101 -95.82020874 152.76650665 -94.7578125 152.76953125 C-93.6878302 152.7642894 -92.6178479 152.75904755 -91.51544189 152.75364685 C-89.24239976 152.74721434 -86.9693244 152.74857945 -84.69628906 152.75708008 C-81.26564584 152.76549087 -77.83672432 152.73700678 -74.40625 152.70507812 C-62.46129482 152.66690176 -51.76203754 153.11662045 -40.4609375 157.203125 C-38.85641724 157.77015137 -38.85641724 157.77015137 -37.21948242 158.34863281 C-16.76196474 165.90490157 0.24035039 181.53277247 9.5390625 201.203125 C10.1990625 201.203125 10.8590625 201.203125 11.5390625 201.203125 C12.62861508 199.47372436 13.63386518 197.69104531 14.6015625 195.890625 C25.48603957 176.75828332 42.55875041 163.07317779 63.5390625 156.203125 C64.34134277 155.93242187 65.14362305 155.66171875 65.97021484 155.3828125 C76.69048318 152.34098817 87.66296029 152.75025571 98.71728516 152.81201172 C102.19081932 152.82825009 105.66321759 152.81201903 109.13671875 152.79296875 C111.34635673 152.79494844 113.55599401 152.79878643 115.765625 152.8046875 C116.8030484 152.79861481 117.8404718 152.79254211 118.90933228 152.7862854 C119.86818329 152.79574188 120.8270343 152.80519836 121.81494141 152.81494141 C122.65731354 152.81732819 123.49968567 152.81971497 124.36758423 152.82217407 C127.07137805 153.2965112 127.95280792 153.98220329 129.5390625 156.203125 C129.85085567 159.24513366 129.98313143 162.07727175 129.97265625 165.12109375 C129.9778981 166.01113602 129.98313995 166.90117828 129.98854065 167.81819153 C129.99497167 169.71040812 129.99360993 171.60266463 129.98510742 173.49487305 C129.97672593 176.33524168 130.00513058 179.17350886 130.03710938 182.01367188 C130.09405162 196.29481768 128.68420242 209.7942255 121.7265625 222.578125 C121.38036865 223.23893066 121.0341748 223.89973633 120.67749023 224.58056641 C108.98688408 246.44400401 90.98667664 261.18672761 67.4140625 268.640625 C51.23218053 273.32706614 36.22867827 271.72502728 18.5390625 272.203125 C18.5390625 301.243125 18.5390625 330.283125 18.5390625 360.203125 C42.2990625 360.203125 66.0590625 360.203125 90.5390625 360.203125 C91.77685379 355.87085548 92.89313225 351.6898282 93.83105469 347.30615234 C98.7608566 324.67005763 109.51231083 304.88211952 125.125 287.84765625 C153.52384573 256.73759386 169.75543488 219.20063435 169.7890625 176.828125 C169.78973724 176.06646027 169.79041199 175.30479553 169.79110718 174.52005005 C169.7751309 163.17584924 169.38336239 152.23372708 166.5390625 141.203125 C166.36213867 140.50026367 166.18521484 139.79740234 166.00292969 139.07324219 C159.40192353 113.50146877 147.71335257 89.79719535 129.61328125 70.43359375 C127.71426163 68.39152181 125.94068595 66.28860918 124.1640625 64.140625 C119.83037198 59.17929655 114.72324002 55.23602906 109.5390625 51.203125 C108.6109375 50.45933594 107.6828125 49.71554688 106.7265625 48.94921875 C47.19311456 2.43871255 -41.33484735 6.62863688 -96.3125 58.23046875 Z M-93.4609375 168.203125 C-94.06532388 193.45304474 -90.64015125 214.78122788 -72.7109375 233.921875 C-57.8934941 248.94511623 -40.23859116 255.5666411 -19.296875 256.31640625 C-17.01294005 256.32605668 -14.7425367 256.29975744 -12.4609375 256.203125 C-15.1472634 252.6358331 -17.88294157 249.88429776 -21.3984375 247.140625 C-25.75695429 243.65265084 -29.89114359 240.02256309 -33.9609375 236.203125 C-38.7987601 231.67294271 -43.7768667 227.40104073 -48.94140625 223.2421875 C-59.01953125 215.0859375 -59.01953125 215.0859375 -60.4609375 212.203125 C-60.91164173 205.10453345 -60.91164173 205.10453345 -59.4609375 202.203125 C-55.95524261 200.45027756 -53.16921101 200.16554516 -49.4609375 201.203125 C-45.41873801 203.78839676 -41.97892205 206.95322216 -38.4609375 210.203125 C-37.4664679 211.11363314 -36.4716738 212.02378698 -35.4765625 212.93359375 C-33.96031143 214.32363408 -32.44682557 215.71624236 -30.94018555 217.11669922 C-27.73012197 220.09026448 -24.43533555 222.90219304 -21.0234375 225.640625 C-16.11370095 229.58124083 -11.50958287 233.7811548 -6.96313477 238.13061523 C-3.98239174 240.9468261 -1.06858058 243.2462116 2.5390625 245.203125 C2.26302909 224.92721637 -2.86242073 207.68961595 -16.4609375 192.203125 C-17.05519531 191.51347656 -17.64945312 190.82382813 -18.26171875 190.11328125 C-31.30056725 176.01345578 -49.49542583 169.11208886 -68.4609375 168.203125 C-76.79412965 168.00743617 -85.12719446 168.07453312 -93.4609375 168.203125 Z M37.7722168 191.43481445 C24.08951339 206.06193542 18.1214366 225.38487759 18.5390625 245.203125 C24.32091501 241.12766449 29.49710098 236.56372497 34.69140625 231.76953125 C37.36715086 229.35805771 40.10469675 227.08134265 42.9140625 224.828125 C47.16487149 221.40318747 51.18239443 217.80606216 55.1640625 214.078125 C69.43993606 200.83643224 69.43993606 200.83643224 74.9140625 200.578125 C78.5390625 201.203125 78.5390625 201.203125 80.5390625 202.203125 C82.15271406 205.43042812 82.49598515 208.76575811 81.5390625 212.203125 C79.390625 214.6015625 79.390625 214.6015625 76.5390625 217.203125 C75.55644791 218.13452733 74.57470088 219.06684562 73.59375 220 C67.68308802 225.51019052 61.67679993 230.78441327 55.37109375 235.84375 C51.49211084 239.07534404 47.80659652 242.4976896 44.12890625 245.95507812 C41.53184565 248.39146199 38.9108891 250.74660872 36.15234375 253 C35.28996094 253.72703125 34.42757812 254.4540625 33.5390625 255.203125 C33.5390625 255.533125 33.5390625 255.863125 33.5390625 256.203125 C54.73607304 257.10088074 73.68895453 251.83203512 89.7890625 237.765625 C105.59353667 222.96143401 113.34368284 205.75526543 114.5390625 184.203125 C114.71067336 178.86706393 114.66679563 173.5395315 114.5390625 168.203125 C84.84428501 167.74136411 59.66196662 169.15046428 37.7722168 191.43481445 Z M-82.8984375 381.390625 C-84.93292918 385.05271002 -85.37050834 388.16146677 -84.4609375 392.203125 C-81.39871685 397.06665191 -78.92752455 398.77452203 -73.4609375 400.203125 C-70.06063879 400.50360318 -70.06063879 400.50360318 -66.40858459 400.46382141 C-65.37924802 400.46955973 -65.37924802 400.46955973 -64.32911676 400.47541398 C-62.04233005 400.48568742 -59.75579709 400.48176271 -57.46899414 400.4777832 C-55.82431304 400.4821328 -54.17963396 400.48731677 -52.53495789 400.49327087 C-48.07628479 400.50664503 -43.61769655 400.50724134 -39.15900731 400.50470757 C-35.43385209 400.50363686 -31.70871396 400.50852377 -27.98356241 400.513313 C-19.19418807 400.52440255 -10.40485647 400.52484859 -1.61547852 400.51879883 C7.44589789 400.51275769 16.50711907 400.52507487 25.56846899 400.5463689 C33.35463224 400.56399211 41.14074612 400.56998515 48.92692858 400.56673115 C53.57447155 400.56491942 58.22190376 400.56754363 62.86942863 400.58144569 C67.24024309 400.59403125 71.61081572 400.59207307 75.98162651 400.57903481 C77.58318667 400.57667112 79.18476388 400.57939628 80.78630447 400.58765793 C82.97772398 400.59814504 85.16833497 400.5900099 87.35972595 400.5773468 C88.58437026 400.57751454 89.80901457 400.57768229 91.07076931 400.57785511 C96.1915923 400.02457819 100.08413095 398.50883281 103.9765625 395.015625 C106.01105418 391.35353998 106.44863334 388.24478323 105.5390625 384.203125 C102.47684185 379.33959809 100.00564955 377.63172797 94.5390625 376.203125 C91.13876379 375.90264682 91.13876379 375.90264682 87.48670959 375.94242859 C86.45737302 375.93669027 86.45737302 375.93669027 85.40724176 375.93083602 C83.12045505 375.92056258 80.83392209 375.92448729 78.54711914 375.9284668 C76.90243804 375.9241172 75.25775896 375.91893323 73.61308289 375.91297913 C69.15440979 375.89960497 64.69582155 375.89900866 60.23713231 375.90154243 C56.51197709 375.90261314 52.78683896 375.89772623 49.06168741 375.892937 C40.27231307 375.88184745 31.48298147 375.88140141 22.69360352 375.88745117 C13.63222711 375.89349231 4.57100593 375.88117513 -4.49034399 375.8598811 C-12.27650724 375.84225789 -20.06262112 375.83626485 -27.84880358 375.83951885 C-32.49634655 375.84133058 -37.14377876 375.83870637 -41.79130363 375.82480431 C-46.16211809 375.81221875 -50.53269072 375.81417693 -54.90350151 375.82721519 C-56.50506167 375.82957888 -58.10663888 375.82685372 -59.70817947 375.81859207 C-61.89959898 375.80810496 -64.09020997 375.8162401 -66.28160095 375.8289032 C-67.50624526 375.82873546 -68.73088957 375.82856771 -69.99264431 375.82839489 C-75.1134673 376.38167181 -79.00600595 377.89741719 -82.8984375 381.390625 Z M-82.8984375 421.390625 C-84.93292918 425.05271002 -85.37050834 428.16146677 -84.4609375 432.203125 C-81.39871685 437.06665191 -78.92752455 438.77452203 -73.4609375 440.203125 C-70.06063879 440.50360318 -70.06063879 440.50360318 -66.40858459 440.46382141 C-65.37924802 440.46955973 -65.37924802 440.46955973 -64.32911676 440.47541398 C-62.04233005 440.48568742 -59.75579709 440.48176271 -57.46899414 440.4777832 C-55.82431304 440.4821328 -54.17963396 440.48731677 -52.53495789 440.49327087 C-48.07628479 440.50664503 -43.61769655 440.50724134 -39.15900731 440.50470757 C-35.43385209 440.50363686 -31.70871396 440.50852377 -27.98356241 440.513313 C-19.19418807 440.52440255 -10.40485647 440.52484859 -1.61547852 440.51879883 C7.44589789 440.51275769 16.50711907 440.52507487 25.56846899 440.5463689 C33.35463224 440.56399211 41.14074612 440.56998515 48.92692858 440.56673115 C53.57447155 440.56491942 58.22190376 440.56754363 62.86942863 440.58144569 C67.24024309 440.59403125 71.61081572 440.59207307 75.98162651 440.57903481 C77.58318667 440.57667112 79.18476388 440.57939628 80.78630447 440.58765793 C82.97772398 440.59814504 85.16833497 440.5900099 87.35972595 440.5773468 C88.58437026 440.57751454 89.80901457 440.57768229 91.07076931 440.57785511 C96.1915923 440.02457819 100.08413095 438.50883281 103.9765625 435.015625 C106.01105418 431.35353998 106.44863334 428.24478323 105.5390625 424.203125 C102.47684185 419.33959809 100.00564955 417.63172797 94.5390625 416.203125 C91.13876379 415.90264682 91.13876379 415.90264682 87.48670959 415.94242859 C86.45737302 415.93669027 86.45737302 415.93669027 85.40724176 415.93083602 C83.12045505 415.92056258 80.83392209 415.92448729 78.54711914 415.9284668 C76.90243804 415.9241172 75.25775896 415.91893323 73.61308289 415.91297913 C69.15440979 415.89960497 64.69582155 415.89900866 60.23713231 415.90154243 C56.51197709 415.90261314 52.78683896 415.89772623 49.06168741 415.892937 C40.27231307 415.88184745 31.48298147 415.88140141 22.69360352 415.88745117 C13.63222711 415.89349231 4.57100593 415.88117513 -4.49034399 415.8598811 C-12.27650724 415.84225789 -20.06262112 415.83626485 -27.84880358 415.83951885 C-32.49634655 415.84133058 -37.14377876 415.83870637 -41.79130363 415.82480431 C-46.16211809 415.81221875 -50.53269072 415.81417693 -54.90350151 415.82721519 C-56.50506167 415.82957888 -58.10663888 415.82685372 -59.70817947 415.81859207 C-61.89959898 415.80810496 -64.09020997 415.8162401 -66.28160095 415.8289032 C-67.50624526 415.82873546 -68.73088957 415.82856771 -69.99264431 415.82839489 C-75.1134673 416.38167181 -79.00600595 417.89741719 -82.8984375 421.390625 Z M-58.4609375 456.203125 C-55.16109706 466.10264631 -51.21002419 473.21004677 -43.4609375 480.203125 C-42.92339844 480.74453125 -42.38585937 481.2859375 -41.83203125 481.84375 C-27.96302751 495.16262624 -9.97699609 496.39055376 8.19628906 496.38842773 C10.2716956 496.39060677 12.34656238 496.4088098 14.421875 496.42773438 C32.05623509 496.50389628 47.17392507 493.98387113 61.5390625 483.203125 C62.35375 482.59984375 63.1684375 481.9965625 64.0078125 481.375 C70.95016973 475.41828608 76.7350595 466.948477 79.5390625 458.203125 C79.5390625 457.543125 79.5390625 456.883125 79.5390625 456.203125 C33.9990625 456.203125 -11.5409375 456.203125 -58.4609375 456.203125 Z " fill="#1F686A" transform="translate(245.4609375,-0.203125)"/>
<path d="M0 0 C2.5 1.5 2.5 1.5 4 4 C4.54686219 6.77988279 4.72991469 9.25208587 4 12 C1.11619087 15.28610324 -1.97810456 17.34182462 -5.76171875 19.49609375 C-6.88126953 20.13740234 -8.00082031 20.77871094 -9.15429688 21.43945312 C-10.33197001 22.10557704 -11.50970474 22.77159205 -12.6875 23.4375 C-13.84603276 24.09903242 -15.00423887 24.76113724 -16.16210938 25.42382812 C-18.40530708 26.70400449 -20.65156958 27.97882809 -22.90112305 29.24780273 C-24.83648816 30.34211578 -26.76611305 31.44671944 -28.68676758 32.56665039 C-29.47075928 33.01903076 -30.25475098 33.47141113 -31.0625 33.9375 C-32.06023438 34.52144531 -32.06023438 34.52144531 -33.078125 35.1171875 C-36.61308287 36.74096896 -39.16439716 36.58509196 -43 36 C-45.5 34.5 -45.5 34.5 -47 32 C-47.54686219 29.22011721 -47.72991469 26.74791413 -47 24 C-44.11619087 20.71389676 -41.02189544 18.65817538 -37.23828125 16.50390625 C-36.11873047 15.86259766 -34.99917969 15.22128906 -33.84570312 14.56054688 C-32.66802999 13.89442296 -31.49029526 13.22840795 -30.3125 12.5625 C-29.15396724 11.90096758 -27.99576113 11.23886276 -26.83789062 10.57617188 C-24.59469292 9.29599551 -22.34843042 8.02117191 -20.09887695 6.75219727 C-18.16351184 5.65788422 -16.23388695 4.55328056 -14.31323242 3.43334961 C-13.52924072 2.98096924 -12.74524902 2.52858887 -11.9375 2.0625 C-11.27234375 1.67320312 -10.6071875 1.28390625 -9.921875 0.8828125 C-6.38691713 -0.74096896 -3.83560284 -0.58509196 0 0 Z " fill="#1F686A" transform="translate(80,272)"/>
<path d="M0 0 C2.5 1.5 2.5 1.5 4 4 C4.86908241 8.89846451 4.86908241 8.89846451 4 12 C-1.64797764 17.75183013 -8.46613289 21.2995635 -15.5 25.125 C-17.69798232 26.33581833 -19.89590072 27.54675269 -22.09375 28.7578125 C-23.63518677 29.59844238 -23.63518677 29.59844238 -25.20776367 30.45605469 C-27.50840649 31.7281772 -29.76612292 33.04573 -32.01953125 34.3984375 C-36.24841559 36.67083931 -38.28110347 36.61887168 -43 36 C-45.5 34.5 -45.5 34.5 -47 32 C-47.54686219 29.22011721 -47.72991469 26.74791413 -47 24 C-44.11619087 20.71389676 -41.02189544 18.65817538 -37.23828125 16.50390625 C-36.11873047 15.86259766 -34.99917969 15.22128906 -33.84570312 14.56054688 C-32.66802999 13.89442296 -31.49029526 13.22840795 -30.3125 12.5625 C-29.15396724 11.90096758 -27.99576113 11.23886276 -26.83789062 10.57617188 C-24.59469292 9.29599551 -22.34843042 8.02117191 -20.09887695 6.75219727 C-18.16351184 5.65788422 -16.23388695 4.55328056 -14.31323242 3.43334961 C-13.52924072 2.98096924 -12.74524902 2.52858887 -11.9375 2.0625 C-11.27234375 1.67320313 -10.6071875 1.28390625 -9.921875 0.8828125 C-6.38691713 -0.74096896 -3.83560284 -0.58509196 0 0 Z " fill="#1F686A" transform="translate(475,44)"/>
<path d="M0 0 C4.63522935 2.00460674 8.95787963 4.51886582 13.3125 7.0625 C14.48287168 7.72741386 15.65409183 8.39083659 16.82617188 9.05273438 C37.35907688 20.71815376 37.35907688 20.71815376 39 24 C39.56872038 31.0521327 39.56872038 31.0521327 37.5 34.5 C34.02723043 36.58366174 30.90938646 36.56672754 27 36 C23.9883187 34.8585963 21.31434431 33.28761085 18.5625 31.625 C17.79405762 31.17817871 17.02561523 30.73135742 16.23388672 30.27099609 C14.62671973 29.33383713 13.02388163 28.3892179 11.42529297 27.4375 C9.02767249 26.01640181 6.61335282 24.62915714 4.19140625 23.25 C2.66877704 22.37585955 1.14662328 21.5008903 -0.375 20.625 C-1.08197021 20.22104004 -1.78894043 19.81708008 -2.51733398 19.40087891 C-11.41811912 14.19061038 -11.41811912 14.19061038 -12.53125 10 C-12.47744877 6.55672118 -12.30293091 4.50488484 -10.5 1.5 C-6.91101556 -0.65339067 -4.01516269 -0.78066135 0 0 Z " fill="#1F686A" transform="translate(45,44)"/>
<path d="M0 0 C3.0116813 1.1414037 5.68565569 2.71238915 8.4375 4.375 C9.20594238 4.82182129 9.97438477 5.26864258 10.76611328 5.72900391 C12.37328027 6.66616287 13.97611837 7.6107821 15.57470703 8.5625 C17.97232751 9.98359819 20.38664718 11.37084286 22.80859375 12.75 C24.33122296 13.62414045 25.85337672 14.4991097 27.375 15.375 C28.43545532 15.98093994 28.43545532 15.98093994 29.51733398 16.59912109 C38.41811912 21.80938962 38.41811912 21.80938962 39.53125 26 C39.47744877 29.44327882 39.30293091 31.49511516 37.5 34.5 C33.9418136 36.63491184 30.98578674 36.73954872 27 36 C22.73352907 34.17760421 18.79983102 31.8624637 14.8125 29.5 C13.70712891 28.8615918 12.60175781 28.22318359 11.46289062 27.56542969 C8.29706814 25.72910358 5.14651139 23.86917324 2 22 C1.20513184 21.53271484 0.41026367 21.06542969 -0.40869141 20.58398438 C-10.75404534 14.49190932 -10.75404534 14.49190932 -12 12 C-12.56872038 4.9478673 -12.56872038 4.9478673 -10.5 1.5 C-7.02723043 -0.58366174 -3.90938646 -0.56672754 0 0 Z " fill="#1F686A" transform="translate(440,272)"/>
<path d="M0 0 C1.05026367 -0.0038269 2.10052734 -0.00765381 3.18261719 -0.01159668 C5.40170247 -0.01431696 7.62081974 -0.00694777 9.83984375 0.00976562 C13.23770595 0.03117255 16.63345361 0.00996675 20.03125 -0.015625 C22.18750467 -0.01298175 24.34375802 -0.00785682 26.5 0 C27.51674805 -0.00809692 28.53349609 -0.01619385 29.58105469 -0.02453613 C36.61077417 0.06898232 36.61077417 0.06898232 39.88867188 2.43945312 C41.35641689 4.69476864 41.79171277 5.86163257 41.75 8.53125 C41.7603125 9.19125 41.770625 9.85125 41.78125 10.53125 C40.9489357 13.66466854 39.90683918 14.60990886 37.25 16.53125 C33.67231501 17.14709573 30.12279111 17.09135028 26.5 17.0625 C24.92460449 17.06824036 24.92460449 17.06824036 23.31738281 17.07409668 C21.09829753 17.07681696 18.87918026 17.06944777 16.66015625 17.05273438 C13.26229405 17.03132745 9.86654639 17.05253325 6.46875 17.078125 C4.31249533 17.07548175 2.15624198 17.07035682 0 17.0625 C-1.01674805 17.07059692 -2.03349609 17.07869385 -3.08105469 17.08703613 C-10.11077417 16.99351768 -10.11077417 16.99351768 -13.38867188 14.62304688 C-14.85641689 12.36773136 -15.29171277 11.20086743 -15.25 8.53125 C-15.26546875 7.54125 -15.26546875 7.54125 -15.28125 6.53125 C-13.27705847 -1.01394163 -6.37452488 -0.05076385 0 0 Z " fill="#1F686A" transform="translate(470.75,167.46875)"/>
<path d="M0 0 C1.05026367 -0.0038269 2.10052734 -0.00765381 3.18261719 -0.01159668 C5.40170247 -0.01431696 7.62081974 -0.00694777 9.83984375 0.00976562 C13.23770595 0.03117255 16.63345361 0.00996675 20.03125 -0.015625 C22.18750467 -0.01298175 24.34375802 -0.00785682 26.5 0 C27.51674805 -0.00809692 28.53349609 -0.01619385 29.58105469 -0.02453613 C36.61077417 0.06898232 36.61077417 0.06898232 39.88867188 2.43945312 C41.35641689 4.69476864 41.79171277 5.86163257 41.75 8.53125 C41.7603125 9.19125 41.770625 9.85125 41.78125 10.53125 C40.9489357 13.66466854 39.90683918 14.60990886 37.25 16.53125 C33.67231501 17.14709573 30.12279111 17.09135028 26.5 17.0625 C24.92460449 17.06824036 24.92460449 17.06824036 23.31738281 17.07409668 C21.09829753 17.07681696 18.87918026 17.06944777 16.66015625 17.05273438 C13.26229405 17.03132745 9.86654639 17.05253325 6.46875 17.078125 C4.31249533 17.07548175 2.15624198 17.07035682 0 17.0625 C-1.01674805 17.07059692 -2.03349609 17.07869385 -3.08105469 17.08703613 C-10.11077417 16.99351768 -10.11077417 16.99351768 -13.38867188 14.62304688 C-14.85641689 12.36773136 -15.29171277 11.20086743 -15.25 8.53125 C-15.26546875 7.54125 -15.26546875 7.54125 -15.28125 6.53125 C-13.27705847 -1.01394163 -6.37452488 -0.05076385 0 0 Z " fill="#1F686A" transform="translate(14.75,167.46875)"/>
</svg>