<svg version="1.1" xmlns="http://www.w3.org/2000/svg" width="512" height="512">
<path d="M0 0 C0.81082031 0.03222656 1.62164062 0.06445312 2.45703125 0.09765625 C7.59403504 1.67770749 11.02662364 4.92295851 13.69984436 9.56196594 C15.21022893 12.79182643 16.5949819 16.05156868 17.9453125 19.3515625 C18.71172562 21.16060562 18.71172562 21.16060562 19.49362183 23.00619507 C20.84659105 26.20045972 22.1767637 29.40372738 23.50219727 32.60949707 C24.84058567 35.83529944 26.20050783 39.05198477 27.55859375 42.26953125 C30.0086631 48.08329594 32.43853425 53.90525628 34.85699463 59.73223877 C36.96182167 64.80288385 39.07503547 69.87003308 41.1875 74.9375 C44.13468268 75.22604567 47.08192793 75.51389782 50.02929688 75.80053711 C52.71700375 76.06246624 55.40447649 76.32623204 58.09179688 76.59204102 C65.60810027 77.33045841 73.12562305 78.02602483 80.65275574 78.64553833 C84.53813844 78.96629482 88.42242638 79.29942098 92.30673218 79.63293457 C94.21966634 79.79367478 96.13311347 79.94842807 98.04702759 80.0970459 C100.76203869 80.30851387 103.47456581 80.54089674 106.1875 80.77734375 C107.39674385 80.86335091 107.39674385 80.86335091 108.63041687 80.95109558 C115.29253561 81.56537098 119.91188091 83.54518249 124.625 88.5 C126.84446885 93.38283147 126.94719194 97.65922371 126.1875 102.9375 C122.16759941 111.47978875 113.31735574 117.73522626 106.109375 123.51953125 C103.03526504 126.06348054 100.10578622 128.71870232 97.1875 131.4375 C93.45443092 134.911895 89.66376694 138.23820476 85.6875 141.4375 C84.80964844 142.17355469 83.93179688 142.90960938 83.02734375 143.66796875 C80.45618227 145.72277593 77.85555715 147.51162831 75.06860352 149.2512207 C72.2838098 151.54627355 69.82350954 153.70308508 68.1875 156.9375 C67.99641912 160.05377027 68.72856107 162.82058222 69.51171875 165.82421875 C69.71142273 166.69050903 69.91112671 167.55679932 70.11688232 168.44934082 C70.77818731 171.28645701 71.4821434 174.11104489 72.1875 176.9375 C72.65062189 178.88321698 73.11096501 180.82959735 73.56860352 182.77661133 C75.24684447 189.87621673 76.95567139 196.96847185 78.70751953 204.05029297 C85.37387038 231.07730443 85.37387038 231.07730443 82.18334961 238.16967773 C79.72081973 242.19093378 76.68245491 244.4391817 72.1875 245.9375 C60.78986862 247.70609797 50.01048288 238.79532311 40.74124146 233.07339478 C38.95229423 231.9705916 37.15838111 230.87629041 35.36303711 229.78393555 C29.8042056 226.39853953 24.26029783 222.99171414 18.74958801 219.52845764 C17.01930612 218.44377274 15.28444782 217.3668706 13.54760742 216.29272461 C11.38728459 214.95449842 9.23595559 213.60161735 7.0949707 212.23266602 C6.12648193 211.63639404 5.15799316 211.04012207 4.16015625 210.42578125 C3.31718994 209.89509033 2.47422363 209.36439941 1.60571289 208.81762695 C-0.79322464 207.68530622 -0.79322464 207.68530622 -3.2578125 208.57470703 C-6.09212756 210.08666677 -8.88978427 211.62675721 -11.66015625 213.25390625 C-12.22129623 213.58260712 -12.78243622 213.91130798 -13.36058044 214.24996948 C-15.20087708 215.32968951 -17.03797932 216.41471721 -18.875 217.5 C-20.15879022 218.25474745 -21.44264535 219.0093845 -22.7265625 219.76391602 C-29.44037037 223.71772075 -36.12466648 227.71761117 -42.77734375 231.7734375 C-43.73375511 232.35631783 -43.73375511 232.35631783 -44.70948792 232.95097351 C-47.77293023 234.81989382 -50.83249626 236.69481573 -53.88696289 238.57836914 C-55.53619751 239.58951782 -55.53619751 239.58951782 -57.21875 240.62109375 C-58.18103516 241.21462646 -59.14332031 241.80815918 -60.13476562 242.41967773 C-65.18223752 245.28074017 -68.9559883 246.53307746 -74.8125 245.9375 C-79.0873333 244.52856618 -82.12961082 242.62038918 -85.3125 239.4375 C-89.51773738 229.62527944 -85.89449043 218.36860167 -83.49609375 208.43359375 C-83.15601176 206.97851765 -82.81733823 205.52311173 -82.47999573 204.06739807 C-81.59796413 200.27337183 -80.70170076 196.48287881 -79.80078125 192.69329834 C-78.3527891 186.59854147 -76.92001675 180.50029597 -75.50035286 174.39888191 C-75.00284544 172.27491813 -74.49497008 170.15362105 -73.9861908 168.03233337 C-73.68580399 166.74992264 -73.38541718 165.4675119 -73.07592773 164.14624023 C-72.80723373 163.01661362 -72.53853973 161.886987 -72.26170349 160.72312927 C-71.57988161 157.86331214 -71.57988161 157.86331214 -72.8125 154.9375 C-74.38304206 153.52053493 -76.01996664 152.17643184 -77.6875 150.875 C-81.69579587 147.67975639 -85.54400392 144.41820027 -89.3125 140.9375 C-92.89042463 137.64418301 -96.52789666 134.49098679 -100.3125 131.4375 C-105.11725394 127.55805531 -109.69049514 123.47724447 -114.234375 119.296875 C-116.54444636 117.1828097 -118.8837826 115.11322175 -121.25 113.0625 C-129.53554604 105.82962579 -129.53554604 105.82962579 -130.05078125 100.44921875 C-130.20977376 94.3991352 -130.04639759 90.64183066 -125.8125 85.9375 C-118.08788567 79.27782231 -105.06436383 80.280203 -95.30078125 79.4296875 C-93.83672733 79.29846151 -92.37271322 79.16679055 -90.90873718 79.03469849 C-87.09357417 78.69164633 -83.27790791 78.35455888 -79.46209717 78.01879883 C-75.55317934 77.6737532 -71.64477872 77.32294762 -67.73632812 76.97265625 C-60.09554109 76.28869818 -52.454212 75.61105364 -44.8125 74.9375 C-44.5858667 74.4027002 -44.3592334 73.86790039 -44.12573242 73.31689453 C-43.09309564 70.8946861 -42.04674997 68.47864092 -41 66.0625 C-40.64357422 65.22074219 -40.28714844 64.37898438 -39.91992188 63.51171875 C-39.56865234 62.70605469 -39.21738281 61.90039062 -38.85546875 61.0703125 C-38.37630005 59.95487061 -38.37630005 59.95487061 -37.88745117 58.81689453 C-36.8125 56.9375 -36.8125 56.9375 -33.8125 54.9375 C-26.90839041 54.27996575 -26.90839041 54.27996575 -23.3125 56.4375 C-21.23004113 59.90826478 -21.34949855 63.02648957 -21.8125 66.9375 C-22.70254103 70.09631384 -23.95592091 73.01603218 -25.3125 76 C-25.62703125 76.76376953 -25.9415625 77.52753906 -26.265625 78.31445312 C-28.87381706 84.17786952 -32.18365285 88.68669981 -37.8125 91.9375 C-41.7032471 93.09247273 -45.52293126 93.37171037 -49.5625 93.625 C-50.72813477 93.72401611 -51.89376953 93.82303223 -53.09472656 93.92504883 C-55.76602373 94.15093806 -58.43628874 94.36516419 -61.109375 94.56640625 C-66.55753915 94.98513389 -71.99696807 95.49283131 -77.4375 96 C-85.34783593 96.73568117 -93.2588266 97.46200209 -101.171875 98.16796875 C-102.04553711 98.24591675 -102.91919922 98.32386475 -103.81933594 98.4041748 C-105.81703442 98.58220667 -107.81476341 98.75989628 -109.8125 98.9375 C-101.43683581 107.34671629 -92.74935115 115.29399922 -83.4921875 122.7265625 C-79.7300214 125.83062375 -76.17389569 129.14284085 -72.58984375 132.44921875 C-68.92295428 135.7344629 -65.0944764 138.79273797 -61.22265625 141.83203125 C-56.70454177 145.77897405 -54.04775078 149.09216754 -53.54492188 155.17382812 C-53.64291216 161.96447751 -55.55344505 168.57657717 -57.09375 175.15625 C-57.43081171 176.62437859 -57.76710327 178.09268419 -58.10266113 179.56115723 C-58.98275605 183.40320527 -59.87321345 187.24277716 -60.76593018 191.08190918 C-61.67710858 195.0088795 -62.57835598 198.93812665 -63.48046875 202.8671875 C-65.24816016 210.55954058 -67.02681733 218.24930354 -68.8125 225.9375 C-62.61321004 222.5881325 -56.44850953 219.20761662 -50.40625 215.58203125 C-49.08089518 214.79141707 -47.75553699 214.00080855 -46.43017578 213.21020508 C-45.75698303 212.8076651 -45.08379028 212.40512512 -44.39019775 211.99038696 C-42.27422248 210.7271483 -40.15496721 209.469589 -38.03466797 208.21362305 C-31.9445542 204.60425645 -25.86421938 200.9876544 -19.8515625 197.25 C-19.00271484 196.73203857 -18.15386719 196.21407715 -17.27929688 195.68041992 C-15.78254873 194.76617395 -14.29563399 193.83549858 -12.82226562 192.8840332 C-7.56669648 189.71210495 -2.89358772 188.79895008 3.1875 189.9375 C6.89638434 191.36502545 10.17950227 193.30257095 13.5625 195.375 C14.53421143 195.94686035 15.50592285 196.5187207 16.50708008 197.10791016 C19.74929221 199.02651493 22.96910616 200.9792279 26.1875 202.9375 C27.38717813 203.66188288 28.58721881 204.38566561 29.78759766 205.10888672 C35.77140202 208.71527348 41.74247998 212.34126911 47.69921875 215.9921875 C53.81172676 219.72980718 59.98310104 223.35460883 66.1875 226.9375 C65.86313965 225.77335571 65.86313965 225.77335571 65.53222656 224.58569336 C62.31632549 212.80255943 59.51975311 200.92546218 56.75878906 189.02856445 C55.93314894 185.48130623 55.09547703 181.93701337 54.2578125 178.39257812 C53.72842185 176.11736067 53.19975026 173.84197577 52.671875 171.56640625 C52.42193787 170.51731583 52.17200073 169.4682254 51.91448975 168.38734436 C48.90223652 155.24246323 48.90223652 155.24246323 51.5 148.5625 C56.78799278 140.36983513 65.80758634 134.39623381 73.3046875 128.3515625 C77.11029712 125.16475119 80.71521836 121.78620363 84.33569336 118.39257812 C88.61275923 114.4070289 93.05967321 110.69050103 97.65234375 107.0703125 C99.66552123 105.37663776 101.49853588 103.66795938 103.34594727 101.80419922 C103.87994644 101.26656952 104.41394562 100.72893982 104.96412659 100.17501831 C105.36783981 99.76663727 105.77155304 99.35825623 106.1875 98.9375 C105.37841187 98.86677277 104.56932373 98.79604553 103.73571777 98.72317505 C96.085235 98.05325125 88.43533479 97.37714756 80.78600311 96.69421577 C76.854043 96.3433872 72.92190583 95.99489402 68.98925781 95.65185547 C65.18916893 95.32029124 61.38968544 94.98243912 57.5905304 94.64034653 C56.14597626 94.51136253 54.7012229 94.38458878 53.25627136 94.26013565 C32.35786781 92.45613093 32.35786781 92.45613093 27.1875 86.9375 C25.52305051 84.17421366 24.26814555 81.27496197 23 78.3125 C22.5992627 77.40330811 22.19852539 76.49411621 21.78564453 75.55737305 C20.54852588 72.734875 19.32697214 69.90605173 18.10955811 67.07501221 C17.06813139 64.66078007 16.01913875 62.24991448 14.96923828 59.83935547 C12.90911565 55.10837967 10.85676853 50.37410119 8.81015015 45.63726807 C7.9780214 43.711585 7.14470707 41.78641382 6.31021118 39.86175537 C5.12552725 37.12511754 3.94841366 34.38534872 2.7734375 31.64453125 C2.41141739 30.81102646 2.04939728 29.97752167 1.67640686 29.11875916 C1.34797287 28.3484285 1.01953888 27.57809784 0.68115234 26.78442383 C0.39154633 26.11131668 0.10194031 25.43820953 -0.19644165 24.7447052 C-0.8125 22.9375 -0.8125 22.9375 -0.8125 19.9375 C-1.4725 19.9375 -2.1325 19.9375 -2.8125 19.9375 C-2.91820312 20.62585938 -3.02390625 21.31421875 -3.1328125 22.0234375 C-3.93117597 25.44630619 -5.21361601 28.37275107 -6.6875 31.5625 C-7.45707031 33.25246094 -7.45707031 33.25246094 -8.2421875 34.9765625 C-9.6032949 37.54302868 -10.5298954 39.19613154 -12.8125 40.9375 C-16.77523876 41.96487671 -18.92376973 42.34322469 -22.6875 40.625 C-25.44286538 38.43691573 -25.74118389 37.53286932 -26.16015625 34.03515625 C-26.06835616 28.40620782 -23.48114553 23.44108877 -21.25 18.375 C-20.83169922 17.35986328 -20.41339844 16.34472656 -19.98242188 15.29882812 C-17.34898708 9.23598801 -14.66237397 4.34476895 -8.8125 0.9375 C-5.7658869 -0.00728106 -3.18684611 -0.19572756 0 0 Z " fill="#1F686A" transform="translate(257.8125,125.0625)"/>
<path d="M0 0 C2.61221689 0.70808011 3.87624729 1.77530725 5.86488342 3.60197449 C6.56018158 4.23807648 7.25547974 4.87417847 7.97184753 5.52955627 C11.53916002 8.92076637 15.05126951 12.36014812 18.52674866 15.84538269 C19.67150414 16.98870308 19.67150414 16.98870308 20.83938599 18.15512085 C22.43635279 19.75141212 24.03207744 21.34894697 25.62660217 22.94767761 C28.07590226 25.40237967 30.53055395 27.8516404 32.98573303 30.30046082 C34.54139271 31.85678051 36.09674257 33.41340996 37.65174866 34.97038269 C38.38707321 35.70368301 39.12239777 36.43698334 39.88000488 37.19250488 C40.55483414 37.8704863 41.22966339 38.54846771 41.92494202 39.24699402 C42.52036301 39.8432106 43.115784 40.43942719 43.72924805 41.05371094 C45.88762992 43.40854326 46.13078363 44.63219685 46.49940491 47.88835144 C46.12440491 51.57585144 46.12440491 51.57585144 44.06190491 54.51335144 C41.12440491 56.57585144 41.12440491 56.57585144 37.81190491 57.32585144 C34.01565623 56.55373306 33.15914094 56.03319966 30.41908264 53.54582214 C29.7187088 52.91028412 29.01833496 52.27474609 28.29673767 51.61994934 C24.70868421 48.24370208 21.20081151 44.79483515 17.72206116 41.30632019 C16.95889084 40.5441066 16.19572052 39.78189301 15.40942383 38.99658203 C13.81245702 37.40029076 12.21673238 35.80275591 10.62220764 34.20402527 C8.17290755 31.74932321 5.71825587 29.30006248 3.26307678 26.85124207 C1.70741711 25.29492237 0.15206724 23.73829292 -1.40293884 22.18132019 C-2.1382634 21.44801987 -2.87358795 20.71471954 -3.63119507 19.959198 C-4.30602432 19.28121658 -4.98085358 18.60323517 -5.6761322 17.90470886 C-6.27155319 17.30849228 -6.86697418 16.7122757 -7.48043823 16.09799194 C-10.17014985 13.16346959 -10.22356426 10.47430995 -10.14512634 6.55241394 C-9.87559509 4.57585144 -9.87559509 4.57585144 -8.37559509 2.07585144 C-5.55506515 0.38353347 -3.29937507 -0.17330228 0 0 Z " fill="#1F686A" transform="translate(370.87559509277344,360.4241485595703)"/>
<path d="M0 0 C2.5 1.5 2.5 1.5 4 4 C4.60794827 7.31608149 4.84955876 8.86584653 4 12 C2.69233704 13.86964417 2.69233704 13.86964417 0.97387695 15.74047852 C0.33777496 16.43577667 -0.29832703 17.13107483 -0.95370483 17.84744263 C-4.34491493 21.41475511 -7.78429668 24.9268646 -11.26953125 28.40234375 C-12.03174484 29.16551407 -12.79395844 29.92868439 -13.57926941 30.71498108 C-15.17556068 32.31194789 -16.77309553 33.90767253 -18.37182617 35.50219727 C-20.82652823 37.95149736 -23.27578896 40.40614904 -25.72460938 42.86132812 C-27.28092907 44.4169878 -28.83755852 45.97233766 -30.39453125 47.52734375 C-31.12783157 48.2626683 -31.8611319 48.99799286 -32.61665344 49.75559998 C-33.29463486 50.43042923 -33.97261627 51.10525848 -34.67114258 51.80053711 C-35.26735916 52.3959581 -35.86357574 52.99137909 -36.4778595 53.60484314 C-38.83269182 55.76322501 -40.05634541 56.00637873 -43.3125 56.375 C-47 56 -47 56 -49.9375 53.9375 C-52 51 -52 51 -52.75 47.6875 C-51.97788162 43.89125132 -51.45734822 43.03473603 -48.9699707 40.29467773 C-48.33443268 39.59430389 -47.69889465 38.89393005 -47.0440979 38.17233276 C-43.66785064 34.5842793 -40.21898371 31.0764066 -36.73046875 27.59765625 C-35.58714836 26.45290077 -35.58714836 26.45290077 -34.42073059 25.28501892 C-32.82443932 23.68805211 -31.22690447 22.09232747 -29.62817383 20.49780273 C-27.17347177 18.04850264 -24.72421104 15.59385096 -22.27539062 13.13867188 C-20.71907093 11.5830122 -19.16244148 10.02766234 -17.60546875 8.47265625 C-16.87216843 7.7373317 -16.1388681 7.00200714 -15.38334656 6.24440002 C-14.70536514 5.56957077 -14.02738373 4.89474152 -13.32885742 4.19946289 C-12.73264084 3.6040419 -12.13642426 3.00862091 -11.5221405 2.39515686 C-8.16609856 -0.68090933 -4.33161121 -0.59067426 0 0 Z " fill="#1F686A" transform="translate(147,361)"/>
<path d="M0 0 C3.57632467 2.51103647 4.78325846 4.04272488 5.75 8.3125 C4.97788162 12.10874868 4.45734822 12.96526397 1.9699707 15.70532227 C1.01666367 16.75588303 1.01666367 16.75588303 0.0440979 17.82766724 C-3.33214936 21.4157207 -6.78101629 24.9235934 -10.26953125 28.40234375 C-11.03174484 29.16551407 -11.79395844 29.92868439 -12.57926941 30.71498108 C-14.17556068 32.31194789 -15.77309553 33.90767253 -17.37182617 35.50219727 C-19.82652823 37.95149736 -22.27578896 40.40614904 -24.72460938 42.86132812 C-26.28092907 44.4169878 -27.83755852 45.97233766 -29.39453125 47.52734375 C-30.12783157 48.2626683 -30.8611319 48.99799286 -31.61665344 49.75559998 C-32.29463486 50.43042923 -32.97261627 51.10525848 -33.67114258 51.80053711 C-34.26735916 52.3959581 -34.86357574 52.99137909 -35.4778595 53.60484314 C-38.41238185 56.29455476 -41.10154149 56.34796917 -45.0234375 56.26953125 C-47 56 -47 56 -49.5 54.5 C-51.19231797 51.67947005 -51.74915372 49.42377998 -51.57585144 46.12440491 C-50.86777133 43.51218801 -49.80054419 42.24815762 -47.97387695 40.25952148 C-47.33777496 39.56422333 -46.70167297 38.86892517 -46.04629517 38.15255737 C-42.65508507 34.58524489 -39.21570332 31.0731354 -35.73046875 27.59765625 C-34.58714836 26.45290077 -34.58714836 26.45290077 -33.42073059 25.28501892 C-31.82443932 23.68805211 -30.22690447 22.09232747 -28.62817383 20.49780273 C-26.17347177 18.04850264 -23.72421104 15.59385096 -21.27539062 13.13867188 C-19.71907093 11.5830122 -18.16244148 10.02766234 -16.60546875 8.47265625 C-15.87216843 7.7373317 -15.1388681 7.00200714 -14.38334656 6.24440002 C-13.70536514 5.56957077 -13.02738373 4.89474152 -12.32885742 4.19946289 C-11.73264084 3.6040419 -11.13642426 3.00862091 -10.5221405 2.39515686 C-7.24610581 -0.60757663 -4.31685208 -0.43900191 0 0 Z " fill="#1F686A" transform="translate(412,95)"/>
<path d="M0 0 C3.79624868 0.77211838 4.65276397 1.29265178 7.39282227 3.7800293 C8.44338303 4.73333633 8.44338303 4.73333633 9.51516724 5.7059021 C13.1032207 9.08214936 16.6110934 12.53101629 20.08984375 16.01953125 C21.23459923 17.16285164 21.23459923 17.16285164 22.40248108 18.32926941 C23.99944789 19.92556068 25.59517253 21.52309553 27.18969727 23.12182617 C29.63899736 25.57652823 32.09364904 28.02578896 34.54882812 30.47460938 C36.1044878 32.03092907 37.65983766 33.58755852 39.21484375 35.14453125 C39.9501683 35.87783157 40.68549286 36.6111319 41.44309998 37.36665344 C42.11792923 38.04463486 42.79275848 38.72261627 43.48803711 39.42114258 C44.0834581 40.01735916 44.67887909 40.61357574 45.29234314 41.2278595 C47.98205476 44.16238185 48.03546917 46.85154149 47.95703125 50.7734375 C47.6875 52.75 47.6875 52.75 46.1875 55.25 C43.36697005 56.94231797 41.11127998 57.49915372 37.81190491 57.32585144 C35.19968801 56.61777133 33.93565762 55.55054419 31.94702148 53.72387695 C31.25172333 53.08777496 30.55642517 52.45167297 29.84005737 51.79629517 C26.27274489 48.40508507 22.7606354 44.96570332 19.28515625 41.48046875 C18.52198593 40.71825516 17.75881561 39.95604156 16.97251892 39.17073059 C15.37555211 37.57443932 13.77982747 35.97690447 12.18530273 34.37817383 C9.73600264 31.92347177 7.28135096 29.47421104 4.82617188 27.02539062 C3.2705122 25.46907093 1.71516234 23.91244148 0.16015625 22.35546875 C-0.5751683 21.62216843 -1.31049286 20.8888681 -2.06809998 20.13334656 C-2.74292923 19.45536514 -3.41775848 18.77738373 -4.11303711 18.07885742 C-4.7084581 17.48264084 -5.30387909 16.88642426 -5.91734314 16.2721405 C-8.07572501 13.91730818 -8.31887873 12.69365459 -8.6875 9.4375 C-8.3125 5.75 -8.3125 5.75 -6.25 2.8125 C-3.3125 0.75 -3.3125 0.75 0 0 Z " fill="#1F686A" transform="translate(103.3125,94.25)"/>
<path d="M0 0 C0.66 -0.0103125 1.32 -0.020625 2 -0.03125 C4.94491245 0.75099237 6.095818 2.14551704 8 4.5 C8.50793457 7.38378906 8.50793457 7.38378906 8.51757812 10.765625 C8.53018677 12.03374023 8.54279541 13.30185547 8.55578613 14.60839844 C8.5486263 15.98893795 8.54042231 17.36947239 8.53125 18.75 C8.53394562 20.16959906 8.53782863 21.58919631 8.54284668 23.00878906 C8.54873858 25.98129894 8.54018954 28.95332741 8.52148438 31.92578125 C8.498694 35.73258787 8.51181888 39.53826649 8.53577423 43.34503174 C8.55024114 46.27563956 8.54562235 49.20598074 8.53526306 52.13659668 C8.53259819 53.53999974 8.53585717 54.94342715 8.54518127 56.34680176 C8.55535941 58.30932135 8.5370904 60.27192602 8.51757812 62.234375 C8.51280457 63.90838379 8.51280457 63.90838379 8.50793457 65.61621094 C7.88691177 69.14205633 6.78107437 70.31835804 4 72.5 C2 73.03125 2 73.03125 0 73 C-0.66 73.0103125 -1.32 73.020625 -2 73.03125 C-4.94491245 72.24900763 -6.095818 70.85448296 -8 68.5 C-8.50793457 65.61621094 -8.50793457 65.61621094 -8.51757812 62.234375 C-8.53018677 60.96625977 -8.54279541 59.69814453 -8.55578613 58.39160156 C-8.5486263 57.01106205 -8.54042231 55.63052761 -8.53125 54.25 C-8.53394562 52.83040094 -8.53782863 51.41080369 -8.54284668 49.99121094 C-8.54873858 47.01870106 -8.54018954 44.04667259 -8.52148438 41.07421875 C-8.498694 37.26741213 -8.51181888 33.46173351 -8.53577423 29.65496826 C-8.55024114 26.72436044 -8.54562235 23.79401926 -8.53526306 20.86340332 C-8.53259819 19.46000026 -8.53585717 18.05657285 -8.54518127 16.65319824 C-8.55535941 14.69067865 -8.5370904 12.72807398 -8.51757812 10.765625 C-8.51439575 9.64961914 -8.51121338 8.53361328 -8.50793457 7.38378906 C-7.67108535 2.63259319 -4.87921549 -0.07623774 0 0 Z " fill="#1F686A" transform="translate(256,407.5)"/>
<path d="M0 0 C1.26811523 -0.01260864 2.53623047 -0.02521729 3.84277344 -0.03820801 C5.22331295 -0.03104817 6.60384739 -0.02284418 7.984375 -0.01367188 C9.40397406 -0.0163675 10.82357131 -0.02025051 12.24316406 -0.02526855 C15.21567394 -0.03116045 18.18770241 -0.02261142 21.16015625 -0.00390625 C24.96696287 0.01888413 28.77264149 0.00575925 32.57940674 -0.01819611 C35.51001456 -0.03266301 38.44035574 -0.02804423 41.37097168 -0.01768494 C42.77437474 -0.01502007 44.17780215 -0.01827905 45.58117676 -0.02760315 C47.54369635 -0.03778128 49.50630102 -0.01951228 51.46875 0 C52.58475586 0.00318237 53.70076172 0.00636475 54.85058594 0.00964355 C58.37643133 0.63066636 59.55273304 1.73650375 61.734375 4.51757812 C62.265625 6.51757812 62.265625 6.51757812 62.234375 8.51757812 C62.24984375 9.50757813 62.24984375 9.50757813 62.265625 10.51757812 C61.48338263 13.46249057 60.08885796 14.61339613 57.734375 16.51757812 C54.85058594 17.0255127 54.85058594 17.0255127 51.46875 17.03515625 C50.20063477 17.04776489 48.93251953 17.06037354 47.62597656 17.07336426 C46.24543705 17.06620442 44.86490261 17.05800043 43.484375 17.04882812 C42.06477594 17.05152375 40.64517869 17.05540676 39.22558594 17.0604248 C36.25307606 17.0663167 33.28104759 17.05776767 30.30859375 17.0390625 C26.50178713 17.01627212 22.69610851 17.029397 18.88934326 17.05335236 C15.95873544 17.06781926 13.02839426 17.06320048 10.09777832 17.05284119 C8.69437526 17.05017632 7.29094785 17.0534353 5.88757324 17.0627594 C3.92505365 17.07293753 1.96244898 17.05466853 0 17.03515625 C-1.11600586 17.03197388 -2.23201172 17.0287915 -3.38183594 17.0255127 C-6.90768133 16.40448989 -8.08398304 15.2986525 -10.265625 12.51757812 C-10.796875 10.51757812 -10.796875 10.51757812 -10.765625 8.51757812 C-10.78109375 7.52757812 -10.78109375 7.52757812 -10.796875 6.51757812 C-9.30398497 0.89728626 -5.23640274 0.01493199 0 0 Z " fill="#1F686A" transform="translate(418.265625,247.482421875)"/>
<path d="M0 0 C1.26811523 -0.01260864 2.53623047 -0.02521729 3.84277344 -0.03820801 C5.22331295 -0.03104817 6.60384739 -0.02284418 7.984375 -0.01367188 C9.40397406 -0.0163675 10.82357131 -0.02025051 12.24316406 -0.02526855 C15.21567394 -0.03116045 18.18770241 -0.02261142 21.16015625 -0.00390625 C24.96696287 0.01888413 28.77264149 0.00575925 32.57940674 -0.01819611 C35.51001456 -0.03266301 38.44035574 -0.02804423 41.37097168 -0.01768494 C42.77437474 -0.01502007 44.17780215 -0.01827905 45.58117676 -0.02760315 C47.54369635 -0.03778128 49.50630102 -0.01951228 51.46875 0 C52.58475586 0.00318237 53.70076172 0.00636475 54.85058594 0.00964355 C58.37643133 0.63066636 59.55273304 1.73650375 61.734375 4.51757812 C62.265625 6.51757812 62.265625 6.51757812 62.234375 8.51757812 C62.24984375 9.50757813 62.24984375 9.50757813 62.265625 10.51757812 C61.48338263 13.46249057 60.08885796 14.61339613 57.734375 16.51757812 C54.85058594 17.0255127 54.85058594 17.0255127 51.46875 17.03515625 C50.20063477 17.04776489 48.93251953 17.06037354 47.62597656 17.07336426 C46.24543705 17.06620442 44.86490261 17.05800043 43.484375 17.04882812 C42.06477594 17.05152375 40.64517869 17.05540676 39.22558594 17.0604248 C36.25307606 17.0663167 33.28104759 17.05776767 30.30859375 17.0390625 C26.50178713 17.01627212 22.69610851 17.029397 18.88934326 17.05335236 C15.95873544 17.06781926 13.02839426 17.06320048 10.09777832 17.05284119 C8.69437526 17.05017632 7.29094785 17.0534353 5.88757324 17.0627594 C3.92505365 17.07293753 1.96244898 17.05466853 0 17.03515625 C-1.11600586 17.03197388 -2.23201172 17.0287915 -3.38183594 17.0255127 C-6.90768133 16.40448989 -8.08398304 15.2986525 -10.265625 12.51757812 C-10.796875 10.51757812 -10.796875 10.51757812 -10.765625 8.51757812 C-10.78109375 7.52757812 -10.78109375 7.52757812 -10.796875 6.51757812 C-9.30398497 0.89728626 -5.23640274 0.01493199 0 0 Z " fill="#1F686A" transform="translate(42.265625,247.482421875)"/>
<path d="M0 0 C0.66 -0.0103125 1.32 -0.020625 2 -0.03125 C4.94491245 0.75099237 6.095818 2.14551704 8 4.5 C8.50793457 7.38378906 8.50793457 7.38378906 8.51757812 10.765625 C8.53018677 12.03374023 8.54279541 13.30185547 8.55578613 14.60839844 C8.5486263 15.98893795 8.54042231 17.36947239 8.53125 18.75 C8.53394562 20.16959906 8.53782863 21.58919631 8.54284668 23.00878906 C8.54873858 25.98129894 8.54018954 28.95332741 8.52148438 31.92578125 C8.498694 35.73258787 8.51181888 39.53826649 8.53577423 43.34503174 C8.55024114 46.27563956 8.54562235 49.20598074 8.53526306 52.13659668 C8.53259819 53.53999974 8.53585717 54.94342715 8.54518127 56.34680176 C8.55535941 58.30932135 8.5370904 60.27192602 8.51757812 62.234375 C8.51280457 63.90838379 8.51280457 63.90838379 8.50793457 65.61621094 C7.88691177 69.14205633 6.78107437 70.31835804 4 72.5 C2 73.03125 2 73.03125 0 73 C-0.66 73.0103125 -1.32 73.020625 -2 73.03125 C-4.94491245 72.24900763 -6.095818 70.85448296 -8 68.5 C-8.50793457 65.61621094 -8.50793457 65.61621094 -8.51757812 62.234375 C-8.53018677 60.96625977 -8.54279541 59.69814453 -8.55578613 58.39160156 C-8.5486263 57.01106205 -8.54042231 55.63052761 -8.53125 54.25 C-8.53394562 52.83040094 -8.53782863 51.41080369 -8.54284668 49.99121094 C-8.54873858 47.01870106 -8.54018954 44.04667259 -8.52148438 41.07421875 C-8.498694 37.26741213 -8.51181888 33.46173351 -8.53577423 29.65496826 C-8.55024114 26.72436044 -8.54562235 23.79401926 -8.53526306 20.86340332 C-8.53259819 19.46000026 -8.53585717 18.05657285 -8.54518127 16.65319824 C-8.55535941 14.69067865 -8.5370904 12.72807398 -8.51757812 10.765625 C-8.51439575 9.64961914 -8.51121338 8.53361328 -8.50793457 7.38378906 C-7.67108535 2.63259319 -4.87921549 -0.07623774 0 0 Z " fill="#1F686A" transform="translate(256,31.5)"/>
<path d="M0 0 C1.26555736 0.51945648 2.52624054 1.05090558 3.7824707 1.5925293 C4.45494339 1.87396286 5.12741608 2.15539642 5.82026672 2.44535828 C7.23342609 3.03964617 8.64439125 3.63917607 10.05322266 4.24365234 C12.20675236 5.1661057 14.36776849 6.06888926 16.53051758 6.96948242 C17.9066545 7.55101626 19.28232266 8.13366091 20.6574707 8.7175293 C21.30125168 8.98640457 21.94503265 9.25527985 22.60832214 9.53230286 C25.76052348 10.89609571 28.44190141 12.0567491 30.52075195 14.85424805 C31.54812867 18.8169868 31.92647664 20.96551778 30.20825195 24.72924805 C28.52075195 26.85424805 28.52075195 26.85424805 26.52075195 27.85424805 C20.73597619 28.21668913 16.41526914 27.47804518 11.0637207 25.1862793 C10.39407791 24.90958908 9.72443512 24.63289886 9.03450012 24.3478241 C7.63250715 23.76384205 6.23347634 23.17270095 4.83740234 22.57470703 C2.7048074 21.66527915 0.56055534 20.7890276 -1.58666992 19.91479492 C-2.95402298 19.34056368 -4.32058975 18.76445572 -5.6862793 18.1862793 C-6.32378616 17.92772659 -6.96129303 17.66917389 -7.61811829 17.40278625 C-11.69040401 15.62282739 -13.73517647 13.96815115 -15.47924805 9.85424805 C-15.3560506 6.28152207 -15.24615518 3.85456169 -13.04174805 0.97924805 C-8.73627394 -2.12069331 -4.92043844 -1.62035068 0 0 Z " fill="#1F686A" transform="translate(85.479248046875,175.145751953125)"/>
<path d="M0 0 C2.05938216 1.57885966 2.84571211 2.69142423 4 5 C4.43550976 9.97900974 3.20251811 13.76027129 1.26171875 18.26171875 C0.98028519 18.93419144 0.69885162 19.60666412 0.40888977 20.29951477 C-0.18539813 21.71267414 -0.78492802 23.1236393 -1.3894043 24.5324707 C-2.31185766 26.68600041 -3.21464121 28.84701654 -4.11523438 31.00976562 C-4.69676821 32.38590255 -5.27941287 33.7615707 -5.86328125 35.13671875 C-6.13215652 35.78049973 -6.4010318 36.4242807 -6.67805481 37.08757019 C-8.04184766 40.23977153 -9.20250106 42.92114945 -12 45 C-15.96273876 46.02737671 -18.11126973 46.40572469 -21.875 44.6875 C-24 43 -24 43 -25 41 C-25.36244108 35.21522423 -24.62379713 30.89451718 -22.33203125 25.54296875 C-22.05534103 24.87332596 -21.77865082 24.20368317 -21.49357605 23.51374817 C-20.909594 22.1117552 -20.31845291 20.71272438 -19.72045898 19.31665039 C-18.8110311 17.18405545 -17.93477955 15.03980338 -17.06054688 12.89257812 C-16.48631563 11.52522506 -15.91020767 10.1586583 -15.33203125 8.79296875 C-15.07347855 8.15546188 -14.81492584 7.51795502 -14.54853821 6.86112976 C-11.44353185 -0.24267093 -7.39835956 -1.91809322 0 0 Z " fill="#1F686A" transform="translate(334,71)"/>
<path d="M0 0 C3.33519403 3.50339201 5.15877247 7.18669391 7.015625 11.62109375 C7.27631775 12.24347427 7.5370105 12.8658548 7.80560303 13.50709534 C8.35076329 14.81560092 8.89174284 16.12585548 9.42871094 17.43774414 C10.24854872 19.43396627 11.08817898 21.42103526 11.9296875 23.40820312 C12.45955038 24.6869964 12.98823643 25.96627806 13.515625 27.24609375 C13.99290039 28.39779053 14.47017578 29.5494873 14.96191406 30.73608398 C16.25572313 34.80403635 16.60944409 38.17166773 15.25 42.25 C13.63374549 44.51275631 12.68090941 45.20297288 10 46 C6.29097896 45.86753496 3.89016522 45.7240353 0.96972656 43.34863281 C-2.59734132 39.09538628 -4.34461802 33.83991801 -6.42871094 28.74755859 C-7.24480461 26.76263635 -8.08601389 24.78973619 -8.9296875 22.81640625 C-13.99301834 10.73136205 -13.99301834 10.73136205 -13 4 C-9.08918103 -1.08406466 -6.14710256 -1.48378338 0 0 Z " fill="#1F686A" transform="translate(322,396)"/>
<path d="M0 0 C3.06458538 2.04305692 3.82153128 3.44079802 4.9375 6.9375 C5.01612504 10.79012693 4.52944926 12.08730086 2 15 C-4.63186891 18.60259234 -11.58403399 21.45449536 -18.5625 24.3125 C-19.66013672 24.77978516 -20.75777344 25.24707031 -21.88867188 25.72851562 C-31.95676853 29.83707587 -31.95676853 29.83707587 -38 28 C-40.89479637 26.26312218 -41.01335881 24.94847318 -41.875 21.625 C-42.01997305 17.42078149 -41.54849322 16.27295434 -39 13 C-36.70482724 11.67886991 -34.63635604 10.65322636 -32.20703125 9.66796875 C-31.54217209 9.3864949 -30.87731293 9.10502106 -30.19230652 8.8150177 C-28.78761277 8.22510492 -27.37957 7.64311165 -25.96850586 7.06860352 C-23.82762762 6.19368227 -21.70207581 5.28756219 -19.57617188 4.37695312 C-18.20392707 3.80536229 -16.83090232 3.23563959 -15.45703125 2.66796875 C-14.82964554 2.39929489 -14.20225983 2.13062103 -13.55586243 1.85380554 C-8.77767609 -0.05738227 -5.05698981 -0.36807946 0 0 Z " fill="#1F686A" transform="translate(112,309)"/>
<path d="M0 0 C2.26275631 1.61625451 2.95297288 2.56909059 3.75 5.25 C3.61753496 8.95902104 3.4740353 11.35983478 1.09863281 14.28027344 C-3.15461372 17.84734132 -8.41008199 19.59461802 -13.50244141 21.67871094 C-15.48736365 22.49480461 -17.46026381 23.33601389 -19.43359375 24.1796875 C-31.46134703 29.21863489 -31.46134703 29.21863489 -38.25 28.25 C-41.31458538 26.20694308 -42.07153128 24.80920198 -43.1875 21.3125 C-43.26612504 17.45987307 -42.77944926 16.16269914 -40.25 13.25 C-33.73891782 9.73416652 -26.93789725 6.8756278 -20.125 4 C-18.53751953 3.31164062 -18.53751953 3.31164062 -16.91796875 2.609375 C-15.89058594 2.17625 -14.86320312 1.743125 -13.8046875 1.296875 C-12.88155762 0.90338867 -11.95842773 0.50990234 -11.00732422 0.10449219 C-7.18365419 -1.08045957 -3.81530649 -1.27176883 0 0 Z " fill="#1F686A" transform="translate(438.25,174.75)"/>
<path d="M0 0 C5.14472904 4.18457759 6.98917134 10.29156878 9.42871094 16.25244141 C10.24480461 18.23736365 11.08601389 20.21026381 11.9296875 22.18359375 C16.96863489 34.21134703 16.96863489 34.21134703 16 41 C13.95694308 44.06458538 12.55920198 44.82153128 9.0625 45.9375 C5.20987307 46.01612504 3.91269914 45.52944926 1 43 C-2.51583348 36.48891782 -5.3743722 29.68789725 -8.25 22.875 C-8.70890625 21.81667969 -9.1678125 20.75835937 -9.640625 19.66796875 C-10.2903125 18.12689453 -10.2903125 18.12689453 -10.953125 16.5546875 C-11.34661133 15.63155762 -11.74009766 14.70842773 -12.14550781 13.75732422 C-13.33045957 9.93365419 -13.52176883 6.56530649 -12.25 2.75 C-8.97259873 -1.83836178 -5.13158141 -1.28289535 0 0 Z " fill="#1F686A" transform="translate(187,71)"/>
<path d="M0 0 C2.375 1.5625 2.375 1.5625 4 4 C5.08454729 11.60102209 2.02886362 17.90648965 -0.90722656 24.77392578 C-1.75095174 26.75223158 -2.56820472 28.74002217 -3.3828125 30.73046875 C-7.98503617 41.73434159 -7.98503617 41.73434159 -12 45 C-15.44183926 45.86045982 -17.88676201 46.33096265 -21.3125 45.3125 C-23.431788 43.66416489 -24.14874336 42.55376992 -25 40 C-25.40449293 35.01517952 -24.20580786 31.24735887 -22.26171875 26.73828125 C-21.98028519 26.06580856 -21.69885162 25.39333588 -21.40888977 24.70048523 C-20.81460187 23.28732586 -20.21507198 21.8763607 -19.6105957 20.4675293 C-18.68814234 18.31399959 -17.78535879 16.15298346 -16.88476562 13.99023438 C-16.30323179 12.61409745 -15.72058713 11.2384293 -15.13671875 9.86328125 C-14.86784348 9.21950027 -14.5989682 8.5757193 -14.32194519 7.91242981 C-12.95517559 4.75334817 -11.77723898 2.11077436 -9 0 C-5.41563853 -1.19478716 -3.63093708 -0.96330984 0 0 Z " fill="#1F686A" transform="translate(199,396)"/>
<path d="M0 0 C3.1825248 1.22872837 6.33113215 2.50194873 9.46728516 3.84277344 C11.44559095 4.68649862 13.43338155 5.50375159 15.42382812 6.31835938 C26.42770096 10.92058304 26.42770096 10.92058304 29.69335938 14.93554688 C30.55381919 18.37738614 31.02432202 20.82230888 30.00585938 24.24804688 C28.29724423 26.44483778 27.39527702 27.15341282 24.69335938 27.93554688 C17.18380627 27.72618964 10.69426055 24.78677662 3.86450195 21.89794922 C1.87326201 21.05733962 -0.1250895 20.23575136 -2.125 19.41601562 C-3.40085201 18.88456985 -4.67625943 18.3520552 -5.95117188 17.81835938 C-7.09948486 17.3377002 -8.24779785 16.85704102 -9.4309082 16.36181641 C-12.01709441 15.07915236 -13.58409918 14.21361793 -15.30664062 11.93554688 C-16.33401734 7.97280812 -16.71236531 5.82427714 -14.99414062 2.06054688 C-11.07475914 -2.87497055 -5.42577334 -1.74663111 0 0 Z " fill="#1F686A" transform="translate(411.306640625,310.064453125)"/>
</svg>