<svg version="1.1" xmlns="http://www.w3.org/2000/svg" width="512" height="512">
<path d="M0 0 C0.94467636 0.37013718 1.88935272 0.74027435 2.86265564 1.12162781 C5.9779365 2.34497845 9.08645642 3.58464249 12.1953125 4.82421875 C14.38061548 5.68548413 16.56641498 6.54549064 18.75268555 7.40429688 C23.31246183 9.19652354 27.87003079 10.9942105 32.42626953 12.79541016 C39.09823687 15.42909076 45.78279044 18.02935388 52.47265625 20.6171875 C53.5321347 21.02711441 54.59161316 21.43704132 55.68319702 21.85939026 C59.86967791 23.478425 64.05663635 25.09621899 68.24401855 26.71292114 C77.97948699 30.47284152 87.71009515 34.23556966 97.37109375 38.18359375 C98.690927 38.71892841 100.01082937 39.2540927 101.33081055 39.7890625 C103.6415279 40.73051789 105.94700321 41.68501218 108.24536133 42.65625 C109.7249231 43.25759766 109.7249231 43.25759766 111.234375 43.87109375 C112.4711499 44.38881348 112.4711499 44.38881348 113.73291016 44.91699219 C120.42820044 46.45593606 126.78451649 43.42194062 132.9375 41.03125 C134.35588165 40.49013077 134.35588165 40.49013077 135.80291748 39.93807983 C138.93645544 38.74048022 142.06585051 37.53242502 145.1953125 36.32421875 C147.3987028 35.47964266 149.60232063 34.63565994 151.80615234 33.79223633 C158.35458922 31.2831165 164.8981573 28.76148262 171.44064331 26.2368927 C173.98089071 25.25686853 176.5214466 24.27764547 179.062006 23.29843044 C190.93182912 18.72334097 202.80016066 14.14446289 214.66275024 9.55064392 C217.93536591 8.28530198 221.21018381 7.02580829 224.48535156 5.76708984 C228.10306676 4.37541815 231.70887403 2.95993267 235.30371094 1.51025391 C236.04076263 1.21862869 236.77781433 0.92700348 237.53720093 0.62654114 C239.41566045 -0.11700704 241.28893362 -0.87362366 243.16162109 -1.6315918 C246.74132481 -2.60246677 248.79596274 -2.62668292 252.3203125 -1.48828125 C254.37339977 0.30427575 255.223931 1.7799127 255.58101821 4.49120677 C255.67873511 7.10158186 255.66954749 9.69485341 255.63156128 12.30683899 C255.62777299 13.81517179 255.62777299 13.81517179 255.62390816 15.35397595 C255.61209078 18.73401081 255.57901722 22.11351502 255.54638672 25.4934082 C255.53412404 27.91297215 255.52336213 30.3325441 255.51399231 32.75212097 C255.49180137 37.96972776 255.46139857 43.18722282 255.42535019 48.40474892 C255.36955472 56.66337741 255.349506 64.92191878 255.33596802 73.18070984 C255.33347103 74.5887095 255.33094745 75.99670912 255.32839763 77.40470868 C255.32453903 79.53875304 255.3206819 81.6727974 255.31689253 83.80684188 C255.3023711 91.85341808 255.28303885 99.89997763 255.25976562 107.9465332 C255.2576497 108.682009 255.25553377 109.4174848 255.25335373 110.17524775 C255.21792657 122.06997476 255.14533154 133.96423867 255.06153809 145.85871003 C254.97655301 158.08685025 254.94168945 170.31446671 254.95014012 182.54289979 C254.95358742 190.07557684 254.91723846 197.60588956 254.82855435 205.13805505 C254.76437688 210.9260691 254.76906221 216.71249858 254.79839134 222.50071907 C254.7996373 224.86336679 254.77886228 227.22615223 254.73364067 229.58836746 C254.52430176 241.14366826 254.43370055 250.24975162 262.55593872 259.11515808 C264.21791956 260.77970492 265.91412123 262.38033665 267.66205049 263.95415819 C270.38219754 266.50911859 272.70697666 269.38059721 275.0703125 272.26171875 C275.96385469 273.32505067 276.85837957 274.38755762 277.75390625 275.44921875 C279.02427734 276.96515625 279.02427734 276.96515625 280.3203125 278.51171875 C281.54427734 279.96578125 281.54427734 279.96578125 282.79296875 281.44921875 C285.00591646 284.10918928 287.17106395 286.8001668 289.3203125 289.51171875 C289.94421875 290.25808594 290.568125 291.00445312 291.2109375 291.7734375 C295.18215536 296.94158784 295.97454934 301.04058684 295.921875 307.51953125 C294.3872344 315.15287346 289.69499247 319.42856893 283.9453125 324.19921875 C282.97464844 325.03163086 282.97464844 325.03163086 281.984375 325.88085938 C274.02206649 332.63116327 268.08100957 336.390143 257.3203125 335.51171875 C247.62924193 332.41057617 240.12222403 321.37032539 234.3203125 313.51171875 C233.9903125 312.52171875 233.6603125 311.53171875 233.3203125 310.51171875 C207.13246438 320.43578482 180.95895628 330.39618204 154.8203125 340.44921875 C153.70789185 340.87682495 152.59547119 341.30443115 151.44934082 341.74499512 C148.27058348 342.96715889 145.09223621 344.19038192 141.9140625 345.4140625 C140.98684387 345.77062424 140.05962524 346.12718597 139.10430908 346.49455261 C137.78327179 347.00372978 137.78327179 347.00372978 136.43554688 347.52319336 C135.58629639 347.84697968 134.7370459 348.17076599 133.86206055 348.50436401 C132.12114369 349.19433045 130.39608284 349.9253066 128.68676758 350.69021606 C120.55960505 354.26628627 115.52909141 353.1924466 107.29296875 350.0078125 C106.65918808 349.76507095 106.02540741 349.52232941 105.37242126 349.27223206 C103.37317389 348.504723 101.3780125 347.7271803 99.3828125 346.94921875 C98.01783685 346.42315632 96.65260453 345.89775936 95.28710938 345.37304688 C91.961844 344.09361099 88.64016148 342.80515403 85.3203125 341.51171875 C85.19986572 342.35589355 85.07941895 343.20006836 84.95532227 344.06982422 C81.09270259 370.27899374 70.28582754 392.25592201 53.3203125 412.51171875 C52.73378906 413.22199219 52.14726562 413.93226563 51.54296875 414.6640625 C30.65328809 439.34325439 -1.55265105 454.66451868 -33.39746094 458.33081055 C-49.19156916 459.58278254 -65.24483234 459.19072172 -80.6796875 455.51171875 C-81.7013501 455.2782373 -81.7013501 455.2782373 -82.74365234 455.04003906 C-116.99632063 446.95495694 -147.18320947 424.17196188 -165.58984375 394.39672852 C-183.45998646 364.52776865 -190.31745731 327.2102558 -182.44555664 293.01196289 C-181.89490076 290.83250764 -181.29956995 288.67239364 -180.6796875 286.51171875 C-180.49776855 285.84624023 -180.31584961 285.18076172 -180.12841797 284.49511719 C-175.9802122 269.61495815 -168.02738083 250.60664417 -156.72096539 239.6059618 C-150.49414028 233.17804101 -149.67107467 227.38733363 -149.67640686 218.83656311 C-149.70324212 217.17122259 -149.73080841 215.50589372 -149.7590332 213.84057617 C-149.75961363 212.06398288 -149.75659629 210.28738536 -149.75027466 208.51080322 C-149.74421161 204.7023175 -149.76302304 200.89507644 -149.80147743 197.08678246 C-149.8618016 191.06493522 -149.86406574 185.0439005 -149.85844421 179.02180481 C-149.85584148 168.41820001 -149.9014837 157.81522241 -149.95825195 147.21179199 C-150.04359911 131.23141768 -150.09377684 115.25102775 -150.09380025 99.27042276 C-150.09567272 93.2836163 -150.1239907 87.29768707 -150.17322314 81.31108987 C-150.19920877 77.59169395 -150.20487357 73.87246268 -150.2052803 70.15298462 C-150.20981372 68.42798153 -150.22299094 66.70297635 -150.24542427 64.97811317 C-150.27494503 62.62386428 -150.27375958 60.27153282 -150.26509094 57.91716003 C-150.27271611 56.60000094 -150.28034128 55.28284185 -150.28819752 53.92576885 C-149.5209257 49.62098443 -148.05311525 48.20545835 -144.6796875 45.51171875 C-142.15066467 44.31141384 -139.78853171 43.3257676 -137.1640625 42.41015625 C-136.41722702 42.13624054 -135.67039154 41.86232483 -134.90092468 41.58010864 C-133.27333857 40.98456394 -131.64348608 40.39518497 -130.01168823 39.8112793 C-125.50110849 38.19613488 -121.00797464 36.53341231 -116.51171875 34.87890625 C-115.55689102 34.52902649 -114.60206329 34.17914673 -113.61830139 33.81866455 C-103.43696657 30.07894207 -93.32739887 26.15907814 -83.22149658 22.22091675 C-80.11923873 21.01251775 -77.01563816 19.80763196 -73.91162109 18.60375977 C-64.91830059 15.11427645 -55.92917978 11.61499515 -46.95527649 8.07583618 C-43.33963969 6.65172222 -39.72058178 5.23644934 -36.1008606 3.82275391 C-34.42244305 3.16452728 -32.74569504 2.5020252 -31.07077026 1.83496094 C-28.77518501 0.9209166 -26.47437842 0.02144523 -24.171875 -0.875 C-23.51062119 -1.14273727 -22.84936737 -1.41047455 -22.16807556 -1.68632507 C-13.79273703 -4.90373141 -7.93313243 -3.20238329 0 0 Z M-6.6796875 13.51171875 C-6.6796875 72.91171875 -6.6796875 132.31171875 -6.6796875 193.51171875 C-2.3896875 195.49171875 1.9003125 197.47171875 6.3203125 199.51171875 C39.3610453 214.84020483 63.90211856 240.40391075 77.3203125 274.51171875 C83.32297879 291.62801721 85.55154949 308.48624934 86.3203125 326.51171875 C90.465037 328.18115251 94.61127144 329.84680264 98.7578125 331.51171875 C99.94181641 331.98867188 101.12582031 332.465625 102.34570312 332.95703125 C104.03276367 333.63378906 104.03276367 333.63378906 105.75390625 334.32421875 C107.31709595 334.95263672 107.31709595 334.95263672 108.91186523 335.59375 C111.04647427 336.57107756 111.04647427 336.57107756 112.3203125 336.51171875 C112.3203125 306.81171875 112.3203125 277.11171875 112.3203125 246.51171875 C106.7103125 243.87171875 101.1003125 241.23171875 95.3203125 238.51171875 C73.46468852 223.79704122 58.23894592 203.66635838 53.015625 177.3984375 C48.90827649 152.28688604 54.1215084 127.60937682 68.3203125 106.51171875 C79.83257747 90.92553098 94.51107074 80.88106017 112.3203125 73.51171875 C112.3203125 68.89171875 112.3203125 64.27171875 112.3203125 59.51171875 C106.64918993 56.57139185 100.95595589 54.09996699 94.98046875 51.8515625 C93.63128105 51.3378006 93.63128105 51.3378006 92.25483704 50.81365967 C90.31263127 50.07447917 88.36973156 49.3371199 86.4262085 48.60140991 C81.18324094 46.61648883 75.9454863 44.61788651 70.70703125 42.62109375 C69.61771301 42.20627243 68.52839478 41.79145111 67.40606689 41.36405945 C55.14961352 36.69284546 42.92154933 31.94883955 30.6953125 27.19921875 C28.63159488 26.39769714 26.56787425 25.59618328 24.50415039 24.79467773 C23.52364212 24.41380508 22.54313385 24.03293243 21.53291321 23.64051819 C18.7627792 22.56480547 15.99224496 21.49012872 13.22167969 20.41552734 C10.18351667 19.2368727 7.14757999 18.05286975 4.11425781 16.86181641 C2.93702148 16.40210449 1.75978516 15.94239258 0.546875 15.46875 C-0.43458496 15.08307861 -1.41604492 14.69740723 -2.42724609 14.30004883 C-4.59657288 13.40160498 -4.59657288 13.40160498 -6.6796875 13.51171875 Z M-25.87768555 15.01782227 C-26.75413727 15.35036011 -27.63058899 15.68289795 -28.53359985 16.0255127 C-29.49317596 16.39349976 -30.45275208 16.76148682 -31.44140625 17.140625 C-32.44287689 17.52174438 -33.44434753 17.90286377 -34.47616577 18.29553223 C-37.77444977 19.55177405 -41.07085341 20.8128702 -44.3671875 22.07421875 C-46.64697514 22.94413584 -48.92684228 23.8138446 -51.20678711 24.68334961 C-56.95454747 26.87660504 -62.70057868 29.07434971 -68.44592285 31.27392578 C-71.45156254 32.42439901 -74.45762208 33.57376612 -77.46386719 34.72265625 C-81.76866478 36.36811099 -86.07250308 38.01604623 -90.37539673 39.66647339 C-91.90922263 40.25474818 -93.44320927 40.84260414 -94.97738647 41.42996216 C-108.60345297 46.65004859 -122.12887286 52.09139289 -135.6796875 57.51171875 C-135.6796875 110.31171875 -135.6796875 163.11171875 -135.6796875 217.51171875 C-132.7096875 215.53171875 -129.7396875 213.55171875 -126.6796875 211.51171875 C-103.9316164 196.38468284 -78.78096168 188.08847103 -51.3894043 188.25097656 C-49.24824608 188.26168844 -47.1079297 188.25102171 -44.96679688 188.23828125 C-43.55989404 188.23960352 -42.15299172 188.2421673 -40.74609375 188.24609375 C-39.50802979 188.24834961 -38.26996582 188.25060547 -36.99438477 188.25292969 C-31.18435565 188.60140651 -25.4324756 189.62667443 -19.6796875 190.51171875 C-19.6796875 132.10171875 -19.6796875 73.69171875 -19.6796875 13.51171875 C-22.07900819 13.51171875 -23.63218346 14.16117644 -25.87768555 15.01782227 Z M235.79956055 16.21386719 C234.82445526 16.59047989 233.84934998 16.96709259 232.84469604 17.3551178 C231.76801666 17.77288986 230.69133728 18.19066193 229.58203125 18.62109375 C228.45813995 19.05558334 227.33424866 19.49007294 226.17630005 19.93772888 C223.09488235 21.12924982 220.01402432 22.32219752 216.93341446 23.51580429 C211.7557192 25.52147205 206.57676179 27.5238809 201.39793205 29.52661705 C200.0641604 30.04243644 198.73041659 30.55832783 197.39669991 31.07428932 C187.66165824 34.84020038 177.91967209 38.58754936 168.171875 42.3203125 C165.78425812 43.23534388 163.39664413 44.15038279 161.0090332 45.06542969 C157.58913808 46.37593357 154.16888097 47.68544723 150.74740601 48.99182129 C147.58969241 50.19761543 144.4333953 51.40705113 141.27734375 52.6171875 C139.88891769 53.14547401 139.88891769 53.14547401 138.47244263 53.68443298 C133.95462518 55.42047978 129.60045734 57.24968923 125.3203125 59.51171875 C125.3203125 62.81171875 125.3203125 66.11171875 125.3203125 69.51171875 C126.59539673 69.48029785 126.59539673 69.48029785 127.89624023 69.44824219 C155.69590336 68.85375795 179.00670155 71.10474946 201.3203125 89.51171875 C202.57714844 90.50751953 202.57714844 90.50751953 203.859375 91.5234375 C220.19245162 105.20175708 230.23240288 125.63982624 233.3203125 146.51171875 C234.60459586 167.59522303 233.31763509 187.88246379 221.3828125 206.01171875 C218.74748235 210.66774933 218.98396081 214.39007843 220.13671875 219.53515625 C221.86627975 223.88474529 224.50722081 226.70287751 227.796875 229.9765625 C231.35072674 233.54691819 234.36470309 237.49946126 237.47265625 241.45703125 C238.38724609 242.47410156 238.38724609 242.47410156 239.3203125 243.51171875 C239.9803125 243.51171875 240.6403125 243.51171875 241.3203125 243.51171875 C241.3203125 167.94171875 241.3203125 92.37171875 241.3203125 14.51171875 C239.3996399 14.51171875 237.56325146 15.530936 235.79956055 16.21386719 Z M82.1328125 110.07421875 C68.70948738 126.89072145 62.54458106 148.0157779 64.9453125 169.44921875 C67.85136263 190.83918914 78.48667898 209.47147117 95.63671875 222.6015625 C113.38960682 235.23789767 133.61425416 240.63505427 155.3203125 237.51171875 C162.22925299 236.16517686 168.95064799 234.29540642 175.3203125 231.26171875 C179.17052646 229.44857859 182.01608664 228.78081247 186.3203125 229.51171875 C188.63128819 230.98931161 190.33790807 232.57766564 192.3203125 234.51171875 C193.44179688 233.48111328 193.44179688 233.48111328 194.5859375 232.4296875 C195.58064352 231.51943765 196.57543998 230.60928662 197.5703125 229.69921875 C198.06144531 229.24740234 198.55257812 228.79558594 199.05859375 228.33007812 C201.71538898 225.90353848 204.39496326 223.60821904 207.3203125 221.51171875 C206.23246282 218.2618874 206.23246282 218.2618874 204.3203125 215.51171875 C203.64519369 210.0538305 205.58686227 206.83639173 208.5078125 202.44921875 C220.21764856 183.81743619 223.78649829 163.48403766 219.42578125 141.93359375 C216.8577527 130.77679988 211.51941348 120.37098977 204.3203125 111.51171875 C203.65386719 110.68285156 202.98742187 109.85398437 202.30078125 109 C190.24660151 94.81733447 174.53454589 85.98241871 156.3203125 82.51171875 C155.1653125 82.28484375 154.0103125 82.05796875 152.8203125 81.82421875 C125.50632011 79.38546943 100.36165755 89.50046867 82.1328125 110.07421875 Z M-132.6796875 233.51171875 C-133.55238281 234.30191406 -134.42507812 235.09210938 -135.32421875 235.90625 C-146.94451037 246.94095212 -155.21941439 259.94368847 -161.6796875 274.51171875 C-162.16179687 275.589375 -162.64390625 276.66703125 -163.140625 277.77734375 C-168.16781397 289.90353291 -171.2058205 303.38165392 -171.6796875 316.51171875 C-171.73125 317.44113281 -171.7828125 318.37054688 -171.8359375 319.328125 C-172.8629631 352.83483533 -159.4959349 383.84190443 -136.97265625 408.1484375 C-116.39872678 429.35325408 -87.49073793 444.02752107 -57.60546875 444.8125 C-55.06777903 444.83184139 -52.52992682 444.83527818 -49.9921875 444.82421875 C-49.33016327 444.82239594 -48.66813904 444.82057312 -47.98605347 444.81869507 C-37.84710331 444.77170375 -28.45692475 444.26399439 -18.6796875 441.51171875 C-17.45121094 441.17140625 -16.22273437 440.83109375 -14.95703125 440.48046875 C17.19654809 430.63821489 42.85497518 408.96989066 59.10400391 379.80371094 C74.17209548 351.40964356 76.94862072 317.05649782 67.67089844 286.36328125 C57.84765081 255.59235127 36.063741 229.67691934 7.54296875 214.5703125 C-38.87201074 190.71401121 -94.31457672 198.22711201 -132.6796875 233.51171875 Z M208.1953125 238.01171875 C207.47085937 238.66140625 206.74640625 239.31109375 206 239.98046875 C205.44570313 240.48578125 204.89140625 240.99109375 204.3203125 241.51171875 C206.04766894 245.6758816 208.91985936 248.81535675 211.8203125 252.19921875 C212.56861328 253.08963867 212.56861328 253.08963867 213.33203125 253.99804688 C215.95313105 257.20134803 215.95313105 257.20134803 219.3203125 259.51171875 C223.7753125 256.04671875 223.7753125 256.04671875 228.3203125 252.51171875 C225.90117728 248.15727536 222.96543784 244.48008594 219.7578125 240.69921875 C219.26345703 240.10173828 218.76910156 239.50425781 218.25976562 238.88867188 C216.99322499 237.38904663 215.66135812 235.94510554 214.3203125 234.51171875 C211.37676893 234.51171875 210.34452413 236.07049534 208.1953125 238.01171875 Z M177.1953125 244.4375 C175.90107274 244.89248532 174.60948952 245.35508037 173.3203125 245.82421875 C156.9816975 251.76092047 143.65681408 250.51171875 125.3203125 250.51171875 C125.3203125 278.89171875 125.3203125 307.27171875 125.3203125 336.51171875 C135.4889999 332.92277025 145.59693448 329.32941484 155.640625 325.4296875 C156.82719696 324.97120926 158.01376892 324.51273102 159.23629761 324.0403595 C162.34823468 322.83735294 165.45932116 321.63219831 168.57000732 320.42596436 C171.66827239 319.2252795 174.76782013 318.0279141 177.8671875 316.83007812 C192.69942205 311.09433326 207.51647825 305.32035644 222.3203125 299.51171875 C220.50350053 295.64521018 218.02778631 292.60725407 215.2578125 289.38671875 C210.44024493 283.75158361 210.44024493 283.75158361 209.3203125 281.51171875 C209.44599609 280.30708984 209.44599609 280.30708984 209.57421875 279.078125 C210.07903709 274.16413383 210.19930443 270.81871078 207.37890625 266.625 C205.64516532 264.76950016 203.86405175 262.95735704 202.04296875 261.1875 C199.44050368 258.62984064 197.39431925 256.02216645 195.2578125 253.07421875 C191.58008931 248.35534786 187.92582949 246.36084158 182.3203125 244.51171875 C180.19178 243.1629305 180.19178 243.1629305 177.1953125 244.4375 Z M237.3203125 262.01171875 C232.19492154 266.7883329 226.85565337 271.21312432 221.3203125 275.51171875 C225.20832472 280.97018296 229.45966465 285.94462186 233.9765625 290.890625 C237.05321365 294.33134654 239.94220168 297.90760642 242.84375 301.49609375 C246.27016137 305.66831706 249.79647304 309.75197398 253.33520508 313.82910156 C255.49033372 316.32275627 257.48941441 318.76537161 259.3203125 321.51171875 C264.89648417 321.63293987 267.33089245 319.95639874 271.4453125 316.19921875 C272.65574219 315.02939453 272.65574219 315.02939453 273.890625 313.8359375 C276.3203125 311.51171875 276.3203125 311.51171875 279.0625 309.46875 C281.36299082 307.70965328 281.36299082 307.70965328 282.36328125 305.56640625 C282.29647295 302.37175459 280.70464794 301.01589453 278.6328125 298.63671875 C277.80394531 297.66992188 276.97507812 296.703125 276.12109375 295.70703125 C275.66814941 295.19043945 275.21520508 294.67384766 274.74853516 294.14160156 C272.76339685 291.87616851 270.80782035 289.58585962 268.84936523 287.29736328 C267.82558732 286.10178422 266.80034553 284.90745721 265.77368164 283.71435547 C260.3952143 277.4604832 255.12921514 271.11623458 250.05859375 264.609375 C249.34058594 263.69027344 248.62257813 262.77117187 247.8828125 261.82421875 C247.24472656 260.99535156 246.60664063 260.16648437 245.94921875 259.3125 C245.41167969 258.71824219 244.87414062 258.12398438 244.3203125 257.51171875 C241.06749184 257.51171875 239.62836763 259.83480312 237.3203125 262.01171875 Z " fill="#1F686A" transform="translate(200.6796875,28.48828125)"/>
<path d="M0 0 C18.95751292 17.07181866 32.58039304 40.94949919 34.17700195 66.87402344 C34.87092089 100.6797634 27.09385704 127.12670815 3.3125 152.0625 C-17.21075696 172.02347594 -43.49494493 180.43857717 -71.64746094 180.36572266 C-81.53204718 180.21921465 -90.59469418 179.03284509 -100 176 C-100.97235596 175.68651611 -100.97235596 175.68651611 -101.96435547 175.36669922 C-117.62095347 170.10049657 -130.34940441 161.54484132 -142 150 C-142.67675781 149.37222656 -143.35351562 148.74445313 -144.05078125 148.09765625 C-162.62679452 130.59254397 -170.90491095 104.20044159 -172.12890625 79.38671875 C-172.69014218 54.13110195 -164.05547852 30.34395002 -148 11 C-147.30261719 10.13890625 -146.60523438 9.2778125 -145.88671875 8.390625 C-128.47822921 -12.10492759 -103.0731976 -23.35763188 -76.61914062 -25.82836914 C-48.29681367 -27.68431581 -21.34286347 -18.714588 0 0 Z M-135.3125 17.3125 C-152.03649421 36.61150142 -159.60102124 60.72165351 -158 86 C-155.45916724 106.99416901 -146.67228753 124.85694389 -132 140 C-131.41089844 140.67417969 -130.82179688 141.34835937 -130.21484375 142.04296875 C-115.4538742 158.2962561 -92.92096372 165.67627832 -71.59228516 166.87475586 C-47.84462235 167.79454135 -25.42802936 158.89348589 -8 143 C-7.22140625 142.31421875 -6.4428125 141.6284375 -5.640625 140.921875 C11.0279713 125.40283706 19.83409527 102.47493453 20.99389648 80.07910156 C21.69070531 54.99398373 12.04336752 33.7125475 -4.46484375 15.2421875 C-20.00369087 -1.14091416 -41.19587214 -11.00527503 -63.83984375 -12.203125 C-91.26474189 -12.72693388 -116.29132798 -2.70057363 -135.3125 17.3125 Z " fill="#1F686A" transform="translate(220,274)"/>
<path d="M0 0 C11.62365378 11.17592786 19.31901352 26.33632907 19.9375 42.5859375 C20.15403473 61.94487057 16.14657065 78.03936642 3.140625 93.00390625 C-10.78048789 107.07704377 -27.65648979 113.35960253 -47.11865234 113.58935547 C-64.73866103 113.16389953 -79.90582685 105.64811346 -92.61328125 93.72265625 C-105.35607383 80.32839166 -110.98374311 62.74801652 -110.671875 44.53125 C-109.60448352 26.49189107 -101.43312837 10.75262203 -88.36328125 -1.46484375 C-62.64316369 -24.12304255 -25.33541442 -21.64894898 0 0 Z M-86.40234375 16.94921875 C-94.9763839 28.44208108 -97.59273099 41.42395792 -96.36328125 55.53515625 C-93.8818468 69.72118812 -86.76918928 81.77857898 -75.01953125 90.21875 C-62.2407495 98.32680614 -48.28040619 101.74249691 -33.36328125 98.41015625 C-18.692165 94.28690136 -8.19257952 86.5361786 -0.08984375 73.671875 C6.76050341 61.22656105 8.32766817 47.24703333 4.63671875 33.53515625 C-0.21895373 19.45762192 -9.13964239 8.83510014 -22.17578125 1.78515625 C-45.59051926 -9.18032384 -69.94923595 -2.52974796 -86.40234375 16.94921875 Z " fill="#1F686A" transform="translate(389.36328125,140.46484375)"/>
<path d="M0 0 C2.125 2 2.125 2 3 5 C0.73025788 14.18705144 -4.21508987 22.29887192 -8.6875 30.5625 C-10.25717474 33.47872056 -11.82288834 36.39704791 -13.38671875 39.31640625 C-13.77125717 40.03350266 -14.15579559 40.75059906 -14.55198669 41.48942566 C-19.47965166 50.7157624 -24.21135264 60.04970665 -28.5625 69.5625 C-33.22490722 78.77888637 -39.90819613 82.35050146 -49.24536133 85.83886719 C-55.92913079 88.40036195 -62.11714436 91.60217126 -68.375 95.0625 C-69.40923096 95.62743164 -70.44346191 96.19236328 -71.5090332 96.77441406 C-76.63181411 99.57671283 -81.73751093 102.40840426 -86.83203125 105.26171875 C-87.73711426 105.76630615 -88.64219727 106.27089355 -89.57470703 106.79077148 C-91.27590716 107.7408811 -92.97370113 108.69712384 -94.66748047 109.66040039 C-101.95183811 113.73161358 -101.95183811 113.73161358 -106 114 C-108.75 113 -108.75 113 -111 111 C-112.70851893 106.02184483 -111.96431442 103.32272273 -109.67578125 98.62109375 C-108.57334154 96.54985867 -107.45101359 94.48912736 -106.3125 92.4375 C-105.7232373 91.33994385 -105.13397461 90.2423877 -104.52685547 89.11157227 C-102.70497879 85.72944294 -100.85735061 82.36276129 -99 79 C-98.44393066 77.99195313 -97.88786133 76.98390625 -97.31494141 75.9453125 C-96.78433105 74.98367188 -96.2537207 74.02203125 -95.70703125 73.03125 C-95.19188965 72.09627686 -94.67674805 71.16130371 -94.14599609 70.19799805 C-93.13728207 68.36725496 -92.12591485 66.53797108 -91.11181641 64.71020508 C-88.13832108 59.2919574 -85.53971005 53.83760664 -83.1875 48.125 C-78.78574426 37.60614633 -73.51100482 32.33385473 -63 28 C-62.28827637 27.72994141 -61.57655273 27.45988281 -60.84326172 27.18164062 C-54.17229291 24.61740851 -47.99902663 21.45646864 -41.75 18 C-40.7194751 17.43909668 -39.6889502 16.87819336 -38.62719727 16.30029297 C-33.31603296 13.40432524 -28.03820396 10.45904784 -22.79296875 7.4453125 C-21.80780273 6.88714844 -20.82263672 6.32898438 -19.80761719 5.75390625 C-17.93590145 4.69163274 -16.07271442 3.61414571 -14.21972656 2.51953125 C-9.11700539 -0.36081802 -5.90568213 -1.85366417 0 0 Z M-31.125 28 C-31.78371094 28.3815625 -32.44242187 28.763125 -33.12109375 29.15625 C-34.74962748 30.10032752 -36.37510657 31.04967068 -38 32 C-37.07347299 33.17539996 -36.13336613 34.34010577 -35.1875 35.5 C-34.66542969 36.1496875 -34.14335937 36.799375 -33.60546875 37.46875 C-32.00795167 39.34509128 -32.00795167 39.34509128 -29 39 C-25.535 31.575 -25.535 31.575 -22 24 C-25.44235117 24 -28.21759941 26.29586025 -31.125 28 Z M-66.8125 47 C-70.03036198 51.41306786 -70.5308948 54.6025695 -70 60 C-67.81556227 64.93991106 -65.13125202 68.92306466 -60 71 C-54.33934821 72.46757639 -51.09586493 71.83103607 -46 69 C-41.64055443 65.70619668 -40.01014255 62.6026003 -39.08984375 57.34375 C-38.93905138 53.41003589 -39.96162222 50.34172714 -42 47 C-45.8095822 43.1904178 -49.58619842 41.2567874 -54.9375 40.6875 C-60.07230565 41.21145976 -63.47204734 43.14120124 -66.8125 47 Z M-79 73 C-83.39198595 79.78434455 -83.39198595 79.78434455 -87 87 C-86.67 87.66 -86.34 88.32 -86 89 C-81.05 86.36 -76.1 83.72 -71 81 C-72.65 79.35 -74.3 77.7 -76 76 C-77 75 -78 74 -79 73 Z " fill="#1F686A" transform="translate(206,295)"/>
<path d="M0 0 C3.625 0.25 3.625 0.25 5.32421875 1.296875 C7.30798005 4.27549557 7.09871091 7.29350391 7.0625 10.75 C7.08248047 11.42675781 7.10246094 12.10351562 7.12304688 12.80078125 C7.11985034 16.04206682 7.05726013 17.79198821 4.7890625 20.1953125 C1.86450621 21.62063777 -0.16326484 21.66000874 -3.375 21.25 C-5.93449546 19.39657225 -6.35418798 18.31243607 -7.375 15.25 C-7.90496391 9.80767832 -7.86657975 5.71922208 -4.375 1.25 C-3.375 0.25 -3.375 0.25 0 0 Z " fill="#1F686A" transform="translate(151.375,410.75)"/>
<path d="M0 0 C1.6953125 1.08203125 1.6953125 1.08203125 3 3 C3.43359375 6.21484375 3.43359375 6.21484375 3.4375 9.9375 C3.45683594 11.16339844 3.47617188 12.38929688 3.49609375 13.65234375 C3 17 3 17 1.1953125 19.4375 C-1 21 -1 21 -4.5625 21.0625 C-8 20 -8 20 -9.9375 18 C-11.73540339 12.92356689 -11.6272256 8.15048778 -10.125 3 C-7.83887844 -1.06421611 -4.24962774 -0.29821949 0 0 Z " fill="#1F686A" transform="translate(155,271)"/>
<path d="M0 0 C1.01513672 -0.01740234 1.01513672 -0.01740234 2.05078125 -0.03515625 C4.96538335 -0.01791008 7.00737728 0.03570363 9.4453125 1.71484375 C11.11418106 4.34176648 10.871401 6.34189183 10.5 9.375 C9.4453125 11.5390625 9.4453125 11.5390625 7.5 13.375 C4.83448124 13.75621721 2.65157379 13.89078456 0 13.8125 C-0.67675781 13.81958984 -1.35351562 13.82667969 -2.05078125 13.83398438 C-4.94068504 13.79693433 -7.01336289 13.70235629 -9.4453125 12.06640625 C-11.24017551 9.18797779 -10.85144569 6.65515981 -10.5 3.375 C-8.03144187 -0.59297862 -4.21427796 -0.07224477 0 0 Z " fill="#1F686A" transform="translate(221.5,344.625)"/>
<path d="M0 0 C0.67675781 -0.01998047 1.35351562 -0.03996094 2.05078125 -0.06054688 C5.27567412 -0.05736651 7.04950361 0.02706752 9.4765625 2.23828125 C11.03092425 5.57837921 10.40548713 7.94490679 9.5 11.4375 C5.83236683 13.88258878 3.86568225 13.73635724 -0.5 13.75 C-2.35625 13.77513672 -2.35625 13.77513672 -4.25 13.80078125 C-7.5 13.4375 -7.5 13.4375 -9.4140625 12.13671875 C-11.25119614 9.26206719 -10.85324498 6.73445318 -10.5 3.4375 C-8.03387802 -0.51742895 -4.21177058 -0.04412331 0 0 Z " fill="#1F686A" transform="translate(81.5,344.5625)"/>
</svg>