<svg version="1.1" xmlns="http://www.w3.org/2000/svg" width="512" height="512">
<path d="M0 0 C5.71226511 0.13404232 8.83779879 4.17035517 12.703125 7.9609375 C15.40284938 10.59427521 18.18105708 12.95900891 21.125 15.3125 C25.57099037 18.90082414 29.81374677 22.6559548 34.03515625 26.50390625 C36.63212393 28.81187598 39.29654013 31.00555863 42 33.1875 C46.85538621 37.1131314 51.47606416 41.24451245 56.0546875 45.48828125 C58.48578031 47.68080888 60.99841761 49.71620554 63.5625 51.75 C63.58231934 50.88721436 63.60213867 50.02442871 63.62255859 49.13549805 C63.70069644 45.93163044 63.78739082 42.72814106 63.87988281 39.5246582 C63.9181435 38.13868093 63.95300156 36.75260535 63.984375 35.36645508 C64.03008699 33.3729836 64.08908925 31.37983086 64.1484375 29.38671875 C64.1798584 28.18748779 64.2112793 26.98825684 64.24365234 25.75268555 C64.5625 22.75 64.5625 22.75 66.5625 19.75 C70.44954832 18.45431723 74.15801353 18.56783164 78.2109375 18.546875 C79.06048004 18.54117493 79.91002258 18.53547485 80.78530884 18.52960205 C82.58244585 18.52015895 84.37960013 18.51362081 86.17675781 18.50976562 C88.92023037 18.50006109 91.66295327 18.46903215 94.40625 18.4375 C96.15364139 18.43096949 97.90103813 18.42571921 99.6484375 18.421875 C100.4662973 18.4095282 101.2841571 18.3971814 102.12680054 18.38446045 C107.2041802 18.40423047 110.79474216 18.98224216 114.5625 22.75 C114.61278873 24.98813029 114.59245083 27.22785842 114.5456543 29.46606445 C114.51954529 30.92335445 114.49407879 32.38065605 114.46916199 33.83796692 C114.4547576 34.61527475 114.4403532 35.39258259 114.42551231 36.19344521 C114.34556378 41.1804156 114.33315926 46.16808945 114.31041241 51.15559101 C114.28663357 55.53294879 114.23809499 59.90720786 114.1340332 64.28344727 C114.03463848 68.51972076 114.00509303 72.75159278 114.02097511 76.9889431 C114.01487314 78.59535382 113.98432155 80.20188398 113.92764854 81.80730629 C113.52003902 90.68172983 113.52003902 90.68172983 116.94644165 98.60383034 C120.27361576 102.07378073 123.99545988 104.91295204 127.95048904 107.62802982 C129.94001563 109.01275335 131.75787327 110.55278163 133.5703125 112.16015625 C134.09608887 112.60657471 134.62186523 113.05299316 135.16357422 113.51293945 C137.40160198 115.42146585 139.62350889 117.34847077 141.84570312 119.27539062 C143.58547396 120.76973304 145.3464134 122.23626302 147.109375 123.703125 C148.21961712 124.6552398 149.32902856 125.60832433 150.4375 126.5625 C151.42492187 127.39394531 152.41234375 128.22539062 153.4296875 129.08203125 C155.5625 131.75 155.5625 131.75 156.16015625 135.24609375 C155.43091656 139.52144018 154.18058783 140.96766626 151.125 144 C150.21492188 144.93457031 149.30484375 145.86914062 148.3671875 146.83203125 C147.89893555 147.30979004 147.43068359 147.78754883 146.94824219 148.27978516 C143.96667365 151.4431054 141.34983463 154.92335794 138.66796875 158.33984375 C136.41674931 160.91684263 134.47839742 162.94118471 131.5625 164.75 C125.5625 163.75 125.5625 163.75 114.5625 154.75 C114.2325 197.32 113.9025 239.89 113.5625 283.75 C121.1525 283.75 128.7425 283.75 136.5625 283.75 C141.45616443 288.64366443 141.10058489 290.23327982 141.15820312 296.74414062 C141.14724609 297.88044922 141.13628906 299.01675781 141.125 300.1875 C141.14884766 301.31994141 141.17269531 302.45238281 141.19726562 303.61914062 C141.19533203 304.71291016 141.19339844 305.80667969 141.19140625 306.93359375 C141.1924939 308.42717407 141.1924939 308.42717407 141.19360352 309.95092773 C140.29904057 313.91849609 138.82417691 315.35896562 135.5625 317.75 C132.71155305 318.18870883 130.46786183 318.34049149 127.63671875 318.23828125 C126.97337524 318.23324585 126.31003174 318.22821045 125.62658691 318.22302246 C123.16727998 318.19701664 120.70859302 318.12720886 118.25 318.0625 C112.743125 317.959375 107.23625 317.85625 101.5625 317.75 C101.5625 334.25 101.5625 350.75 101.5625 367.75 C104.2025 368.08 106.8425 368.41 109.5625 368.75 C116.23582616 371.31088891 122.10975143 374.93594332 127.6875 379.36328125 C135.37619186 385.0497096 143.13252888 386.5969277 152.5625 385.75 C159.96431326 384.08519087 165.87605732 379.63794299 172.01220703 375.4050293 C183.04957411 367.87955175 194.37548935 365.08629223 207.671875 367.2578125 C216.95927223 369.63741925 224.11253475 374.74781027 231.69824219 380.37841797 C233.60126308 381.77851899 235.53623858 383.12490706 237.4765625 384.47265625 C240.5625 386.75 240.5625 386.75 241.5625 388.75 C242.13482704 395.04559748 242.13482704 395.04559748 239.9375 397.75 C236.58650654 399.16094462 235.08701662 398.74367845 231.5625 397.75 C228.50796665 395.85137739 225.71151306 393.6442743 222.875 391.4375 C213.79466489 384.6458465 205.31714325 379.22358412 193.5625 380.75 C186.97961213 382.32910354 182.00546328 385.17556331 176.625 389.1875 C170.87553592 393.31176428 165.42629507 396.75471073 158.5625 398.75 C157.96179688 398.93820312 157.36109375 399.12640625 156.7421875 399.3203125 C143.66190379 401.89886305 131.59028403 398.80551191 120.5625 391.75 C118.91101722 390.57036944 117.26534399 389.38257121 115.625 388.1875 C107.85172427 382.68493387 100.21125819 379.32167989 90.5625 380.75 C83.15964006 382.51673296 77.27556107 386.84005097 71.11523438 391.0949707 C66.18890759 394.45639781 61.29742117 397.01313816 55.5625 398.75 C54.95792969 398.93820312 54.35335938 399.12640625 53.73046875 399.3203125 C39.76243038 402.08875254 27.588876 398.21772903 16.01953125 390.48828125 C13.95832834 389.03003754 11.94631695 387.52854807 9.9375 386 C3.64829935 381.46279096 -3.77454595 379.66251807 -11.4375 380.75 C-18.86556851 382.45368544 -24.63159575 386.0775394 -30.74560547 390.45507812 C-41.00631559 397.77676026 -52.59452474 401.12558038 -65.3125 399.125 C-74.10331661 397.07034168 -81.11679027 392.89802272 -88.4375 387.75 C-95.85378999 382.61564539 -102.61687189 379.89742149 -111.78125 381.04296875 C-118.18689274 382.63370336 -123.42291336 386.01888914 -128.95947266 389.47216797 C-139.86092225 396.21089223 -151.07768246 398.14317534 -163.6875 395.6875 C-171.54262345 393.76695417 -177.99249776 389.90850808 -184.54296875 385.25390625 C-191.18026887 380.64200906 -199.03396822 378.8716503 -207.0625 380.25 C-214.35790622 382.31747071 -220.35407155 386.78950992 -226.0625 391.625 C-229.05424424 394.03221162 -231.00093604 395.22175616 -234.875 395.3125 C-238.4375 394.75 -238.4375 394.75 -240.4375 392.75 C-241.43668595 387.92060123 -241.43668595 387.92060123 -240.4375 384.75 C-237.48717045 381.52927365 -234.0420042 379.19012785 -230.4375 376.75 C-229.6846875 376.19054687 -228.931875 375.63109375 -228.15625 375.0546875 C-217.73888702 367.54361782 -206.2111586 364.70705419 -193.5 366.3125 C-185.00674462 367.9517423 -177.78789832 372.03785203 -170.75 376.9375 C-164.37505208 381.32171508 -157.27152224 383.99145708 -149.4375 382.75 C-142.90604878 381.11970056 -137.4791514 378.27792206 -131.8125 374.6875 C-120.41549274 367.51259625 -115.38333915 367.75 -100.4375 367.75 C-100.4375 351.25 -100.4375 334.75 -100.4375 317.75 C-111.40235806 317.94748516 -111.40235806 317.94748516 -122.3659668 318.20043945 C-123.74786442 318.21505226 -125.12978368 318.22779106 -126.51171875 318.23828125 C-127.22026001 318.26386108 -127.92880127 318.28944092 -128.65881348 318.3157959 C-132.47169849 318.31913643 -134.28951541 317.85848292 -137.39355469 315.58300781 C-139.7161105 312.36383226 -140.06926285 310.85634693 -140.06640625 306.93359375 C-140.06833984 305.83982422 -140.07027344 304.74605469 -140.07226562 303.61914062 C-140.04841797 302.48669922 -140.02457031 301.35425781 -140 300.1875 C-140.01095703 299.05119141 -140.02191406 297.91488281 -140.03320312 296.74414062 C-139.95821708 288.27071708 -139.95821708 288.27071708 -135.4375 283.75 C-127.8475 283.75 -120.2575 283.75 -112.4375 283.75 C-112.7675 241.18 -113.0975 198.61 -113.4375 154.75 C-117.0675 157.72 -120.6975 160.69 -124.4375 163.75 C-130.4375 164.75 -130.4375 164.75 -132.23828125 163.921875 C-136.6301221 159.79104795 -140.41230213 155.28974799 -144.1484375 150.55859375 C-146.31739783 147.89736085 -148.61440799 145.46567372 -151 143 C-153.47477116 140.1965872 -154.40455751 138.86735761 -155.4375 135.1875 C-153.09693679 127.14181397 -144.5758424 122.14519349 -138.29296875 117.1015625 C-135.41941458 114.73510612 -132.67467383 112.27241697 -129.9375 109.75 C-125.4676488 105.63621091 -120.84705107 101.77912703 -116.12109375 97.96484375 C-113.49041443 95.79367173 -110.95807576 93.54758643 -108.4375 91.25 C-105.04151318 88.15444804 -101.57578469 85.19848793 -98 82.3125 C-93.226097 78.45174863 -88.70361572 74.37562925 -84.1875 70.21875 C-80.62565771 67.02118704 -76.91184167 64.03611657 -73.1875 61.03125 C-70.35650422 58.68281032 -67.64366402 56.24090098 -64.9375 53.75 C-60.4676488 49.63621091 -55.84705107 45.77912703 -51.12109375 41.96484375 C-48.49041443 39.79367173 -45.95807576 37.54758643 -43.4375 35.25 C-40.04151318 32.15444804 -36.57578469 29.19848793 -33 26.3125 C-28.23830201 22.46161907 -23.72632166 18.39726023 -19.22265625 14.25 C-15.47336056 10.88457329 -11.57915354 7.71746912 -7.65234375 4.5625 C-2.83213561 0.6179205 -2.83213561 0.6179205 0 0 Z M-5.375 20.1875 C-9.12836941 23.68270115 -12.93817783 27.033279 -16.9375 30.25 C-20.72210334 33.30348679 -24.35957537 36.45668301 -27.9375 39.75 C-32.4073512 43.86378909 -37.02794893 47.72087297 -41.75390625 51.53515625 C-44.38458557 53.70632827 -46.91692424 55.95241357 -49.4375 58.25 C-52.83348682 61.34555196 -56.29921531 64.30151207 -59.875 67.1875 C-64.648903 71.04825137 -69.17138428 75.12437075 -73.6875 79.28125 C-77.24934229 82.47881296 -80.96315833 85.46388343 -84.6875 88.46875 C-87.51849578 90.81718968 -90.23133598 93.25909902 -92.9375 95.75 C-97.4073512 99.86378909 -102.02794893 103.72087297 -106.75390625 107.53515625 C-109.38458557 109.70632827 -111.91692424 111.95241357 -114.4375 114.25 C-118.76946142 118.19689818 -123.25415284 121.9113449 -127.80859375 125.59765625 C-131.42900687 128.56176863 -134.9445741 131.63739268 -138.4375 134.75 C-136.87382643 138.27238047 -134.74254111 141.02123994 -132.3125 144 C-131.22582031 145.33804688 -131.22582031 145.33804688 -130.1171875 146.703125 C-129.56289062 147.37859375 -129.00859375 148.0540625 -128.4375 148.75 C-124.34022684 146.13611916 -120.80570469 143.40303345 -117.25 140.0625 C-112.67789122 135.83732631 -107.96401387 131.8735268 -103.12109375 127.96484375 C-100.49041443 125.79367173 -97.95807576 123.54758643 -95.4375 121.25 C-92.04151318 118.15444804 -88.57578469 115.19848793 -85 112.3125 C-80.226097 108.45174863 -75.70361572 104.37562925 -71.1875 100.21875 C-67.62565771 97.02118704 -63.91184167 94.03611657 -60.1875 91.03125 C-57.35650422 88.68281032 -54.64366402 86.24090098 -51.9375 83.75 C-47.4676488 79.63621091 -42.84705107 75.77912703 -38.12109375 71.96484375 C-35.49041443 69.79367173 -32.95807576 67.54758643 -30.4375 65.25 C-26.14913551 61.34161718 -21.70360327 57.67695115 -17.19140625 54.03125 C-13.49667209 50.97064752 -9.96100056 47.75085811 -6.43359375 44.5 C-3.97151688 42.34146685 -2.89907804 41.79801436 0.37890625 41.45703125 C4.29377014 41.8172948 5.57113265 42.86028181 8.5 45.4375 C9.45261719 46.26121094 10.40523437 47.08492187 11.38671875 47.93359375 C12.15314697 48.61397705 12.15314697 48.61397705 12.93505859 49.30810547 C14.63744407 50.81639959 16.35724572 52.30254469 18.08203125 53.78515625 C21.27132618 56.53029732 24.44684143 59.29084135 27.61865234 62.05615234 C30.78292706 64.81346684 33.95364606 67.56333358 37.125 70.3125 C37.74600586 70.85100586 38.36701172 71.38951172 39.00683594 71.94433594 C43.75390697 76.05747364 48.52048432 80.14740089 53.29321289 84.23071289 C58.19932909 88.43113124 63.07967457 92.66078453 67.95703125 96.89453125 C72.14586858 100.52832595 76.34881236 104.14506182 80.5625 107.75 C85.41165433 111.8985993 90.243133 116.06683666 95.0625 120.25 C106.13900233 129.85975742 117.26645969 139.39869923 128.5625 148.75 C131.45205204 145.89982856 134.25849665 143.04079467 136.875 139.9375 C137.38675781 139.33292969 137.89851563 138.72835937 138.42578125 138.10546875 C138.80089844 137.65816406 139.17601562 137.21085937 139.5625 136.75 C138.04851922 132.93511059 135.83252932 131.11923371 132.625 128.625 C128.63859331 125.45458529 124.8040477 122.20622104 121.0625 118.75 C117.48457537 115.45668301 113.84710334 112.30348679 110.0625 109.25 C106.27789666 106.19651321 102.64042463 103.04331699 99.0625 99.75 C94.5926488 95.63621091 89.97205107 91.77912703 85.24609375 87.96484375 C81.75699084 85.08519113 78.43253079 82.04306124 75.08984375 78.99609375 C72.49287607 76.68812402 69.82845987 74.49444137 67.125 72.3125 C62.351097 68.45174863 57.82861572 64.37562925 53.3125 60.21875 C50.62512366 57.80621896 47.87284556 55.5174379 45.0625 53.25 C41.27789666 50.19651321 37.64042463 47.04331699 34.0625 43.75 C29.59881379 39.64188481 24.98494488 35.78963408 20.265625 31.98046875 C16.67471426 29.01744847 13.23936965 25.89814001 9.79296875 22.76953125 C2.53981904 15.35339547 2.53981904 15.35339547 -5.375 20.1875 Z M77.5625 31.75 C77.33118834 36.29141886 77.13301713 40.8120868 77.01318359 45.35473633 C76.96322769 46.89450605 76.89522748 48.43380935 76.80810547 49.97192383 C76.14919442 59.28245536 76.14919442 59.28245536 79.62426758 67.65112305 C82.15608737 69.94055222 84.7233187 71.86088552 87.5625 73.75 C88.66771466 74.66050202 89.76293588 75.58353083 90.83984375 76.52734375 C91.71769531 77.24019531 92.59554688 77.95304687 93.5 78.6875 C94.39589844 79.41839844 95.29179687 80.14929688 96.21484375 80.90234375 C98.62042286 82.84544907 98.62042286 82.84544907 101.5625 84.75 C101.5625 67.26 101.5625 49.77 101.5625 31.75 C93.6425 31.75 85.7225 31.75 77.5625 31.75 Z M-5.875 60.6875 C-9.81149598 64.3770374 -13.79217464 67.9292629 -18 71.3125 C-21.76588189 74.34357567 -25.38079756 77.47581577 -28.9375 80.75 C-33.38477112 84.84351091 -37.98467463 88.67442499 -42.6875 92.46875 C-45.51849578 94.81718968 -48.23133598 97.25909902 -50.9375 99.75 C-55.4073512 103.86378909 -60.02794893 107.72087297 -64.75390625 111.53515625 C-67.38458557 113.70632827 -69.91692424 115.95241357 -72.4375 118.25 C-75.83348682 121.34555196 -79.29921531 124.30151207 -82.875 127.1875 C-84.15842049 128.24937247 -84.15842049 128.24937247 -85.46776867 129.33269691 C-87.38918695 130.89669373 -89.34655925 132.41793678 -91.34306049 133.88487816 C-95.46034332 137.14045028 -98.82926973 139.80622749 -100.43042564 144.92317581 C-100.78815926 148.63227122 -100.80030426 152.19573981 -100.6862793 155.92041016 C-100.68317017 157.32087965 -100.68493051 158.72136702 -100.69114685 160.12182617 C-100.69428254 163.89544341 -100.62997336 167.66515542 -100.55283332 171.4378705 C-100.48371004 175.39077819 -100.47757968 179.34379188 -100.46455383 183.29721069 C-100.43046719 190.77050347 -100.34034694 198.24201005 -100.22970945 205.7145189 C-100.10643046 214.22703194 -100.04619647 222.73963378 -99.99105966 231.25281835 C-99.87631435 248.75309503 -99.67472722 266.25092549 -99.4375 283.75 C-82.9375 283.75 -66.4375 283.75 -49.4375 283.75 C-49.40011719 277.66046875 -49.36273438 271.5709375 -49.32421875 265.296875 C-49.29394636 261.44137781 -49.26280332 257.5859272 -49.22851562 253.73046875 C-49.17416384 247.60956139 -49.12305505 241.48874618 -49.09106445 235.36767578 C-49.06507424 230.43327709 -49.02470222 225.49918732 -48.97431374 220.56497955 C-48.95761602 218.68154998 -48.94611986 216.79806694 -48.93988609 214.91457367 C-48.93027655 212.27833088 -48.90225547 209.64288359 -48.86987305 207.00683594 C-48.87130814 206.22640427 -48.87274323 205.4459726 -48.8742218 204.64189148 C-48.82175036 201.62579486 -48.56866283 199.08211947 -47.45661926 196.26629639 C-44.18687892 193.81082208 -40.62521327 194.19479209 -36.69921875 194.23242188 C-35.35979721 194.22190796 -35.35979721 194.22190796 -33.99331665 194.21118164 C-31.03689626 194.19355314 -28.08143039 194.2052416 -25.125 194.21875 C-23.07380998 194.21605648 -21.02262119 194.21217524 -18.97143555 194.20715332 C-14.67061213 194.20125169 -10.37012079 194.20984274 -6.06933594 194.22851562 C-0.55075143 194.2513054 4.96705502 194.2381859 10.48561096 194.21422577 C14.72178024 194.19978584 18.95776442 194.20436551 23.19393921 194.21473694 C25.22895397 194.21740921 27.26398544 194.21411694 29.29898071 194.20481873 C32.14118087 194.19468291 34.98211326 194.2101125 37.82421875 194.23242188 C38.66898773 194.22432495 39.51375671 194.21622803 40.38412476 194.20788574 C45.94860925 194.28898695 45.94860925 194.28898695 48.58161926 196.26629639 C49.98780205 199.82691404 50.00180866 203.23510444 49.99487305 207.00683594 C50.0050647 207.83647354 50.01525635 208.66611115 50.02575684 209.52088928 C50.05591278 212.25878632 50.06515669 214.99633363 50.07421875 217.734375 C50.09106352 219.63439092 50.10921348 221.53439569 50.12861633 223.43438721 C50.17614442 228.43203241 50.20593564 233.42963237 50.23205566 238.4274292 C50.26708604 244.42560618 50.32410678 250.42360941 50.37744904 256.42164612 C50.45599589 265.53107554 50.50657664 274.64027701 50.5625 283.75 C67.0625 283.75 83.5625 283.75 100.5625 283.75 C100.83383593 265.42543199 101.05468836 247.10250079 101.18424606 228.77643108 C101.24601253 220.26648006 101.33014995 211.75786956 101.46777344 203.2487793 C101.58773087 195.82839445 101.66487901 188.40898064 101.69156194 180.98765308 C101.70715122 177.06082896 101.74352728 173.13678154 101.83126068 169.21085167 C103.06020208 152.54893177 103.06020208 152.54893177 98.00671387 137.4815979 C95.22893509 134.58191535 92.0766182 132.68517255 88.5625 130.75 C86.68312443 129.2604311 84.82480968 127.74343628 83 126.1875 C82.10152344 125.46433594 81.20304688 124.74117188 80.27734375 123.99609375 C77.45576505 121.6616941 74.75659288 119.23009402 72.0625 116.75 C68.48457537 113.45668301 64.84710334 110.30348679 61.0625 107.25 C57.27789666 104.19651321 53.64042463 101.04331699 50.0625 97.75 C45.5926488 93.63621091 40.97205107 89.77912703 36.24609375 85.96484375 C32.75699084 83.08519113 29.43253079 80.04306124 26.08984375 76.99609375 C22.61707486 73.90978445 18.99898782 71.01716824 15.3828125 68.1015625 C11.37198764 64.75735673 7.57658226 61.20229849 3.77734375 57.62109375 C-0.57757901 53.94206729 -2.47476782 57.44107132 -5.875 60.6875 Z M-36.4375 206.75 C-36.4375 232.16 -36.4375 257.57 -36.4375 283.75 C-12.0175 283.75 12.4025 283.75 37.5625 283.75 C37.5625 258.34 37.5625 232.93 37.5625 206.75 C13.1425 206.75 -11.2775 206.75 -36.4375 206.75 Z M-126.4375 296.75 C-126.4375 299.39 -126.4375 302.03 -126.4375 304.75 C-42.6175 304.75 41.2025 304.75 127.5625 304.75 C127.5625 302.11 127.5625 299.47 127.5625 296.75 C43.7425 296.75 -40.0775 296.75 -126.4375 296.75 Z M-87.4375 317.75 C-87.4375 335.9 -87.4375 354.05 -87.4375 372.75 C-83.9725 374.73 -83.9725 374.73 -80.4375 376.75 C-80.4375 357.28 -80.4375 337.81 -80.4375 317.75 C-82.7475 317.75 -85.0575 317.75 -87.4375 317.75 Z M-67.4375 317.75 C-67.4375 339.86 -67.4375 361.97 -67.4375 384.75 C-59.13718376 387.51677208 -50.9405082 386.48333205 -43.1875 382.6875 C-39.01354951 380.45883072 -35.16571454 377.89175705 -31.375 375.0625 C-22.63511671 368.71142278 -12.09915912 366.41900781 -1.4375 367.75 C7.80342166 369.62480884 14.86649798 373.46328051 22.5625 378.75 C31.58514055 384.4904916 38.6358383 387.94091681 49.5625 386.75 C57.00035497 384.79617541 62.01747551 381.11334966 68.5625 376.75 C68.5625 357.28 68.5625 337.81 68.5625 317.75 C23.6825 317.75 -21.1975 317.75 -67.4375 317.75 Z M81.5625 317.75 C81.5625 334.58 81.5625 351.41 81.5625 368.75 C85.0275 368.255 85.0275 368.255 88.5625 367.75 C88.5625 351.25 88.5625 334.75 88.5625 317.75 C86.2525 317.75 83.9425 317.75 81.5625 317.75 Z " fill="#1F686A" transform="translate(255.4375,14.25)"/>
<path d="M0 0 C7.68228097 5.09447376 14.40886382 6.4506357 23.60571289 5.52978516 C30.51474155 3.80510984 36.175555 0.02080594 42.06274414 -3.85693359 C51.74293171 -9.99812786 63.54323555 -11.26301476 74.67993164 -8.78662109 C82.97917998 -5.9333845 90.12934285 -1.19007392 97.29321289 3.77978516 C103.64987645 8.03240421 110.04799985 9.45323562 117.60571289 8.52978516 C124.6820283 6.97698867 130.23732965 3.59398964 136.10571289 -0.47021484 C146.94822304 -7.96756497 158.09473188 -11.94196327 171.48071289 -9.97021484 C181.43137374 -7.58653564 190.26015131 -1.87096065 198.46508789 4.01806641 C205.97725545 9.32319204 213.6508024 9.63779639 222.60571289 8.52978516 C228.95642775 6.40282365 234.21947455 2.87209387 239.60571289 -1.03271484 C250.1137912 -8.60323133 261.23983658 -11.67977241 274.10571289 -9.90771484 C282.54781028 -8.08567944 289.84303767 -3.84804995 296.79321289 1.15478516 C305.96060875 7.70707601 313.18174748 9.75985703 324.60571289 8.52978516 C331.9789097 6.9740735 337.43804813 2.57030044 343.35913086 -1.81518555 C352.91861288 -8.76859851 363.27166623 -11.36685633 375.05493164 -10.09912109 C389.35020679 -7.56717467 402.39557612 1.31964839 412.60571289 11.52978516 C413.15593123 17.5821869 413.15593123 17.5821869 411.48071289 20.46728516 C408.56999381 22.11669263 406.95112929 21.97507949 403.60571289 21.52978516 C400.45151672 19.73004239 397.64709971 17.51784585 394.79321289 15.27978516 C385.76234414 8.27374035 377.22740427 2.87454452 365.42602539 3.67822266 C358.49647802 4.78793665 353.28915633 8.6229091 347.60571289 12.52978516 C334.81453451 21.27787778 324.03412487 24.0668262 308.60571289 22.52978516 C299.46176405 20.66548491 292.05789639 15.28193358 284.48852539 10.07275391 C277.54704523 5.45903918 270.22209937 2.54629565 261.80493164 3.97119141 C255.09858667 5.67457921 249.92385988 8.94492964 244.35571289 12.96728516 C232.18871597 21.5871915 220.36902552 24.33466318 205.60571289 22.52978516 C195.79287418 20.46335495 188.09621038 14.75150549 180.13696289 8.95556641 C173.7867289 4.43911676 166.88034935 2.75849398 159.12133789 3.89306641 C152.11010729 5.71286033 146.54601051 9.50984237 140.60571289 13.52978516 C129.33615203 21.02543443 118.37206596 24.32168858 104.78930664 22.06103516 C96.08172045 19.98013262 88.43520633 15.85172141 81.41821289 10.34228516 C74.06326152 4.68120137 66.82292395 3.46201237 57.60571289 4.52978516 C52.4561999 5.93419779 48.07052967 8.83812402 43.49975586 11.52197266 C31.55146273 18.50428632 21.29320808 21.43147469 7.31274414 18.94384766 C-0.53729037 16.85942923 -6.59853256 13.05621781 -13.24584961 8.59228516 C-20.36065021 3.93147286 -26.92605097 2.52649625 -35.39428711 3.52978516 C-43.21147558 5.23535355 -49.45130657 10.12698154 -55.68603516 14.90795898 C-60.61923214 18.5415011 -60.61923214 18.5415011 -64.75366211 18.47900391 C-67.39428711 17.52978516 -67.39428711 17.52978516 -69.39428711 15.52978516 C-69.83178711 12.21728516 -69.83178711 12.21728516 -69.39428711 8.52978516 C-50.5078789 -13.32751872 -23.36438328 -15.5649561 0 0 Z " fill="#1F686A" transform="translate(84.394287109375,474.47021484375)"/>
<path d="M0 0 C1.48085218 1.013605 2.9534262 2.03950553 4.4140625 3.08203125 C11.3856471 7.23091493 18.7751731 7.11642873 26.65234375 6.4140625 C33.11806913 4.74258241 38.42052492 0.63834037 43.94140625 -2.97265625 C47.6929388 -5.20519652 51.44128978 -6.50949221 55.65234375 -7.5859375 C56.45671875 -7.8128125 57.26109375 -8.0396875 58.08984375 -8.2734375 C72.37196704 -10.01515985 83.3596402 -6.0086074 94.9921875 2.03125 C103.79187961 8.07821791 110.77852465 10.63012029 121.65234375 9.4140625 C128.64853683 7.79706872 134.14614729 3.842264 139.88623047 -0.28881836 C151.30270143 -8.4427126 163.01827593 -10.21469979 176.73828125 -8.11328125 C184.39599606 -5.97898819 190.62744852 -1.54838879 196.98388672 3.08496094 C204.0647914 8.13389858 211.81334759 11.3610978 220.65234375 10.4140625 C230.1276184 8.60069097 237.59639596 3.60128006 245.08984375 -2.2734375 C255.23850984 -9.50196854 267.87595306 -10.04501245 279.77734375 -8.06640625 C287.08360973 -6.05122691 292.91883065 -1.99404726 298.95898438 2.44067383 C306.63031698 8.05940139 313.97796007 11.04844832 323.65234375 10.4140625 C331.04117953 8.86278417 336.48198898 5.88315657 342.52734375 1.4765625 C354.53994729 -6.8259384 365.03974843 -10.03228622 379.65234375 -8.5859375 C387.95607881 -6.80506031 394.77672381 -2.40529727 401.65234375 2.4140625 C402.51786865 2.99148193 402.51786865 2.99148193 403.40087891 3.58056641 C405.23532399 4.80922936 407.03875272 6.0746219 408.83984375 7.3515625 C409.41718262 7.73393066 409.99452148 8.11629883 410.58935547 8.51025391 C412.87758975 10.19320882 414.48147879 11.60493799 415.08056641 14.44189453 C415.140625 16.60546875 415.140625 16.60546875 414.65234375 20.4140625 C412.65234375 22.4140625 412.65234375 22.4140625 409.02734375 22.8984375 C403.69096395 22.75876691 400.60471855 19.98343977 396.65234375 16.6640625 C386.79358247 8.61530818 378.68799579 4.32508911 365.65234375 5.4140625 C358.70050188 6.98726219 353.30454892 10.93886018 347.625 15.04663086 C337.62417716 22.14774578 326.8669632 25.38347674 314.65234375 24.4140625 C304.56804596 22.58709272 296.17270431 18.40369267 288.02734375 12.2890625 C279.73869582 6.14502977 273.05567538 4.2626521 262.65234375 5.4140625 C255.30361577 7.03307913 249.81479971 11.35063413 243.91479492 15.7590332 C234.61966523 22.56360183 224.09373657 25.27455722 212.65234375 24.4140625 C201.81750621 22.70938139 193.26869142 18.08415021 184.46484375 11.7265625 C176.42335847 6.02051643 169.58408674 4.28846496 159.65234375 5.4140625 C154.19847355 6.75377626 149.84857891 9.92756199 145.29052734 13.07128906 C133.17229674 21.41299974 122.44880043 24.85363752 107.65234375 23.4140625 C98.86174281 21.65594231 91.9578337 17.43447624 84.65234375 12.4140625 C77.18870766 7.47279909 70.82387007 4.27303797 61.65234375 5.4140625 C55.52798161 6.92927506 50.39640358 9.44043313 45.15234375 12.9140625 C33.40860022 20.59456987 21.19725319 22.57942057 7.4375 19.75390625 C1.48729237 17.78188622 -3.57506749 14.55177873 -8.76953125 11.09375 C-16.33874812 6.16229052 -23.27728726 3.44121535 -32.34765625 4.4140625 C-41.1317755 6.57361341 -48.16182739 12.1935024 -55.34765625 17.4140625 C-58.81689506 19.72688837 -60.269712 19.83884836 -64.34765625 19.4140625 C-66.22265625 18.3515625 -66.22265625 18.3515625 -67.34765625 16.4140625 C-67.97265625 13.1015625 -67.97265625 13.1015625 -67.34765625 9.4140625 C-65.03992438 6.88654664 -63.13449581 5.32554861 -60.34765625 3.4140625 C-59.31640625 2.67671875 -58.28515625 1.939375 -57.22265625 1.1796875 C-38.24874166 -11.9872639 -19.33973632 -13.06478027 0 0 Z " fill="#1F686A" transform="translate(82.34765625,431.5859375)"/>
<path d="M0 0 C6.75052996 6.2834174 10.47031145 14.36870676 11.203125 23.54296875 C11.41340747 35.40640448 8.25013982 43.29754743 0.21875 51.91015625 C-6.74534356 58.63164819 -14.40367521 61.1745229 -24 61.5 C-34.58329461 61.1187241 -42.10754903 57.99774751 -49.765625 50.64453125 C-57.24174614 41.79604522 -59.81260769 32.31631447 -59 21 C-57.32798463 11.47801418 -52.49454253 3.31257812 -44.921875 -2.71875 C-30.65767309 -12.22821794 -13.08080635 -10.85809121 0 0 Z M-42.66015625 13.9921875 C-45.99837614 18.99465112 -46.69064445 24.08496449 -46 30 C-44.61983301 36.5620667 -41.2219225 40.89628544 -36 45 C-30.45718001 48.24202679 -25.28025619 48.85909165 -19 48 C-12.3108237 46.08708807 -7.92403376 41.5871284 -4 36 C-1.47010196 30.72021279 -1.06155947 25.30982917 -2.65234375 19.69921875 C-5.17165931 13.26577343 -8.85830686 9.11490714 -15.01953125 5.96875 C-25.68959242 1.56199434 -35.64172852 5.0416279 -42.66015625 13.9921875 Z " fill="#1F686A" transform="translate(280,127)"/>
</svg>