<svg version="1.1" xmlns="http://www.w3.org/2000/svg" width="512" height="512">
<path d="M0 0 C19.56830895 16.56416011 32.33766152 40.05439094 34.5 65.8125 C35.25181141 81.51800801 35.27514984 96.73693117 30.5 111.8125 C30.18651611 112.83923828 30.18651611 112.83923828 29.86669922 113.88671875 C25.21015623 128.75975192 17.34629009 140.62284505 6.5 151.8125 C5.69369141 152.72902344 5.69369141 152.72902344 4.87109375 153.6640625 C2.15434911 156.6463536 -0.57342707 158.91762675 -4.046875 160.9609375 C-4.68471924 161.34048584 -5.32256348 161.72003418 -5.97973633 162.11108398 C-7.2630146 162.8576226 -8.56243784 163.57721358 -9.87768555 164.26586914 C-11.96777562 165.39173051 -11.96777562 165.39173051 -14.5 167.8125 C-15.13699163 170.70425143 -14.83619223 172.79272025 -14.5 175.8125 C-14.4278125 176.575625 -14.355625 177.33875 -14.28125 178.125 C-14.1884375 178.681875 -14.095625 179.23875 -14 179.8125 C-13.835 180.8025 -13.67 181.7925 -13.5 182.8125 C-12.345 182.3175 -11.19 181.8225 -10 181.3125 C-5.07873925 179.20338825 -0.15442485 178.82368279 4.859375 180.69140625 C7.37774515 181.89812528 9.81243458 183.20021854 12.25 184.5625 C13.08660156 185.0059375 13.92320312 185.449375 14.78515625 185.90625 C21.03320189 189.29434492 21.03320189 189.29434492 23.48828125 192.01953125 C26.76238607 194.93761691 30.70139184 195.07636812 34.9375 195.75 C48.31313799 198.17996571 58.92730519 202.00758696 69.5 210.8125 C70.48613281 211.62847656 70.48613281 211.62847656 71.4921875 212.4609375 C84.57509903 224.38092356 89.59554269 244.07674176 90.72094727 261.16796875 C90.83906433 264.71900396 90.87880735 268.2595254 90.875 271.8125 C90.87628906 273.06893311 90.87757813 274.32536621 90.87890625 275.61987305 C90.75811811 286.38442969 89.21028174 296.4190535 86.5 306.8125 C87.22703125 306.52375 87.9540625 306.235 88.703125 305.9375 C98.32252329 302.38572217 107.62679237 300.94611473 117.41015625 304.78515625 C125.33136452 308.6791334 129.59279768 313.95753616 133.5 321.8125 C136.21074414 329.94473242 135.56587741 339.74649789 131.9375 347.4375 C127.33411941 356.14524974 119.45225927 360.18875602 110.9375 364.4375 C108.87274759 365.49032583 106.80896842 366.5450622 104.74609375 367.6015625 C103.18157471 368.40062012 103.18157471 368.40062012 101.58544922 369.21582031 C96.84619442 371.6683228 92.17309626 374.23677765 87.5 376.8125 C80.04771068 380.90795634 72.54990699 384.89997438 65 388.8125 C57.40889205 392.7465638 49.87070481 396.76207113 42.375 400.875 C38.75151799 402.85695647 35.12644773 404.83597538 31.5 406.8125 C30.58379883 407.31233398 29.66759766 407.81216797 28.72363281 408.32714844 C10.85642023 418.0300811 -5.45232987 425.23388763 -26.16015625 425.14038086 C-27.24176529 425.13668708 -28.32337433 425.1329933 -29.4377594 425.12918758 C-41.09868494 424.96578565 -52.4359118 423.37057086 -63.9375 421.56640625 C-66.16682622 421.23085072 -68.39640644 420.89697895 -70.6262207 420.56468201 C-76.41177743 419.6982285 -82.19384675 418.81045943 -87.9753418 417.9173584 C-93.87230866 417.00995992 -99.77213532 416.12158295 -105.671875 415.23242188 C-112.30563502 414.232493 -118.93911039 413.23115232 -125.57006836 412.21278381 C-126.57479187 412.05899765 -127.57951538 411.90521149 -128.61468506 411.74676514 C-130.47164767 411.46230343 -132.32839861 411.17645439 -134.18487549 410.88883972 C-154.06638746 407.84910045 -172.21828451 407.86707773 -190.92578125 415.82421875 C-193.5 416.8125 -193.5 416.8125 -196.5 416.8125 C-196.52578125 417.56273437 -196.5515625 418.31296875 -196.578125 419.0859375 C-197.25554002 431.31019941 -200.89328562 439.98319818 -209.5 448.8125 C-219.32634818 457.2098531 -229.58868855 460.93986189 -242.5 460.8125 C-254.40729433 459.84750943 -263.37439588 454.23840767 -271.17285156 445.39208984 C-274.75314141 441.13078092 -278.02345814 436.63036226 -281.30859375 432.140625 C-284.55352856 427.70959672 -287.92316922 423.38352891 -291.3125 419.0625 C-296.4195778 412.52772132 -301.45648746 405.94390419 -306.4375 399.3125 C-307.34109253 398.11222168 -307.34109253 398.11222168 -308.26293945 396.88769531 C-311.31948179 392.80553859 -314.33070411 388.69299299 -317.2890625 384.5390625 C-317.84674316 383.75611816 -318.40442383 382.97317383 -318.97900391 382.16650391 C-324.88052707 373.0328785 -325.54220205 363.36213705 -324.5 352.8125 C-321.971251 341.22003268 -314.81758971 332.83074902 -305.5 325.8125 C-296.70248454 320.34863426 -286.52623267 317.12631666 -276.17578125 319.30078125 C-274.66957625 319.66675172 -273.1685161 320.05512712 -271.67578125 320.47265625 C-266.35547754 321.30365521 -262.33609074 318.84623243 -257.875 316.25 C-257.20476807 315.867229 -256.53453613 315.48445801 -255.84399414 315.09008789 C-248.23129819 310.71477346 -240.70741472 306.18610139 -233.1635437 301.693573 C-208.15487543 286.8125 -208.15487543 286.8125 -204.5 286.8125 C-204.83 286.1525 -205.16 285.4925 -205.5 284.8125 C-207.4039846 259.65970956 -204.33455111 234.12005369 -187.8125 214.125 C-177.15007651 202.65328441 -162.73597547 197.67138573 -147.61743164 195.50708008 C-142.16991222 194.60800616 -139.22517361 193.15797868 -135.24926758 189.35229492 C-132.20814994 186.6753474 -128.65597531 185.11833301 -125 183.4375 C-123.91912109 182.90576172 -123.91912109 182.90576172 -122.81640625 182.36328125 C-117.44022114 179.84532114 -112.97180122 178.87628394 -107.06640625 180.46875 C-104.28320312 181.640625 -104.28320312 181.640625 -101.5 182.8125 C-101.17 177.8625 -100.84 172.9125 -100.5 167.8125 C-102.10875 166.843125 -103.7175 165.87375 -105.375 164.875 C-111.34499211 161.0766117 -116.39567422 156.68840501 -121.5 151.8125 C-122.11488281 151.27238281 -122.72976562 150.73226562 -123.36328125 150.17578125 C-139.35917222 135.57723248 -148.3228474 110.78981862 -149.70654297 89.65820312 C-149.80319529 86.3109278 -149.82916926 82.97361547 -149.8125 79.625 C-149.80686035 78.43535645 -149.8012207 77.24571289 -149.79541016 76.02001953 C-149.40491546 47.62216271 -138.91303299 23.71006956 -119.25390625 3.50390625 C-86.76449636 -27.07786857 -34.3746676 -27.04654772 0 0 Z M-110.0859375 18.23828125 C-120.08324324 28.89883866 -130.5 44.80656399 -130.5 59.8125 C-112.68135527 60.46954831 -99.91434752 57.93142728 -84.12890625 49.6171875 C-76.02020325 45.46795707 -67.76042917 44.29509554 -58.80859375 46.46484375 C-55.98038923 47.47090734 -53.25091303 48.61006788 -50.5 49.8125 C-47.69234565 51.0116392 -44.87894971 52.19667676 -42.0625 53.375 C-41.33272949 53.68074951 -40.60295898 53.98649902 -39.85107422 54.30151367 C-28.20238736 59.09151832 -16.67575563 60.99103517 -4.125 61 C-3.23039062 61.01224609 -2.33578125 61.02449219 -1.4140625 61.03710938 C4.5251217 61.05005818 9.74668248 60.29477019 15.5 58.8125 C14.30524425 51.13638333 12.05750203 44.71935234 8.5 37.8125 C7.9946875 36.83023438 7.489375 35.84796875 6.96875 34.8359375 C-2.72388753 17.14230201 -17.34180266 5.94688046 -36.42578125 -0.1171875 C-63.20470682 -7.56563037 -89.89698286 -0.63678904 -110.0859375 18.23828125 Z M-79 65.5 C-89.76343352 71.21407781 -101.15294421 75.68722107 -113.45703125 76.12890625 C-115.12475586 76.19174805 -115.12475586 76.19174805 -116.82617188 76.25585938 C-117.97666016 76.29517578 -119.12714844 76.33449219 -120.3125 76.375 C-121.48232422 76.41818359 -122.65214844 76.46136719 -123.85742188 76.50585938 C-126.73817031 76.61168279 -129.61900123 76.71376825 -132.5 76.8125 C-133.6249879 98.28101912 -127.54774756 119.55433061 -113.1875 135.9375 C-111.64022166 137.57700023 -110.07809036 139.20263601 -108.5 140.8125 C-107.83484375 141.51375 -107.1696875 142.215 -106.484375 142.9375 C-93.58446172 155.54199542 -75.18297845 161.09734589 -57.5 161.3125 C-37.63839997 161.07083795 -18.79850583 153.83110033 -4.5 139.8125 C12.15688729 121.64399292 18.29129813 100.02036145 17.5 75.8125 C16.2625 75.97234375 15.025 76.1321875 13.75 76.296875 C-10.28811155 78.94482323 -32.41797092 75.8714896 -54.43359375 66.08984375 C-55.0572583 65.81309814 -55.68092285 65.53635254 -56.32348633 65.2512207 C-58.00786928 64.49040645 -59.68025225 63.70317993 -61.3515625 62.9140625 C-68.25182623 60.49982631 -72.86008088 62.06032735 -79 65.5 Z M-82.5 174.8125 C-84.83219195 177.14469195 -84.47727164 182.3579465 -84.90234375 185.515625 C-85.44960824 188.53452191 -86.24745648 191.02441149 -87.5 193.8125 C-80.9936739 198.71683652 -74.33061667 203.31239034 -67.5 207.75 C-66.7582251 208.2344458 -66.0164502 208.7188916 -65.25219727 209.21801758 C-64.55022217 209.67072021 -63.84824707 210.12342285 -63.125 210.58984375 C-62.49851562 210.99452881 -61.87203125 211.39921387 -61.2265625 211.81616211 C-59.3586948 212.97086304 -59.3586948 212.97086304 -56.5 213.8125 C-54.23374669 212.58005964 -52.1971128 211.31677728 -50.08203125 209.859375 C-49.46478683 209.44335022 -48.84754242 209.02732544 -48.21159363 208.59869385 C-46.90785305 207.71592306 -45.60766172 206.82789123 -44.31079102 205.93505859 C-42.31955585 204.56734642 -40.31434101 203.22229582 -38.30664062 201.87890625 C-37.04336966 201.01955242 -35.78096897 200.15891758 -34.51953125 199.296875 C-33.61494926 198.69199249 -33.61494926 198.69199249 -32.6920929 198.07489014 C-30.83412372 196.81745991 -30.83412372 196.81745991 -28.5 194.8125 C-28.5 192.19575141 -28.77101621 190.31108887 -29.375 187.80078125 C-29.55546875 187.04345703 -29.7359375 186.28613281 -29.921875 185.50585938 C-30.11265625 184.72017578 -30.3034375 183.93449219 -30.5 183.125 C-30.69078125 182.32771484 -30.8815625 181.53042969 -31.078125 180.70898438 C-31.54907535 178.74276667 -32.02414266 176.7775359 -32.5 174.8125 C-33.35078125 174.956875 -34.2015625 175.10125 -35.078125 175.25 C-50.06011408 177.54511322 -64.85998817 177.61155672 -79.82421875 175.15234375 C-81.14873047 174.98412109 -81.14873047 174.98412109 -82.5 174.8125 Z M-120.125 200.125 C-120.92164063 200.55425781 -121.71828125 200.98351562 -122.5390625 201.42578125 C-124.80373657 202.73706336 -124.80373657 202.73706336 -125.5 205.8125 C-124.48851315 208.29980061 -124.48851315 208.29980061 -122.88671875 210.9765625 C-122.30269287 212.00845703 -121.71866699 213.04035156 -121.11694336 214.10351562 C-120.48022705 215.20373047 -119.84351074 216.30394531 -119.1875 217.4375 C-118.54756104 218.56091797 -117.90762207 219.68433594 -117.24829102 220.84179688 C-112.7567665 228.70435299 -108.18883883 236.52236287 -103.56640625 244.30859375 C-101.12429463 248.42986534 -98.79390431 252.60700876 -96.5 256.8125 C-93.26951252 255.3925745 -91.11757512 253.67630613 -88.63671875 251.1796875 C-87.91419922 250.45523438 -87.19167969 249.73078125 -86.44726562 248.984375 C-85.70154297 248.22640625 -84.95582031 247.4684375 -84.1875 246.6875 C-83.45337891 245.95273437 -82.71925781 245.21796875 -81.96289062 244.4609375 C-78.38758087 240.85707602 -74.87212982 237.20166306 -71.45703125 233.4453125 C-70.88573486 232.8177002 -70.31443848 232.19008789 -69.72583008 231.54345703 C-68.21103285 229.75796741 -68.21103285 229.75796741 -68.5 226.8125 C-70.74138729 225.04668629 -72.94256136 223.4959111 -75.33203125 221.953125 C-76.03841232 221.48565857 -76.7447934 221.01819214 -77.47257996 220.53656006 C-79.74625924 219.03538589 -82.02917822 217.54895619 -84.3125 216.0625 C-85.80985953 215.07645371 -87.30661179 214.0894846 -88.80273438 213.1015625 C-92.37881146 210.74422952 -95.9664965 208.40542941 -99.56011963 206.07495117 C-101.35348564 204.90784981 -103.13938581 203.73024413 -104.92333984 202.54882812 C-105.90125488 201.90880859 -106.87916992 201.26878906 -107.88671875 200.609375 C-109.13328247 199.78711426 -109.13328247 199.78711426 -110.4050293 198.94824219 C-114.26770239 196.85417912 -116.54852554 198.1503667 -120.125 200.125 Z M-7.90136719 200.42700195 C-8.7619574 200.99792068 -9.62254761 201.56883942 -10.50921631 202.15705872 C-11.42914368 202.78198715 -12.34907104 203.40691559 -13.296875 204.05078125 C-14.72003021 205.00563667 -14.72003021 205.00563667 -16.17193604 205.9797821 C-18.17550771 207.32786721 -20.17590309 208.68068325 -22.17333984 210.0378418 C-25.24264951 212.12001354 -28.32548147 214.18091513 -31.41015625 216.24023438 C-33.35241279 217.55082411 -35.293848 218.86263203 -37.234375 220.17578125 C-38.16239929 220.79463699 -39.09042358 221.41349274 -40.04656982 222.05110168 C-41.31854218 222.92166451 -41.31854218 222.92166451 -42.61621094 223.80981445 C-43.3680365 224.3183345 -44.11986206 224.82685455 -44.89447021 225.3507843 C-45.42429504 225.83315048 -45.95411987 226.31551666 -46.5 226.8125 C-46.81999652 229.76298939 -46.81999652 229.76298939 -45.21484375 231.35546875 C-44.33505859 232.16951172 -44.33505859 232.16951172 -43.4375 233 C-40.91904552 235.40808396 -38.56265014 237.83972398 -36.3125 240.5 C-31.36931403 246.24815433 -25.89680835 251.49544744 -20.5 256.8125 C-17.54015536 254.06458214 -15.56381094 251.47927006 -13.6875 247.91015625 C-13.17485596 246.94698486 -12.66221191 245.98381348 -12.1340332 244.99145508 C-11.59480225 243.9630249 -11.05557129 242.93459473 -10.5 241.875 C-5.59334681 232.64931255 -0.54666096 223.52922912 4.71679688 214.50219727 C6.92932464 210.68239133 9.04166874 206.99987222 10.5 202.8125 C8.921924 201.96925328 7.3372958 201.13826082 5.75 200.3125 C4.86828125 199.8484375 3.9865625 199.384375 3.078125 198.90625 C-1.49215009 196.96734542 -4.00519046 197.81512918 -7.90136719 200.42700195 Z M-178.96875 229.65234375 C-186.74959452 241.25244428 -188.44302333 254.71488269 -189.25 268.3125 C-189.30696045 269.19800537 -189.3639209 270.08351074 -189.42260742 270.99584961 C-189.46361572 271.83253174 -189.50462402 272.66921387 -189.546875 273.53125 C-189.58651367 274.28341797 -189.62615234 275.03558594 -189.66699219 275.81054688 C-189.63577094 278.13276032 -189.63577094 278.13276032 -187.5 280.8125 C-186.84298096 280.67610107 -186.18596191 280.53970215 -185.5090332 280.39916992 C-158.18932819 275.03825856 -132.16677629 281.39784404 -105.47961426 287.17279053 C-101.55992619 288.01432952 -97.63503343 288.82964812 -93.7093811 289.64283752 C-89.05444278 290.60744801 -84.40200914 291.58387387 -79.75 292.5625 C-78.90129333 292.74046112 -78.05258667 292.91842224 -77.17816162 293.10177612 C-68.26492636 294.9810596 -59.41425354 297.01165864 -50.625 299.41015625 C-49.8845343 299.60965881 -49.1440686 299.80916138 -48.38116455 300.01470947 C-39.99999664 302.36477604 -34.72424582 305.42678869 -30.0625 312.8125 C-26.30092997 319.79530404 -25.08886447 325.97130475 -24.5 333.8125 C-9.3946188 340.89314744 9.59555208 336.04943779 24.49359131 330.78710938 C29.97005914 328.79570431 35.42398453 326.74735642 40.875 324.6875 C43.14540167 323.84128886 45.41623246 322.99622811 47.6875 322.15234375 C51.80387019 320.61866974 55.91884652 319.08153532 60.02880859 317.53076172 C60.84658783 317.22226288 61.66436707 316.91376404 62.50692749 316.59591675 C64.52760751 315.83578448 64.52760751 315.83578448 66.5 314.8125 C67.33257085 312.41658807 67.33257085 312.41658807 67.97265625 309.4921875 C68.23240234 308.3990625 68.49214844 307.3059375 68.75976562 306.1796875 C69.15711914 304.45105469 69.15711914 304.45105469 69.5625 302.6875 C69.83126953 301.55828125 70.10003906 300.4290625 70.37695312 299.265625 C75.56675892 277.16041726 76.36829226 251.57508292 64.08984375 231.5078125 C56.15786333 220.29728018 45.63447387 215.23947934 32.48046875 212.1953125 C29.32772907 211.79037346 27.5059484 211.80488372 24.5 212.8125 C22.65438891 215.0319353 22.65438891 215.0319353 21.22265625 217.9375 C20.63339355 219.02514648 20.04413086 220.11279297 19.43701172 221.23339844 C18.81209065 222.42638838 18.18725544 223.61942331 17.5625 224.8125 C16.90830016 226.02998741 16.25218743 227.24644874 15.59423828 228.46191406 C14.2332892 230.97933526 12.88018304 233.50072939 11.53271484 236.02539062 C8.38399643 241.91023286 5.13046634 247.73614639 1.875 253.5625 C1.30789307 254.58988281 0.74078613 255.61726563 0.15649414 256.67578125 C-8.59026439 272.38830188 -8.59026439 272.38830188 -13.5 273.8125 C-16.234375 274.21875 -16.234375 274.21875 -19.25 274.3125 C-20.23484375 274.3640625 -21.2196875 274.415625 -22.234375 274.46875 C-30.19225421 272.86955896 -35.76423839 265.72017931 -41 259.9375 C-42.30240053 258.52253034 -43.60577693 257.10845824 -44.91015625 255.6953125 C-45.52648926 255.02532227 -46.14282227 254.35533203 -46.77783203 253.66503906 C-49.92132739 250.28357566 -53.18856289 247.02872007 -56.5 243.8125 C-60.08939226 245.33420154 -62.38771871 247.45553972 -65.125 250.20703125 C-65.99640625 251.08037109 -66.8678125 251.95371094 -67.765625 252.85351562 C-68.66796875 253.76810547 -69.5703125 254.68269531 -70.5 255.625 C-71.40234375 256.52798828 -72.3046875 257.43097656 -73.234375 258.36132812 C-78.126084 263.2603228 -78.126084 263.2603228 -82.64038086 268.50048828 C-85.44384178 271.98595171 -87.96663558 273.58342402 -92.40234375 274.24609375 C-93.90474609 274.24802734 -93.90474609 274.24802734 -95.4375 274.25 C-96.93603516 274.27900391 -96.93603516 274.27900391 -98.46484375 274.30859375 C-102.53990316 273.6425287 -104.36520488 272.54267359 -107.5 269.8125 C-109.78402109 266.56598427 -111.63371253 263.1243255 -113.5 259.625 C-114.6366574 257.55465381 -115.77337847 255.48434259 -116.91015625 253.4140625 C-117.49555176 252.33543945 -118.08094727 251.25681641 -118.68408203 250.14550781 C-121.72141814 244.57066073 -124.83320446 239.03774051 -127.9375 233.5 C-128.78731445 231.97306519 -128.78731445 231.97306519 -129.65429688 230.4152832 C-130.73578103 228.47624086 -131.82452427 226.54122477 -132.92138672 224.61083984 C-133.99467425 222.70826922 -135.0423938 220.7910959 -136.06689453 218.86181641 C-136.5720459 217.9444873 -137.07719727 217.0271582 -137.59765625 216.08203125 C-138.25713257 214.84803589 -138.25713257 214.84803589 -138.92993164 213.58911133 C-140.38220762 211.55153078 -140.38220762 211.55153078 -142.96557617 211.50195312 C-156.83994361 213.20200085 -170.07694984 218.51394514 -178.96875 229.65234375 Z M-232.80957031 321.20800781 C-236.98693361 323.69926295 -241.18059623 326.16258027 -245.375 328.625 C-246.76825329 329.44396938 -248.16148512 330.26297527 -249.5546875 331.08203125 C-250.52664062 331.65308594 -251.49859375 332.22414063 -252.5 332.8125 C-248.51103658 338.14972066 -244.48987423 343.46079692 -240.4375 348.75 C-239.29035445 350.24869016 -238.14321933 351.7473883 -236.99609375 353.24609375 C-236.41585449 354.00390137 -235.83561523 354.76170898 -235.23779297 355.54248047 C-231.95397002 359.8320261 -228.6732829 364.12396995 -225.39208984 368.41552734 C-222.59714613 372.07084381 -219.8012868 375.72545423 -217.00390625 379.37890625 C-216.42769531 380.13171875 -215.85148437 380.88453125 -215.2578125 381.66015625 C-214.16828295 383.08357389 -213.07846351 384.50676971 -211.98828125 385.9296875 C-208.46327294 390.53581949 -204.97232826 395.16653559 -201.5 399.8125 C-197.7956374 399.1685776 -194.26623828 398.1625174 -190.67797852 397.04760742 C-167.3037205 389.82912509 -146.10710339 391.76862387 -122.25 395.3125 C-119.75310273 395.67242644 -117.25602869 396.03112851 -114.75878906 396.38867188 C-103.22587385 398.0485999 -91.70316074 399.77096052 -80.18865967 401.55407715 C-75.36174516 402.30117665 -70.53341375 403.03893768 -65.7052002 403.77758789 C-62.35304706 404.29654691 -59.00425244 404.83404406 -55.65527344 405.37304688 C-30.73995536 409.2776052 -10.74013306 409.27280311 11.89453125 397.19091797 C14.97840745 395.55939951 18.08182297 393.96853163 21.1875 392.37890625 C33.38907221 386.12802845 45.52329543 379.77401934 57.53369141 373.16113281 C63.97659568 369.62044838 70.47288778 366.19515999 77 362.8125 C84.90809358 358.70637449 92.78764681 354.552294 100.625 350.3125 C101.54345703 349.82007813 102.46191406 349.32765625 103.40820312 348.8203125 C112.18229817 344.48151361 112.18229817 344.48151361 117.5 336.8125 C117.96225901 332.03582358 117.99973779 329.79346677 115.8125 325.5 C112.47956152 321.62658502 110.32350324 320.0145145 105.18554688 319.4453125 C98.69553626 319.55557432 92.7710101 322.29211966 86.78125 324.5625 C85.4381636 325.06024406 84.09460625 325.55671896 82.75061035 326.05200195 C79.21125309 327.35956906 75.67759113 328.68185735 72.14520264 330.00811768 C65.88439144 332.35572148 59.61372598 334.67701064 53.34375 337 C52.66722382 337.25097443 51.99069763 337.50194885 51.29367065 337.76052856 C42.18628869 341.13589072 33.05338968 344.41142529 23.84375 347.5 C22.87449585 347.82701904 21.9052417 348.15403809 20.90661621 348.4909668 C11.90142441 351.46393199 3.82671344 351.99485201 -5.625 352 C-7.36523438 352.01836914 -7.36523438 352.01836914 -9.140625 352.03710938 C-16.00059164 352.04861939 -22.28173046 351.50280624 -28.97216797 349.94433594 C-31.57302449 349.56973819 -31.57302449 349.56973819 -33.71850586 351.16992188 C-34.97136448 352.36903996 -36.19175164 353.60255659 -37.38671875 354.859375 C-47.36929127 364.08541245 -64.12987647 364.15277525 -76.875 364.9375 C-77.54075043 364.97952545 -78.20650085 365.0215509 -78.89242554 365.06484985 C-93.42805653 365.96754615 -107.93918208 366.11682937 -122.5 365.8125 C-123.94705322 365.78349609 -123.94705322 365.78349609 -125.42333984 365.75390625 C-127.95039821 365.69205994 -130.4743975 365.60482637 -133 365.5 C-133.70552002 365.47768311 -134.41104004 365.45536621 -135.13793945 365.43237305 C-139.32948111 365.20058514 -142.19957709 364.45283833 -145.5 361.8125 C-146.46328895 358.28044052 -146.88250933 355.93060418 -145.6875 352.4375 C-144.5 350.8125 -144.5 350.8125 -142.5 349.8125 C-141.08563168 349.73295286 -139.66749986 349.71563899 -138.25097656 349.73071289 C-137.36591934 349.73714813 -136.48086212 349.74358337 -135.56898499 349.75021362 C-134.11944679 349.76751022 -134.11944679 349.76751022 -132.640625 349.78515625 C-130.56730536 349.79964547 -128.49398148 349.81353757 -126.4206543 349.8269043 C-125.3307016 349.83523285 -124.2407489 349.8435614 -123.11776733 349.85214233 C-107.45887437 349.95842217 -91.81858925 350.03094753 -76.1875 349 C-75.04893555 348.92982666 -73.91037109 348.85965332 -72.73730469 348.78735352 C-62.22467675 347.99086997 -51.12461197 346.80856743 -43.5 338.8125 C-41.13961551 334.95075619 -40.94410236 331.24257661 -41.5 326.8125 C-43.12660506 322.58332684 -44.99958788 319.67477579 -48.5 316.8125 C-51.28406685 315.6987692 -54.13985609 315.0188454 -57.0546875 314.33203125 C-58.31610062 314.01840385 -58.31610062 314.01840385 -59.60299683 313.69844055 C-62.23138216 313.05179665 -64.86426398 312.42844196 -67.5 311.8125 C-68.29426392 311.62540466 -69.08852783 311.43830933 -69.90686035 311.24554443 C-75.46820808 309.94420364 -81.04355781 308.71187567 -86.625 307.5 C-87.48720154 307.31195801 -88.34940308 307.12391602 -89.23773193 306.93017578 C-102.12836833 304.12393884 -115.03894618 301.41428299 -127.97796631 298.83999634 C-129.71509237 298.49382483 -131.45164844 298.14477808 -133.18756104 297.79257202 C-173.42866271 289.65689028 -198.69565508 300.81262962 -232.80957031 321.20800781 Z M-303.921875 347.49609375 C-306.85974037 351.76451409 -307.68838504 355.39822193 -307.8125 360.5 C-307.84988281 361.49386719 -307.88726562 362.48773438 -307.92578125 363.51171875 C-306.91344332 371.35965956 -301.88917078 377.25130908 -297.0625 383.25 C-295.80790117 384.83538967 -294.55401177 386.42134097 -293.30078125 388.0078125 C-292.66736816 388.80606445 -292.03395508 389.60431641 -291.38134766 390.42675781 C-288.46269599 394.12790809 -285.60522972 397.87484115 -282.75 401.625 C-281.67592881 403.03266469 -280.60171316 404.44021916 -279.52734375 405.84765625 C-279.01671387 406.51684082 -278.50608398 407.18602539 -277.97998047 407.87548828 C-274.96860679 411.81680118 -271.94269634 415.74683124 -268.91015625 419.671875 C-267.21502863 421.88076091 -265.5360053 424.09681287 -263.87109375 426.328125 C-263.43240967 426.91110352 -262.99372559 427.49408203 -262.54174805 428.09472656 C-261.3304677 429.70549362 -260.1259271 431.32132268 -258.921875 432.9375 C-254.04091089 438.73167674 -249.0211479 442.37573587 -241.5 443.8125 C-234.02607537 444.37632238 -228.34848808 441.20881247 -222.5 436.8125 C-217.17097498 432.22237341 -214.42928464 426.78735547 -213.5 419.8125 C-213.67707773 412.11552113 -216.93037913 406.76915755 -221.5 400.8125 C-222.21285156 399.87019531 -222.92570312 398.92789063 -223.66015625 397.95703125 C-225.77825589 395.18455936 -227.91382645 392.42714789 -230.05664062 389.67382812 C-232.6596842 386.31699386 -235.23446525 382.93855299 -237.8125 379.5625 C-238.91666034 378.11848474 -240.02082707 376.67447438 -241.125 375.23046875 C-243.39841355 372.25586573 -245.66885496 369.27902237 -247.9375 366.30078125 C-250.6460988 362.74625603 -253.36192744 359.19740099 -256.08544922 355.65429688 C-257.34296546 354.01696472 -258.59565787 352.37593028 -259.84765625 350.734375 C-265.39743029 343.59131324 -270.21306857 337.50103299 -279.5 335.8125 C-289.10790302 334.79038266 -297.88120101 340.34353746 -303.921875 347.49609375 Z " fill="#1F686A" transform="translate(351.5,35.1875)"/>
</svg>