<svg xmlns="http://www.w3.org/2000/svg" version="1.1" width="512px" height="512px" style="shape-rendering:geometricPrecision; text-rendering:geometricPrecision; image-rendering:optimizeQuality; fill-rule:evenodd; clip-rule:evenodd" xmlns:xlink="http://www.w3.org/1999/xlink">
<g><path style="opacity:0.927" fill="#1F686A" d="M 316.5,-0.5 C 325.167,-0.5 333.833,-0.5 342.5,-0.5C 389.969,11.0414 414.136,41.3748 415,90.5C 442.693,117.193 470.026,144.193 497,171.5C 499.133,175.232 500.466,179.232 501,183.5C 501.667,207.167 501.667,230.833 501,254.5C 497.006,261.663 492.006,262.33 486,256.5C 485.667,232.833 485.333,209.167 485,185.5C 484.64,183.392 483.973,181.392 483,179.5C 459,156.167 435,132.833 411,109.5C 406.543,121.754 400.043,132.754 391.5,142.5C 395.06,157.885 389.393,168.052 374.5,173C 361.303,174.985 352.136,169.818 347,157.5C 343.878,141.562 350.045,131.395 365.5,127C 371.086,126.408 376.42,127.075 381.5,129C 389.224,119.552 394.557,108.885 397.5,97C 390.833,90.3333 384.167,83.6667 377.5,77C 372.704,73.0901 367.704,72.7568 362.5,76C 326.904,110.385 291.404,144.885 256,179.5C 255.138,181.087 254.471,182.754 254,184.5C 253.667,208.833 253.333,233.167 253,257.5C 250.017,262.568 245.851,263.735 240.5,261C 239.107,259.829 238.273,258.329 238,256.5C 237.046,230.126 237.379,203.792 239,177.5C 240.333,174.833 241.667,172.167 243,169.5C 270.167,143 297.333,116.5 324.5,90C 295.845,88.6467 267.178,87.98 238.5,88C 235.554,88.8061 232.888,90.1395 230.5,92C 163.972,158.194 97.8058,224.694 32,291.5C 23.1381,304.692 23.4715,317.692 33,330.5C 40.3648,337.53 47.3648,344.864 54,352.5C 55.6218,361.79 51.7885,365.29 42.5,363C 35,355.5 27.5,348 20,340.5C 6.44511,321.059 6.11178,301.393 19,281.5C 85.8058,213.694 152.972,146.194 220.5,79C 227.818,73.3286 236.152,70.8286 245.5,71.5C 250.96,40.0942 268.293,17.9275 297.5,5C 303.828,2.6729 310.162,0.839566 316.5,-0.5 Z M 329.5,14.5 C 359.886,16.7756 381.386,31.7756 394,59.5C 395.652,64.0987 396.652,68.7654 397,73.5C 378.988,52.411 360.821,52.2444 342.5,73C 315.492,73.2253 288.492,72.7253 261.5,71.5C 270.897,36.4204 293.564,17.4204 329.5,14.5 Z M 367.5,142.5 C 374.632,142.802 377.465,146.469 376,153.5C 369.579,159.437 365.079,158.27 362.5,150C 362.782,146.556 364.448,144.056 367.5,142.5 Z"/></g>
<g><path style="opacity:0.924" fill="#1F686A" d="M 364.5,206.5 C 369.223,205.553 373.056,206.886 376,210.5C 376.169,217.856 376.669,225.189 377.5,232.5C 386.313,234.382 394.646,237.549 402.5,242C 407.343,246.38 407.677,251.046 403.5,256C 401.966,256.923 400.299,257.423 398.5,257.5C 391.54,253.86 384.207,251.026 376.5,249C 360.871,245.965 351.538,252.131 348.5,267.5C 349.299,273.952 352.633,278.452 358.5,281C 368.508,286.114 378.841,290.447 389.5,294C 406.459,303.764 412.625,318.264 408,337.5C 402.861,352.473 392.695,362.139 377.5,366.5C 376.669,374.145 376.169,381.812 376,389.5C 372.108,395.259 367.441,395.926 362,391.5C 360.594,383.251 360.094,374.917 360.5,366.5C 348.708,366.516 338.541,362.516 330,354.5C 328.218,347.718 330.718,343.718 337.5,342.5C 343.131,344.98 348.798,347.48 354.5,350C 368.03,353.768 379.53,350.601 389,340.5C 395.396,330.546 394.896,321.046 387.5,312C 374.45,306.201 361.45,300.201 348.5,294C 338.215,288.279 332.881,279.446 332.5,267.5C 333.519,249.16 342.853,237.827 360.5,233.5C 360.334,226.159 360.5,218.826 361,211.5C 361.997,209.677 363.164,208.01 364.5,206.5 Z"/></g>
<g><path style="opacity:0.916" fill="#1F686A" d="M 117.5,274.5 C 119.655,274.372 121.655,274.872 123.5,276C 152.333,304.833 181.167,333.667 210,362.5C 212.124,373.03 207.957,376.53 197.5,373C 169.333,344.833 141.167,316.667 113,288.5C 109.854,282.055 111.354,277.388 117.5,274.5 Z"/></g>
<g><path style="opacity:0.943" fill="#1F686A" d="M 462.5,511.5 C 400.167,511.5 337.833,511.5 275.5,511.5C 254.087,505.581 241.587,491.581 238,469.5C 237.667,458.167 237.333,446.833 237,435.5C 225.804,447.03 214.304,458.197 202.5,469C 182.835,479.777 163.835,478.777 145.5,466C 120.667,441.167 95.8333,416.333 71,391.5C 68.1473,381.019 71.9806,377.186 82.5,380C 107.861,405.695 133.528,431.028 159.5,456C 170.5,462 181.5,462 192.5,456C 207.638,441.863 222.471,427.363 237,412.5C 237.333,373.5 237.667,334.5 238,295.5C 242.606,288.013 247.606,287.679 253,294.5C 253.333,352.167 253.667,409.833 254,467.5C 257.207,485.04 267.707,494.54 285.5,496C 343.861,496.972 402.194,496.639 460.5,495C 474.381,490.449 482.548,480.949 485,466.5C 485.333,408.5 485.667,350.5 486,292.5C 487.529,289.484 490.029,288.151 493.5,288.5C 497.609,288.438 500.109,290.438 501,294.5C 501.667,352.167 501.667,409.833 501,467.5C 497.63,490.642 484.797,505.308 462.5,511.5 Z"/></g>
<g><path style="opacity:0.915" fill="#1F686A" d="M 92.5,298.5 C 95.3198,298.248 97.9865,298.748 100.5,300C 129,328.5 157.5,357 186,385.5C 188.833,396 185,399.833 174.5,397C 146,368.5 117.5,340 89,311.5C 86.3476,306.039 87.5142,301.706 92.5,298.5 Z"/></g>
<g><path style="opacity:0.932" fill="#1F686A" d="M 306.5,410.5 C 348.168,410.333 389.835,410.5 431.5,411C 436.224,413.435 437.724,417.269 436,422.5C 434.786,424.049 433.286,425.215 431.5,426C 390.167,426.667 348.833,426.667 307.5,426C 302.776,423.565 301.276,419.731 303,414.5C 304.102,413.051 305.269,411.718 306.5,410.5 Z"/></g>
<g><path style="opacity:0.932" fill="#1F686A" d="M 306.5,444.5 C 348.501,444.333 390.501,444.5 432.5,445C 435.366,446.393 436.699,448.726 436.5,452C 436.628,456.87 434.294,459.537 429.5,460C 389.5,460.667 349.5,460.667 309.5,460C 302.828,458.444 300.661,454.278 303,447.5C 304.145,446.364 305.312,445.364 306.5,444.5 Z"/></g>
</svg>