<svg version="1.1" xmlns="http://www.w3.org/2000/svg" width="512" height="512">
<path d="M0 0 C1.2576423 0.60773652 2.50703552 1.23275043 3.74900723 1.87190151 C4.44510756 2.2140645 5.1412079 2.55622749 5.85840219 2.90875906 C8.17435425 4.05202533 10.47825241 5.2176751 12.78280544 6.38372707 C14.44682117 7.21113036 16.1115177 8.03716565 17.77683926 8.86193752 C22.28835162 11.10161678 26.78955572 13.36131293 31.2887938 15.62552857 C36.00514855 17.99571331 40.72946863 20.34992509 45.45258999 22.70658779 C53.38446342 26.66753702 61.30963755 30.64164429 69.23104763 34.62347317 C78.3777136 39.22097803 87.53490532 43.79694688 96.69800287 48.3616038 C105.52401271 52.75902494 114.34203033 57.17225052 123.15664387 61.5924654 C126.90225566 63.4703669 130.65061029 65.34261989 134.40132236 67.21031284 C138.82286998 69.41289566 143.23724565 71.62924489 147.64656544 73.85620022 C149.26181698 74.66923212 150.87944216 75.47756877 152.49962521 76.28072834 C170.23806313 85.0819758 170.23806313 85.0819758 175.29061794 94.10296535 C176.5497268 98.25043551 176.83084786 101.81275133 176.8138113 106.11785793 C176.81905315 106.90549023 176.82429501 107.69312252 176.8296957 108.50462246 C176.83608557 110.16271703 176.83481846 111.82085711 176.82626247 113.47894192 C176.81777473 115.98767707 176.84651737 118.49411395 176.87826443 121.00262356 C176.92753335 132.16217293 176.05634051 141.62408139 168.08334255 150.16082668 C161.13714333 156.40603332 153.81177733 158.99445445 144.49813747 158.98260403 C143.7314323 158.98932125 142.96472713 158.99603848 142.17478848 159.00295925 C139.65335419 159.02187497 137.13218703 159.02586026 134.6106863 159.02801418 C132.84720153 159.03444689 131.08371782 159.04117561 129.32023525 159.0481863 C125.62755772 159.06014323 121.93497362 159.06386879 118.2422781 159.06268215 C113.52815018 159.06247913 108.81462622 159.08977118 104.10064125 159.12422657 C100.45874731 159.1465482 96.81699747 159.15051807 93.17504215 159.1494627 C91.43803039 159.15181112 89.70101419 159.16059159 87.96407032 159.17612743 C75.58962142 159.27644246 66.74865206 158.33986238 57.38021755 149.69207668 C53.99901425 151.17980614 51.25487236 153.220781 48.35678005 155.47332668 C34.91654471 163.76058642 11.65079828 158.69207668 0.38021755 158.69207668 C0.38021755 206.21207668 0.38021755 253.73207668 0.38021755 302.69207668 C45.33884173 305.3233147 45.33884173 305.3233147 66.69271755 286.87957668 C67.80208327 285.85352498 68.91145855 284.82748362 70.02084255 283.80145168 C70.57578396 283.28776028 71.13072536 282.77406887 71.70248318 282.24481106 C80.08012769 274.49134495 88.47726381 266.75942009 96.89633083 259.0509634 C98.89133424 257.22401556 100.88552443 255.3961832 102.87899685 253.56756496 C103.87544754 252.65457046 104.87299788 251.7427746 105.87167263 250.8322134 C108.44821587 248.48024866 111.00031324 246.10797644 113.52084255 243.69598293 C122.59453092 235.07392611 130.05115605 230.26479093 142.95834255 230.42254543 C151.17113912 231.06944379 157.16772541 234.37374018 162.68490505 240.43817043 C168.4354697 248.08350639 169.52270861 256.31658308 168.38021755 265.69207668 C165.31520338 277.51686507 154.77375072 285.26872467 146.10629177 293.12322903 C143.32705977 295.64930326 140.57375505 298.20325917 137.81771755 300.75457668 C131.68725994 306.41719587 125.53628915 312.05733007 119.38021755 317.69207668 C120.68421569 321.31146664 122.2369984 324.07854697 124.56771755 327.12957668 C128.76507546 332.77693096 132.74020506 338.55857671 136.69271755 344.37957668 C137.34635281 345.34153957 137.99998806 346.30350246 138.67343044 347.29461575 C139.9735133 349.20821904 141.27340313 351.1219535 142.57308865 353.03582668 C145.03804415 356.65899824 147.51924687 360.27080519 150.00521755 363.87957668 C155.13248776 371.32879249 160.25817735 378.77894776 165.34115505 386.25848293 C167.18279624 388.96335744 169.05275323 391.63874646 170.98178005 394.28192043 C176.84712618 402.49962269 176.84712618 402.49962269 177.13021755 407.19207668 C176.38021755 410.69207668 176.38021755 410.69207668 174.88021755 413.19207668 C172.06423374 414.88166697 169.74515619 415.21055788 166.4778738 415.32098293 C160.27237723 413.46048955 156.51098343 405.75744942 153.13021755 400.69207668 C151.98599535 398.9978575 150.84146239 397.30384816 149.6966238 395.61004543 C149.13733181 394.77908352 148.57803982 393.9481216 148.00179958 393.09197903 C145.71720112 389.71082834 143.39648098 386.35539788 141.06771755 383.00457668 C140.34970974 381.9694595 139.63170193 380.93434231 138.8919363 379.86785793 C138.39306911 379.14985012 137.89420193 378.43184231 137.38021755 377.69207668 C137.3544363 378.29535793 137.32865505 378.89863918 137.30209255 379.52020168 C137.2453738 380.31942043 137.18865505 381.11863918 137.13021755 381.94207668 C137.0838113 382.73098293 137.03740505 383.51988918 136.98959255 384.33270168 C136.1764006 387.48121413 134.87811715 388.63917187 132.38021755 390.69207668 C129.92507839 391.17309475 129.92507839 391.17309475 127.15267849 391.14617825 C126.11190151 391.14587612 125.07112453 391.145574 123.99880886 391.14526272 C122.32362179 391.11429501 122.32362179 391.11429501 120.61459255 391.08270168 C119.46605801 391.07704189 118.31752346 391.0713821 117.13418484 391.0655508 C113.46577181 391.04315999 109.79833539 390.9929561 106.13021755 390.94207668 C103.64325249 390.92201529 101.15627212 390.9037639 98.66928005 390.88738918 C92.57259266 390.84328624 86.47647488 390.77634617 80.38021755 390.69207668 C80.40116482 391.27698879 80.42211208 391.8619009 80.44369411 392.46453762 C80.52701871 395.12354134 80.57892652 397.78227023 80.63021755 400.44207668 C80.66373318 401.36246731 80.6972488 402.28285793 80.73178005 403.23113918 C80.83090157 410.07052383 80.83090157 410.07052383 78.48959255 413.29949856 C76.22221364 414.79638852 75.0732459 415.23415525 72.38021755 415.19207668 C71.39021755 415.20754543 71.39021755 415.20754543 70.38021755 415.22332668 C68.38021755 414.69207668 68.38021755 414.69207668 64.38021755 410.69207668 C64.38021755 404.09207668 64.38021755 397.49207668 64.38021755 390.69207668 C-46.49978245 390.69207668 -157.37978245 390.69207668 -271.61978245 390.69207668 C-271.61978245 397.29207668 -271.61978245 403.89207668 -271.61978245 410.69207668 C-275.61978245 414.69207668 -275.61978245 414.69207668 -277.61978245 415.22332668 C-278.27978245 415.21301418 -278.93978245 415.20270168 -279.61978245 415.19207668 C-280.60978245 415.20754543 -280.60978245 415.20754543 -281.61978245 415.22332668 C-284.73499226 414.39584908 -285.71126665 413.32417234 -287.61978245 410.69207668 C-288.12115453 407.26470473 -287.99557333 403.89648793 -287.86978245 400.44207668 C-287.85173557 399.50621731 -287.8336887 398.57035793 -287.81509495 397.60613918 C-287.76803918 395.30040653 -287.70231957 392.99676723 -287.61978245 390.69207668 C-288.93172581 390.71302395 -290.24366917 390.73397121 -291.59536839 390.75555325 C-296.46309589 390.82795639 -301.3307758 390.87387782 -306.19888401 390.91180325 C-308.30573627 390.93191794 -310.4125327 390.95921335 -312.51919651 390.9938345 C-315.54765692 391.04235837 -318.57537923 391.06504685 -321.60415745 391.08270168 C-323.01685917 391.1136694 -323.01685917 391.1136694 -324.45810032 391.14526272 C-328.27529952 391.14657234 -330.85167785 391.12516617 -334.21255589 389.23016262 C-336.32345505 385.42292672 -336.19228943 381.98116035 -336.15103245 377.69207668 C-336.15485935 376.81938137 -336.15868626 375.94668606 -336.16262913 375.04754543 C-336.16534735 373.20508576 -336.15799239 371.36258744 -336.14126682 369.52020168 C-336.11985493 366.70161735 -336.14107046 363.88558184 -336.16665745 361.06707668 C-336.16401415 359.2754044 -336.15888914 357.48373369 -336.15103245 355.69207668 C-336.16317783 354.42943996 -336.16317783 354.42943996 -336.17556858 353.14129543 C-336.11537558 349.38125231 -336.04507753 347.31410365 -333.88443089 344.15399075 C-331.27006817 342.46632323 -329.94054711 342.22231349 -326.85415745 342.30145168 C-325.51997776 342.32078762 -325.51997776 342.32078762 -324.15884495 342.34051418 C-322.77825901 342.39078762 -322.77825901 342.39078762 -321.36978245 342.44207668 C-320.43392307 342.46012356 -319.4980637 342.47817043 -318.53384495 342.49676418 C-316.22811229 342.54381995 -313.924473 342.60953956 -311.61978245 342.69207668 C-311.6661887 341.65309231 -311.71259495 340.61410793 -311.76040745 339.54363918 C-312.10655636 328.53953884 -311.18012197 319.63610183 -303.32290745 311.22332668 C-295.23296479 303.94980026 -287.17187568 302.39224077 -276.57208347 302.45156765 C-274.89830429 302.44900438 -274.89830429 302.44900438 -273.19071138 302.44638932 C-269.45036903 302.44309414 -265.71020593 302.45409878 -261.9698801 302.4650259 C-259.2892221 302.46559001 -256.60857509 302.46536154 -253.92791843 302.46414089 C-248.15596377 302.463093 -242.38405437 302.46935958 -236.61211109 302.48061657 C-228.26689206 302.4968816 -219.92169488 302.5020806 -211.57646172 302.50459255 C-198.03636482 302.50896808 -184.49629204 302.52227333 -170.95620823 302.54119778 C-157.80451673 302.55956026 -144.65283181 302.57369202 -131.5011301 302.5822134 C-130.27240085 302.58301739 -130.27240085 302.58301739 -129.01884878 302.58383763 C-122.61238428 302.58799656 -116.20591963 302.59191038 -109.79945493 302.59574676 C-78.40620863 302.6146087 -47.01302272 302.65484659 -15.61978245 302.69207668 C-15.61978245 255.17207668 -15.61978245 207.65207668 -15.61978245 158.69207668 C-28.81978245 158.69207668 -42.01978245 158.69207668 -55.61978245 158.69207668 C-65.74478245 154.19207668 -65.74478245 154.19207668 -70.61978245 149.69207668 C-74.00098575 151.17980614 -76.74512764 153.220781 -79.64321995 155.47332668 C-84.65743104 158.56509321 -89.72927285 158.98994491 -95.48599339 158.98260403 C-96.25109226 158.98932125 -97.01619114 158.99603848 -97.80447483 159.00295925 C-100.32110273 159.021877 -102.83746296 159.02586055 -105.35415745 159.02801418 C-107.11524659 159.03444743 -108.87633467 159.04117618 -110.63742161 159.0481863 C-114.325903 159.06014424 -118.01429086 159.06386876 -121.70279026 159.06268215 C-126.40785246 159.06247928 -131.11230853 159.08975531 -135.81722736 159.12422657 C-139.45487261 159.14656836 -143.0923738 159.15051744 -146.7300806 159.1494627 C-148.46347481 159.15180871 -150.1968736 159.16057536 -151.93019962 159.17612743 C-163.68899911 159.2717386 -174.05486603 158.83230522 -183.08853245 150.39520168 C-189.49333267 143.27149531 -191.92755783 135.82505037 -191.95571995 126.29363918 C-191.96570515 125.1029533 -191.96570515 125.1029533 -191.97589207 123.88821316 C-191.98597586 122.2157614 -191.99071042 120.54326975 -191.99038792 118.87078762 C-191.99475786 116.33136664 -192.03111132 113.79369044 -192.0690012 111.25457668 C-192.07487122 109.62177006 -192.07883937 107.98895527 -192.08071995 106.35613918 C-192.09509098 105.60692196 -192.10946201 104.85770473 -192.12426853 104.08578396 C-192.07024236 97.75711703 -190.42581132 92.8751017 -186.19809628 88.07938385 C-179.53244208 81.88209739 -171.48508103 78.19536462 -163.41665745 74.18646145 C-161.77281422 73.35882972 -160.12947618 72.53019396 -158.48660374 71.70063686 C-154.04603782 69.46248413 -149.59801291 67.23956608 -145.14799595 65.02027535 C-141.4278436 63.16329817 -137.71139775 61.29896818 -133.9949007 59.43468899 C-125.22816753 55.03730082 -116.45528025 50.65237678 -107.6783762 46.27532864 C-98.63117078 41.76322149 -89.59440095 37.23071691 -80.56252766 32.68800789 C-72.79569939 28.7824364 -65.02272264 24.88931061 -57.24466419 21.00615257 C-52.60422092 18.68929958 -47.96621033 16.36788532 -43.33401585 14.03457737 C-38.9809878 11.84259446 -34.6204715 9.66629121 -30.25373936 7.50174427 C-28.65464444 6.70588195 -27.05824492 5.90457669 -25.46482944 5.09740353 C-23.28561983 3.99458289 -21.09743108 2.91204679 -18.90591526 1.83393764 C-18.28099564 1.51187283 -17.65607601 1.18980801 -17.01221943 0.85798365 C-10.95238398 -2.07218154 -6.24608202 -2.25687495 0 0 Z M-8.61978245 23.69207668 C-9.83116097 25.2541834 -9.83116097 25.2541834 -10.9830637 27.32879543 C-11.68447483 28.51916409 -11.68447483 28.51916409 -12.40005589 29.73358059 C-12.90569065 30.6067593 -13.41132542 31.47993801 -13.93228245 32.37957668 C-15.02599103 34.23583768 -16.12108606 36.09128235 -17.2174387 37.94598293 C-17.78220921 38.9039175 -18.34697971 39.86185207 -18.92886448 40.84881496 C-21.5202915 45.20627369 -24.19102909 49.51293283 -26.86978245 53.81707668 C-27.95064102 55.55788176 -29.03136643 57.29876952 -30.11196995 59.03973293 C-30.67238987 59.94223782 -31.23280979 60.8447427 -31.81021214 61.77459621 C-34.8647205 66.69922856 -37.91041777 71.62926377 -40.95120335 76.56237698 C-41.95844062 78.19564715 -42.96730395 79.8279142 -43.97622776 81.46014309 C-44.60883518 82.48672024 -45.2414426 83.51329739 -45.89321995 84.57098293 C-46.44413303 85.46373928 -46.99504612 86.35649563 -47.56265354 87.2763052 C-50.63738862 92.38176668 -53.61679007 97.54408975 -56.61978245 102.69207668 C-24.27978245 102.69207668 8.06021755 102.69207668 41.38021755 102.69207668 C36.46329577 94.08746356 31.54756243 85.61234649 26.25521755 77.25457668 C21.15323603 69.14455724 16.10332971 61.00678731 11.13021755 52.81707668 C10.55803493 51.87670559 9.98585232 50.9363345 9.39633083 49.96746731 C6.62339319 45.405512 3.86551939 40.83529587 1.13021755 36.25067043 C0.62264919 35.40552883 0.11508083 34.56038723 -0.40786839 33.68963528 C-1.35995553 32.10377737 -2.30623081 30.51441106 -3.24575901 28.92108059 C-4.31585988 27.14405207 -5.46023341 25.41207443 -6.61978245 23.69207668 C-7.27978245 23.69207668 -7.93978245 23.69207668 -8.61978245 23.69207668 Z M-33.61978245 28.69207668 C-36.16043375 29.65658093 -36.16043375 29.65658093 -39.07911777 31.17114162 C-40.23868488 31.74600811 -41.39825199 32.3208746 -42.5929575 32.91316128 C-43.88444876 33.56359361 -45.17585836 34.2141881 -46.46719456 34.86492825 C-47.82187614 35.54037877 -49.17690057 36.21514206 -50.53224277 36.88926601 C-54.2219007 38.72709029 -57.9064296 40.57498707 -61.58999038 42.42499542 C-65.44048019 44.35714702 -69.295012 46.28120344 -73.14897251 48.20641994 C-79.62407423 51.44261789 -86.09590342 54.6852869 -92.56582737 57.93182278 C-100.04834544 61.68637432 -107.53577459 65.43097974 -115.02596563 69.17019773 C-122.22407983 72.76386567 -129.41878246 76.36431189 -136.61191082 79.96794796 C-139.67574991 81.50274851 -142.74074562 83.03520302 -145.80668545 84.56580257 C-149.41844533 86.36929705 -153.02717507 88.17871604 -156.63364697 89.99276066 C-157.95847768 90.65795969 -159.28433381 91.32112092 -160.61127567 91.98209858 C-162.42144745 92.88420945 -164.2275682 93.79443557 -166.03346348 94.70507717 C-167.04575992 95.21244034 -168.05805635 95.7198035 -169.10102844 96.24254131 C-171.37859665 97.55327498 -172.98473726 98.64863433 -174.61978245 100.69207668 C-174.61978245 101.35207668 -174.61978245 102.01207668 -174.61978245 102.69207668 C-162.05086177 103.13358971 -149.48380189 103.47051243 -136.90868855 103.67650795 C-131.06805242 103.77541921 -125.23274239 103.90935283 -119.39517307 104.12542629 C-113.75363985 104.33292061 -108.11720162 104.44566541 -102.47214603 104.4947443 C-100.3265285 104.52967845 -98.18117076 104.59791922 -96.03774357 104.70094776 C-84.54252216 105.5285325 -84.54252216 105.5285325 -74.55132961 100.83558559 C-70.82384709 96.27384898 -68.15589723 91.26698428 -65.68594265 85.94050598 C-64.28216931 82.98008306 -62.61111168 80.29926679 -60.8424387 77.54363918 C-59.78756378 75.80235316 -58.73415215 74.06017974 -57.68228245 72.31707668 C-52.52317038 63.80323896 -47.31607459 55.32113958 -42.05752659 46.86834621 C-38.52105639 41.17661468 -35.05226109 35.44710792 -31.61978245 29.69207668 C-32.60978245 29.19707668 -32.60978245 29.19707668 -33.61978245 28.69207668 Z M16.38021755 28.69207668 C19.28469409 34.73615404 22.56136448 40.39396513 26.13021755 46.06707668 C27.29084794 47.92615576 28.45098092 49.78554544 29.6106863 51.64520168 C30.22218533 52.62424465 30.83368435 53.60328762 31.46371365 54.61199856 C35.43977797 61.00206576 39.36463139 67.42389172 43.29525661 73.84197903 C44.53695242 75.86403039 45.80068661 77.87272071 47.08653164 79.86698818 C48.82438325 82.645481 50.24146522 85.47667643 51.62196255 88.44761562 C56.01689547 97.60413875 56.01689547 97.60413875 63.71171665 103.75494289 C70.39093168 105.36312718 77.1838495 104.87467844 83.98959255 104.54754543 C86.16950612 104.51205289 88.34957255 104.48503302 90.52969265 104.46607876 C96.23523337 104.3939365 101.93140299 104.20775366 107.63326931 103.99670315 C113.46429528 103.8013993 119.29685535 103.71536857 125.13021755 103.61981106 C136.55097567 103.41677303 147.96481413 103.0930697 159.38021755 102.69207668 C157.3757165 97.94538547 153.94341469 96.53204746 149.50741482 94.32342434 C148.67233426 93.89614355 147.8372537 93.46886276 146.97686768 93.02863407 C144.11750371 91.57057415 141.24924044 90.13102911 138.38021755 88.69207668 C136.26828615 87.62349323 134.15663174 86.55436219 132.0452261 85.48474026 C125.46803211 82.16020066 118.87945206 78.85874567 112.28810477 75.56239176 C110.32304226 74.57950063 108.35826703 73.59603759 106.39358616 72.61238384 C99.52578719 69.17390013 92.65699262 65.73741526 85.78719997 62.30291653 C79.39742162 59.10833041 73.00991311 55.90923777 66.62339395 52.70814168 C61.11022189 49.94503307 55.59552452 47.18498603 50.07961279 44.42735064 C46.79695701 42.78615018 43.51493379 41.14371455 40.23444843 39.49817944 C36.59897373 37.67473201 32.96035217 35.85765473 29.32137966 34.04119778 C28.23633144 33.49586391 27.15128323 32.95053005 26.03335476 32.38867092 C25.04836498 31.89827328 24.06337521 31.40787563 23.04853725 30.90261745 C22.19013713 30.47314501 21.331737 30.04367256 20.44732475 29.6011858 C18.45145441 28.55788218 18.45145441 28.55788218 16.38021755 28.69207668 Z M-175.61978245 118.69207668 C-175.71260021 128.66884356 -175.71260021 128.66884356 -171.33071995 137.30145168 C-163.98325484 143.98096541 -154.52304532 143.00359846 -145.25259495 142.99285793 C-143.84926319 142.99675199 -142.4459326 143.00108811 -141.04260349 143.00584316 C-138.10914372 143.0132789 -135.17580436 143.01303364 -132.24234104 143.00775051 C-128.50469153 143.00196248 -124.76753864 143.01888319 -121.02997112 143.04209518 C-118.13353748 143.05691111 -115.23722125 143.05769357 -112.34075642 143.05458546 C-110.96380601 143.05509483 -109.58684837 143.06025961 -108.20993519 143.07039738 C-95.93538222 143.37491742 -95.93538222 143.37491742 -85.04437351 138.41712856 C-79.56418938 132.48246229 -79.61978245 126.48133599 -79.61978245 118.69207668 C-111.29978245 118.69207668 -142.97978245 118.69207668 -175.61978245 118.69207668 Z M-63.61978245 118.69207668 C-63.71260021 128.66884356 -63.71260021 128.66884356 -59.33071995 137.30145168 C-53.71689696 142.40492713 -46.8860129 142.99211834 -39.62417698 142.96673489 C-38.85732578 142.97184582 -38.09047459 142.97695675 -37.30038548 142.98222256 C-34.78437422 142.99603659 -32.26863945 142.99516791 -29.75259495 142.99285793 C-27.99053949 142.99674955 -26.22848495 143.00108518 -24.46643162 143.00584316 C-20.77972461 143.01328792 -17.0931134 143.01302691 -13.40640354 143.00775051 C-8.70024728 143.00196026 -3.99448513 143.0188846 0.71160603 143.04209518 C4.34920419 143.05688363 7.98670857 143.05769726 11.62433147 143.05458546 C13.35853893 143.05509617 15.09275199 143.06028657 16.82693005 143.07039738 C30.64383434 143.6771561 30.64383434 143.6771561 42.94195461 138.41712856 C48.44838621 132.51329728 48.38021755 126.4633955 48.38021755 118.69207668 C11.42021755 118.69207668 -25.53978245 118.69207668 -63.61978245 118.69207668 Z M64.38021755 118.69207668 C64.28739979 128.66884356 64.28739979 128.66884356 68.66928005 137.30145168 C76.01674516 143.98096541 85.47695468 143.00359846 94.74740505 142.99285793 C96.15073681 142.99675199 97.5540674 143.00108811 98.95739651 143.00584316 C101.89085628 143.0132789 104.82419564 143.01303364 107.75765896 143.00775051 C111.49530847 143.00196248 115.23246136 143.01888319 118.97002888 143.04209518 C121.86646252 143.05691111 124.76277875 143.05769357 127.65924358 143.05458546 C129.03619399 143.05509483 130.41315163 143.06025961 131.79006481 143.07039738 C144.06461778 143.37491742 144.06461778 143.37491742 154.95562649 138.41712856 C160.43581062 132.48246229 160.38021755 126.48133599 160.38021755 118.69207668 C128.70021755 118.69207668 97.02021755 118.69207668 64.38021755 118.69207668 Z M123.25570583 258.81487942 C121.45141857 260.62081078 119.5897183 262.29095694 117.65365505 263.95379543 C113.50513155 267.55728878 109.49646708 271.29112074 105.50521755 275.06707668 C100.34291294 279.92953094 95.1467461 284.74169835 89.85678005 289.46551418 C86.90380942 292.12039314 83.98367463 294.80917952 81.06771755 297.50457668 C80.52687527 298.00416897 79.98603298 298.50376125 79.42880154 299.0184927 C76.53656325 301.69215889 73.64958311 304.37135381 70.7669363 307.05535793 C70.1788821 307.6015176 69.5908279 308.14767727 68.98495388 308.71038723 C67.85683738 309.75825381 66.73029456 310.80781792 65.60555935 311.85931301 C61.22985859 315.9198472 58.78719809 317.94155773 52.75754261 317.94540977 C51.57973205 317.95102517 50.40192149 317.95664057 49.1884197 317.96242613 C47.88815678 317.95844503 46.58789386 317.95446394 45.24822903 317.95036221 C43.85786954 317.9532154 42.46751164 317.95695262 41.07715666 317.9615007 C37.24755019 317.97150941 33.41803501 317.9691009 29.58842158 317.96477377 C25.46146318 317.9623029 21.33452911 317.97135911 17.20757961 317.97915554 C10.05234648 317.99121508 2.89713564 317.99630925 -4.25810719 317.99703693 C-14.61325988 317.9983613 -24.96835838 318.01346234 -35.32349198 318.0325321 C-52.13595319 318.06339547 -68.94841578 318.08754971 -85.76089573 318.10540676 C-86.76766622 318.10647944 -87.77443672 318.10755212 -88.81171541 318.10865731 C-100.03871149 318.12047204 -111.26570812 318.13067732 -122.49270725 318.13909817 C-126.56061905 318.1421719 -130.62853084 318.14526072 -134.6964426 318.14837551 C-135.70017031 318.14914085 -136.70389802 318.14990619 -137.73804171 318.15069472 C-154.47933654 318.16378016 -171.22059228 318.18842693 -187.96185815 318.22211891 C-198.28887787 318.24240459 -208.61581394 318.25269889 -218.94285373 318.25012971 C-226.02266522 318.24909394 -233.10241065 318.25874275 -240.18219908 318.27676874 C-244.26631835 318.28680532 -248.35029148 318.29195097 -252.43441868 318.28400135 C-256.17643184 318.2768044 -259.91816075 318.28344559 -263.66013782 318.30088676 C-265.64859642 318.30658598 -267.63708056 318.29758213 -269.62552416 318.28798383 C-280.5603417 318.31574548 -280.5603417 318.31574548 -290.1980778 322.96693891 C-294.45518281 327.58715295 -295.73240039 332.80217357 -295.6627512 338.91863918 C-295.64857151 340.16387356 -295.63439182 341.40910793 -295.61978245 342.69207668 C-249.79283286 343.0586512 -203.96603904 343.34040879 -158.1379112 343.50912195 C-152.72211654 343.5291322 -147.30632476 343.54984146 -141.8905344 343.57098293 C-140.81239113 343.5751799 -139.73424786 343.57937687 -138.62343358 343.58370101 C-121.18777979 343.65323934 -103.75297384 343.77934487 -86.31782228 343.92652142 C-68.41500666 344.0763803 -50.5126337 344.16506597 -32.60921663 344.1974926 C-21.56970374 344.21939969 -10.53258748 344.28846859 0.50618721 344.41874015 C8.08577453 344.50360831 15.6641311 344.52881445 23.24415856 344.50809872 C27.61235536 344.49789218 31.97637959 344.513026 36.34382534 344.59936428 C56.77805314 345.57818464 56.77805314 345.57818464 74.57602078 337.07308006 C77.24412167 334.37544912 79.64375901 331.57390195 81.92880738 328.54673481 C83.89977913 326.02816436 86.19449183 324.00267875 88.63021755 321.94207668 C94.04958865 317.10957487 99.37412068 312.1771048 104.70248318 307.24481106 C107.44739247 304.70441189 110.19482974 302.16675332 112.94271755 299.62957668 C113.75059719 298.88357204 113.75059719 298.88357204 114.57479763 298.1224966 C118.16963993 294.80472179 121.77251898 291.49586263 125.38021755 288.19207668 C129.69603483 284.23734372 134.01055408 280.2812351 138.31771755 276.31707668 C138.84945583 275.82916653 139.38119411 275.34125637 139.92904568 274.83856106 C147.91182039 268.29698832 147.91182039 268.29698832 151.69271755 259.31707668 C151.35695067 255.42218086 150.81181345 253.71060953 148.38021755 250.69207668 C145.56586275 248.42495753 143.63910045 247.73603793 140.06771755 247.12957668 C132.86572682 248.22818544 128.14558991 253.7420105 123.25570583 258.81487942 Z M100.50521755 333.87957668 C99.82717068 334.47125637 99.1491238 335.06293606 98.45053005 335.67254543 C95.91741305 338.06086296 95.91741305 338.06086296 92.38021755 342.69207668 C99.31021755 342.69207668 106.24021755 342.69207668 113.38021755 342.69207668 C111.95649086 339.8446233 110.5271281 337.15345381 108.88021755 334.44207668 C108.45740505 333.73567043 108.03459255 333.02926418 107.59896755 332.30145168 C107.19678005 331.77035793 106.79459255 331.23926418 106.38021755 330.69207668 C103.52765678 330.69207668 102.61826761 332.00972673 100.50521755 333.87957668 Z M-319.61978245 358.69207668 C-319.61978245 363.97207668 -319.61978245 369.25207668 -319.61978245 374.69207668 C-174.41978245 374.69207668 -29.21978245 374.69207668 120.38021755 374.69207668 C120.38021755 369.41207668 120.38021755 364.13207668 120.38021755 358.69207668 C-24.81978245 358.69207668 -170.01978245 358.69207668 -319.61978245 358.69207668 Z " fill="#1F686A" transform="translate(335.61978244781494,49.307923316955566)"/>
</svg>