<svg version="1.1" xmlns="http://www.w3.org/2000/svg" width="512" height="512">
<path d="M0 0 C11.84851644 12.38708537 10.97708584 25.75190549 10.75 41.875 C22.96 41.875 35.17 41.875 47.75 41.875 C47.67159946 35.69817628 47.67159946 35.69817628 47.56982422 29.52172852 C47.50508671 19.28798182 49.42592095 11.10189929 55.75 2.875 C62.21634278 -3.48446108 69.14541989 -6.23616122 78.125 -6.5625 C87.25717957 -6.30912161 94.32042749 -3.45409239 100.9921875 2.8125 C106.53830094 9.31993977 108.8970602 16.72770617 108.84765625 25.17578125 C108.84515869 26.05661377 108.84266113 26.93744629 108.84008789 27.8449707 C108.83098389 28.94800537 108.82187988 30.05104004 108.8125 31.1875 C108.791875 34.714375 108.77125 38.24125 108.75 41.875 C121.29 41.875 133.83 41.875 146.75 41.875 C146.59298523 34.09730926 146.59298523 34.09730926 146.38964844 26.32080078 C146.30381159 17.81326138 147.99025088 11.37236894 152.4375 4.125 C159.38124572 -2.63107691 166.78858381 -6.39030397 176.5625 -6.5 C185.94791392 -6.33222709 192.10419978 -3.46196208 198.95703125 2.87109375 C204.10440592 8.62404191 206.88668684 14.94769256 206.84765625 22.63671875 C206.84515869 23.64436279 206.84266113 24.65200684 206.84008789 25.69018555 C206.82643188 27.6069812 206.82643188 27.6069812 206.8125 29.5625 C206.791875 33.625625 206.77125 37.68875 206.75 41.875 C219.29 41.875 231.83 41.875 244.75 41.875 C244.646875 38.1625 244.54375 34.45 244.4375 30.625 C244.32910223 19.24552439 245.12650497 10.63007708 253.0625 1.875 C260.60982947 -4.88134298 268.46325117 -6.49506901 278.35546875 -6.40625 C285.98024202 -5.77450814 292.45760922 -2.657954 297.75 2.875 C306.77685958 15.04824092 306.01795894 27.37544394 305.75 41.875 C306.58023682 41.85143433 306.58023682 41.85143433 307.42724609 41.82739258 C322.59463982 41.45333719 334.581859 41.77292191 346.4375 52.25 C355.47689391 62.51093363 357.21966695 71.73986066 356.97607422 85.3359375 C356.95966491 87.34966829 356.94327546 89.36339933 356.92763448 91.37713623 C356.90858725 93.52261112 356.88250714 95.66791099 356.85503769 97.81329346 C356.80007696 102.30308092 356.77927001 106.79263443 356.76565552 111.28271484 C356.76058866 112.82583626 356.75549776 114.3689576 356.75038338 115.91207886 C356.74657956 117.07045069 356.74657956 117.07045069 356.74269891 118.25222397 C356.70583883 128.69020196 356.6414317 139.12725519 356.50683594 149.56445312 C356.41602571 156.62732619 356.3717911 163.68886404 356.37982762 170.7523365 C356.38213425 174.48189202 356.36090951 178.20791281 356.28200912 181.93670654 C355.02200074 197.83603387 355.02200074 197.83603387 360.5725708 211.82006836 C363.64558883 214.49100239 367.0781918 216.13580764 370.75 217.875 C390.43769772 234.55215422 403.2315942 260.06725757 408.75 284.875 C408.92805176 285.66028076 409.10610352 286.44556152 409.28955078 287.25463867 C410.91237759 295.10700307 411.13584437 302.8108371 411.125 310.8125 C411.12418427 311.83188156 411.12418427 311.83188156 411.12335205 312.87185669 C411.02017902 341.0203476 402.14766841 369.19251761 383.7578125 390.94140625 C381.79279209 392.83378972 380.29782537 393.93307668 377.75 394.875 C374.36021227 394.73664132 372.46221654 394.49225434 369.875 392.25 C368.27133267 388.86448009 368.37519853 386.60771668 368.75 382.875 C370.11137306 380.1808449 371.90893961 377.88366339 373.75 375.5 C384.72478682 360.42096544 391.45785648 343.4248213 393.75 324.875 C393.88535156 323.83214844 394.02070313 322.78929687 394.16015625 321.71484375 C397.21478894 291.69517762 386.7919061 263.17929373 368.23828125 239.90625 C350.26198098 218.00733476 322.78344221 204.65546696 294.75 201.875 C266.54132678 199.7739402 238.22966767 207.54925891 215.9375 225.25 C207.05326715 232.93185547 199.00789813 240.87448482 192.75 250.875 C192.16605469 251.78765625 191.58210938 252.7003125 190.98046875 253.640625 C175.14255802 279.4505536 171.74759056 308.52097094 177.75 337.875 C184.63538776 365.75918881 202.26276117 389.93891798 226.75 404.875 C251.46854435 419.71017441 280.59985954 425.22240445 308.9609375 418.91015625 C322.91075541 415.09912352 335.94491405 409.80886227 347.984375 401.6953125 C351.10578133 399.64082754 353.01068406 398.875 356.75 398.875 C360.52803176 400.88995027 361.54375116 402.20772434 362.8125 406.3125 C362.73482474 410.73998988 361.73057244 411.69210393 358.75 414.875 C331.99221805 434.56687416 297.31878592 441.85822983 264.69262695 437.05004883 C246.8124109 433.9148356 224.25787846 427.39496674 211.24064064 414.36275387 C200.65690585 404.09344078 188.5589268 405.51331993 174.57177734 405.69555664 C171.91767784 405.69342379 169.26386601 405.68730679 166.6098175 405.67617798 C160.91401508 405.66001335 155.21927121 405.67975411 149.52363205 405.7241993 C141.27710962 405.78822666 133.03133358 405.79358978 124.78460498 405.78460806 C111.3861568 405.77130812 97.98816137 405.80023151 84.58984375 405.8581543 C71.60970379 405.91413739 58.6296606 405.95770695 45.64941406 405.97924805 C44.8495731 405.9805845 44.04973214 405.98192094 43.22565357 405.98329789 C34.48477683 405.99746552 25.74390215 406.0071941 17.00301552 406.01234341 C16.23382225 406.0128082 15.46462899 406.013273 14.67212684 406.01375188 C11.59638115 406.0155681 8.52063559 406.01736339 5.44488962 406.01862305 C-3.53798789 406.02245157 -12.52059564 406.0398514 -21.50337873 406.08211904 C-27.13796773 406.10837709 -32.77252727 406.12499865 -38.40716983 406.13420237 C-41.65321177 406.14002142 -44.89898733 406.1526646 -48.1449604 406.17540932 C-51.67224687 406.1995724 -55.19911256 406.2051333 -58.72647095 406.20643616 C-59.74000912 406.21810493 -60.7535473 406.2297737 -61.79779875 406.24179608 C-73.4565057 406.20175793 -83.42958893 403.36048016 -92 395.2109375 C-97.73030154 388.93625731 -101.36546465 381.73987871 -101.38422108 373.17729187 C-101.39090784 371.75827056 -101.39090784 371.75827056 -101.39772969 370.31058216 C-101.39754533 369.27440597 -101.39736097 368.23822977 -101.39717102 367.1706543 C-101.40084771 366.06749972 -101.4045244 364.96434515 -101.4083125 363.82776165 C-101.4193568 360.11824268 -101.42319439 356.40875171 -101.42700195 352.69921875 C-101.43326582 350.04505242 -101.43989963 347.39088909 -101.44691467 344.73672485 C-101.46666047 336.76500734 -101.4767407 328.7932886 -101.48564246 320.82155275 C-101.4900265 317.06840208 -101.49539283 313.31525283 -101.50063133 309.56210327 C-101.51763805 297.08901767 -101.53213436 284.61593294 -101.53938007 272.14283752 C-101.54128997 268.90739948 -101.54321031 265.67196145 -101.54516602 262.43652344 C-101.54564976 261.6323687 -101.5461335 260.82821396 -101.5466319 259.99969089 C-101.5549404 246.95961976 -101.58029357 233.91964013 -101.61274669 220.87960899 C-101.64578493 207.49559431 -101.6638257 194.11162621 -101.66702431 180.72757053 C-101.6691919 173.21117537 -101.67797719 165.69491382 -101.70348549 158.17855835 C-101.72514797 151.78069741 -101.73326482 145.38300255 -101.72351871 138.98510909 C-101.71896157 135.71970682 -101.72310572 132.45472059 -101.74028015 129.18935013 C-101.75784742 125.65238839 -101.7509673 122.11630641 -101.73774719 118.5793457 C-101.74871644 117.54316951 -101.75968568 116.50699331 -101.77098733 115.43941784 C-101.7084278 108.54244218 -101.7084278 108.54244218 -99.4382658 105.23722839 C-96.2010017 103.22198277 -93.9795901 103.34220141 -90.25 103.875 C-86.25 107.875 -86.25 107.875 -86.25 129.875 C54.66 129.875 195.57 129.875 340.75 129.875 C343.89138948 80.36122505 343.89138948 80.36122505 334.75 63.875 C326.05465801 57.41936731 316.18761387 57.9928786 305.75 57.875 C305.77320313 59.13054687 305.79640625 60.38609375 305.8203125 61.6796875 C306.14749191 86.11803581 306.14749191 86.11803581 297.75 96.875 C291.14099801 103.36110733 284.14787082 105.98513276 275 106.4375 C265.73620939 106.20913217 258.17488017 102.83633979 251.75 96.125 C245.38794814 87.67236467 244.17466147 79.63060244 244.5 69.25 C244.5825 65.49625 244.665 61.7425 244.75 57.875 C232.21 57.875 219.67 57.875 206.75 57.875 C206.90717483 65.69772676 206.90717483 65.69772676 207.11035156 73.51928711 C207.21416656 83.83464658 204.55725223 90.62956211 197.54296875 98.15234375 C190.30601877 105.10549177 182.93968469 106.33854645 173.23046875 106.1953125 C168.4050449 105.75122186 164.87739568 104.32751047 160.75 101.875 C159.698125 101.318125 158.64625 100.76125 157.5625 100.1875 C151.98442135 95.60107977 148.73628639 89.75982068 146.75 82.875 C146.52294922 79.89892578 146.52294922 79.89892578 146.5546875 76.8203125 C146.55968262 75.82016113 146.56467773 74.82000977 146.56982422 73.78955078 C146.58803223 72.53899902 146.60624023 71.28844727 146.625 70 C146.66625 65.99875 146.7075 61.9975 146.75 57.875 C134.21 57.875 121.67 57.875 108.75 57.875 C108.8675911 64.66517993 108.8675911 64.66517993 109.02026367 71.45458984 C109.09969966 80.66062311 107.46827488 88.78774181 101.5546875 96.0546875 C95.13032817 102.53466899 87.66321317 106.13715255 78.5 106.25 C69.84863626 106.09234417 62.64466422 103.60601735 56.28125 97.6328125 C48.58155464 88.7938765 47.4111218 78.61492187 47.625 67.3125 C47.66625 64.198125 47.7075 61.08375 47.75 57.875 C35.54 57.875 23.33 57.875 10.75 57.875 C10.79125 60.80375 10.8325 63.7325 10.875 66.75 C10.90237065 78.30530335 10.11046388 87.44644118 2.75 96.875 C-3.85900199 103.36110733 -10.85212918 105.98513276 -20 106.4375 C-29.26379061 106.20913217 -36.82511983 102.83633979 -43.25 96.125 C-49.61326541 87.67075235 -50.8282358 79.63992559 -50.5 69.25 C-50.48195312 68.15042969 -50.46390625 67.05085938 -50.4453125 65.91796875 C-50.39867014 63.23603297 -50.33324119 60.55600657 -50.25 57.875 C-53.41794899 57.92749744 -56.58329878 58.02270488 -59.75 58.125 C-60.636875 58.13917969 -61.52375 58.15335937 -62.4375 58.16796875 C-69.75527227 58.4370045 -75.48138999 59.96067367 -80.625 65.375 C-84.31895641 71.05800986 -84.86283877 75.93359561 -85.58984375 82.66015625 C-86.25525038 85.90056844 -86.60074958 87.00417131 -89.25 88.875 C-92.29655567 89.91724273 -93.83794654 89.9995743 -96.9375 89.0625 C-99.25 87.875 -99.25 87.875 -101.25 85.875 C-101.47820146 83.28476524 -101.58293328 80.84006373 -101.5625 78.25 C-101.55686035 77.52159912 -101.5512207 76.79319824 -101.54541016 76.04272461 C-101.42414658 70.68371481 -100.92327537 66.51272773 -98.25 61.875 C-97.8478125 61.14023438 -97.445625 60.40546875 -97.03125 59.6484375 C-91.86027801 51.05887847 -84.80014513 45.74004354 -75.25 42.875 C-71.89776966 42.09679766 -68.82539448 41.75515875 -65.38671875 41.77734375 C-64.05737305 41.78217773 -64.05737305 41.78217773 -62.70117188 41.78710938 C-61.3331543 41.79967773 -61.3331543 41.79967773 -59.9375 41.8125 C-59.00615234 41.81701172 -58.07480469 41.82152344 -57.11523438 41.82617188 C-54.82675627 41.83790766 -52.53841192 41.85432637 -50.25 41.875 C-50.27094727 41.2358667 -50.29189453 40.5967334 -50.31347656 39.93823242 C-51.06275841 13.6398624 -51.06275841 13.6398624 -43.0625 3.5 C-31.17614097 -8.97555355 -13.94915983 -9.1206045 0 0 Z M-32.0625 15.9375 C-34.22656092 19.46833624 -34.38366299 22.39891875 -34.41113281 26.44458008 C-34.42074036 27.58619095 -34.4303479 28.72780182 -34.44024658 29.90400696 C-34.44449646 31.13837997 -34.44874634 32.37275299 -34.453125 33.64453125 C-34.45882507 34.91342697 -34.46452515 36.18232269 -34.47039795 37.4896698 C-34.47985201 40.17715033 -34.48674671 42.86451909 -34.49023438 45.55200195 C-34.49571164 48.98513066 -34.51972702 52.41786127 -34.54820633 55.85086536 C-34.57138392 59.13622361 -34.57328593 62.4216027 -34.578125 65.70703125 C-34.5904718 66.93533157 -34.6028186 68.1636319 -34.61553955 69.42915344 C-34.66886898 77.59532026 -34.66886898 77.59532026 -31.25 84.875 C-26.66145118 89.01588552 -23.72509462 90.30897898 -17.63671875 90.2109375 C-13.66916029 89.65249228 -10.75708086 87.99261351 -8.25 84.875 C-5.04377478 78.03558491 -4.81078508 72.04823353 -4.8515625 64.5625 C-4.84869232 63.39420654 -4.84582214 62.22591309 -4.84286499 61.0222168 C-4.84083085 58.56135572 -4.84631502 56.10047824 -4.85888672 53.63964844 C-4.87494864 49.88699971 -4.85901483 46.13542799 -4.83984375 42.3828125 C-4.8418263 39.98437264 -4.8456702 37.58593344 -4.8515625 35.1875 C-4.84548981 34.07270264 -4.83941711 32.95790527 -4.8331604 31.80932617 C-4.89007913 25.46110008 -5.47862851 20.62180086 -8.25 14.875 C-12.03138538 11.18814925 -14.78410914 9.99515499 -20.0625 9.5625 C-25.35711544 9.63062924 -28.61224936 12.01135272 -32.0625 15.9375 Z M68.75 12.875 C65.04712677 17.67872744 63.63426061 21.22980997 63.57299805 27.22924805 C63.56016281 28.32436203 63.54732758 29.41947601 63.53410339 30.54777527 C63.52671646 31.73212662 63.51932953 32.91647797 63.51171875 34.13671875 C63.503647 35.35647903 63.49557526 36.57623932 63.48725891 37.83296204 C63.4734177 40.41784239 63.46269572 43.00274103 63.45483398 45.58764648 C63.43764396 49.52948958 63.39375868 53.47048913 63.34960938 57.41210938 C63.33948037 59.924473 63.33096492 62.43684376 63.32421875 64.94921875 C63.30671066 66.12344894 63.28920258 67.29767914 63.27116394 68.50749207 C63.28944958 75.45077873 63.98387015 79.98599408 67.75 85.875 C71.11815257 89.00816518 73.73912059 90.13239808 78.25 90.375 C82.7047639 90.16501113 85.32962946 88.80674618 88.75 85.875 C92.2691694 81.87042792 92.87557032 78.54294167 92.91113281 73.30541992 C92.92074036 72.16380905 92.9303479 71.02219818 92.94024658 69.84599304 C92.94449646 68.61162003 92.94874634 67.37724701 92.953125 66.10546875 C92.96167511 64.20212517 92.96167511 64.20212517 92.97039795 62.2603302 C92.97985201 59.57284967 92.98674671 56.88548091 92.99023438 54.19799805 C92.99571164 50.76486934 93.01972702 47.33213873 93.04820633 43.89913464 C93.07138392 40.61377639 93.07328593 37.3283973 93.078125 34.04296875 C93.0904718 32.81466843 93.1028186 31.5863681 93.11553955 30.32084656 C93.16886898 22.15467974 93.16886898 22.15467974 89.75 14.875 C85.391611 10.94181969 82.78949018 9.55634982 76.84375 9.6640625 C73.56367001 9.99451832 71.46133442 11.02636289 68.75 12.875 Z M163.75 16.875 C162.68578815 20.06763554 162.61044529 22.37993577 162.58886719 25.73583984 C162.57925964 26.94074066 162.5696521 28.14564148 162.55975342 29.38705444 C162.55550354 30.69018585 162.55125366 31.99331726 162.546875 33.3359375 C162.54112069 34.68730674 162.53536299 36.03867596 162.52960205 37.39004517 C162.51910236 40.2229246 162.51325292 43.05577573 162.50976562 45.88867188 C162.50428227 49.51246002 162.48025378 53.13587218 162.45179367 56.75954247 C162.43313811 59.55114829 162.42796016 62.34266405 162.42642975 65.13432693 C162.42194395 67.11794638 162.40331245 69.10151756 162.38446045 71.08505249 C162.38746155 72.29625763 162.39046265 73.50746277 162.39355469 74.75537109 C162.38990906 75.81887787 162.38626343 76.88238464 162.38250732 77.9781189 C162.80882087 81.3386747 163.74201913 83.16640008 165.75 85.875 C170.94799393 89.64609363 174.35896864 90.68655954 180.75 89.875 C185.32366584 87.58816708 188.83775192 84.68123319 190.75 79.875 C191.34818601 75.37592325 191.31032007 70.90819505 191.28125 66.375 C191.28699036 64.41143555 191.28699036 64.41143555 191.29284668 62.40820312 C191.29872605 59.64433804 191.29023041 56.88099198 191.27148438 54.1171875 C191.24869442 50.58637169 191.26182609 47.05677223 191.28577423 43.52600098 C191.30375956 40.14223823 191.29114232 36.75879724 191.28125 33.375 C191.28934692 32.11236328 191.29744385 30.84972656 191.30578613 29.54882812 C191.24432771 20.90016535 191.24432771 20.90016535 186.75 13.875 C182.81999035 10.48090076 179.80440616 9.21731555 174.70703125 9.48046875 C170.3058359 10.36773568 166.5675202 13.46431766 163.75 16.875 Z M262.9375 15.9375 C260.77343908 19.46833624 260.61633701 22.39891875 260.58886719 26.44458008 C260.57925964 27.58619095 260.5696521 28.72780182 260.55975342 29.90400696 C260.55550354 31.13837997 260.55125366 32.37275299 260.546875 33.64453125 C260.54117493 34.91342697 260.53547485 36.18232269 260.52960205 37.4896698 C260.52014799 40.17715033 260.51325329 42.86451909 260.50976562 45.55200195 C260.50428836 48.98513066 260.48027298 52.41786127 260.45179367 55.85086536 C260.42861608 59.13622361 260.42671407 62.4216027 260.421875 65.70703125 C260.4095282 66.93533157 260.3971814 68.1636319 260.38446045 69.42915344 C260.33113102 77.59532026 260.33113102 77.59532026 263.75 84.875 C268.04289188 88.74907316 270.71597425 90.24163128 276.5859375 90.15625 C280.40877839 89.65941869 282.62536698 88.14189062 285.75 85.875 C289.18666803 81.29277596 289.86982614 77.1968922 289.91113281 71.57495117 C289.92074036 70.51672653 289.9303479 69.45850189 289.94024658 68.36820984 C289.94449646 67.22963028 289.94874634 66.09105072 289.953125 64.91796875 C289.96167511 63.15348137 289.96167511 63.15348137 289.97039795 61.35334778 C289.97984246 58.86439919 289.98637975 56.37543813 289.99023438 53.88647461 C289.99993614 50.08750488 290.03096411 46.28907707 290.0625 42.49023438 C290.06903071 40.07031571 290.07428091 37.65039318 290.078125 35.23046875 C290.0904718 34.09796188 290.1028186 32.96545502 290.11553955 31.79862976 C290.09384848 24.08173866 289.45611935 18.98703726 284.25 13 C280.61345171 9.90893396 277.53733771 9.52904621 272.8125 9.58984375 C268.5204009 10.18325897 265.70572503 12.78745083 262.9375 15.9375 Z M-86.25 145.875 C-86.25 169.305 -86.25 192.735 -86.25 216.875 C-62.16 216.875 -38.07 216.875 -13.25 216.875 C-13.25 193.445 -13.25 170.015 -13.25 145.875 C-37.34 145.875 -61.43 145.875 -86.25 145.875 Z M2.75 145.875 C2.75 169.305 2.75 192.735 2.75 216.875 C26.84 216.875 50.93 216.875 75.75 216.875 C75.75 193.445 75.75 170.015 75.75 145.875 C51.66 145.875 27.57 145.875 2.75 145.875 Z M90.75 145.875 C90.75 169.305 90.75 192.735 90.75 216.875 C114.84 216.875 138.93 216.875 163.75 216.875 C163.75 193.445 163.75 170.015 163.75 145.875 C139.66 145.875 115.57 145.875 90.75 145.875 Z M179.75 145.875 C179.75 169.305 179.75 192.735 179.75 216.875 C198.15470886 218.22685712 198.15470886 218.22685712 210.58984375 209.67578125 C219.9296997 201.01518755 232.98094237 196.20958596 244.75 191.875 C247.39 190.885 250.03 189.895 252.75 188.875 C252.75 174.685 252.75 160.495 252.75 145.875 C228.66 145.875 204.57 145.875 179.75 145.875 Z M268.75 145.875 C268.75 159.075 268.75 172.275 268.75 185.875 C274.8446875 185.7821875 274.8446875 185.7821875 281.0625 185.6875 C302.82133956 185.59725235 320.53641575 190.29490591 340.75 197.875 C340.75 180.715 340.75 163.555 340.75 145.875 C316.99 145.875 293.23 145.875 268.75 145.875 Z M-86.25 232.875 C-86.25 255.975 -86.25 279.075 -86.25 302.875 C-62.16 302.875 -38.07 302.875 -13.25 302.875 C-13.25 279.775 -13.25 256.675 -13.25 232.875 C-37.34 232.875 -61.43 232.875 -86.25 232.875 Z M2.75 232.875 C2.75 255.975 2.75 279.075 2.75 302.875 C26.84 302.875 50.93 302.875 75.75 302.875 C75.75 279.775 75.75 256.675 75.75 232.875 C51.66 232.875 27.57 232.875 2.75 232.875 Z M90.75 232.875 C90.75 255.975 90.75 279.075 90.75 302.875 C113.19 302.875 135.63 302.875 158.75 302.875 C159.74 296.605 160.73 290.335 161.75 283.875 C162.41 281.235 163.07 278.595 163.75 275.875 C164.02787771 273.33954864 164.02787771 273.33954864 163.97705078 271.01953125 C163.97668823 269.71145508 163.97668823 269.71145508 163.97631836 268.37695312 C163.96608643 267.48943359 163.95585449 266.60191406 163.9453125 265.6875 C163.94329834 264.85025391 163.94128418 264.01300781 163.93920898 263.15039062 C163.92883928 260.05853706 163.90091759 256.96676233 163.875 253.875 C163.83375 246.945 163.7925 240.015 163.75 232.875 C139.66 232.875 115.57 232.875 90.75 232.875 Z M179.75 232.875 C179.75 235.185 179.75 237.495 179.75 239.875 C182.27588702 237.51207344 183.63820837 236.21037489 184.75 232.875 C183.1 232.875 181.45 232.875 179.75 232.875 Z M-86.25 318.875 C-86.29125 327.125 -86.3325 335.375 -86.375 343.875 C-86.39320801 346.46472656 -86.41141602 349.05445313 -86.43017578 351.72265625 C-86.43602155 353.79426873 -86.44111691 355.86588352 -86.4453125 357.9375 C-86.45554443 358.99775391 -86.46577637 360.05800781 -86.47631836 361.15039062 C-86.47833652 369.78813659 -85.82195403 376.87025779 -80.25 383.875 C-75.26185308 388.60061287 -70.22864875 390.13282194 -63.42822266 390.10205078 C-61.72388062 390.10168823 -61.72388062 390.10168823 -59.98510742 390.10131836 C-58.21744019 390.08597046 -58.21744019 390.08597046 -56.4140625 390.0703125 C-55.31924561 390.06829834 -54.22442871 390.06628418 -53.09643555 390.06420898 C-49.02258083 390.05377694 -44.94878603 390.02585441 -40.875 390 C-27.200625 389.938125 -27.200625 389.938125 -13.25 389.875 C-13.25 366.445 -13.25 343.015 -13.25 318.875 C-37.34 318.875 -61.43 318.875 -86.25 318.875 Z M2.75 318.875 C2.75 342.305 2.75 365.735 2.75 389.875 C26.84 389.875 50.93 389.875 75.75 389.875 C75.75 366.445 75.75 343.015 75.75 318.875 C51.66 318.875 27.57 318.875 2.75 318.875 Z M90.75 318.875 C90.75 342.305 90.75 365.735 90.75 389.875 C121.77 389.875 152.79 389.875 184.75 389.875 C182.44 386.245 180.13 382.615 177.75 378.875 C167.42026556 361.27313251 160.36628677 342.17937591 158.9609375 321.66796875 C158.93522093 319.85367283 158.93522093 319.85367283 157.75 318.875 C155.66380978 318.78082227 153.57439523 318.75757122 151.48608398 318.76147461 C150.48972852 318.76129381 150.48972852 318.76129381 149.47324467 318.76110935 C147.31416079 318.76185824 145.15516227 318.76948532 142.99609375 318.77734375 C141.02195496 318.77885437 141.02195496 318.77885437 139.00793457 318.78039551 C134.06778091 318.78564752 129.12763963 318.79960861 124.1875 318.8125 C113.153125 318.833125 102.11875 318.85375 90.75 318.875 Z " fill="#1F686A" transform="translate(101.25,40.125)"/>
<path d="M0 0 C4.27846709 3.38895761 8.16993128 7.11770307 12 11 C12.99773437 11.99966797 12.99773437 11.99966797 14.015625 13.01953125 C32.62160826 32.92458091 37.99094837 58.67704857 37.18359375 85.00488281 C35.68916826 109.38468591 21.84185774 131.98730751 4 148 C-7.17659273 157.19964726 -21.02217271 163.52383876 -35 167 C-36.26070312 167.33644531 -36.26070312 167.33644531 -37.546875 167.6796875 C-61.59716646 173.13208277 -87.38088702 166.76040713 -108 154 C-127.99458229 140.10995832 -143.3785969 119.1474361 -148 95 C-151.58553024 71.09964798 -149.16526908 48.18968954 -136.5625 27.09375 C-134.88397788 24.84453036 -133.41082914 23.43446647 -131 22 C-127.60314182 22.11918801 -125.05999385 22.41871305 -122.0625 24.0625 C-120.32652294 27.22810523 -120.57035198 30.51040109 -121 34 C-121.99753452 36.90151082 -123.37801205 39.54277553 -124.8125 42.25 C-134.12081611 60.97035171 -134.93222491 80.79688308 -128.875 100.6875 C-124.61486966 112.5211954 -117.82203411 122.13217679 -109 131 C-108.33742188 131.69738281 -107.67484375 132.39476562 -106.9921875 133.11328125 C-93.51694546 146.30672165 -73.24520915 152.27456978 -54.8112793 152.24658203 C-34.26568007 151.92757134 -16.15719295 143.71210105 -1.25 129.8125 C13.52323786 114.22456152 20.5743893 94.22857828 20.41723633 72.94287109 C19.85059097 52.99766958 11.74772878 34.67156846 -2.41015625 20.60546875 C-18.15247807 5.93372214 -37.53828744 -1.80161336 -59.20703125 -1.28515625 C-74.23029657 -0.15570376 -87.90939396 4.14546672 -100.06860352 13.05322266 C-104.1777915 15.94009978 -107.02983903 16.50421923 -112 16 C-114.375 14.9375 -114.375 14.9375 -116 13 C-117.0625 9.6875 -117.0625 9.6875 -117 6 C-111.42902692 -4.07060518 -95.47469332 -10.66075213 -85 -14 C-55.60452946 -22.21822304 -24.95612647 -18.12588227 0 0 Z " fill="#1F686A" transform="translate(442,276)"/>
<path d="M0 0 C3.55484581 0.68071515 4.714546 1.76322459 6.9375 4.5625 C8.20122044 7.08994088 8.05772795 8.82630308 8.05102539 11.65478516 C8.05094986 12.71573395 8.05087433 13.77668274 8.05079651 14.86978149 C8.04563522 16.01876923 8.04047394 17.16775696 8.03515625 18.3515625 C8.0337413 19.52512299 8.03232635 20.69868347 8.03086853 21.9078064 C8.02525689 25.66772985 8.01270238 29.42759445 8 33.1875 C7.9949865 35.73176998 7.99042333 38.27604088 7.98632812 40.8203125 C7.97528368 47.06772853 7.95853418 53.31511006 7.9375 59.5625 C8.60513367 59.55361755 9.27276733 59.54473511 9.96063232 59.5355835 C16.90335538 59.44715527 23.84591871 59.38678424 30.7890625 59.34277344 C33.38092546 59.32264625 35.97274296 59.29534184 38.56445312 59.26074219 C42.28787449 59.21227499 46.01069599 59.18954184 49.734375 59.171875 C51.47518341 59.14090729 51.47518341 59.14090729 53.25115967 59.10931396 C54.87238739 59.10886078 54.87238739 59.10886078 56.52636719 59.10839844 C57.95199982 59.09507477 57.95199982 59.09507477 59.40643311 59.08148193 C62.69532249 59.70652081 63.85884799 60.99624565 65.9375 63.5625 C67.19081017 66.82110644 67.17029906 68.03563898 65.75 71.25 C63.80350687 73.73345675 62.83625439 74.44611989 59.9375 75.5625 C57.1363678 75.82319641 57.1363678 75.82319641 53.87133789 75.8371582 C52.64649185 75.84669022 51.42164581 75.85622223 50.15968323 75.86604309 C48.83983932 75.86513168 47.51999542 75.86422028 46.16015625 75.86328125 C44.78779471 75.86717027 43.41543436 75.87150537 42.04307556 75.87626648 C39.16905818 75.88372059 36.29516366 75.88344335 33.42114258 75.87817383 C29.74466489 75.87238026 26.06869117 75.88931077 22.39229679 75.9125185 C19.55864031 75.92727614 16.72510465 75.92812481 13.89141655 75.92500877 C11.87900957 75.9257694 9.86662129 75.93962596 7.85426331 75.95368958 C6.62626511 75.94746078 5.39826691 75.94123199 4.13305664 75.93481445 C3.05480118 75.93544388 1.97654572 75.9360733 0.86561584 75.9367218 C-2.47805014 75.50939147 -4.36323814 74.55005755 -7.0625 72.5625 C-8.44306765 69.80136471 -8.22036435 67.53806248 -8.25537109 64.44799805 C-8.27143402 63.16293869 -8.28749695 61.87787933 -8.30404663 60.55387878 C-8.3155335 59.14399882 -8.32614214 57.73411148 -8.3359375 56.32421875 C-8.34126118 55.6151771 -8.34658485 54.90613544 -8.35206985 54.17560768 C-8.37879622 50.42217719 -8.39817213 46.66877988 -8.41259766 42.9152832 C-8.42923919 39.04125605 -8.47401255 35.16808069 -8.5249691 31.29437542 C-8.55865139 28.31318706 -8.57017603 25.33220061 -8.57582474 22.35083961 C-8.58253531 20.92307848 -8.59775273 19.49533055 -8.62171555 18.06775475 C-8.65337951 16.06713253 -8.65040125 14.06605347 -8.64599609 12.06518555 C-8.65408295 10.927603 -8.6621698 9.79002045 -8.67050171 8.6179657 C-7.68822675 3.68161866 -4.93828396 0.90703175 0 0 Z " fill="#1F686A" transform="translate(386.0625,295.4375)"/>
</svg>